<svg width="400" height="68" viewBox="0 0 400 68" fill="none" xmlns="http://www.w3.org/2000/svg">
<g clip-path="url(#clip0_136_326)">
<path d="M105.48 54.64C102.307 54.64 99.5533 54.1733 97.22 53.24C94.9333 52.3067 93.02 51 91.48 49.32C89.9867 47.5933 88.8667 45.5867 88.12 43.3C87.3733 41.0133 87 38.54 87 35.88C87 33.0333 87.3733 30.42 88.12 28.04C88.9133 25.66 90.08 23.5833 91.62 21.81C93.16 20.0367 95.05 18.66 97.29 17.68C99.5767 16.7 102.19 16.21 105.13 16.21C108.07 16.21 110.613 16.7 112.76 17.68C114.953 18.66 116.727 20.0367 118.08 21.81C119.433 23.5367 120.343 25.5667 120.81 27.9L112.55 30.49C112.457 29.09 112.083 27.8533 111.43 26.78C110.777 25.66 109.89 24.7967 108.77 24.19C107.65 23.5833 106.32 23.28 104.78 23.28C103.287 23.28 101.98 23.5833 100.86 24.19C99.7867 24.75 98.8767 25.5667 98.13 26.64C97.43 27.7133 96.87 29.02 96.45 30.56C96.0767 32.0533 95.89 33.7333 95.89 35.6C95.89 38.1667 96.24 40.36 96.94 42.18C97.64 44 98.7133 45.4233 100.16 46.45C101.607 47.43 103.403 47.92 105.55 47.92C107.463 47.92 109.003 47.57 110.17 46.87C111.383 46.1233 112.293 45.1667 112.9 44C113.553 42.8333 113.95 41.55 114.09 40.15L121.93 41.9C121.65 43.8133 121.113 45.54 120.32 47.08C119.527 48.62 118.43 49.9733 117.03 51.14C115.677 52.26 114.043 53.1233 112.13 53.73C110.217 54.3367 108 54.64 105.48 54.64Z" fill="#5EEAD4"/>
<path d="M141.64 54.64C138.047 54.64 134.873 53.9167 132.12 52.47C129.367 50.9767 127.197 48.8067 125.61 45.96C124.07 43.0667 123.3 39.52 123.3 35.32C123.3 31.0267 124.093 27.48 125.68 24.68C127.313 21.8333 129.507 19.71 132.26 18.31C135.013 16.91 138.117 16.21 141.57 16.21C145.163 16.21 148.337 16.9333 151.09 18.38C153.843 19.8267 156.013 21.9967 157.6 24.89C159.187 27.7367 159.98 31.2833 159.98 35.53C159.98 39.8233 159.187 43.3933 157.6 46.24C156.013 49.0867 153.82 51.21 151.02 52.61C148.267 53.9633 145.14 54.64 141.64 54.64ZM141.99 47.92C143.95 47.92 145.607 47.4767 146.96 46.59C148.313 45.6567 149.34 44.28 150.04 42.46C150.787 40.64 151.16 38.47 151.16 35.95C151.16 33.29 150.763 31.0267 149.97 29.16C149.223 27.2467 148.127 25.7767 146.68 24.75C145.28 23.7233 143.507 23.21 141.36 23.21C139.493 23.21 137.86 23.6767 136.46 24.61C135.06 25.4967 133.987 26.8267 133.24 28.6C132.54 30.3733 132.19 32.5667 132.19 35.18C132.19 39.2867 133.053 42.4367 134.78 44.63C136.553 46.8233 138.957 47.92 141.99 47.92Z" fill="#5EEAD4"/>
<path d="M165.119 53.73V17.12H172.329L172.119 28.32H173.379C174.033 25.6133 174.873 23.3733 175.899 21.6C176.973 19.78 178.279 18.4267 179.819 17.54C181.359 16.6533 183.133 16.21 185.139 16.21C187.379 16.21 189.223 16.7233 190.669 17.75C192.116 18.7767 193.213 20.2 193.959 22.02C194.753 23.7933 195.243 25.87 195.429 28.25H196.549C197.156 25.5433 198.019 23.3033 199.139 21.53C200.306 19.7567 201.706 18.4267 203.339 17.54C205.019 16.6533 206.863 16.21 208.869 16.21C210.829 16.21 212.556 16.6067 214.049 17.4C215.543 18.1933 216.779 19.36 217.759 20.9C218.786 22.3933 219.533 24.2833 219.999 26.57C220.513 28.8567 220.769 31.4933 220.769 34.48V53.73H211.879V35.6C211.879 32.9867 211.646 30.8167 211.179 29.09C210.759 27.3633 210.083 26.08 209.149 25.24C208.263 24.3533 207.096 23.91 205.649 23.91C204.016 23.91 202.593 24.4467 201.379 25.52C200.166 26.5933 199.209 28.11 198.509 30.07C197.809 31.9833 197.389 34.1767 197.249 36.65V53.73H188.569V36.02C188.569 33.3133 188.336 31.0733 187.869 29.3C187.403 27.48 186.703 26.1267 185.769 25.24C184.836 24.3533 183.646 23.91 182.199 23.91C180.519 23.91 179.073 24.47 177.859 25.59C176.693 26.71 175.759 28.25 175.059 30.21C174.406 32.17 174.033 34.3633 173.939 36.79V53.73H165.119Z" fill="#5EEAD4"/>
<path d="M227.329 53.73V17.12H234.539L234.329 28.32H235.589C236.243 25.6133 237.083 23.3733 238.109 21.6C239.183 19.78 240.489 18.4267 242.029 17.54C243.569 16.6533 245.343 16.21 247.349 16.21C249.589 16.21 251.433 16.7233 252.879 17.75C254.326 18.7767 255.423 20.2 256.169 22.02C256.963 23.7933 257.453 25.87 257.639 28.25H258.759C259.366 25.5433 260.229 23.3033 261.349 21.53C262.516 19.7567 263.916 18.4267 265.549 17.54C267.229 16.6533 269.073 16.21 271.079 16.21C273.039 16.21 274.766 16.6067 276.259 17.4C277.753 18.1933 278.989 19.36 279.969 20.9C280.996 22.3933 281.743 24.2833 282.209 26.57C282.723 28.8567 282.979 31.4933 282.979 34.48V53.73H274.089V35.6C274.089 32.9867 273.856 30.8167 273.389 29.09C272.969 27.3633 272.293 26.08 271.359 25.24C270.473 24.3533 269.306 23.91 267.859 23.91C266.226 23.91 264.803 24.4467 263.589 25.52C262.376 26.5933 261.419 28.11 260.719 30.07C260.019 31.9833 259.599 34.1767 259.459 36.65V53.73H250.779V36.02C250.779 33.3133 250.546 31.0733 250.079 29.3C249.613 27.48 248.913 26.1267 247.979 25.24C247.046 24.3533 245.856 23.91 244.409 23.91C242.729 23.91 241.283 24.47 240.069 25.59C238.903 26.71 237.969 28.25 237.269 30.21C236.616 32.17 236.243 34.3633 236.149 36.79V53.73H227.329Z" fill="#5EEAD4"/>
<path d="M301.649 54.64C297.449 54.64 294.276 53.2167 292.129 50.37C290.029 47.4767 288.979 43.1133 288.979 37.28V17.12H297.869V36.3C297.869 39.9867 298.429 42.74 299.549 44.56C300.669 46.38 302.396 47.29 304.729 47.29C306.082 47.29 307.272 46.9633 308.299 46.31C309.326 45.61 310.212 44.6533 310.959 43.44C311.706 42.18 312.289 40.7333 312.709 39.1C313.176 37.4667 313.456 35.67 313.549 33.71V17.12H322.369V53.73H315.089L315.229 42.18H313.969C313.362 45.12 312.499 47.5 311.379 49.32C310.306 51.14 308.976 52.4933 307.389 53.38C305.802 54.22 303.889 54.64 301.649 54.64Z" fill="#5EEAD4"/>
<path d="M342.41 54.57C338.537 54.57 335.69 53.5433 333.87 51.49C332.05 49.39 331.14 46.1467 331.14 41.76V24.19H325.75L325.89 17.19H329.46C330.814 17.19 331.817 16.98 332.47 16.56C333.124 16.14 333.52 15.3933 333.66 14.32L334.5 9H339.61V17.12H349.27V24.47H339.61V41.41C339.61 43.1367 340.007 44.3967 340.8 45.19C341.64 45.9833 342.877 46.38 344.51 46.38C345.397 46.38 346.26 46.2867 347.1 46.1C347.987 45.8667 348.804 45.4933 349.55 44.98V53.38C348.104 53.8467 346.774 54.15 345.56 54.29C344.394 54.4767 343.344 54.57 342.41 54.57Z" fill="#5EEAD4"/>
<path d="M369.906 54.64C366.312 54.64 363.139 53.9167 360.386 52.47C357.632 50.9767 355.462 48.8067 353.876 45.96C352.336 43.0667 351.566 39.52 351.566 35.32C351.566 31.0267 352.359 27.48 353.946 24.68C355.579 21.8333 357.772 19.71 360.526 18.31C363.279 16.91 366.382 16.21 369.836 16.21C373.429 16.21 376.602 16.9333 379.356 18.38C382.109 19.8267 384.279 21.9967 385.866 24.89C387.452 27.7367 388.246 31.2833 388.246 35.53C388.246 39.8233 387.452 43.3933 385.866 46.24C384.279 49.0867 382.086 51.21 379.286 52.61C376.532 53.9633 373.406 54.64 369.906 54.64ZM370.256 47.92C372.216 47.92 373.872 47.4767 375.226 46.59C376.579 45.6567 377.606 44.28 378.306 42.46C379.052 40.64 379.426 38.47 379.426 35.95C379.426 33.29 379.029 31.0267 378.236 29.16C377.489 27.2467 376.392 25.7767 374.946 24.75C373.546 23.7233 371.772 23.21 369.626 23.21C367.759 23.21 366.126 23.6767 364.726 24.61C363.326 25.4967 362.252 26.8267 361.506 28.6C360.806 30.3733 360.456 32.5667 360.456 35.18C360.456 39.2867 361.319 42.4367 363.046 44.63C364.819 46.8233 367.222 47.92 370.256 47.92Z" fill="#5EEAD4"/>
<path d="M71.0805 32.5898C71.0805 39.001 69.1045 45.2563 65.4214 50.5039C61.7385 55.7516 56.5275 59.7366 50.4982 61.9161C44.469 64.0957 37.9145 64.364 31.7273 62.6844C25.5401 61.0048 20.0209 57.459 15.9214 52.5299L26.0349 44.1185C28.4052 46.9684 31.5962 49.0185 35.1734 49.9896C38.7507 50.9606 42.5403 50.8056 46.0262 49.5454C49.5122 48.2852 52.525 45.9812 54.6544 42.9472C56.7838 39.9132 57.9263 36.2965 57.9263 32.5898H71.0805Z" fill="#F5F5F5"/>
<path d="M64.5035 38.9709C68.1361 38.9709 71.0808 36.0262 71.0808 32.3937C71.0808 28.7611 68.1361 25.8164 64.5035 25.8164C60.871 25.8164 57.9263 28.7611 57.9263 32.3937C57.9263 36.0262 60.871 38.9709 64.5035 38.9709Z" fill="#F5F5F5"/>
<path d="M57.328 19.1472C61.5054 19.1472 64.8919 15.7608 64.8919 11.5834C64.8919 7.40598 61.5054 4.01953 57.328 4.01953C53.1506 4.01953 49.7642 7.40598 49.7642 11.5834C49.7642 15.7608 53.1506 19.1472 57.328 19.1472Z" fill="#F5F5F5"/>
<path d="M50.4865 53.5971C50.7008 54.0418 51.2351 54.2286 51.6799 54.0143C52.1246 53.7999 52.3114 53.2656 52.0971 52.8209C51.8827 52.3762 51.3484 52.1894 50.9037 52.4037C50.459 52.618 50.2722 53.1523 50.4865 53.5971Z" fill="#2DD4BF"/>
<path d="M53.2599 53.9078C53.5196 54.3276 54.0705 54.4574 54.4903 54.1977C54.9102 53.938 55.04 53.3871 54.7803 52.9673C54.5206 52.5474 53.9697 52.4176 53.5498 52.6773C53.13 52.937 53.0002 53.4879 53.2599 53.9078Z" fill="#2DD4BF"/>
<path d="M54.1417 55.3316C54.4014 55.7514 54.9523 55.8813 55.3722 55.6216C55.792 55.3618 55.9219 54.8109 55.6621 54.3911C55.4024 53.9712 54.8515 53.8414 54.4317 54.1011C54.0118 54.3608 53.882 54.9117 54.1417 55.3316Z" fill="#2DD4BF"/>
<path d="M55.046 56.7945C55.3057 57.2143 55.8566 57.3442 56.2765 57.0844C56.6963 56.8247 56.8262 56.2738 56.5664 55.854C56.3067 55.4341 55.7558 55.3043 55.336 55.564C54.9161 55.8237 54.7863 56.3746 55.046 56.7945Z" fill="#2DD4BF"/>
<path d="M55.9503 58.2554C56.21 58.6753 56.7609 58.8051 57.1808 58.5454C57.6006 58.2857 57.7305 57.7348 57.4707 57.3149C57.211 56.8951 56.6601 56.7652 56.2403 57.0249C55.8204 57.2847 55.6906 57.8356 55.9503 58.2554Z" fill="#2DD4BF"/>
<path d="M8.71338 32.5898C8.71338 39.9531 11.3189 47.0788 16.0687 52.7053L26.1203 44.22C23.374 40.9669 21.8676 36.8471 21.8676 32.5898H8.71338Z" fill="#2DD4BF"/>
<path d="M17.1143 35.4941C17.6098 39.3814 19.0917 43.0772 21.419 46.2299C23.7463 49.3827 26.8415 51.8875 30.4103 53.5061C33.9791 55.1247 37.9026 55.8033 41.8077 55.4773C44.8218 55.2256 47.7475 54.3817 50.4205 53.0037L51.0707 54.0439C51.6906 53.8004 53.0054 53.2125 53.4661 52.7513L57.3084 58.4601C52.8944 61.4309 47.7936 63.223 42.4913 63.6657C37.1892 64.1084 31.8619 63.187 27.0163 60.9893C22.1707 58.7916 17.9681 55.3906 14.8082 51.1099C11.6483 46.8291 9.63616 41.8111 8.96338 36.5331L17.1143 35.4941Z" fill="#2DD4BF"/>
<path d="M15.2906 39.1096C18.9232 39.1096 21.8679 36.1649 21.8679 32.5323C21.8679 28.8998 18.9232 25.9551 15.2906 25.9551C11.6581 25.9551 8.71338 28.8998 8.71338 32.5323C8.71338 36.1649 11.6581 39.1096 15.2906 39.1096Z" fill="#2DD4BF"/>
<path d="M22.5346 19.284C26.712 19.284 30.0984 15.8975 30.0984 11.7201C30.0984 7.5427 26.712 4.15625 22.5346 4.15625C18.3572 4.15625 14.9707 7.5427 14.9707 11.7201C14.9707 15.8975 18.3572 19.284 22.5346 19.284Z" fill="#2DD4BF"/>
<path d="M22.3334 48.7176C22.692 49.057 23.2578 49.0414 23.5971 48.6828C23.9365 48.3243 23.9209 47.7585 23.5623 47.4191C23.2038 47.0798 22.638 47.0954 22.2986 47.4539C21.9593 47.8125 21.9748 48.3783 22.3334 48.7176Z" fill="#F5F5F5"/>
<path d="M23.5507 49.868C23.9093 50.2074 24.475 50.1918 24.8144 49.8332C25.1538 49.4747 25.1382 48.9089 24.7796 48.5695C24.421 48.2302 23.8553 48.2458 23.5159 48.6043C23.1766 48.9629 23.1921 49.5287 23.5507 49.868Z" fill="#F5F5F5"/>
<path d="M24.7992 51.0497C25.1578 51.389 25.7236 51.3734 26.0629 51.0149C26.4023 50.6563 26.3867 50.0905 26.0281 49.7512C25.6696 49.4118 25.1038 49.4274 24.7644 49.786C24.4251 50.1445 24.4407 50.7103 24.7992 51.0497Z" fill="#F5F5F5"/>
<path d="M26.0478 52.2313C26.4063 52.5707 26.9721 52.5551 27.3115 52.1965C27.6508 51.8379 27.6353 51.2722 27.2767 50.9328C26.9181 50.5935 26.3523 50.609 26.013 50.9676C25.6736 51.3262 25.6892 51.8919 26.0478 52.2313Z" fill="#F5F5F5"/>
</g>
<defs>
<clipPath id="clip0_136_326">
<rect width="400" height="68" fill="white"/>
</clipPath>
</defs>
</svg>
