<svg width="164" height="164" viewBox="0 0 164 164" fill="none" xmlns="http://www.w3.org/2000/svg">
<g clip-path="url(#clip0_136_464)">
<rect width="164" height="164" rx="28" fill="#F5F5F5"/>
<path d="M137.945 78.4629C137.945 90.0029 134.388 101.262 127.759 110.708C121.129 120.154 111.75 127.327 100.897 131.25C90.0444 135.173 78.2462 135.656 67.1093 132.633C55.9723 129.61 46.0379 123.227 38.6587 114.355L56.8631 99.2145C61.1295 104.344 66.8733 108.034 73.3124 109.782C79.7514 111.53 86.5727 111.251 92.8474 108.983C99.1221 106.715 104.545 102.567 108.378 97.1062C112.211 91.6449 114.267 85.1349 114.267 78.4629H137.945Z" fill="#5EEAD4"/>
<path d="M126.107 89.9496C132.645 89.9496 137.946 84.6491 137.946 78.1106C137.946 71.572 132.645 66.2715 126.107 66.2715C119.568 66.2715 114.268 71.572 114.268 78.1106C114.268 84.6491 119.568 89.9496 126.107 89.9496Z" fill="#5EEAD4"/>
<path d="M113.191 54.265C120.71 54.265 126.806 48.1694 126.806 40.6501C126.806 33.1308 120.71 27.0352 113.191 27.0352C105.671 27.0352 99.5757 33.1308 99.5757 40.6501C99.5757 48.1694 105.671 54.265 113.191 54.265Z" fill="#5EEAD4"/>
<path d="M100.876 116.274C101.261 117.075 102.223 117.411 103.024 117.025C103.824 116.639 104.16 115.678 103.775 114.877C103.389 114.077 102.427 113.74 101.627 114.126C100.826 114.512 100.49 115.474 100.876 116.274Z" fill="#001312"/>
<path d="M105.868 116.833C106.335 117.589 107.327 117.822 108.083 117.355C108.839 116.887 109.072 115.896 108.605 115.14C108.137 114.384 107.146 114.15 106.39 114.618C105.634 115.085 105.4 116.077 105.868 116.833Z" fill="#001312"/>
<path d="M107.455 119.397C107.922 120.153 108.914 120.387 109.67 119.919C110.425 119.452 110.659 118.46 110.192 117.704C109.724 116.949 108.733 116.715 107.977 117.182C107.221 117.65 106.987 118.642 107.455 119.397Z" fill="#001312"/>
<path d="M109.083 122.03C109.55 122.786 110.542 123.019 111.298 122.552C112.053 122.085 112.287 121.093 111.82 120.337C111.352 119.581 110.36 119.348 109.605 119.815C108.849 120.283 108.615 121.274 109.083 122.03Z" fill="#001312"/>
<path d="M110.711 124.661C111.178 125.417 112.17 125.65 112.926 125.183C113.681 124.715 113.915 123.724 113.448 122.968C112.98 122.212 111.988 121.979 111.233 122.446C110.477 122.914 110.243 123.905 110.711 124.661Z" fill="#001312"/>
<path d="M25.6836 78.4629C25.6836 91.7168 30.3736 104.543 38.9231 114.671L57.016 99.3971C52.0728 93.5417 49.3612 86.1259 49.3612 78.4629H25.6836Z" fill="#001312"/>
<path d="M40.806 83.6895C41.6979 90.6865 44.3653 97.3389 48.5544 103.014C52.7435 108.689 58.3149 113.197 64.7387 116.111C71.1625 119.025 78.2249 120.246 85.2541 119.659C90.6795 119.206 95.9457 117.687 100.757 115.207L101.927 117.079C103.043 116.641 105.41 115.582 106.239 114.752L113.155 125.028C105.21 130.376 96.0287 133.601 86.4846 134.398C76.9407 135.195 67.3515 133.537 58.6296 129.581C49.9075 125.625 42.3428 119.503 36.655 111.798C30.9671 104.092 27.3453 95.0599 26.1343 85.5597L40.806 83.6895Z" fill="#001312"/>
<path d="M37.5227 90.1977C44.0612 90.1977 49.3617 84.8971 49.3617 78.3586C49.3617 71.8201 44.0612 66.5195 37.5227 66.5195C30.9841 66.5195 25.6836 71.8201 25.6836 78.3586C25.6836 84.8971 30.9841 90.1977 37.5227 90.1977Z" fill="#001312"/>
<path d="M50.5617 54.5131C58.081 54.5131 64.1766 48.4175 64.1766 40.8981C64.1766 33.3788 58.081 27.2832 50.5617 27.2832C43.0424 27.2832 36.9468 33.3788 36.9468 40.8981C36.9468 48.4175 43.0424 54.5131 50.5617 54.5131Z" fill="#001312"/>
<path d="M50.2002 107.49C50.8457 108.101 51.8641 108.073 52.4749 107.428C53.0857 106.782 53.0577 105.764 52.4123 105.153C51.7669 104.542 50.7485 104.57 50.1376 105.216C49.5268 105.861 49.5548 106.879 50.2002 107.49Z" fill="#5EEAD4"/>
<path d="M52.3917 109.564C53.0371 110.175 54.0555 110.147 54.6663 109.502C55.2772 108.856 55.2491 107.838 54.6037 107.227C53.9583 106.616 52.9399 106.644 52.329 107.29C51.7182 107.935 51.7462 108.954 52.3917 109.564Z" fill="#5EEAD4"/>
<path d="M54.6387 111.691C55.2841 112.302 56.3025 112.274 56.9134 111.629C57.5242 110.983 57.4962 109.965 56.8508 109.354C56.2053 108.743 55.1869 108.771 54.5761 109.417C53.9653 110.062 53.9933 111.081 54.6387 111.691Z" fill="#5EEAD4"/>
<path d="M56.8863 113.818C57.5317 114.429 58.5501 114.401 59.1609 113.756C59.7718 113.11 59.7437 112.092 59.0983 111.481C58.4529 110.87 57.4345 110.898 56.8237 111.544C56.2128 112.189 56.2409 113.207 56.8863 113.818Z" fill="#5EEAD4"/>
</g>
<defs>
<clipPath id="clip0_136_464">
<rect width="164" height="164" fill="white"/>
</clipPath>
</defs>
</svg>
