<svg width="172" height="172" viewBox="0 0 172 172" fill="none" xmlns="http://www.w3.org/2000/svg">
<g clip-path="url(#clip0_136_444)" filter="url(#filter0_d_136_444)">
<rect x="4" width="164" height="164" rx="28" fill="#001312"/>
<path d="M141.945 78.4629C141.945 90.0029 138.388 101.262 131.759 110.708C125.129 120.154 115.75 127.327 104.897 131.25C94.0444 135.173 82.2462 135.656 71.1093 132.633C59.9723 129.61 50.0379 123.227 42.6587 114.355L60.8631 99.2145C65.1295 104.344 70.8733 108.034 77.3124 109.782C83.7514 111.53 90.5727 111.251 96.8474 108.983C103.122 106.715 108.545 102.567 112.378 97.1062C116.211 91.6449 118.267 85.1349 118.267 78.4629H141.945Z" fill="#F5F5F5"/>
<path d="M130.107 89.9496C136.645 89.9496 141.946 84.6491 141.946 78.1106C141.946 71.572 136.645 66.2715 130.107 66.2715C123.568 66.2715 118.268 71.572 118.268 78.1106C118.268 84.6491 123.568 89.9496 130.107 89.9496Z" fill="#F5F5F5"/>
<path d="M117.191 54.265C124.71 54.265 130.806 48.1694 130.806 40.6501C130.806 33.1308 124.71 27.0352 117.191 27.0352C109.671 27.0352 103.576 33.1308 103.576 40.6501C103.576 48.1694 109.671 54.265 117.191 54.265Z" fill="#F5F5F5"/>
<path d="M104.876 116.274C105.261 117.075 106.223 117.411 107.024 117.025C107.824 116.639 108.16 115.678 107.775 114.877C107.389 114.077 106.427 113.74 105.627 114.126C104.826 114.512 104.49 115.474 104.876 116.274Z" fill="#2DD4BF"/>
<path d="M109.868 116.833C110.335 117.589 111.327 117.822 112.083 117.355C112.839 116.887 113.072 115.896 112.605 115.14C112.137 114.384 111.146 114.15 110.39 114.618C109.634 115.085 109.4 116.077 109.868 116.833Z" fill="#2DD4BF"/>
<path d="M111.455 119.397C111.922 120.153 112.914 120.387 113.67 119.919C114.425 119.452 114.659 118.46 114.192 117.704C113.724 116.949 112.733 116.715 111.977 117.182C111.221 117.65 110.987 118.642 111.455 119.397Z" fill="#2DD4BF"/>
<path d="M113.083 122.03C113.55 122.786 114.542 123.019 115.298 122.552C116.053 122.085 116.287 121.093 115.82 120.337C115.352 119.581 114.36 119.348 113.605 119.815C112.849 120.283 112.615 121.274 113.083 122.03Z" fill="#2DD4BF"/>
<path d="M114.711 124.661C115.178 125.417 116.17 125.65 116.926 125.183C117.681 124.715 117.915 123.724 117.448 122.968C116.98 122.212 115.988 121.979 115.233 122.446C114.477 122.914 114.243 123.905 114.711 124.661Z" fill="#2DD4BF"/>
<path d="M29.6836 78.4629C29.6836 91.7168 34.3736 104.543 42.9231 114.671L61.016 99.3971C56.0728 93.5417 53.3612 86.1259 53.3612 78.4629H29.6836Z" fill="#2DD4BF"/>
<path d="M44.806 83.6895C45.6979 90.6865 48.3653 97.3389 52.5544 103.014C56.7435 108.689 62.3149 113.197 68.7387 116.111C75.1625 119.025 82.2249 120.246 89.2541 119.659C94.6795 119.206 99.9457 117.687 104.757 115.207L105.927 117.079C107.043 116.641 109.41 115.582 110.239 114.752L117.155 125.028C109.21 130.376 100.029 133.601 90.4846 134.398C80.9407 135.195 71.3515 133.537 62.6296 129.581C53.9075 125.625 46.3428 119.503 40.655 111.798C34.9671 104.092 31.3453 95.0599 30.1343 85.5597L44.806 83.6895Z" fill="#2DD4BF"/>
<path d="M41.5227 90.1977C48.0612 90.1977 53.3617 84.8971 53.3617 78.3586C53.3617 71.8201 48.0612 66.5195 41.5227 66.5195C34.9841 66.5195 29.6836 71.8201 29.6836 78.3586C29.6836 84.8971 34.9841 90.1977 41.5227 90.1977Z" fill="#2DD4BF"/>
<path d="M54.5617 54.5131C62.081 54.5131 68.1766 48.4175 68.1766 40.8981C68.1766 33.3788 62.081 27.2832 54.5617 27.2832C47.0424 27.2832 40.9468 33.3788 40.9468 40.8981C40.9468 48.4175 47.0424 54.5131 54.5617 54.5131Z" fill="#2DD4BF"/>
<path d="M54.2002 107.49C54.8457 108.101 55.8641 108.073 56.4749 107.428C57.0857 106.782 57.0577 105.764 56.4123 105.153C55.7669 104.542 54.7485 104.57 54.1376 105.216C53.5268 105.861 53.5548 106.879 54.2002 107.49Z" fill="#F5F5F5"/>
<path d="M56.3917 109.564C57.0371 110.175 58.0555 110.147 58.6663 109.502C59.2772 108.856 59.2491 107.838 58.6037 107.227C57.9583 106.616 56.9399 106.644 56.329 107.29C55.7182 107.935 55.7462 108.954 56.3917 109.564Z" fill="#F5F5F5"/>
<path d="M58.6387 111.691C59.2841 112.302 60.3025 112.274 60.9134 111.629C61.5242 110.983 61.4962 109.965 60.8508 109.354C60.2053 108.743 59.1869 108.771 58.5761 109.417C57.9653 110.062 57.9933 111.081 58.6387 111.691Z" fill="#F5F5F5"/>
<path d="M60.8863 113.818C61.5317 114.429 62.5501 114.401 63.1609 113.756C63.7718 113.11 63.7437 112.092 63.0983 111.481C62.4529 110.87 61.4345 110.898 60.8237 111.544C60.2128 112.189 60.2409 113.207 60.8863 113.818Z" fill="#F5F5F5"/>
</g>
<defs>
<filter id="filter0_d_136_444" x="0" y="0" width="172" height="172" filterUnits="userSpaceOnUse" color-interpolation-filters="sRGB">
<feFlood flood-opacity="0" result="BackgroundImageFix"/>
<feColorMatrix in="SourceAlpha" type="matrix" values="0 0 0 0 0 0 0 0 0 0 0 0 0 0 0 0 0 0 127 0" result="hardAlpha"/>
<feOffset dy="4"/>
<feGaussianBlur stdDeviation="2"/>
<feComposite in2="hardAlpha" operator="out"/>
<feColorMatrix type="matrix" values="0 0 0 0 0 0 0 0 0 0 0 0 0 0 0 0 0 0 0.25 0"/>
<feBlend mode="normal" in2="BackgroundImageFix" result="effect1_dropShadow_136_444"/>
<feBlend mode="normal" in="SourceGraphic" in2="effect1_dropShadow_136_444" result="shape"/>
</filter>
<clipPath id="clip0_136_444">
<rect width="164" height="164" fill="white" transform="translate(4)"/>
</clipPath>
</defs>
</svg>
