<svg width="1018" height="1018" viewBox="0 0 1018 1018" fill="none" xmlns="http://www.w3.org/2000/svg">
<path d="M961 488.5C961 581.736 932.263 672.706 878.701 749.022C825.14 825.338 749.358 883.291 661.675 914.988C573.993 946.685 478.671 950.587 388.692 926.161C298.712 901.735 218.448 850.169 158.829 778.485L305.909 656.16C340.379 697.606 386.785 727.419 438.809 741.542C490.832 755.664 545.944 753.409 596.639 735.082C647.335 716.756 691.15 683.25 722.117 639.126C753.085 595.002 769.7 542.406 769.7 488.5H961Z" fill="#5EEAD4"/>
<circle cx="865.352" cy="485.652" r="95.6522" fill="#5EEAD4"/>
<circle cx="761" cy="183" r="110" fill="#5EEAD4"/>
<circle cx="673.213" cy="788.355" r="13" transform="rotate(64.2699 673.213 788.355)" fill="#042F2E"/>
<circle cx="712.895" cy="791.665" r="13" transform="rotate(58.2601 712.895 791.665)" fill="#042F2E"/>
<circle cx="725.716" cy="812.393" r="13" transform="rotate(58.2601 725.716 812.393)" fill="#042F2E"/>
<circle cx="738.867" cy="833.653" r="13" transform="rotate(58.2601 738.867 833.653)" fill="#042F2E"/>
<circle cx="752.019" cy="854.914" r="13" transform="rotate(58.2601 752.019 854.914)" fill="#042F2E"/>
<path d="M54 488.5C54 595.583 91.8923 699.211 160.967 781.036L307.146 657.635C267.208 610.327 245.3 550.412 245.3 488.5H54Z" fill="#042F2E"/>
<path d="M176.178 530.733C183.384 587.265 204.935 641.012 238.78 686.862C272.625 732.712 317.639 769.139 369.539 792.679C421.439 816.218 478.499 826.086 535.29 821.345C579.124 817.685 621.672 805.412 660.545 785.372L670 800.5C679.015 796.958 698.137 788.408 704.837 781.701L760.715 864.724C696.522 907.928 622.342 933.99 545.232 940.428C468.123 946.866 390.649 933.467 320.181 901.506C249.712 869.545 188.594 820.084 142.64 757.83C96.6855 695.576 67.4237 622.599 57.6396 545.843L176.178 530.733Z" fill="#042F2E"/>
<circle cx="149.652" cy="487.652" r="95.6522" fill="#042F2E"/>
<circle cx="255" cy="185" r="110" fill="#042F2E"/>
<circle cx="261.016" cy="713.583" r="13" transform="rotate(43.4232 261.016 713.583)" fill="#5EEAD4"/>
<circle cx="278.718" cy="730.336" r="13" transform="rotate(43.4232 278.718 730.336)" fill="#5EEAD4"/>
<circle cx="296.875" cy="747.52" r="13" transform="rotate(43.4232 296.875 747.52)" fill="#5EEAD4"/>
<circle cx="315.032" cy="764.705" r="13" transform="rotate(43.4232 315.032 764.705)" fill="#5EEAD4"/>
</svg>
