<svg version="1.2" xmlns="http://www.w3.org/2000/svg" viewBox="0 0 1000 1000" width="1000" height="1000">
	<title>7784318</title>
	<style>
		.s0 { fill: #ccfbf1 } 
		.s1 { fill: #f0fdfa } 
		.s2 { fill: #ccfbf1 } 
		.s3 { fill: #99f6e4 } 
		.s4 { fill: #0d9488 } 
		.s5 { fill: none;stroke: #f4f4f4;stroke-linecap: round;stroke-linejoin: round;stroke-width: 2 } 
		.s6 { fill: #2dd4bf } 
		.s7 { fill: #14b8a6 } 
		.s8 { fill: #042f2e } 
		.s9 { fill: #042f2e } 
		.s10 { fill: #da7269 } 
		.s11 { fill: #042f2e } 
		.s12 { opacity: .2;fill: #231f20 } 
		.s13 { fill: #231f20 } 
		.s14 { fill: #333333 } 
		.s15 { fill: #1c1c1c } 
		.s16 { fill: #595959 } 
		.s17 { fill: none;stroke: #424242;stroke-miterlimit:10;stroke-width: 2.2 } 
		.s18 { fill: #424242 } 
		.s19 { fill: none;stroke: #595959;stroke-miterlimit:10;stroke-width: 2.2 } 
		.s20 { fill: none;stroke: #424242;stroke-miterlimit:10;stroke-width: 1.9 } 
		.s21 { fill: none;stroke: #595959;stroke-miterlimit:10;stroke-width: 1.9 } 
		.s22 { fill: none;stroke: #595959;stroke-miterlimit:10;stroke-width: 2 } 
		.s23 { fill: #da7269 } 
		.s24 { fill: #ef9e29 } 
		.s25 { fill: #f53445 } 
		.s26 { fill: #ffb236 } 
	</style>
	<g id="BACKGROUND">
		<g id="&lt;Group&gt;">
			<path id="&lt;Path&gt;" class="s0" d="m922.4 806.7c-9 45.9-36.7 75.1-70.6 84.4-50.5 13.7-683.2-38.3-683.2-38.3 0 0-35.7-33.6-63.4-80.6-5.3-8.9-10.3-18.4-14.7-28.2q-0.8-1.7-1.6-3.6c-25.3-62.8-6.2-193.7 65.9-256.8 13.2-11.6 25-23.4 35.5-35.6 30.7-35.9 49.4-74.7 56.2-117.6q3-18.8 2.8-38.7c0-11.8-0.9-23.9-2.6-36.4q-0.1-1.2-0.2-2.4c-9.2-90.6 150-238.9 279-150.8 130.2 88.9 124.1 148.6 211.4 125.6 69.5-18.3 166.2 54.7 171.1 150.1 1.2 24.5-3.5 50.4-16.3 76.7q-2.8 5.6-5.2 11c-53.4 120.7 16.4 172.4 34.3 261.6q3.4 17.2 4.3 32.8c1.1 17.1 0.1 32.7-2.7 46.8z"/>
			<path id="&lt;Path&gt;" class="s1" d="m369.8 73.5c-16-5.1-47.7-1.8-47.7-1.8 0 0-3.2 19.1-14 23.2-10.8 4-16.4-6.2-21.6-2-5.1 4.2-13.6 20.5-13.6 20.5l-25.4 7.7c22.3 1.5 46 3.4 50.4 5.5 9.6 4.6 24.2 9.2 24.2 9.2l-62.3 8.1c0 0 117.2 15 127.3 11.9 10.1-3.1 48.3-8.5 64.7-8.5 16.4 0 60.8-3.4 60.8-3.4 0 0-110.4 1.9-116.5-1.8-6.1-3.8-19.2-3.5-25-6.3-5.7-2.8-23.7-10.2-18.3-9.2 4.5 0.8 122.5-7 153-8.2-23.2-1.9-93.2-14.1-103.7-14.1-12.1 0-16.3-25.8-32.3-30.8z"/>
			<path id="&lt;Path&gt;" class="s1" d="m636.3 265.4c-6.1 0.5 287.7 0 287.7 0 0 0-28.9-8.3-40.1-8.6-11.3-0.3-24.2-23.3-51.9-30.5-27.7-7.1-32.3 7.5-46.6 10-14.4 2.6-22.4-4.4-32.2-2.7-9.7 1.7-31.5 25-38 23.2-6.5-1.7-26.8 4.6-78.9 8.6z"/>
			<path id="&lt;Path&gt;" class="s1" d="m922.4 806.7c-9 45.9-36.7 75.1-70.6 84.4-50.5 13.7-683.2-38.3-683.2-38.3 0 0-35.7-33.6-63.4-80.6-5.3-8.9-10.3-18.4-14.7-28.2q-0.8-1.7-1.6-3.6c-25.3-62.8-6.2-193.7 65.9-256.8 13.2-11.6 25-23.4 35.5-35.6 30.7-35.9 49.4-74.7 56.2-117.6 5.8 1.2 11.8-2.5 22.3 3.3 16.5 9.2 50.5 13.1 70.8 4 20.3-9 22.3-5.2 28.7-9.7 6.4-4.4 20.4-6.9 20.4-6.9l-79.3-4.8c0 0 80-0.3 83.9-4.6 3.9-4.3 16.1-14.9 26.5-15.2h0.1c15.3-0.4 35.3-3.4 46 12.3 8.2-8.4 17.7-19.3 29.3-18.2 4.4 0.4 8.5 2.5 12.6 4.5 42.2 21 87.4 32.3 132.9 33.4q-44-0.8-88-1.6c-9-0.2-18.5-0.2-26.4 5.2-7.9 5.5-13.3 18.3-9 28.2-10.8-6.7-23.8-2.3-34.7 4-10.9 6.3-21.7 14.4-33.7 15.2-13.8 1-29.8-7.4-40.4 3.7q46.5 2.1 93 4.2c16.3 0.7 32.6 1.5 48.6-2.3 36.7-8.8 64.2-36.5 102.2-18.8 8.4 3.9 16.9 7.9 25.1 12.4 11.2 6.2 22.3 13.7 34.1 16.9-18.2-2.4-37.1 1.3-53.8 10.8 2.3-0.4 3.6 3.8 2.3 6.2-1.2 2.4-3.6 3.4-5.8 4.1-30.2 9.9-61.1 16-92 22 86 0 172-2.3 258-7.1q-28.4-4.2-56.7-8.4c4.7-4.5 10.4-7.5 16.3-8.4-11.9-8-25.5-12.1-39-12.1q27.3-3.5 54.5-7c2.9-0.3 5.9-0.8 8.1-3.1 2.4-2.6 3.1-7 5.2-10 2.6-3.8 6.8-5 10.7-5.7 14.1-2.6 28.6-2 42.6 1.8 12.7 3.5 26.2 9.6 38.4 3.8 2.7-1.3 5.1-3.1 7.7-4.7 1.2 24.5-3.5 50.4-16.3 76.7q-2.8 5.6-5.2 11c-53.4 120.7 16.4 172.4 34.3 261.6q3.4 17.2 4.3 32.8c1.1 17.1 0.1 32.7-2.7 46.8z"/>
			<path id="&lt;Compound Path&gt;" fill-rule="evenodd" class="s2" d="m922.4 806.7l-817.2-34.5c-5.3-8.9-10.3-18.4-14.7-28.2q-0.8-1.7-1.6-3.6c-25.3-62.8-6.2-193.7 65.9-256.8 13.2-11.6 25-23.4 35.5-35.6l16.6-1.2-6.1 78.1 61.2-3v-128.7l-15.3-1.5 15.3-12.3 49.1-3.1 7.6 15.4h-13.8l-1.5 128.6 179.2 6.2 1.6-65.9 75 6.1v-26l29.1-3.1 1.6-39.8-18.4-4.6 41.3-15.3 179.3 10.7 26 19.9-24.5-1.5-4.6 159.3 41.4-1.5 1.5-73.6-19.9-3 41.4-26.1 33.1 3.4c-53.4 120.7 16.4 172.4 34.3 261.6q3.4 17.2 4.3 32.8c1.1 17.1 0.1 32.7-2.7 46.8zm-274.3-396.7l-35.3-4.6 6.2 114.9h23zm94.9 6.2l-79.6-7.7-1.6 108.8h81.2zm33.7-1.6h-18.3l-1.6 99.6 16.9 1.5z"/>
			<path id="&lt;Path&gt;" class="s3" d="m851.8 891.1c-50.5 13.7-683.2-38.3-683.2-38.3 0 0-50.6-47.5-78.1-108.8q-0.8-1.7-1.6-3.6c90-4.8 299.3 6.9 312.5 8.2 15.4 1.5 71.5-19.3 97.1-8.9 25.5 10.4 33.2 15 50 16.5 16.9 1.6 27.6 0 33.7 0 6.1 0 33.7-3 52.1-6.1 18.4-3 39.8-3 58.2-1.5 18.4 1.5 39.8 4.6 70.5 4.6 20.1 0 105.8 4 162.1 6.7 4.7 73-29 119.1-73.3 131.2z"/>
		</g>
	</g>
	<g id="OBJECTS">
		<path id="&lt;Path&gt;" class="s1" d="m246.7 255.3q-0.1-1.2-0.2-2.4c1.7 1 3.1 1.6 3.9 1.8 4.5 1 12.3 14.7 18.1 16.7 5.8 1.9 151.7 12.6 147.6 12.6-4.1 0.1-127-1.7-150.8 0.7-9.7 0.9-13.7 3.9-16 7 0-11.8-0.9-23.9-2.6-36.4z"/>
		<g id="&lt;Group&gt;">
			<path id="&lt;Path&gt;" class="s4" d="m133.4 848.2c7.6-7.7 216 0 237.4 3 21.5 3.1-9.2 10.7 0 10.7 9.2 0 157.8 3.1 219.1 4.6 61.2 1.6 50.5 12.3 50.5 12.3 0 0 246.7 4.6 272.7 10.7 26 6.1-39.8 9.2-61.3 12.3-21.4 3 12.3 7.6-7.6 12.2-19.9 4.6-101.1 19.9-176.2 18.4-75.1-1.5-139.4 0-150.1-3.1-10.8-3 16.8-4.6 13.8-10.7-3.1-6.1-190-12.2-213-10.7-23 1.5 6.1-1.5 6.1-7.7 0-6.1-139.4-12.2-128.6-15.3 10.7-3 29.1-12.2 15.3-13.8-13.8-1.5-114.9-1.5-108.8-6.1 6.1-4.6 53.6-9.2 53.6-9.2z"/>
			<g id="&lt;Group&gt;">
				<path id="&lt;Path&gt;" class="s5" d="m310.6 667.6c0 0-4.1-117.1-2.8-119.5 1.4-2.4 34.4-3.8 42.6-3.4"/>
				<path id="&lt;Path&gt;" class="s6" d="m437.2 747.6c-48.3 32-108.1 25.5-108.1 25.5l-27.1-113.4 16.7-24.5-6.1-30.6c17-16.4 57.9-12.3 57.9-12.3l10.9 30.7 28.6 12.9z"/>
				<path id="&lt;Path&gt;" class="s7" d="m370.5 592.3c-8.7 10.9-56.3 16.8-57.9 12.3 17-16.4 57.9-12.3 57.9-12.3z"/>
				<path id="&lt;Path&gt;" class="s7" d="m302 659.7c0 0 15.9 13.3 53 7.9 37.1-5.5 55-31.7 55-31.7l-28.6-12.9c0 0-33.6 26.2-62.7 12.2z"/>
				<path id="&lt;Path&gt;" class="s5" d="m350.4 544.7c8.2 0.3 54.8 106.2 54.8 106.2"/>
			</g>
			<g id="&lt;Group&gt;">
				<g id="&lt;Group&gt;">
					<g id="&lt;Group&gt;">
						<path id="&lt;Path&gt;" class="s8" d="m568.7 883.9l-0.5 6.6c0 0-11.3 4.1-29.1 3.1-17.9-1-64.4-10.2-64.4-10.2l-1.5-4.6c-2.6-1.5 5.6-3.1 21.4-3.1 15.9 0 66.9 6.2 74.1 8.2z"/>
					</g>
					<path id="&lt;Path&gt;" class="s9" d="m568.7 883.9c-1 4.3-15.6 6-21.5 6.6-5.8 0.7-36-1.9-42.6-4.2-6.6-2.3-29.7-6.9-31.4-7.5-2.6-1.5 5.6-3.1 21.4-3.1 15.9 0 66.9 6.2 74.1 8.2z"/>
					<g id="&lt;Group&gt;">
						<path id="&lt;Path&gt;" class="s10" d="m565 882.9c-0.2 0.9-0.6 1.8-1.3 2.5-0.7 0.7-1.7 1.2-2.6 1q-0.1 0-0.1 0-1.2 0.7-2.5 0.8c-1 0.6-2.3 0.6-3.4 0.2-0.4-0.1-0.8-0.4-1.2-0.7q-0.1 0-0.1-0.1c-1.7-0.5-4.1-1.2-4.7 0.8-0.4 1.5-6.3 2.1-11.7 0.7-5.4-1.3-20.4-2-32-6.7-11.5-4.8-20.5 1.2-26.3-4.6-9.2-9.2 2.3-11.8 3-34.3 0.7-22.4-15.3-94.4-15.3-94.4l36.6-11.1c-0.7 43.6 8.2 103.5 12.9 108.9 4.8 5.5 17.1 10.9 27.3 20.5 2.6 2.4 5.8 4 8.9 5.7q0.5 0.2 0.9 0.6c0.3 0.2 0.5 0.4 0.8 0.6 1.3 1.1 3.2 1.1 4.5 2.1 0.4 0.4 0.8 0.9 1.2 1.3 1 0.9 2.4 1.2 3.6 1.8 0.7 0.3 1.4 0.9 1.2 1.6q0 0.2-0.1 0.4c-0.1 0.2-0.2 0.5-0.1 0.6 0.1 0.2 0.2 0.3 0.3 0.4 0.4 0.3 0.3 0.9 0.2 1.4z"/>
					</g>
					<path id="&lt;Path&gt;" class="s11" d="m490.8 881.6c0 0 19.7-9.7 31.4-11 11.8-1.3 25.8 6.1 28.3 7.4 2.6 1.3 3.6 8.7 3.6 8.7 0 0.1-2.6 1.1-2.8 1.2-1.1 0.3-1.7 0.6-1.6-0.4 0-1.2 1-2.5 1-3.9-0.1-1.4-0.5-2.7-1.3-3.9-0.1-0.1-0.3-0.3-0.5-0.4-0.2-0.1-0.5-0.1-0.7-0.1-3.2 0-6.2-2.5-9.1-3.5-3.1-1-12.8-1.8-21 2.1-8.1 3.8-12.7 8.1-12.7 8.1z"/>
					<path id="&lt;Path&gt;" class="s11" d="m542.4 875.2c0 0-6.8-6.6 1.5-9.2l3.4 2.6c0 0-3.6 3-0.8 8.1z"/>
					<path id="&lt;Path&gt;" class="s12" d="m565 882.9c-0.2 0.9-0.6 1.8-1.3 2.5-0.7 0.7-1.7 1.2-2.6 1q-0.1 0-0.1 0-1.2 0.7-2.5 0.8c-1 0.6-2.3 0.6-3.4 0.2q0-0.1 0.1-0.3 0-0.1 0-0.2c0.4-0.6 2-0.7 2.3-1.8 0.6-1.5 0-4.5-1.6-5.2-0.5-0.2-0.9-0.3-1.3-0.4-1-0.4-1.7-1.3-2.6-1.9-0.2-0.1-0.5-0.3-0.8-0.4-0.7-0.3-1.5-0.5-2.3-0.7-1-0.3-2.1-0.7-2.8-1.6-0.5-0.6-0.7-1.6 0.3-1.4 1 0.2 2.1 1 3 1.5q0.8 0.4 1.6 0.9 2 1.1 4.1 2.3c1.8 1.1 3.8 2.4 4.6 4.4 0.3 0.8 0.5 1.7 0.3 2.5 0 0.2-0.1 0.4-0.2 0.6 0.4 0 0.8 0.1 1.2-0.1 0.3-0.1 0.6-0.3 0.7-0.6 0.3-0.4 0.5-0.8 0.5-1.3 0.1-0.5 0.2-1.1 0-1.6-0.4-1.2-1.9-1.4-2.9-2.1-0.9-0.6-1.5-1.6-2.4-2.1-0.4-0.3-0.9-0.4-1.3-0.6-1-0.3-1.7-1-2.5-1.6-0.4-0.2-1.7-0.6-1.7-1.2 0.1-0.8 2.4 0.4 2.7 0.6 1.4 0.6 2.8 1.4 4.1 2.3 1.2 1 2.3 2.1 3.7 2.9 0.4 0.2 0.9 0.4 1.3 0.8 0.7 0.8 0.7 2 0.4 3q0.1-0.1 0.2-0.3c0.5-0.7 0.8-1.6 0.4-2.2q-0.1-0.3-0.3-0.4-0.6-0.6-1.2-1.2-0.3-0.4-0.7-0.7c-0.3-0.2-0.6-0.4-1-0.6-0.6-0.3-1.1-0.8-1.7-1.2q-1.2-1-2.4-2 0.2-0.1 0.4-0.1c0.3 0.1 0.6 0.3 0.8 0.5q0.4 0.2 0.7 0.5 0 0 0.1 0.1c1.5 1.2 3 2.5 4.7 3.5q0.3 0.2 0.6 0.3 0.2 0.1 0.4 0.2c-0.1 0.2-0.2 0.5-0.1 0.6 0.1 0.2 0.2 0.3 0.3 0.4 0.4 0.3 0.3 0.9 0.2 1.4z"/>
				</g>
				<g id="&lt;Group&gt;">
					<path id="&lt;Path&gt;" class="s11" d="m467.3 454.5c0 0 33.7 137.8 33.7 153.1 0 15.4 8.2 155.3 8.2 155.3 0.4 2.1 2.4 7.5 1.4 9.4-1.7 3.1-10.7 4.6-13.9 5.8-9.3 3.3-18.5 6.7-27.9 9.5 2.6-10.8 1.3-22.5-3.6-32.5-1.1-2.2-2.3-4.3-2.7-6.7-0.5-2.6-0.1-5.3-0.5-7.9-0.6-3.5-2.9-6.5-4.5-9.7-3.6-6.7-4.6-14.4-5.6-21.9-5.4-38-13-75.8-22.9-113-2.5-9.4-3.7-18-4.4-27.7-0.5-7.8-7.3-13.7-8.1-22.4-0.1-1.2-0.1-2.4-0.7-3.4-0.5-1-1.4-1.7-2.2-2.5-3.3-3.6-2.7-9-2.5-13.9 0.8-20.9-11.6-34.4-18.7-52.6z"/>
				</g>
				<g id="&lt;Group&gt;">
					<path id="&lt;Path&gt;" class="s13" d="m603.1 511.3c0 0 5.2-49.4 10.6-60.3 5.4-10.8 6.8-14.3 9.5-15.6 2.8-1.4 6.8 3.1 6.8 3.1 0 0-5.4 5.4-7.5 8.1-2 2.7-10.2 65-10.2 65z"/>
					<g id="&lt;Group&gt;">
						<path id="&lt;Path&gt;" class="s1" d="m618.1 497.7c2.3-0.4 30.7 4.8 34.7 2.4 4.1-2.4 17.7-1.4 18.8-2.1 1-0.7 4.4-0.7 10.5 9.9 6.2 10.6 35.8 102.5 38.5 108.9 2.7 6.5-66.4 9.2-73.9 9.9-7.5 0.7-18.4 4.4-22.4-3.1-4.1-7.4-28.3-122.2-6.2-125.9z"/>
						<path id="&lt;Path&gt;" class="s12" d="m646.7 626.7c-7.5 0.7-18.4 4.4-22.4-3-3.5-6.4-21.7-91.1-13.1-118 1.5-4.6 3.7-7.5 6.9-8 2.3-0.4 30.7 4.8 34.7 2.4 4.1-2.4 17.7-1.4 18.8-2.1 0.8-0.5 3.3-0.6 7.6 5.4 0.9 1.2 1.9 2.7 2.9 4.5 6.2 10.6 35.8 102.5 38.5 108.9 2.7 6.5-66.4 9.2-73.9 9.9z"/>
						<path id="&lt;Path&gt;" class="s12" d="m679.2 503.4c-2.8 3-5 2.9-10.4 3.5-6.8 0.7-8.8 1-16.3 2.4-7.5 1.3-18.7-1.4-25.2-1.4-6.3 0-10.3 3.5-16.1-2.2 1.5-4.6 3.7-7.5 6.9-8 2.3-0.4 30.7 4.8 34.7 2.4 4.1-2.4 17.7-1.4 18.8-2.1 0.8-0.5 3.3-0.6 7.6 5.4z"/>
					</g>
					<path id="&lt;Path&gt;" class="s14" d="m422.6 801.7l43.2-3 31.8 9.6-1.6 7.8-25.9 1.7c0 0-4.4 3.2-12.5 2.1-8.1-1.1-17-1.9-17-1.9l-17.6-8z"/>
					<path id="&lt;Path&gt;" class="s15" d="m423 810c1.2 0.6 4.7-0.4 6-0.5 2.8-0.3 5.6-0.7 8 1.1 1.6 1.2 3.1 2.9 5 3.4 2.4 0.6 4.7-0.6 6.8-1.7 1.1-0.6 2.2-1.2 3.1-2.1 0.6-0.6 1-1.2 1.6-1.8 1.6-1.5 3.9-1.6 6.1-1.8 1.1-0.1 3-0.6 4.1-0.3 0.1 0 32.3 9.8 32.3 9.8q-8 1.1-16 2.2c-4.1 0.5-8.2 0.4-12.4 0.9-2.7 0.3-5.4 0.8-8.1 1.2-2.5 0.4-5.8 1.4-8.3 1.1-3.4-0.6-7.2-2.4-10.6-3.5 0 0-17.6-8-17.6-8z"/>
					<path id="&lt;Path&gt;" class="s16" d="m754.8 724.8c-5.1-3.7-8.2-1.2-12.8-3.5-4-2-13.9-26.4-16.5-32.8h0.2c-20.1-62.2-43.1-131.3-49.9-136.1-12.1-8.4-31.9-9.6-31.9-9.6l-2.3 15.7c0 0 24.1 0 31.6 7.2 4.1 3.9 21.8 64.5 39.9 122.8 3.7 13.4 16.4 43.6 21.8 47.4 5.4 3.8 12 10.1 17.9 8.1 5.8-2 7.1-15.4 2-19.2z"/>
					<g id="&lt;Group&gt;">
						<g id="&lt;Group&gt;">
							<path id="&lt;Path&gt;" class="s17" d="m760.7 889.3l-3.2-154.1-31.4-146.1"/>
							<path id="&lt;Path&gt;" class="s17" d="m785.5 866.7c0.5-4.6-28-131.5-28-131.5l-5.3-127.1"/>
							<path id="&lt;Path&gt;" class="s17" d="m801.3 821.2l-43.8-86 20.9-91.3"/>
							<path id="&lt;Path&gt;" class="s17" d="m808.7 785.1l-51.2-49.9 35-52.6"/>
							<path id="&lt;Path&gt;" class="s17" d="m807.2 746.3l-49.7-11.1 47.9-21.5"/>
							<path id="&lt;Path&gt;" class="s17" d="m736 900.1l21.5-164.9-64.2-143.8"/>
							<path id="&lt;Path&gt;" class="s17" d="m707.9 899.9l49.6-164.7-91.2-124.2"/>
							<path id="&lt;Path&gt;" class="s17" d="m677.5 878.8l80-143.6-112.3-96.1"/>
							<path id="&lt;Path&gt;" class="s17" d="m656.2 849.3l101.3-114.1-123.1-55.5"/>
							<path id="&lt;Path&gt;" class="s17" d="m643 808.3l114.5-73.1-130.6-12.2"/>
							<path id="&lt;Path&gt;" class="s17" d="m629.9 764.9l127.6-29.7"/>
						</g>
						<g id="&lt;Group&gt;">
							<path id="&lt;Compound Path&gt;" fill-rule="evenodd" class="s16" d="m753.2 910.6c-60.5 11.5-118.3-53.1-131.6-147.2-13.4-94 23.5-176.6 84-188.1 60.5-11.5 118.3 53.1 131.7 147.1 13.3 94.1-23.6 176.7-84.1 188.2zm-44.9-316.1c-47 9-77 84.5-65.6 164.9 11.4 80.5 60.8 140.9 107.8 132 47-9 77-84.5 65.6-164.9-11.4-80.5-60.8-140.9-107.8-132z"/>
						</g>
						<g id="&lt;Group&gt;">
							<path id="&lt;Path&gt;" class="s18" d="m710.1 746.9c1.9 13.2-3.1 25.2-11.1 26.7-8.1 1.5-16.1-7.9-18-21.2-1.9-13.2 3.1-25.1 11.2-26.7 8-1.5 16.1 8 17.9 21.2z"/>
							<path id="&lt;Path&gt;" class="s18" d="m762.7 735.4c1.9 13.2-3.1 25.2-11.2 26.7-8 1.6-16.1-7.9-18-21.1-1.8-13.3 3.2-25.2 11.2-26.8 8.1-1.5 16.1 8 18 21.2z"/>
							<path id="&lt;Path&gt;" class="s18" d="m752.8 761.8l-54.8 10.4-6.3-44.9 54.8-10.4z"/>
						</g>
						<g id="&lt;Group&gt;">
							<path id="&lt;Path&gt;" class="s19" d="m676.3 600.7l12.1 151.5 22.5 148.8"/>
							<path id="&lt;Path&gt;" class="s19" d="m651.5 623.3c-0.5 4.6 36.9 128.9 36.9 128.9l-3.6 129.7"/>
							<path id="&lt;Path&gt;" class="s19" d="m635.7 668.8l52.7 83.4-29.8 93.9"/>
							<path id="&lt;Path&gt;" class="s19" d="m628.3 704.9l60.1 47.3-43.9 55.2"/>
							<path id="&lt;Path&gt;" class="s19" d="m629.8 743.7l58.6 8.5-56.8 24.1"/>
							<path id="&lt;Path&gt;" class="s19" d="m701 589.9l-12.6 162.3 55.3 146.4"/>
							<path id="&lt;Path&gt;" class="s19" d="m729.1 590.2l-40.7 162 82.3 126.8"/>
							<path id="&lt;Path&gt;" class="s19" d="m759.5 611.2l-71.1 141 103.4 98.8"/>
							<path id="&lt;Path&gt;" class="s19" d="m780.8 640.7l-92.4 111.5 114.2 58.1"/>
							<path id="&lt;Path&gt;" class="s19" d="m794 681.8l-105.6 70.4 121.7 14.8"/>
							<path id="&lt;Path&gt;" class="s19" d="m807.1 725.1l-118.7 27.1"/>
						</g>
						<g id="&lt;Group&gt;">
							<path id="&lt;Compound Path&gt;" fill-rule="evenodd" class="s18" d="m752.7 911.6c-61.8 11.8-120.8-53.1-134.2-147.6-13.4-94.5 24.5-177.8 86.4-189.5 61.8-11.8 120.8 53.1 134.2 147.6 13.4 94.5-24.5 177.8-86.4 189.5zm-57.4-315.4c-48.1 9.1-79 85.2-67.5 166.1 11.5 80.8 61.8 141.5 109.8 132.3 48.1-9.1 79-85.2 67.5-166-11.5-80.9-61.8-141.5-109.8-132.4z"/>
						</g>
					</g>
					<path id="&lt;Path&gt;" class="s14" d="m498.5 739.7c0 17.4-7.6 31.5-16.9 31.5-9.3 0-16.8-14.1-16.8-31.5 0-17.4 7.5-31.5 16.8-31.5 9.3 0 16.9 14.1 16.9 31.5z"/>
					<path id="&lt;Path&gt;" class="s14" d="m440.2 801.4c0.5-0.9 1.1-1.9 1.7-2.8q9.3-16.7 18.5-33.4 6.8-12.1 13.6-24.2l12.2-1q-0.1 0.1-0.1 0.2-8.2 15.3-16.4 30.6-5.8 10.8-11.5 21.5c-2.9 5.4-5.9 14.6-11.7 17.4-0.4 0.1-0.8 0.3-1.3 0.3-0.6 0.1-1.2-0.2-1.8-0.5q-2.1-1.1-3.9-2.6c-0.3-0.2-0.5-0.4-0.7-0.7-0.2-0.5-0.1-1 0-1.5 0.3-1.1 0.8-2.2 1.4-3.3z"/>
					<path id="&lt;Path&gt;" class="s16" d="m380.1 558.3l28.5-36 5.4 12-15.3 25.2c0 0 3.3 0 4.4 13.2 1.1 13.2-82.1 150.1-88.6 152.5-6.6 2.4-5.5-10.8-5.5-10.8 0 0 78.8-126.1 82.1-134.5 3.2-8.4-11-21.6-11-21.6z"/>
					<path id="&lt;Path&gt;" class="s16" d="m388.6 498.1l53.2 241.4 17.3-13.4-52-225.1z"/>
					<g id="&lt;Group&gt;">
						<path id="&lt;Path&gt;" class="s16" d="m400.5 515.4l218.3-16.6v18.4l-211.7 14.7z"/>
					</g>
					<g id="&lt;Group&gt;">
						<path id="&lt;Path&gt;" class="s18" d="m355.1 496.9c4-26.3 16.3-32.6 23.6-30.6 7.2 2 49.9 7.5 67.8 5.3 17.8-2.1 28.4 9.5 29.7 16.9 1.3 7.4-2.6 25.6-16 18.3-13.4-7.3-35.2-8.4-57.1 1.2-21.9 9.5-49.8 0.8-48-11.1z"/>
					</g>
					<path id="&lt;Path&gt;" class="s16" d="m409.9 555l195.6-16.7-11.7 20.8-183.9 14.3z"/>
					<path id="&lt;Path&gt;" class="s16" d="m624.6 487.3l-169.5 243.3 9.2 14.5 169.7-239.3z"/>
					<path id="&lt;Path&gt;" class="s16" d="m623.1 441.4l26.5 108.2-13.4 1.9-26.9-110.1c0 0-2.2-8.3 13.8 0z"/>
					<path id="&lt;Path&gt;" class="s16" d="m388.9 551.1c0 0-15.4 3.6-31.8 13.2-16.4 9.6-98.4 159.7-98.4 159.7 0 0 1.1 7.2 6.6 6 5.4-1.2 83.1-142.9 92.9-152.5 9.9-9.6 34.7-16.8 34.7-16.8z"/>
					<path id="&lt;Path&gt;" class="s16" d="m397.6 539.1c0 0-165.5 7.2-165.5 11.2 0 4-1.5 8 5.8 8 7.3 0 156.8-6.4 156.8-6.4z"/>
					<path id="&lt;Path&gt;" class="s16" d="m243 553.5c0 0 13.9 175.3 18.2 176.1 4.4 0.8 3.7-9.6 3.7-9.6l-16.1-167.3z"/>
					<path id="&lt;Path&gt;" class="s16" d="m295.5 547.9c0 0 13.9 175.3 18.2 176.1 4.4 0.8 3.7-9.6 3.7-9.6l-16-167.3z"/>
					<path id="&lt;Path&gt;" class="s16" d="m434.6 724.6l39.5-0.8c0 0 4.8 13.5 2.7 25.4-2 12-40.1 6-40.1 6 0 0-7.5-20.2-2.1-30.6z"/>
					<g id="&lt;Group&gt;">
						<g id="&lt;Group&gt;">
							<path id="&lt;Path&gt;" class="s20" d="m305.1 859.8l8.5-139.2-1.9-137.7"/>
							<path id="&lt;Path&gt;" class="s20" d="m328 843.6c0.9-4-14.4-123-14.4-123l17.2-116"/>
							<path id="&lt;Path&gt;" class="s20" d="m346.2 805.3l-32.6-84.7 34.5-79.2"/>
							<path id="&lt;Path&gt;" class="s20" d="m356.5 774l-42.9-53.4 41.5-41.9"/>
							<path id="&lt;Path&gt;" class="s20" d="m359.8 738.7l-46.2-18.1 48.5-11.6"/>
							<path id="&lt;Path&gt;" class="s20" d="m283.6 865.3l30-144.7-29-141.2"/>
							<path id="&lt;Path&gt;" class="s20" d="m260.7 860.3l52.9-139.7-53.3-128.1"/>
							<path id="&lt;Path&gt;" class="s20" d="m238.3 836.1l75.3-115.5-73.9-106.4"/>
							<path id="&lt;Path&gt;" class="s20" d="m224.3 805.8l89.3-85.2-87.5-71.6"/>
							<path id="&lt;Path&gt;" class="s20" d="m218.2 766.5l95.4-45.9-98.7-33.8"/>
							<path id="&lt;Path&gt;" class="s20" d="m212.6 725.1l101-4.5"/>
						</g>
						<g id="&lt;Group&gt;">
							<path id="&lt;Compound Path&gt;" fill-rule="evenodd" class="s16" d="m296.5 877.7c-50.8 0-90.6-68.2-90.6-155.4 0-87.1 39.8-155.3 90.6-155.3 50.8 0 90.6 68.2 90.6 155.3 0 87.2-39.8 155.4-90.6 155.4zm0-292.9c-39.5 0-72.8 63-72.8 137.5 0 74.6 33.3 137.6 72.8 137.6 39.5 0 72.9-63 72.9-137.6 0-74.5-33.4-137.5-72.9-137.5z"/>
						</g>
						<g id="&lt;Group&gt;">
							<path id="&lt;Path&gt;" class="s18" d="m273.5 723c0 12.3-5.5 22.2-12.2 22.2-6.8 0-12.3-9.9-12.3-22.2 0-12.2 5.5-22.2 12.3-22.2 6.7 0 12.2 10 12.2 22.2z"/>
							<path id="&lt;Path&gt;" class="s18" d="m317.9 721.7c0 12.2-5.5 22.2-12.3 22.2-6.8 0-12.2-10-12.2-22.2 0-12.3 5.4-22.2 12.2-22.2 6.8 0 12.3 9.9 12.3 22.2z"/>
							<path id="&lt;Path&gt;" class="s18" d="m306.7 743.8h-46v-41.6h46z"/>
						</g>
						<g id="&lt;Group&gt;">
							<path id="&lt;Path&gt;" class="s21" d="m269.6 584.9l-14.5 139.2 8 137.7"/>
							<path id="&lt;Path&gt;" class="s21" d="m246.7 601.1c-0.9 4 8.4 123 8.4 123l-11.2 116"/>
							<path id="&lt;Path&gt;" class="s21" d="m228.5 639.4l26.6 84.7-28.5 79.2"/>
							<path id="&lt;Path&gt;" class="s21" d="m218.2 670.7l36.9 53.4-35.5 41.9"/>
							<path id="&lt;Path&gt;" class="s21" d="m214.9 706l40.2 18.1-42.5 11.6"/>
							<path id="&lt;Path&gt;" class="s21" d="m291.1 579.4l-36 144.7 35.1 141.2"/>
							<path id="&lt;Path&gt;" class="s21" d="m314 584.4l-58.9 139.7 59.4 128.1"/>
							<path id="&lt;Path&gt;" class="s21" d="m336.4 608.6l-81.3 115.5 79.9 106.4"/>
							<path id="&lt;Path&gt;" class="s21" d="m350.4 638.9l-95.3 85.2 93.5 71.6"/>
							<path id="&lt;Path&gt;" class="s21" d="m356.5 678.2l-101.4 45.9 104.7 33.8"/>
							<path id="&lt;Path&gt;" class="s21" d="m362.1 719.6l-107 4.5"/>
						</g>
						<g id="&lt;Group&gt;">
							<path id="&lt;Compound Path&gt;" fill-rule="evenodd" class="s18" d="m296 878.6c-51.9 0-92.7-68.7-92.7-156.3 0-87.5 40.8-156.2 92.7-156.2 52 0 92.7 68.7 92.7 156.2 0 87.6-40.7 156.3-92.7 156.3zm-10.4-294.5c-40.3 0-74.5 63.3-74.5 138.2 0 75 34.2 138.3 74.5 138.3 40.4 0 74.5-63.3 74.5-138.3 0-74.9-34.1-138.2-74.5-138.2z"/>
						</g>
					</g>
					<path id="&lt;Path&gt;" class="s16" d="m688.4 743.2c-4.3-1.5-12-7.3-17.3-23.9-17.8-51.4-48.1-146.7-46.5-151.8 3.1-9.6 30.1-9 30.1-9l-10.8-15.7c0 0-32.7 1.2-35 16.9-1.1 8 37.3 118.3 57.1 178.2 3.8 11.9 12.5 18.4 16 21.2 3.6 2.8 9.5 4.8 11.3 0.8 1.8-4.1-0.5-15.1-4.9-16.7z"/>
					<path id="&lt;Path&gt;" class="s16" d="m538.8 400.8c2 2.6-2 15.4-2 15.4 0 0-25.1 19.4-25.1 26.5 0 7.2 5.7 0 6.7-4.6 1-4.6 13.8-15.3 19.4-16.3 5.6-1.1 11.7-15.3 11.7-15.3z"/>
					<path id="&lt;Path&gt;" class="s16" d="m659.3 394.9c0 0 0.5 16.1 3.1 16.7 2.5 0.5 11.7 11.2 12.2 16.3 0.5 5.1 3.1 6.1 3.6 2.6 0.5-3.6-13.3-24-13.3-24l1.6-10.8c0 0-3.6-4.7-7.2-0.8z"/>
					<path id="&lt;Path&gt;" class="s22" d="m539.8 415.1c0 0 78.7 19.4 105.2 45 26.6 25.5-26 88.3-58.7 101.1-32.7 12.7-147.6 25-203.8 3"/>
					<path id="&lt;Path&gt;" class="s22" d="m661.9 407c0 0-33.2 9.7-52.1 43.9-18.9 34.2 44.9 55.6 67.4 112.3"/>
					<path id="&lt;Path&gt;" class="s18" d="m465.6 740.4c0 26.5-11.6 48-26 48-14.4 0-26.1-21.5-26.1-48 0-26.5 11.7-48 26.1-48 14.4 0 26 21.5 26 48z"/>
					<path id="&lt;Path&gt;" class="s20" d="m255.9 710.1c0 0 173.3-14.3 184.2-14.3 10.9 0 20.4 20.1 19.7 44.9-0.7 24.9-10.2 42.6-21.1 43.6-10.9 1-180.1-44.9-185.9-49-5.7-4.1-4.7-22.1 3.1-25.2z"/>
					<path id="&lt;Path&gt;" class="s14" d="m455.6 741.2c0 17.4-7.6 31.5-16.9 31.5-9.3 0-16.8-14.1-16.8-31.5 0-17.4 7.5-31.5 16.8-31.5 9.3 0 16.9 14.1 16.9 31.5z"/>
					<path id="&lt;Path&gt;" class="s14" d="m438.7 730.9l33.7-60.5 12.3-1-37.3 69.6z"/>
					<g id="&lt;Group&gt;">
						<path id="&lt;Path&gt;" class="s1" d="m634.1 506.9c-1 2.2-11.3 122.7-13.4 133.2-2 10.6-12.4 0.9-26.8 2-14.4 1.2-17.5 10.8-30.9 5.2-13.4-5.7-35.6 4.8-37.6-13.3 0 0 0-0.6 0.2-1.8 1.3-12.5 9.7-87.7 17.3-107 8.2-21.2 14.4-32.8 14.4-32.8 0 0 7.8 9 15 8 7.2-1.1 21.1-6.8 29.9-3 8.7 3.8 20.6 5.6 25.2 3.4 2.3-1.1 4.1-0.2 5.4 1.2 1.3 1.6 1.8 3.8 1.3 4.9z"/>
						<path id="&lt;Path&gt;" class="s12" d="m634.1 506.9c-1 2.2-11.3 122.7-13.4 133.2-2 10.6-12.4 0.9-26.8 2-14.4 1.2-17.5 10.8-30.9 5.2-13.4-5.7-35.6 4.8-37.6-13.3 0 0 0-0.6 0.2-1.8 4.5 1.7 14.5 2.6 21.9 2.1 8.6-0.6 23-5.5 33-5 10 0.6 15.8 3.1 22.7 2.8 6.9-0.4 13.4 1 13.4-0.4 0-1.2 15.4-101.9 16.2-129.7 1.3 1.6 1.8 3.8 1.3 4.9z"/>
					</g>
					<path id="&lt;Path&gt;" class="s14" d="m553 503.3c0 0 35.6-64.2 41.6-67.6l6.9 3.7c0 0-39.5 59.2-41.3 65.9-1.8 6.7-7.2-2-7.2-2z"/>
					<path id="&lt;Path&gt;" class="s16" d="m577.6 432.4c10.2 8.7 65 7.9 67.1-4.4 2-12.3 4.4-46.6 12.6-46.6 8.1 0 17.3 24.7 17.3 24.7 0 0-0.6 5.8-6.1 4.5-0.8-0.2-3.1-15.7-9.2-15.7-6.1 0-1.3 41.5-10.2 49.3-4.6 4-45.6 10.7-73.5 1.1-9-3-23.5-36.8-37.8-41.5-7.5-2.4-27.2 23.7-30 23.9-9.5 0.3-3.7-10.4-3.7-10.4 0 0 20.1-26.3 33-27 17.5-0.9 38.7 40.6 40.5 42.1z"/>
					<path id="&lt;Path&gt;" class="s14" d="m594.6 435.7c6.3-1 12.1 0.7 17.6 6.7 5.5 6.1 18 59.5 17.2 66.6 0 0-8.4 5.4-9.9 4.3-1.5-1-4-40.3-11-56.1-7-15.8-13.9-21.5-13.9-21.5z"/>
					<path id="&lt;Path&gt;" class="s13" d="m678.4 509.3c0 0-39.9-70.8-48-73.6-8.2-2.7-9.6 1.7-9.6 1.7 0 0 3.5-2 8.9 3.8 5.4 5.8 38.8 70.1 38.8 70.1 0 0 7.8 2 9.9-2z"/>
				</g>
				<g id="&lt;Group&gt;">
					<g id="&lt;Group&gt;">
						<path id="&lt;Path&gt;" class="s23" d="m604.2 356.4c0 0 23.8 14.6 28.2 16.7 4.4 2 13.6 2 19.4 2.4 5.8 0.3 8.9 1 10.6 2 1.8 1.1 3 5.1 3.9 6.9 1.3 2.8 3.9 6.9 2.7 10.1-0.6 1.4-1.8 2.5-3.1 3.3-0.6 0.4-1.3 0.7-1.9 0.4-0.3-0.1-0.5-0.3-0.7-0.3-0.3 0-0.4 0.3-0.6 0.5-1.4 1.5-4.1 0.2-5.4 1.8 1.5 0.7 2.8 1.6 4.1 2.8 2.7 2.8-1.1 4.5-1.1 4.5 0 0-6.8-3.1-10.2-3.1-3.4 0-12.9-7.8-15-9.2-2-1.3-6.8-7.8-6.8-7.8l-42.5-17z"/>
					</g>
					<g id="&lt;Group&gt;">
						<path id="&lt;Path&gt;" class="s23" d="m505.3 507.4c-1.9 1.9-14.6 58.3-19 64.1-4.3 5.9-24 31.2-29 52.1-5 20.9 3.3 25.2 3.3 25.2l-45.5 7.3c0 0 5.1-19.4 11.4-40.3 6.4-20.9 8.5-39.4 8.6-44.3 0.2-4.8 16.2-47.6 16.2-47.6z"/>
					</g>
					<g id="&lt;Group&gt;">
						<path id="&lt;Path&gt;" class="s24" d="m449.8 238.5c3.2 1.5 43.3 22.6 50.3 28.5 6.9 5.8 37.2 46.6 41.2 47.4 4 0.7 4 4.7 5.4 5.4 1.5 0.8 5.5-1.1 8.8 2.9 3.3 4.1 5.8 3 8.4 4.4 2.5 1.5 45.9 31.7 49.9 32.8 4.1 1.1 6.6 3 6.6 3 0 0-16.8 16.7-19.7 21.1 0 0-6.9-5.1-10.2-6.2-3.3-1.1-29.9-3.3-32.1-6.9-2.2-3.7-1.8-7.3-10.2-11.7-8.4-4.4-9.5-5.1-13.1-6.6-3.7-1.4-13.5 1.9-18.3-7.2-4.7-9.2-2.9-8.8-7.6-10.3-4.7-1.4-10.2-4.3-16-6.2-5.9-1.8-13.9-1.8-13.9-1.8 0 0-9.2 47.8-9.3 51.8 0 4 7 19.3 7 19.3 0 0-4.3 5.5-2.4 7.3 1.8 1.8-5 9.9-5 9.9l11.4 26.2c0 0-31.1-14.9-36.6-16-5.6-1.1-28.5-1.9-29.3-0.4-0.7 1.5-19.4 20-23 19.7-3.5-0.3-12.4 13.1-13.4 13.9-1.1 0.7-16.5 10.5-16.5 10.5 0 0-10.2-10.2-10.9-18.9-0.7-8.8 2.9-39.1 0-44.9-2.9-5.8-10.2-19.7-6.6-26.6 3.7-6.9 9.2-24.1 4.8-33.2-4.4-9.1 4-53.9 6.2-65.3 2.2-11.3 9.1-34 10.9-35.6 1.8-1.5 44.9-16.5 44.9-16.5z"/>
					</g>
					<path id="&lt;Path&gt;" class="s25" d="m449.9 232.7c16.4-1.7 26.4 18.9 31.9 30.6 5.5 11.7 3.5 99.2 2.7 124.7-0.8 25.5 5.3 37.9 4.1 49.6-1.3 11.7-2.1 43.4-6.8 41.4-4.7-2-0.5-6.4-5.5-11.5-5-5.1-6.7-9.5-7-19-0.2-9.4 2.5-159.7 0-177.9-2.4-18.2-24.9-28.4-24.9-28.4z"/>
					<g id="&lt;Group&gt;">
						<path id="&lt;Path&gt;" class="s26" d="m454.1 234.5c9.5 5.1 22.9 31 22.9 31 0 0-1.7-3.3-4.3-2.9-2.5 0.3-2.7 11.3-9.2 13.1-6.5 1.8-11.1 20.1-11.1 20.1 0 0-13.9-31.4-21.2-38-7.3-6.5-14.3-27.7-14.3-27.7l5.5-11.2z"/>
					</g>
					<g id="&lt;Group&gt;">
						<path id="&lt;Path&gt;" class="s10" d="m423.9 195.4c0 0 8 34.4-11 32.9 2.9 3.6 4.1 7.6 6.4 11.6 2.6 4.7 5.9 9 9.1 13.3q3.9 5.2 7.8 10.4c6.6 8.9 12.4 20 15.5 30.6 0-6.5 3.3-14.9 7.3-20 1.4-1.7 3.1-3.4 3.9-5.6 0.6-1.9 0.6-4 0.2-6-0.5-3.5-2.5-6.6-2.6-10.1-0.1-2.5-0.1-5.1-0.1-7.6 0.1-7.9 0.8-15.9 2.8-23.5 4.1-15.3-39.3-26-39.3-26z"/>
					</g>
					<path id="&lt;Path&gt;" class="s23" d="m427.9 185.6c0 0-6.6-5.4-9.1-5.8-2.6-0.4-1.9 11.3-1.5 12.8 0.4 1.4 2.2 9.8 5.1 10.9 2.9 1.1 5.5-1.8 5.5-1.8z"/>
					<g id="&lt;Group&gt;">
						<path id="&lt;Path&gt;" class="s10" d="m477.8 191.8c0 0 5.7-7.3 6.7-3.8 1 3.5 0.8 13.8-1.9 15.8-2.7 1.9-2.9 4.5-4.8 2.6-1.8-1.8 0-14.6 0-14.6z"/>
					</g>
					<g id="&lt;Group&gt;">
						<path id="&lt;Path&gt;" class="s23" d="m461.1 143.2c9.2-0.4 20.9 10.2 22.8 20.9 2 10.7-1.4 23.9-2.9 31.1-1.5 7.3-0.5 15.6-3.9 21.4-3.4 5.9-12.6 17.1-21.9 16.1-9.2-1-25.3-17-27.2-23.4-1.9-6.3-2.4-43.2 0-51 2.4-7.8 22.4-14.6 33.1-15.1z"/>
					</g>
					<g id="&lt;Group&gt;">
						<path id="&lt;Path&gt;" class="s18" d="m453.3 163.4c-0.5 2.1-1.6 4.1-3.2 5.6 2.3-0.7 4.4-1.8 6.3-3.3q1.9 2.8 3.9 5.5c1.6-1.2 2.7-3 3.1-5 1.5 1.6 2.4 3.7 2.5 6 1.5-0.4 3-0.9 4.2-1.8 1.2-1 1.9-2.6 1.4-4q2.2 2.7 4.4 5.4c1.2-2.6 0.6-5.8-1.4-7.7 2.2 1.2 4 3.3 4.7 5.8 0.9-2.9 0.4-6.2-1.3-8.6q1.2 1.5 2.4 3.1c0.6-1.3 0.7-2.8 0.2-4.1 1.2 0.4 1.8 1.7 2 2.9 0.1 1.2-0.1 2.5-0.2 3.7-0.4 3.9 1 7.8 0.9 11.8-0.1 5.6-3 11.1-2.3 16.7 2.3-4.5 3.6-9.4 3.8-14.5 0.6 0.3 1.2 0.7 1.6 1.2q0.4-1.8 0.3-3.6c0.7-0.1 1.4 0.1 2 0.4q-0.1-3.4-0.2-6.9-0.1-4.1-0.2-8.2-0.1-1.1-0.2-2.1-0.2-1.5-0.7-2.9c-1.4-3.6-4.5-6.6-5.3-10.5-0.5-2.2-0.2-4.6-1.3-6.6-0.6-1.1-1.6-1.9-2.5-2.7-4.5-3.8-9.3-7.2-14.7-9.5-5.4-2.3-11.5-3.3-17.2-2.1q2.1 0.8 4.2 1.5c-4 0.2-8.1 0.9-11.8 2.4-7.5 3.3-12.9 10.1-17.9 16.6q3.3-1.2 6.6-2.3c-3.9 1.4-6.3 5.2-8 9-2.3 5.5-3.4 11.5-3.2 17.5q1.5-2.1 2.9-4.2-0.4 4.9-0.8 9.8c-0.1 1.2-0.1 2.6 0.6 3.6 0.7 1 2.5 1.2 3 0.1 2.1 4.9 4.6 9.5 7.6 13.9q0.9-10.9 2.2-21.7 0.4 1.5 0.8 3c2.5-6.9 5.7-14.5 12.4-17.3-1.3 0.7-2.2 2.1-2.5 3.6q2-0.2 4-0.4c-1.8 1.3-3.6 2.5-5.3 3.9 1.1-0.1 3.4-1.2 4.4-0.6 1.2 0.7 0.7 1.6-0.8 1.9 2.4 0.2 7.9-1.4 8.6-4.3z"/>
					</g>
					<path id="&lt;Path&gt;" class="s18" d="m429.5 184.4c2 3.1 7.1 11.8 6.8 16.4-0.4 4.5 3.4 13.8 5.3 16.4 1.8 2.5 9.4 9.5 11.6 8.2 2.2-1.3 7.1-1.5 7.9-0.7 0.7 0.7-0.2 4.5 2.5 1.8 2.7-2.8 8.9-7.7 11.1-10.6 2.2-2.9 2.2-10.9 3.3-13.1 1.1-2.2 2.8-10 2.8-10l1 0.7c0 0-0.7 12-0.8 16.4-0.1 4.4-13.4 20.8-14.7 21.1-1.2 0.4-4.3 5.5-12.2 3.5-7.8-2-23.3-16-26.2-22.2-2.9-6.2 0-24.3 0-24.3z"/>
					<path id="&lt;Path&gt;" class="s18" d="m438.8 211.7c1.5 0 7.1-3.8 10-4.6 3-0.9 10.3 1 10.3 1 0 0 5.6-0.4 8.5 0.2 2.9 0.5 5.7 6.1 7.9 6.2 2.2 0.1-0.3 3.2-3.5 4.3-3.1 1.1-13.1-8.2-13.1-8.2 0 0-12.2 8.6-17.3 6.6-5.2-2-2.8-5.5-2.8-5.5z"/>
					<g id="&lt;Group&gt;">
						<path id="&lt;Path&gt;" class="s8" d="m365.2 461.9q-0.1 0.5-0.2 0.9c-1 5.3 4.3 11.6 9 13.9 3.9 2 11.2 4.9 14.6 7.8 3.4 2.9 2.2 3.4 5.5 2 3.3-1.5 13 3.9 13 3.9 0 0 16.5 5.4 20.9 6.1 4.4 0.7 10.2 0.8 12.2 0 1.9-0.8 8.7 0.5 8.7 0.5 0 0 9.2-1.8 4.4 2.1-4.9 3.9-4.4 6.8-2.4 8.3 1.9 1.4-0.5 5.3-1.5 7.7-1 2.5-2.4 6.4-2.4 7.8 0 1.5-0.8 1-2.6 13.6-1.8 12.7-5.7 22.4-5.7 22.4 0 0 67.6-2.4 69-7.8 1.5-5.3 2.5-18.4 2.5-18.4 0-0.1 5.3-15.1 5.3-17.1 0-1.9 3.9-14.6 4.4-16 0.5-1.5 11.2-19 7.3-25.8-3.9-6.8-13.6-19-26.3-25.7-12.7-6.8-65.6-33.1-79.7-34.6-9.1-0.9-17.8 1.1-25.2 6.5-2.9 2.2-6.8 5-9.1 7.7-1 1.2-6 10-4.5 11-2.8-1.9-7.4-5-10.7-3.9 1.4 5.6 3.8 10.9 4.6 16.7-0.1-0.6-6.1 3.1-6.6 3.5-2 1.8-3.7 4.3-4.5 6.9z"/>
					</g>
					<g id="&lt;Group&gt;">
						<path id="&lt;Path&gt;" class="s25" d="m401.3 232.7c-2.2-7.4 9.4-6.8 11.6-10.3 2.2-3.6 9.5-3.5 9.5-3.5 0 0 5.5 19.6 15.9 44.8 10.4 25.1 5.5 143.5-0.1 155.8-5.6 12.3-11.2 21.4-16 33.6-2.7 6.7-2.2 22.6-8.8 25.9-1.8-5.6-4.4-3.3-8.5-2.6-3.3 0.5-5.2-3.4-6.8-6.3-0.2-0.4-0.4-0.7-0.8-0.9-1-0.7-2.2 0.4-2.8 1.4-0.5 1.1-1 2.4-2.1 2.8-14.4-7.5-1.9-42.2 8.9-49.4 10.2-6.8 8.1-5.2 10.6-18.4 2.5-13.2 15.6-118.3 10.5-130.6-5.1-12.4-17.5-29.8-21.1-42.3z"/>
					</g>
					<g id="&lt;Group&gt;">
						<path id="&lt;Path&gt;" class="s23" d="m446.5 418.3l13.7 3.6c0 0 8.5 0.4 12.2 2.2 3.6 1.8 16.2 13.5 16.2 13.5l2.9 5.6-7.1-2.4c0 0-6.6 5-9.8 2.4-3.3-2.7-9.4 0.6-14.4-0.5-5-1.1-25.4-11.6-25.4-11.6z"/>
					</g>
					<g id="&lt;Group&gt;">
						<path id="&lt;Path&gt;" class="s26" d="m396.4 276.1c0.6 3.4 0.8 6.9 1 10.3 0.3 4.6 0.3 9.9-3 13.1-1.7 1.6-4 2.5-5.1 4.5-1.7 3.2 0.5 7.7-1.8 10.5-1.1 1.2-2.9 1.7-3.8 3.1-1.3 2.2 0.5 5.1-0.3 7.6-0.3 1.3-1.3 2.2-2 3.3-1.3 1.9-1.7 4.2-2.2 6.4q-1.6 8-3.3 16.1c-0.3 1.7-0.4 3.9 1.2 4.6 0.8 0.4 1.7 0.2 2.5 0.6 2.4 1.1 0.9 4.8 1.7 6.8 1.2 2.8 4.5 4.9 6.7 6.9 3.8 3.4 7.6 6.9 11.4 10.4 3.8 3.6 7.7 7.2 11.8 10.5 5.7 4.6 11.7 8.7 17.7 12.7 3.1 2.1 3.4 5 6.7 6.8 1.3 0.7 13.3 6.8 13.9 5.8q-2.5 4.7-5 9.4c-0.8 1.4-1.6 2.9-2.7 4.1-2 2.1-4.7 3.1-7.5 3.6-1.4 0.3-3 0.8-4.5 0.5-2.6-0.5-4.9-3.2-7.5-4.2-3.1-1.1-6.4-1.2-9.5-1.7-0.7-0.1-1.4-0.2-1.9-0.8-0.4-0.4-0.6-1.1-0.8-1.7-0.9-1.7-2.8-2.5-4.6-3.1-5.6-2-11.3-3.5-17-4.4-2.2-0.4-4.5-0.7-6.6-1.6-2.3-1-4.4-2.7-6.4-4.4-7.8-6.5-15.8-11.1-24.8-16-3.4-1.8-6.7-3.6-9.9-5.8-5-3.3-5.8-2.8-6.5-9.5-0.6-5.2-0.3-10.5 0-15.8 0.6-10.4 1.3-20.3 3.9-30.4 2.5-10.3 6.4-20.2 8.6-30.5 3.8-18 2.8-44.2 18.7-56.5 1-0.7 2-1.4 3.1-1.5 1.2 0 2.3 0.7 3.3 1.3 8.8 5.5 18 11.5 22.2 21 1.2 2.6 1.9 5.3 2.3 8z"/>
					</g>
					<g id="&lt;Group&gt;">
						<path id="&lt;Path&gt;" class="s8" d="m496.4 638.1c2.8 0.8 9.7 6.8 9.7 6.8 0 0-11.7 4.1-11.3 4.1 0.5 0-4-9.1-4-9.1z"/>
						<g id="&lt;Group&gt;">
							<path id="&lt;Path&gt;" class="s23" d="m502.4 652.2c-2-0.4-3.9 6.4-12.2 9.3-8.2 2.9-16.2 0.5-30 5.3-11.4 4.1-28.2 10.2-36.3 10.1q0 0 0 0c-1.6 0-2.9-0.3-3.7-0.8-3-2.2-5.7-4.5-5.9-10.6q0 0 0 0c-0.2-3.6 0.5-8.4 2.4-15.2 5.1-18.5 39.1-16.9 39.1-16.9 9.1 3.8 10.7 4.8 20.4 6.7 9.7 1.9 14.7 0.5 20.2 0 5.5-0.5 10.4-4.8 12.8 1 2.4 5.8-4.9 11.6-6.8 11.1z"/>
						</g>
						<path id="&lt;Path&gt;" class="s8" d="m498 646.8q0-0.2 0-0.5c0.1-0.7 0.3-1.4 0.3-2.2 0-0.3 0-0.7-0.1-1-0.2-0.3-0.4-0.5-0.6-0.6-0.8-0.6-1.8-0.9-2.9-1-1 0-2 0.1-2.9-0.2-0.5-0.2-1-0.4-1.5-0.1-0.2 0.1-0.4 0.3-0.5 0.4q-0.3 0.2-0.6 0.3c-0.5 0.2-0.8 0.2-1.3 0.1-0.5-0.1-0.9-0.1-1.4-0.1-0.9 0.1-1.8 0.4-2.7 0.5-1.3 0.2-2.6-0.1-3.9-0.4-6.5-1.2-13.2 0.3-19.7 1.2-10.4 1.5-25.1 26.7-25.1 26.7l-6.9 2.9c0 0 6.2-7.3 8.8-12 2.5-4.8 13.5-17.9 19.3-19.2 5.9-1.3 23.3-0.8 25.5-0.7 2.2 0.1 5.1 0.1 5.1 0.1l4.1-2.9h5.4l-3.2 2.4c0 0 5.1 0.9 6.1 1.7 0.9 0.6 1.1 2.3 1.3 3.2 0.2 1.5 0.3 2.2-1.6 2-0.4 0-0.8-0.2-1-0.6z"/>
						<path id="&lt;Path&gt;" class="s12" d="m497.5 645.9c0 0-42.9 18.7-52.6 23.8-7.6 4-15.9 6.6-21 7.2q0 0 0 0c-1.6 0-2.9-0.3-3.7-0.8-3-2.2-5.7-4.5-5.9-10.6 1.3 3.6 7.7 4.9 10.8 3.9 3-1 13.2-6.8 17.1-7.9 3.9-1.1 8.2 1 11.5-1.4 2.5-1.7 5.7-2.7 8.6-3.9 1.5-0.6 3.1-1.2 4.6-1.9 1.4-0.6 3.4-0.7 4.2-2 0.6-0.9 0.8-2 0.8-3-1 0.5-2.3 1-3.3 0.4-0.1-0.1-0.3-0.3-0.5-0.4-0.2-0.1-0.5-0.1-0.8-0.1-1.4 0.1-2.8 0.7-4.1 1.3q-1.7 0.7-3.4 1.4 2.6-1.8 5.3-3.7c0.2-0.1 0.4-0.3 0.7-0.3 0.5-0.2 1.1 0.1 1.7 0.2 0.7 0.2 1.5 0.2 2.2 0.1 0.7-0.2 1.3-0.5 2-0.6 0.7-0.1 1.4-0.1 1.9 0.3 0.2 0.8 0.3 1.5 0.2 2.3 1.2 0.2 6.6-1.4 6.5-2.9-0.2-1.6-2.6-1.9-2.6-1.9 0 0-3.5 0.7-5.1 0.9-1.6 0.2-2.9 0.4-2.9 0.4 0 0 3.8-1.7 5.3-1.9 1.6-0.1 3.7-0.5 4.5 0 0.9 0.5 2.8-0.1 3 1.1 0.1 1.3-1.5 3 0 2.3 1.4-0.8 4.5-0.9 5.3-1.9 0.9-1-0.1-1.2 0-2 0.1-0.7-1.3-1.5-2.4-1.5-1 0-4.6 0.7-5.1 0.7 0.6-0.2 5.8-2.3 7.9-1.3 2.2 0.9 2.2 2.6 2.2 2.6l-0.8 1.4c0 0 3.2-0.1 4.1-0.3 1-0.1 2-2 1.9-2.3-0.1-0.3 0.2-1.2-0.8-1.7-0.8-0.4-3.4-0.1-3.9 0 0.6-0.1 4.9-0.9 6.6 0.5 1.8 1.5 0 3.5 0 3.5z"/>
						<g id="&lt;Group&gt;">
							<path id="&lt;Path&gt;" class="s8" d="m418.3 680c-6-1.1-10.7-3.8-1.9-7.5 8.7-3.7 42.2-13 50-17.4 7.8-4.3 31.6-12.6 43.3-9.7 11.6 3 7.8 10.1-4.4 17-12.2 6.9-40.4 10.5-50.1 14.5-9.7 4-28.7 4.5-36.9 3.1z"/>
						</g>
						<path id="&lt;Path&gt;" class="s9" d="m411.8 678.2c-0.2-2.4 7.7-3.8 22.5-7.6 14.8-3.8 29.7-10 36.3-13.7 6.7-3.8 18.9-6.1 26.9-7.9 7.9-1.9 15.6-0.2 18.1 1.2 2.6 1.3-0.1 10.1-20.2 16.6-20 6.6-32.9 7.4-39.7 10.1-6.8 2.7-22 4.3-28.4 4.3-6.5 0-15.2 0.4-15.5-3z"/>
					</g>
					<path id="&lt;Path&gt;" class="s14" d="m433.1 676.6l35.7-13.8 33.2 1 3.1 7.7-21.4 8.1c0 0-2.1 4.1-9.7 5.1-7.7 1.1-15.9 2.6-15.9 2.6l-19.9-3.1z"/>
					<path id="&lt;Path&gt;" class="s15" d="m438.2 684.2l33.2-13.7 33.7 1-16.8 8.1c0 0-3.6 9.7-15.4 8.2l-14.8-0.5z"/>
				</g>
				<path id="&lt;Path&gt;" class="s16" d="m655 387.9c-3.4-2.5-4.2 2.7-4.8 5.3-1 3.7-1.7 7.4-2.3 11.2-1.1 7.1-1.9 14.3-2.9 21.5q-0.1 1-0.3 2.1c-0.9 5.3-11.7 8.5-24.4 9.7v12.2c14.7-0.9 26.5-3.6 28.8-5.7 3.5-3.1 4.2-9.1 4.9-13.4 0.9-6.5 1.1-13 1.5-19.5 0.2-2.6 0.3-5.2 0.6-7.8 0.1-1.1 0.3-2.1 0.3-3.1 0-1-0.4-1.7 0.3-2.6 0.3-0.3 0.6-0.6 0.8-0.9 0.6-1.1 0.5-3.6 0.4-4.8-0.2-1.4-1.3-2.8-2.3-3.8q-0.3-0.2-0.6-0.4z"/>
			</g>
			<g id="&lt;Group&gt;">
				<path id="&lt;Path&gt;" class="s5" d="m240.3 549.3c-8.2 0.3-54.9 106.2-54.9 106.2"/>
				<g id="&lt;Group&gt;">
					<path id="&lt;Path&gt;" class="s6" d="m288.6 664.3l-27.1 113.4c0 0-59.7 6.5-108.1-25.5l27.3-111.7 28.6-12.9 10.9-30.7c0 0 40.8-4.1 57.8 12.3l-6.1 30.6z"/>
					<path id="&lt;Path&gt;" class="s7" d="m261.5 777.7c0 0-59.7 6.5-108.1-25.5 7.6-3.4 91.8 11.2 108.1 25.5z"/>
				</g>
				<path id="&lt;Path&gt;" class="s7" d="m180.7 640.5c0 0 58.5-3.8 107.9 23.8l-16.7-24.5c0 0-26.9-17-62.6-12.2z"/>
				<path id="&lt;Path&gt;" class="s5" d="m280.1 672.2c0 0 4.1-117.2 2.7-119.5-1.4-2.4-34.4-3.8-42.5-3.4"/>
			</g>
		</g>
	</g>
</svg>