<svg version="1.2" xmlns="http://www.w3.org/2000/svg" viewBox="0 0 2659 1724" width="1080" height="700">
	<title>10868</title>
	<defs>
		<clipPath clipPathUnits="userSpaceOnUse" id="cp1">
			<path d="m2231.71 1682.74c0 0 207.01 71.39 342.69-181.5 67.72-126.23 146.25-320.16-225.89-799.99-74.96-96.66-163.62-489.32-534.31-619.55-370.68-130.23-810.39-29.41-876.99 170.01-66.61 199.41-139.01 176.6-275.12 189.7-136.11 13.11-567.62 90.45-619.74 304.79-52.13 214.34 188.24 401.12 170.86 503.01-17.38 101.88-186.5 318.63-110.62 410.62 15.03 18.23 57.39 38.49 116.65 38.49 260.05 0 741.13-5.92 741.13-5.92z"/>
		</clipPath>
	</defs>
	<style>
		.s0 { fill: #caf0ff } 
		.s1 { fill: #f48c7f } 
		.s2 { fill: #184655 } 
		.s3 { fill: #13375b } 
		.s4 { fill: #355389 } 
		.s5 { fill: #3c8f7c } 
		.s6 { fill: #f47458 } 
		.s7 { fill: #b75742 } 
		.s8 { fill: #f7cc7f } 
		.s9 { fill: #f8a492 } 
		.s10 { fill: #f7a491 } 
		.s11 { fill: #50bfa5 } 
		.s12 { fill: #466eb6 } 
		.s13 { fill: #07345a } 
	</style>
	<g id="Layer 1">
		<g id="&lt;Group&gt;">
			<g id="&lt;Group&gt;">
				<g id="&lt;Clip Group&gt;">
					<g id="&lt;Group&gt;" clip-path="url(#cp1)">
						<path id="&lt;Path&gt;" class="s0" d="m2231.7 1682.7c0 0 207 71.4 342.7-181.5 67.7-126.2 146.2-320.1-225.9-800-75-96.6-163.6-489.3-534.3-619.5-370.7-130.2-810.4-29.4-877 170-66.6 199.4-139 176.6-275.1 189.7-136.1 13.1-567.6 90.5-619.8 304.8-52.1 214.3 188.3 401.1 170.9 503-17.4 101.9-186.5 318.6-110.6 410.6 15 18.3 57.4 38.5 116.6 38.5 260.1 0 741.2-5.9 741.2-5.9z"/>
					</g>
				</g>
			</g>
			<g id="&lt;Group&gt;">
				<g id="&lt;Group&gt;">
					<g id="&lt;Group&gt;">
						<path id="&lt;Path&gt;" class="s1" d="m1271.8 1528.9l16.3 28.2 29.2-29.4c0 0 1.8-33.1 19.4-86.5-16.9 2.3-40.8-3.5-57.8 0-7.1 46.8-7.1 87.7-7.1 87.7z"/>
						<path id="&lt;Path&gt;" class="s2" d="m1312.1 1524.7c0 0-17.3 4.9-22.9 3.7-5.5-1.2-12.5-8.4-18.2-4.5-5.7 3.9-15.4 36.7-13.7 43.9 1.9 7.5 7.1 15.8 12.8 17 5.6 1.2 111.9 1.6 127.5-2.3 15.7-3.9 12-20.5-4.5-28-16.5-7.4-72.5-35.5-81-29.8z"/>
					</g>
					<path id="&lt;Path&gt;" class="s2" d="m1410.6 1226c-10.5-58.7-239.8-64.6-239.8-64.6-47.6 15.1-29.8 37.5-64.4 66.5 12.7 22 24.4 40.2 29.2 41.1 12.3 2 188.3 2.4 188.3 2.4l-37 208.7c19.1 3 30.7 0.9 49.8 4.6 29.6-85.9 82.7-208.9 73.9-258.7z"/>
					<path id="&lt;Path&gt;" class="s3" d="m900.2 804.4c8.6 29.9-56.9-60.4-83.5-58.5-19.9 1.5-40 7.8-55.3 21.7-65.3 59.1-17.9 217.2 70.5 211.1 42.5-2.9 73.9-51.6 113.4-68.7 33.7-14.6 41.2-17.8 58.7-45.4 17.4-27.6 23.7-70.5 16.3-100.3-5-20.3-12.7-29.1-26.3-38.3-21.8-14.7-123.7-25.6-93.8 78.4z"/>
					<path id="&lt;Path&gt;" class="s3" d="m979 1176.7c-31.1-20.2-45.4-65.1-98-9.5-45 49.6 16.8 87.5 34.7 100 18.8 13.3 216.4 84.8 216.4 84.8-0.3 0.3-24.5 5.5-46.1 37.7-21 31.9-83.9 116.7-93.6 120-9.8 3.3-19 7.9-19 7.9l22.2 81.9c0 0 16.3-58.7 21.3-70 3-6.8 172.4-177.7 172.4-203.3 0-47.3-174-125.8-210.3-149.5z"/>
					<g id="&lt;Group&gt;">
						<path id="&lt;Path&gt;" class="s2" d="m891.8 1576.6c0 61.4-49.7 111.1-111 111.1-61.4 0-111.1-49.7-111.1-111.1 0-61.3 49.7-111 111.1-111 61.3 0 111 49.7 111 111z"/>
						<path id="&lt;Path&gt;" class="s4" d="m780.8 1665.8c-49.2 0-89.2-40-89.2-89.2 0-49.1 40-89.1 89.2-89.1 49.1 0 89.1 40 89.1 89.1 0 49.2-40 89.2-89.1 89.2z"/>
					</g>
					<path id="&lt;Path&gt;" class="s2" d="m1661.4 1605.9c-16.9 62-78.6 99.2-137.8 83-59.2-16.1-93.5-79.5-76.5-141.5 16.9-62 78.6-99.2 137.8-83 59.2 16.1 93.4 79.5 76.5 141.5z"/>
					<path id="&lt;Path&gt;" class="s4" d="m1551.7 1670.8c-7.5 0-15-1.1-22.3-3-22.8-6.3-41.7-21.5-53.3-42.9-11.8-21.7-14.6-47.2-7.9-71.7 11.4-41.6 47.8-70.7 88.6-70.7 7.5 0 15 1 22.3 3 22.8 6.3 41.7 21.5 53.3 42.9 11.7 21.7 14.5 47.2 7.8 71.7-11.3 41.6-47.7 70.7-88.5 70.7z"/>
					<path id="&lt;Path&gt;" class="s1" d="m1180.6 1069.2c10-3.5 14.2-7.7 12.1-9.5-2-1.7-34 10.3-38.2 10.3-4.2-0.1 37-13.1 37.3-15.8 0.2-2.7-1-3.1-3.8-3.2-2.8 0-32.2 15-35.8 13.3-3.6-1.7 23.4-11.5 27.9-13.1 4.5-1.6 0.3-4.3-8.4-2.7-8.7 1.7-18.1 10.6-31.3 11.8-13.2 1.1-15.5-1.3-13.6-2.6 1.8-1.4 12.4-0.4 15.2-1.3 2.7-0.9 3.4-5.6-6.9-5.1-10.3 0.6-17.1 5.6-20.2 9.2-3 3.7-71.3 3.9-95.4-4.4-8.1-2.8-18.6-20.8-19.3-38.6-24 3.6-35 6.5-56.6 18.3 12.6 39.9 30.3 79 46.4 80.4 34.1 3 131.3-32.8 131.3-32.8 0 0 24.2 3.6 35.2 1.7 11-1.9 22.6-4.9 25.9-10 3.3-5.2-22.2 2.8-26.9 2.2-4.6-0.6 15.2-4.7 25.1-8.1z"/>
					<path id="&lt;Path&gt;" class="s5" d="m985.9 901.1c-9.1-9.4-39.7-24.7-55.9 19.2-8.4 23.2-0.6 75.9 13.6 120.8 21.6-11.8 44.8-18.9 68.8-22.5-1.6-34.9 1.8-87.9-26.5-117.5z"/>
					<path id="&lt;Path&gt;" class="s2" d="m1503.1 1072.7l83.9-4.8-4.8 26.9-79.1-0.8z"/>
					<path id="&lt;Path&gt;" class="s6" d="m1474.9 1099.1l-79.1 472.4 132.9-107.8-4.6-362.7z"/>
					<path id="&lt;Path&gt;" class="s7" d="m866.9 1317.8l-8.8 8-166.3 118.2-8.4 66.4c0 0 191.6 10.1 222.8 22.2 31 12.1 37 94.3 37 94.3l403.8 0.6c33.2 0 67.9-17.2 92.5-45.3 31-34.8 75.2-78.1 103.9-85.7 49.5-12.9 111.9-0.8 111.9-0.8l39.8-19.6c0 0-45.9-81.3-158.4-40.3-108.9 41.1-104.3 140.3-196.9 146.6-64.1 4.5-185.9 2.4-254 0.7-31.7-0.8-55.7-26.9-52.8-58.3 1.9-20.5 8.1-43.3 23.5-62.3 39.9-47.7 132.8-105.1 132.8-105.1l3.9-34.3z"/>
					<path id="&lt;Path&gt;" class="s6" d="m832.7 1290.9l0.4 11.3 376 2.9 3.7-31.9-353.1-6c-15.3-0.3-27.5 10.4-27 23.7z"/>
					<path id="&lt;Path&gt;" class="s2" d="m858.1 1325.8l-9.8-23.5 350.7 2.7-5.1 23.2z"/>
					<path id="&lt;Path&gt;" class="s6" d="m830.7 1422.8q-3.7-1.1-7.5-2.1c-109.2-27.1-201.9 51-179.3 153.3l247.1 0.7 52.2 52.2c0 0-13.2-174.1-112.5-204.1z"/>
					<path id="&lt;Path&gt;" class="s3" d="m1599.6 962.4c3.9-15.8 2.1-28.8-4-28.8-6.1-0.1-14.1 12.7-17.9 28.6-3.5 14.8-2.1 27.1 3 28.7l-75.1 104.9 11.6 3.5 65.3-108.3c5.9-1 13.4-13.4 17.1-28.6z"/>
					<path id="&lt;Path&gt;" class="s7" d="m1481 1062.8l-18.4 2.6-16.6 28.3 31.2 7.7z"/>
					<path id="&lt;Path&gt;" class="s2" d="m1556.8 1276.2c-2.6 22.6-22.2 42.4-43.7 44.2-21.4 1.8-37.2-15.1-35.2-37.7 1.8-22.7 21.2-42.5 43.3-44.3 22.2-1.7 38.1 15.2 35.6 37.8z"/>
					<path id="&lt;Path&gt;" class="s6" d="m1556.8 1276.1c-2.6 22.5-19.6 42-38 43.6-18.3 1.5-31.4-15.5-29.4-38.1 2-22.6 18.8-42.1 37.7-43.6 18.9-1.5 32.2 15.5 29.7 38.1z"/>
					<path id="&lt;Path&gt;" class="s8" d="m1492.6 1281.3c1.5-16.5 14-39.1 34.2-40.7 19.5-1.5 28.8 17.8 26.8 35.7-2.4 21.1-17.9 39.3-34.5 40.7-18.8 1.6-28.1-17.8-26.5-35.7z"/>
					<path id="&lt;Path&gt;" class="s9" d="m1442.4 628.2c-0.7 22.8 3.1 21.9 2.9 24.9-0.2 3.4-27.2 41.2-27.2 41.2 0 0-79.1 111.9-83.5 117.8l-120.6 72.4 17.1 70.2c0 0 129.2-82.2 135.3-87.7 6-5.5 95.8-169 104.1-183.2 0 0 16-13.2 25.8-21.9 9.8-8.6 15.4-21.2 17.8-24.1 0.4-0.4 7.8-10.4 13.8-25.1 5.2-12.7-5.4-2.9-5.4-2.9 0 0-13.7 21.8-15.2 20.5-1.1-1.1 7-12.6 12.9-26.6 1.5-3.6 3-7.1 4.3-10.4 3.5-8.6-0.7-13.1-5.7-4.7-1.8 3-4.6 8-6.2 11.9-1.6 4.2-4.5 7.5-6.4 10.8-3.8 6.5-6.5 11.3-6.7 11-0.2-0.4-1.8 0.4-0.4-3.5 1.8-4.6 7.7-13.7 9.8-20.7 1.2-4 4.2-12.1 4.2-12.1 0 0 2.3-13.2 1.6-13.6-3.9-2-7.9 6.6-8.8 12.2-2.4 3.3-5.3 12-5.3 12 0 0-9.8 16.3-12 15-1-0.6 3.8-11.3 6.9-22.5 2.9-10.4 4.1-21.4 2.2-22.2-3.3-1.5-7.7 9.8-7.7 9.8 0 0-2.7 8-3.7 10.6-1.3 3.1-5.8 11.9-5.8 11.9 0 0-17.1 30.1-19.1 28.7-2.1-1.5-5.8-7.3-5.4-9.5 0.4-2.2 3.3-5.9 3.8-8.2 0.4-2.2-0.9-5.4-3.6-6.1-2.6-0.7-8.7 9.3-8.7 9.3 0 0-4.9 8.2-5.1 14.8z"/>
					<path id="&lt;Path&gt;" class="s4" d="m1291 829.6c-4-1.7-127.1 48.8-132.6 75.1-5.6 26.3 26.2 74.5 61 62.5 34.9-11.9 111.3-70.1 111.3-70.1 0 0-26.6-62.1-39.7-67.5z"/>
					<path id="&lt;Path&gt;" class="s4" d="m1170.8 1161.4l6.8-17.7c0 0 77.4-148.7 76.2-225-0.7-33.8-35-51.5-39.5-52.4-22.4-4.9-68.2-30.8-105.7-5.1-44.2 31-94.9 178-96.2 221.5-1.4 43.6-5.2 123.9 15.5 158.7 34.3-29.1 95.3-64.9 142.9-80z"/>
					<g id="&lt;Group&gt;">
						<path id="&lt;Path&gt;" class="s10" d="m1222 1531.9l16.3 28.3 29.2-29.5c0 0 1.9-33.1 19.4-86.5-16.9 2.4-40.7-3.5-57.8 0-7.1 46.8-7.1 87.7-7.1 87.7z"/>
						<path id="&lt;Path&gt;" class="s2" d="m1262.4 1527.8c0 0-17.4 4.8-22.9 3.6-5.6-1.2-12.5-8.4-18.3-4.5-5.7 3.9-15.4 36.7-13.6 43.9 1.8 7.6 7 15.8 12.7 17 5.6 1.2 111.9 1.6 127.5-2.3 15.7-3.8 12-20.5-4.5-27.9-16.5-7.5-72.5-35.6-80.9-29.8z"/>
					</g>
					<path id="&lt;Path&gt;" class="s5" d="m1341 1231.4c4.9-59.4-170.2-70-170.2-70-47.6 15.1-107.9 32.1-142.5 61.1 12.7 22 40.7 45.6 45.4 46.5 12.3 2 163.2 9.8 163.2 9.8l-32.6 203.7 81.1 8.5c6.3-13.9 49.6-185.9 55.6-259.6z"/>
					<path id="&lt;Path&gt;" class="s10" d="m936.4 1509.7c-9.7 3.3-19 7.9-19 7.9l22.2 81.9c0 0 16.3-58.7 21.4-70 0.5-1.2 5.8-6.6 14.3-14.9-6-10.1-11.5-20.6-18.5-29.9-9.7 14-17.3 23.9-20.4 25z"/>
					<path id="&lt;Path&gt;" class="s2" d="m942.8 1551.7c-3-14.1-0.5-29.2-7-41.8-9.5 3.3-19.2 5.7-19.2 5.7 0 0 12.7 90.1 27.5 92.8 9.3 1.7 0.6-27.1 5.9-45.2-3.5-3-6.2-6.6-7.2-11.5z"/>
					<path id="&lt;Path&gt;" class="s4" d="m1142.5 1320.5c0-47.3-147.6-110.5-180.4-138.8-1.3-1.2-84.5-70.1-137.1-14.5-45 49.6 16.9 87.5 34.7 100 18.9 13.3 195.4 61 195.4 61-3.5 3.4-23.8 18.5-45.4 50.7-14.4 21.9-42.4 71.1-63.4 101.5 7 9.4 23 24.1 29 34.2 41.8-40.7 167.2-172.8 167.2-194.1z"/>
					<path id="&lt;Path&gt;" class="s4" d="m832.7 1109.8l-23.4 87.5 155-13.8-19.9-59.6z"/>
					<path id="&lt;Path&gt;" class="s11" d="m954.1 1067.9c7-7.2 26.2-32.9 34.3-57.7 15.5-48-9.2-116.9-12.7-119.3 0 0-91.9-18.4-110.8 15.5-29.9 53.7-35.3 159.2-43.5 230.3-1.1 9.9 97.7 9.7 130.1-2.9-3.4-27.5-4.9-57.9 2.6-65.9z"/>
					<path id="&lt;Path&gt;" class="s10" d="m1189.3 1078.9c-13.8-7.2 17.4-181.2-39.2-212.6 0 0-22.5-14.9-51.7 10.1-28.8 25 16.3 262.4 44.1 277.1 41.3 21.9 185.8-30.8 222.5-39.5l-4.3-38.3c0 0-159.2 9.6-171.4 3.2z"/>
					<path id="&lt;Path&gt;" class="s12" d="m1189.3 1038.8c1.4-60.4-1.4-151.5-39.2-172.5 0 0-22.5-14.9-51.7 10.1-16.7 14.6-27.8 111-14.7 186.5 25.3-14 76-24.5 105.6-24.1z"/>
					<path id="&lt;Path&gt;" class="s3" d="m1442.2 952.6c4.8-15.8 13.5-28.2 19.5-27.7 6 0.5 6.9 13.7 2.1 29.5-4.6 14.8-12.5 26.7-18.3 27.7l17.6 109.3-13.2 2.3-6.3-111.7c-5.2-1.4-5.9-14.2-1.4-29.4z"/>
					<path id="&lt;Path&gt;" class="s3" d="m1471.8 941.2c0 23.8-15.9 43.1-35.6 43.1-19.7 0-35.7-19.3-35.7-43.1 0-23.7 16-43 35.7-43 19.7 0 35.6 19.3 35.6 43z"/>
					<path id="&lt;Path&gt;" class="s6" d="m1540 1065.1l-5.5 35.8-57.3 0.5 3.8-38.6z"/>
					<g id="&lt;Group&gt;">
						<path id="&lt;Path&gt;" class="s10" d="m940 829.2c0 0-4.6 43.2-9.7 55.1-5.2 11.9-5.2 54.9 21.4 62.9 26.6 8 27.1-47.2 28.4-60 1.4-12.7 3.3-54.6 3.3-54.6z"/>
						<path id="&lt;Path&gt;" class="s6" d="m938.5 842.3c2.6 2.9 5.8 5.6 9.4 7.9 12.9 8.1 24.7 8.1 34.5 3.4 0.6-11.4 1-21 1-21l-43.4-3.4c0 0-0.6 5.5-1.5 13.1z"/>
						<path id="&lt;Path&gt;" class="s10" d="m956.4 741.5c0 0-16.1 3.4-26.3 18.1-10.2 14.6-18.2 61 14.1 81.5 32.4 20.6 58.8-10.8 59.7-38.8 0.9-28-4.6-65.3-47.5-60.8z"/>
						<path id="&lt;Path&gt;" class="s10" d="m931 796.9c2.2 7.3-0.1 14.5-5.2 16-5 1.5-11-3.2-13.2-10.5-2.3-7.3 0-14.4 5.1-15.9 5.1-1.5 11 3.1 13.3 10.4z"/>
						<path id="&lt;Path&gt;" class="s3" d="m962.9 737.9c0 0-21.3 44.6-39.4 48.4-18.1 3.8-18.2 26.4-18.2 26.4 0 0 1.3-52 18.4-63.8 17.1-11.8 39.2-11 39.2-11z"/>
					</g>
					<path id="&lt;Path&gt;" class="s3" d="m813.6 894c0 40.8-30.5 73.9-68.1 73.9-37.7 0-68.2-33.1-68.2-73.9 0-40.7 30.5-73.8 68.2-73.8 37.6 0 68.1 33.1 68.1 73.8z"/>
					<path id="&lt;Path&gt;" class="s7" d="m1427.7 1560.5l-62.7 23 77-436.3-22.4-6.8 26.4-46.7 31.2 7.7z"/>
					<path id="&lt;Path&gt;" class="s2" d="m1352.7 1072.7c0 0 93.3-5 112.7-0.4 6.1 1.5 1.8 20.4-3.1 24.4-22.6 18.8-109.6 17.3-109.6 17.3z"/>
					<path id="&lt;Path&gt;" class="s12" d="m1366.6 1093.2c0 11.5-6.2 20.8-13.9 20.8-7.7 0-13.9-9.3-13.9-20.8 0-11.5 6.2-20.7 13.9-20.7 7.7 0 13.9 9.2 13.9 20.7z"/>
					<path id="&lt;Path&gt;" class="s10" d="m1366.6 1072c0 0 19.9-18.4 27.6-18.4 7.6 0 18.1 2.5 21.3 2.5 1.9 0 18.9 31.7 14.6 36.1-2.6 2.7-16.3-21.8-16.3-21.8 0 0 15.6 25.2 8.6 27-3.9 1-17.7-24.4-17.7-24.4 0 0 11.9 21 10.6 21.8-6.1 3.6-29.2-23-29.2-23z"/>
				</g>
				<path id="&lt;Path&gt;" class="s10" d="m910.5 880.3c0 0-75.7-120.8-90.5-147.6-13.3-24.2-74-115.5-75.9-119.3-1.8-3.9 23.7-53.4 16.9-54.7-6.9-1.2-11.8 26-19.2 23.2-7.5-2.8-34.5-66.1-38.3-62.6-7.1 6.4 15.1 39.3 11.2 41.7-3.9 2.4-19.9-36.5-27.8-34.8-7.9 1.6 18.6 35.4 16.7 38.6-2 3.2-29.2-28.5-32.9-21.2-2 4 24.9 27.7 20.4 30.3-4.5 2.6-27.8-12.3-29.6-7.5-1.9 4.8 21.1 9.9 29.1 22 7.9 12.2 19.8 17 26.8 40 3.4 11.4 40.9 91.1 74.8 156.9 34.8 67.6 66.1 121.2 66.1 121.2z"/>
				<path id="&lt;Path&gt;" class="s11" d="m927 908.9c-2.6-13.6-49.2-88.7-49.2-88.7 0 0-58.1 27.3-64.2 44.4 0 0 58.8 87 52.1 89.1z"/>
				<path id="&lt;Path&gt;" class="s8" d="m922.7 854.1c-4.6-11.1 5.4-26.5 7-28.9 0.5-0.6-5.5-5-6.6-5-4.5 0-9.3 23-4.2 35.4 3.1 7.5 10.7 12.3 22.6 14.3l0.7-4c-10.4-1.8-17-5.7-19.5-11.8z"/>
				<path id="&lt;Path&gt;" class="s7" d="m895.6 745.1c-5.2 14.5-5.6 45.9 7.7 68.1 10.2 17 23.9 15.6 26.8 14.1 2.9-1.4-15.2-17-9-53.2 6.3-36.8 42.1-35.5 60.4-27.8 18.2 7.6 27.8 55.9 18.7 73.5-9.1 17.5 32.6-11.8 21.2-59.8-10.2-43.3-46.5-59.6-84.4-49.3-17.6 4.8-34.9 16.7-41.4 34.4z"/>
				<g id="&lt;Group&gt;">
					<path id="&lt;Path&gt;" class="s7" d="m947.6 876.4c-29.7 0-31.9-18.2-31.9-19l10.9-1.1-0.1-0.2c0.1 0.5 2.1 10.9 26.3 9.1 3-0.2 5.7 2.1 5.9 5.1 0.2 3-2.1 5.6-5.1 5.9q-3.1 0.2-6 0.2z"/>
				</g>
				<path id="&lt;Path&gt;" class="s13" d="m1216 674c0 0-21.5-22.6-38.8 4.9 0 0-13.4-7.5-22.7 5.9 0 0-24.1-7.3-29.9 28.7 0 0-12.4-2.3-14 12.4-1.7 14.7 5.8 24.5 5.8 24.5 0 0-6.9 5.2-3.8 18.8 2.7 11.5 12.2 13.2 12.2 13.2 0 0 2.6 19.4 11 25.3 8.4 5.8 19.9 3 19.9 3 0 0 3 10.5 12.8 9.6 9.8-0.9 22-10.3 33-6.1 11 4.2 39.5-0.2 39.5-0.2 0 0 32-14.3 22.4-47 0 0 16.8-15.2 2.1-33.4 0 0 10.7-28.5-10.5-45.3-21.3-16.9-39-14.3-39-14.3z"/>
				<path id="&lt;Path&gt;" class="s10" d="m1212.3 827.9l3.9 28.9c0 0 8.7 41.6-2.5 49.6-11.2 8-47.7-50.8-47.7-50.8l3.9-73.2z"/>
				<path id="&lt;Path&gt;" class="s6" d="m1168.6 806.1c9.3 25 31.4 40.3 47 46.3l-3.3-24.5-42.4-45.5z"/>
				<path id="&lt;Path&gt;" class="s13" d="m1110.2 732.7c0 11.2 6.3 20.2 14.1 20.2 7.9 0 14.2-9 14.2-20.2 0-11.1-6.3-20.2-14.2-20.2-7.8 0-14.1 9.1-14.1 20.2z"/>
				<path id="&lt;Path&gt;" class="s13" d="m1152.6 689.3c0 6.4 7.8 11.6 17.3 11.6 9.5 0 17.2-5.2 17.2-11.6 0-6.4-7.7-11.5-17.2-11.5-9.5 0-17.3 5.1-17.3 11.5z"/>
				<path id="&lt;Path&gt;" class="s10" d="m1195.8 705.6c22.8-7.9 47 7.3 50.5 30.7 1.5 10.2 2.9 23 3.1 37.1 0.6 33.7-16.8 66.5-32.1 66.5-15.4 0-57.7-21.8-59.2-69.7-0.9-29.6 13.8-56.4 37.7-64.6z"/>
				<path id="&lt;Path&gt;" class="s10" d="m1169.4 774c0 7.4-5 13.5-11 13.5-6.1 0-11-6.1-11-13.5 0-7.5 4.9-13.5 11-13.5 6 0 11 6 11 13.5z"/>
				<path id="&lt;Path&gt;" class="s13" d="m1262.1 688.8c15.8 12.5 21.4 31.6 12.4 42.5-9 11-29.1 9.7-44.9-2.8-15.8-12.6-21.3-31.6-12.4-42.6 9-10.9 29.1-9.6 44.9 2.9z"/>
				<path id="&lt;Path&gt;" class="s13" d="m1220.8 699.1c0 5.4-6.6 9.8-14.7 9.8-8.1 0-14.7-4.4-14.7-9.8 0-5.5 6.6-9.9 14.7-9.9 8.1 0 14.7 4.4 14.7 9.9z"/>
				<path id="&lt;Path&gt;" class="s13" d="m1264.5 741c0 7-5.6 12.6-12.6 12.6-6.9 0-12.5-5.6-12.5-12.6 0-7 5.6-12.7 12.5-12.7 7 0 12.6 5.7 12.6 12.7z"/>
			</g>
		</g>
	</g>
</svg>