<svg version="1.2" xmlns="http://www.w3.org/2000/svg" viewBox="0 0 1000 842" width="1000" height="842">
	<title>3112663</title>
	<style>
		.s0 { fill: #f0f0f0 } 
		.s1 { fill: #e0e0e0 } 
		.s2 { fill: #27debf } 
		.s3 { fill: #000000 } 
		.s4 { fill: #ffffff } 
		.s5 { opacity: .1;fill: #000000 } 
		.s6 { fill: #455a64 } 
		.s7 { fill: #37474f } 
		.s8 { fill: #f5f5f5 } 
		.s9 { fill: none;stroke: #e0e0e0;stroke-miterlimit:10;stroke-width: 2 } 
		.s10 { opacity: .4;fill: #000000 } 
		.s11 { opacity: .2;fill: #000000 } 
		.s12 { opacity: .4;fill: #ffffff } 
		.s13 { opacity: .5;fill: #000000 } 
		.s14 { fill: #ffa8a7 } 
		.s15 { fill: #263238 } 
		.s16 { fill: #f28f8f } 
		.s17 { fill: #b16668 } 
		.s18 { opacity: .2;fill: #ffffff } 
		.s19 { fill: none;stroke: #455a64;stroke-linecap: round;stroke-linejoin: round;stroke-width: 2 } 
		.s20 { fill: #fafafa } 
		.s21 { opacity: .3;fill: #ffffff } 
		.s22 { fill: #ebebeb } 
		.s23 { fill: #f0997a } 
		.s24 { fill: #ffbda7 } 
		.s25 { opacity: .5;fill: #9a4a4d } 
		.s26 { fill: #9a4a4d } 
	</style>
	<g id="Floor">
		<path id="Floor 5 " class="s0" d="m788.5 409.7c169.1 93 169.1 243.8 0 336.8-169.2 93-443.5 93-612.7 0-169.2-93-169.2-243.8 0-336.8 169.2-93 443.5-93 612.7 0z"/>
	</g>
	<g id="Shadows">
		<path id="Shadow 6 " class="s1" d="m447.7 666.4c-33.4-19.3-33.4-50.5 0-69.8 33.4-19.3 87.5-19.3 120.9 0 33.4 19.3 33.4 50.5 0 69.8-33.4 19.3-87.5 19.3-120.9 0z"/>
		<path id="Shadow 7 " class="s1" d="m559.1 610.4c-33.4-19.3-33.4-50.6 0-69.9 33.4-19.2 87.5-19.2 120.9 0 33.4 19.3 33.4 50.6 0 69.9-33.4 19.2-87.5 19.2-120.9 0z"/>
		<path id="Shadow 8 " class="s1" d="m242.9 704.9c35.9 20.7 133.8-3.3 218.7-53.7l165.3-98c84.9-50.3 126.1-107.1 92-126.8-34-19.7-131 4.4-216.5 53.7l-169.6 98c-85.5 49.3-125.7 106.1-89.9 126.8z"/>
	</g>
	<g id="Plants">
		<g id="Plants 7 ">
			<g id="&lt;Group&gt;">
				<g id="&lt;Group&gt;">
					<path id="&lt;Path&gt;" class="s2" d="m156.9 501.3l15.3-8.8c0 0 9.1-37.8 5.5-71.8-5.1-47.8-36.6-65.7-48.5-61.6-12 4.1-15.5 18 4.3 46.5 11.7 16.8 26 51.7 23.4 95.7z"/>
				</g>
				<g id="&lt;Group&gt;" style="opacity: .1">
					<path id="&lt;Path&gt;" class="s3" d="m156.9 501.3l15.3-8.8c0 0 9.1-37.8 5.5-71.8-5.1-47.8-36.6-65.7-48.5-61.6-12 4.1-15.5 18 4.3 46.5 11.7 16.8 26 51.7 23.4 95.7z"/>
				</g>
				<g id="&lt;Group&gt;">
					<path id="&lt;Path&gt;" class="s4" d="m163.2 482.7q0 0-0.1 0c-0.6-0.1-1-0.6-0.8-1.2 8.3-44.1-7.1-93.6-26.1-114.2-0.4-0.4-0.4-1.1 0-1.5 0.5-0.4 1.1-0.4 1.5 0.1 19.4 20.9 35.1 71.3 26.6 116-0.1 0.5-0.5 0.9-1.1 0.8z"/>
				</g>
			</g>
			<g id="&lt;Group&gt;">
				<g id="&lt;Group&gt;">
					<path id="&lt;Path&gt;" class="s2" d="m116.9 524.4c-2.4 1.2-8.8-4.3-10.6-5.6-3.1-2.3-5.5-5.4-7-8.9-1.8-4.1-2.1-8.4-1.2-12.7 0.4-2.3 1.1-4.5 1.9-6.6q1.1-3.2 2.2-6.4c0.7-2.1 1.4-4.3 1.3-6.5-0.4-4.5-4.2-7.8-7.6-10.7-3.8-3.2-7.8-7.3-7.5-12.6 0.3-4.2 2.6-7.9 5.3-11 2.7-3.1 5.9-5.8 8.4-9.1 1.8-2.4 3.2-5.2 3.1-8.2-0.1-1.9-0.7-3.6-1.5-5.3-1.8-3.6-4.1-6.9-5.2-10.7-1.1-3.8-0.7-8.5 2.4-11 2.5-2.1 6.1-2.2 9.3-1.8 3 0.3 5.8 1.8 8.4 3.4 8.3 5.2 12.6 15.5 21.4 19.6 3.4 1.6 7.2 2 10.8 3.2 3.6 1.1 7.2 3.2 8.7 6.6 3 6.8-3.6 14.6-1.6 21.8 1.7 6.3 7.7 8.9 10.8 14.7 1.3 2.5 1.5 5.4 1.1 8.2-0.6 4.8-1.5 8.3-4.1 13.6-2.1 4.3-8.1 12.5-8.1 12.5 0 0-40.3 23.3-40.7 23.5z"/>
				</g>
				<g id="&lt;Group&gt;">
					<path id="&lt;Path&gt;" class="s4" d="m140.3 512.2q0 0 0 0c-0.6 0-1.1-0.6-1-1.1 3.9-42-13.6-89.3-27.3-103.5-0.4-0.4-0.4-1.1 0-1.5 0.4-0.4 1.1-0.4 1.5 0 14 14.5 31.8 62.6 27.9 105.1-0.1 0.6-0.5 1-1.1 1z"/>
				</g>
				<g id="&lt;Group&gt;">
					<path id="&lt;Path&gt;" class="s4" d="m136.1 460.5q-0.1 0-0.3 0c-13.3-4.9-30-6.5-30.2-6.5-0.6 0-1-0.6-1-1.1 0.1-0.6 0.5-1.1 1.2-1 0.1 0 17.2 1.6 30.7 6.6 0.6 0.2 0.9 0.8 0.7 1.3-0.2 0.5-0.6 0.8-1.1 0.7z"/>
				</g>
			</g>
		</g>
		<g id="Plants 6 ">
			<g id="&lt;Group&gt;">
				<path id="&lt;Path&gt;" class="s2" d="m823.4 503.5l-19.1-11c0 0-4.7-41-1.6-72.8 4.4-44.6 33.2-98.2 67.6-85.6 34.3 12.6-15.8 58-26.9 95.8-11.2 37.9-20 73.6-20 73.6z"/>
				<path id="&lt;Path&gt;" class="s5" d="m823.4 503.5l-19.1-11c0 0-4.7-41-1.6-72.8 4.4-44.6 33.2-98.2 67.6-85.6 34.3 12.6-15.8 58-26.9 95.8-11.2 37.9-20 73.6-20 73.6z"/>
				<path id="&lt;Path&gt;" class="s4" d="m813.4 498.9q0 0 0 0c0.6-0.1 1.1-0.6 1.1-1.2-3.3-99.1 46-149 46.5-149.5 0.4-0.4 0.4-1.2 0-1.6-0.5-0.5-1.2-0.5-1.6 0-0.5 0.5-50.6 51-47.2 151.1 0 0.7 0.5 1.2 1.2 1.2z"/>
			</g>
			<g id="&lt;Group&gt;">
				<path id="&lt;Path&gt;" class="s2" d="m835.5 510.4l-13.7-7.9c0 0-2.3-28.1 11.5-62.2 12-29.8 41.8-54.5 56.8-49.3 15 5.2 14.6 15.8 7.3 27-7.3 11.1-51.8 37.7-61.9 92.4z"/>
				<path id="&lt;Path&gt;" class="s4" d="m828.3 507.4c0.6 0 1.1-0.5 1.1-1.1-0.2-62.7 58.6-105.1 59.2-105.5 0.5-0.3 0.6-1.1 0.3-1.6-0.4-0.5-1.1-0.6-1.6-0.3-0.6 0.5-60.5 43.5-60.2 107.4 0 0.6 0.5 1.1 1.2 1.1z"/>
			</g>
		</g>
	</g>
	<g id="Hearts">
		<path id="&lt;Path&gt;" class="s2" d="m345.7 94.9c-1-2.6-2.9-4.6-5.2-5.8-2.7-1.4-5.9-1.7-9-0.6-5.2 2-7.3 9.3-6.1 14.6-2.5-4.8-9-8.9-14.2-7-3 1.2-5.3 3.5-6.4 6.3v0.1c-0.9 2.4-1 5.1 0 7.8 3 8.1 12.2 9.7 20.5 12.7l8.7 3 4.6-8c4.3-7.7 10.1-15 7.1-23.1z"/>
		<path id="&lt;Path&gt;" class="s2" d="m725.9 53.2c1.2-2.5 1.3-5.2 0.6-7.7v-0.1c-0.8-2.8-2.8-5.4-5.8-6.8-5-2.4-11.8 1.1-14.7 5.7 1.7-5.2 0.1-12.7-4.9-15.1-2.9-1.4-6.2-1.3-8.9-0.2h-0.1c-2.4 1.1-4.4 2.9-5.6 5.4-3.7 7.8 1.4 15.6 5.1 23.6l3.8 8.4 8.9-2.3c8.6-2.2 17.9-3.1 21.6-10.9z"/>
	</g>
	<g id="Characters">
		<g id="&lt;Group&gt;">
			<g id="&lt;Group&gt;">
				<path id="&lt;Path&gt;" class="s6" d="m682.2 404.5c-7.2-23.5-36.6-42.9-64.1-35.2h0.1c-4 1.1-8.1 2.8-12.4 5.3-26.7 15.3-48.2 52.7-48.2 83.5 0 5.8 0.7 10.9 2.1 15.3 7.2 23.5 36.6 42.8 64 35.1 4-1 8.1-2.8 12.4-5.3 26.6-15.3 48.2-52.7 48.2-83.5 0-5.7-0.7-10.8-2.1-15.2z"/>
				<path id="&lt;Path&gt;" class="s7" d="m636.1 503.2c26.6-15.3 48.2-52.7 48.2-83.5 0-30.8-21.6-43.2-48.2-27.9-26.7 15.4-48.3 52.8-48.3 83.6 0 30.7 21.6 43.2 48.3 27.8z"/>
				<path id="&lt;Path&gt;" class="s8" d="m614.5 500.5c-16.3 0-17.5-19.3-17.5-25.3 0-27.3 20-62 43.6-75.6 6.1-3.5 12-5.4 17-5.4 16.3 0 17.6 19.4 17.6 25.3 0 27.4-20 62-43.7 75.7-6.1 3.5-11.9 5.3-17 5.3z"/>
				<path id="&lt;Path&gt;" class="s9" d="m620.5 485.9c-11.9 0-12.8-14-12.8-18.3 0-19.9 14.5-45 31.7-54.9 4.4-2.5 8.6-3.9 12.3-3.9 11.8 0 12.7 14.1 12.7 18.4 0 19.8-14.5 44.9-31.6 54.8-4.4 2.6-8.7 3.9-12.3 3.9z"/>
				<path id="&lt;Path&gt;" class="s6" d="m636.1 426c10.2-6 18.5-1.2 18.5 10.7 0 11.8-8.3 26.2-18.5 32.1-10.3 5.9-18.6 1.1-18.6-10.7 0-11.8 8.3-26.2 18.6-32.1z"/>
				<path id="&lt;Path&gt;" class="s7" d="m636.1 440c3.5-2 6.3-0.3 6.3 3.7 0 4.1-2.8 9-6.3 11-3.5 2-6.4 0.4-6.4-3.7 0-4 2.9-8.9 6.4-11z"/>
			</g>
			<g id="&lt;Group&gt;">
				<path id="&lt;Path&gt;" class="s2" d="m581.9 495.9l-81.7-47.1c0 0-71.3 69.7-105.2 59.2 0 0-8.6 90.4 31.5 98.1 40 7.8 92.5-41.2 111.7-61.1 19.2-19.8 43.7-49.1 43.7-49.1z"/>
				<path id="&lt;Path&gt;" class="s10" d="m581.9 495.9l-81.7-47.1c0 0-71.3 69.7-105.2 59.2 0 0-8.6 90.4 31.5 98.1 40 7.8 92.5-41.2 111.7-61.1 19.2-19.8 43.7-49.1 43.7-49.1z"/>
			</g>
			<g id="&lt;Group&gt;">
				<path id="&lt;Path&gt;" class="s2" d="m666.3 350.9c-7.8-4.6-37.2-21.5-44.9-25.9-15.9-9.2-36.3-10.5-54.4 0l-45.4 25.8c-19.6 11.3-58.3 33.2-60.8 55.7-3.4 29.2 21.8 73.2-5.1 102.3l44.5 25.7 193-120-0.1-16.6c0-20.8-11.1-37.8-26.8-47z"/>
				<path id="&lt;Path&gt;" class="s11" d="m507.1 457.6c-2.4-13.9-11.7-31.2-24-38.2l-0.2-0.2c-12.2-7-22.8-1.2-20.3 12.7 4.4 25.8 13 55.4-6.9 76.9l44.5 25.7c19.9-21.5 11.4-51.1 6.9-76.9z"/>
				<path id="&lt;Path&gt;" class="s5" d="m611.5 350.7l-45.4 25.8c-19.6 11.3-58.2 33.2-60.8 55.7-3.3 29.2 21.8 73.2-5.1 102.3l193-120-0.1-16.6c0-41.9-45.4-68.1-81.6-47.2z"/>
			</g>
			<g id="&lt;Group&gt;">
				<g id="&lt;Group&gt;">
					<path id="&lt;Path&gt;" class="s2" d="m666.8 355.4c-13.2-7.4-31.2-9.4-55.3 3.3q-0.9 0.4-1.7 0.9-0.9 0.5-1.8 1c-32.9 19-59.6 65.2-59.6 103.2q0 1 0 2.1c0.4 8.3 4.9 15.8 12.1 19.9 7.4 4.3 16.6 4.3 24.1 0l26.4-15.3 77-44.4 31.3-18.1c0 0-8.2-26.9-29.7-39.4-3.6-2.1-18.7-10.9-22.8-13.2z"/>
				</g>
				<path id="&lt;Path&gt;" class="s2" d="m571.7 488.9c3.4 0.2 6.8-0.4 10-1.7-6.8 2.8-14.7 2.3-21.2-1.4-7.2-4.1-11.8-11.6-12.1-19.9q0-1.1 0-2.1c0-21.2 8.3-44.9 21.3-65.1l22.3 12.9c-13.1 20.1-21.3 43.9-21.3 65 0 4.5 0.4 8.6 1 12.3z"/>
				<path id="&lt;Path&gt;" class="s5" d="m719.3 407.9q0 0 0 0-0.1-0.1-0.1-0.2 0 0 0-0.1 0-0.1-0.1-0.2 0-0.1 0-0.1-0.2-0.5-0.4-1.1 0 0 0-0.1-0.1-0.3-0.3-0.6 0-0.1 0-0.1-0.2-0.4-0.3-0.8 0 0 0-0.1-0.6-1.3-1.3-3.1-0.1-0.1-0.1-0.1-0.2-0.6-0.5-1.1 0-0.1 0-0.1-0.9-1.9-2-4.1 0 0 0 0-0.4-0.7-0.8-1.5 0 0 0 0c-1.1-2-2.4-4.2-3.9-6.3q0 0 0 0c-1.4-2.2-3-4.4-4.8-6.6q0 0 0 0c-1.8-2.1-3.8-4.3-6-6.3q0 0 0 0c-2.2-2-4.5-3.8-7.1-5.5q0 0 0 0-1-0.6-1.9-1.2-0.2-0.1-0.3-0.1-0.2-0.2-0.5-0.3c-13.2-7.4-31.2-9.3-55.1 3.4q-0.9 0.4-1.7 0.8-0.9 0.5-1.9 1.1c-32.9 18.9-59.5 65.1-59.5 103.1 0 4.4 0.4 8.6 1.1 12.3 4.4 0.2 8.8-0.8 12.8-3.1l26.4-15.3 77-44.4 31.3-18.1q0 0 0-0.1z"/>
				<path id="&lt;Path&gt;" class="s12" d="m688.7 368.1c-13.2-7.3-31.1-9.2-54.9 3.5q-0.9 0.4-1.7 0.8-0.9 0.5-1.9 1.1c-14.5 8.4-27.9 22.1-38.2 38.1l-22.3-12.9c10.3-16 23.7-29.7 38.3-38.1q0.9-0.5 1.8-1 0.8-0.5 1.7-0.9c24.1-12.7 42.1-10.7 55.3-3.3 3.8 2.2 17.2 9.9 21.9 12.7z"/>
			</g>
			<g id="&lt;Group&gt;">
				<g id="&lt;Group&gt;">
					<path id="&lt;Path&gt;" class="s2" d="m448.3 388.5v-3.2c0-2.5 1.7-5.7 3.8-7.1l74-50.6c2.1-1.4 5.6-1.5 7.8-0.3l51.4 29.7c2.2 1.3 4 4.4 4 6.9v11.8c0 2.5-1.8 5.6-4 6.8l-73.7 42.6c-2.2 1.2-5.7 1.2-7.9 0l-51.5-29.7c-2.1-1.3-3.9-4.4-3.9-6.9z"/>
					<path id="&lt;Path&gt;" class="s13" d="m448.3 388.5v-3.2c0-2.5 1.7-5.7 3.8-7.1l74-50.6c2.1-1.4 5.6-1.5 7.8-0.3l51.4 29.7c2.2 1.3 4 4.4 4 6.9v11.8c0 2.5-1.8 5.6-4 6.8l-73.7 42.6c-2.2 1.2-5.7 1.2-7.9 0l-51.5-29.7c-2.1-1.3-3.9-4.4-3.9-6.9z"/>
					<path id="&lt;Path&gt;" class="s2" d="m452.2 383l51.5 29.7c2.2 1.3 5.6 1.2 7.7-0.3l74.1-50.5c2.1-1.4 2-3.6-0.2-4.9l-51.4-29.7c-2.2-1.2-5.7-1.1-7.8 0.3l-74 50.6c-2.1 1.4-2 3.6 0.1 4.8z"/>
					<path id="&lt;Path&gt;" class="s13" d="m452.2 383l51.5 29.7c2.2 1.3 5.6 1.2 7.7-0.3l74.1-50.5c2.1-1.4 2-3.6-0.2-4.9l-51.4-29.7c-2.2-1.2-5.7-1.1-7.8 0.3l-74 50.6c-2.1 1.4-2 3.6 0.1 4.8z"/>
					<path id="&lt;Path&gt;" class="s11" d="m507.7 413.6v12.4c-1.5 0-2.9-0.3-4-0.9l-51.5-29.7c-2.1-1.3-3.9-4.4-3.9-6.9v-3.2c0-2.4 1.5-5.3 3.4-6.8-1.7 1.4-1.5 3.4 0.5 4.5l51.5 29.7c1.1 0.7 2.5 0.9 4 0.9z"/>
				</g>
				<g id="&lt;Group&gt;">
					<path id="&lt;Path&gt;" class="s2" d="m552.2 328.5v-3.2c0-2.5 1.7-5.7 3.8-7.1l44.3-33.4c2.1-1.4 5.6-1.5 7.8-0.3l51.4 29.7c2.2 1.3 4 4.4 4 6.9v11.8c0 2.5-1.8 5.5-4 6.8l-44 25.4c-2.2 1.3-5.7 1.3-7.9 0l-51.5-29.7c-2.1-1.3-3.9-4.3-3.9-6.9z"/>
					<path id="&lt;Path&gt;" class="s13" d="m552.2 328.5v-3.2c0-2.5 1.7-5.7 3.8-7.1l44.3-33.4c2.1-1.4 5.6-1.5 7.8-0.3l51.4 29.7c2.2 1.3 4 4.4 4 6.9v11.8c0 2.5-1.8 5.5-4 6.8l-44 25.4c-2.2 1.3-5.7 1.3-7.9 0l-51.5-29.7c-2.1-1.3-3.9-4.3-3.9-6.9z"/>
					<path id="&lt;Path&gt;" class="s2" d="m556.1 323.1l51.5 29.7c2.2 1.2 5.6 1.1 7.7-0.3l44.4-33.4c2.1-1.4 2-3.6-0.2-4.9l-51.4-29.7c-2.2-1.2-5.7-1.1-7.8 0.3l-44.3 33.4c-2.1 1.4-2 3.6 0.1 4.9z"/>
					<path id="&lt;Path&gt;" class="s13" d="m556.1 323.1l51.5 29.7c2.2 1.2 5.6 1.1 7.7-0.3l44.4-33.4c2.1-1.4 2-3.6-0.2-4.9l-51.4-29.7c-2.2-1.2-5.7-1.1-7.8 0.3l-44.3 33.4c-2.1 1.4-2 3.6 0.1 4.9z"/>
					<path id="&lt;Path&gt;" class="s11" d="m611.5 353.6v12.5c-1.4 0-2.8-0.4-3.9-1l-51.5-29.7c-2.2-1.3-3.9-4.3-3.9-6.9v-3.2c0-2.3 1.5-5.3 3.4-6.8-1.7 1.4-1.5 3.4 0.5 4.5l51.5 29.8c1.1 0.6 2.5 0.9 3.9 0.8z"/>
				</g>
			</g>
			<g id="&lt;Group&gt;">
				<path id="&lt;Path&gt;" class="s7" d="m643 522.2c0.5 3.8 1.6 8.3 1.8 19.1 0.3 11.6 2.4 15.7 2.7 25.2 0.3 10.8-2 24.3-6.4 30.4-4.4 6.1-17 9.3-21.9-1-4.9-10.5-4.2-23.8-2.6-34.4 1.6-11.1 1.8-17.1 2.7-25.5 0.8-7.4 1.8-13.1 1.8-13.1 0.4 2.4 1.2 9.2 1.1 12.7-1 24.8-1.3 39.5 10.4 38.6 5.1-0.3 10.2-12.5 9.8-39.7 0-4.7 0.2-9.9 0.6-12.3z"/>
				<path id="&lt;Path&gt;" class="s14" d="m619.7 505.2c0.4 4.4 1.5 14.8 1.4 17.7 0.1 3.7-2 36-1.2 44.3 1.3 12.2 19 13.1 21.5-0.8 1.7-9.3 1.5-39.7 1.6-44.2 0.1-3.3 0.6-13.2 0.8-17z"/>
				<path id="&lt;Path&gt;" class="s14" d="m620.5 513c-8.1-59-16-109.8-17.9-130.1-2.2-30.8 5.5-83.4 10.5-104.2 5.7-23.9 58.1-13.9 58.1-13.9 14.1 39.3-19.1 89.7-28.1 116.4 0.5 5.9 3.4 13 5.1 32.5 2.6 30.3-4.5 95.8-4.7 98 0 0-9.3 12.6-23 1.3z"/>
				<path id="&lt;Compound Path&gt;" class="s15" d="m612.5 39.6c-25.4 0-46.1 20.7-46.1 46.1v5.3c0 4.5-3.2 8.1-7.6 9q-0.1 0-0.2 0c-5 1.1-8.9 5.3-9.5 10.3-0.6 3.8 0.7 7.4 3.1 9.9-5.9 1.9-10.2 7.4-10.2 13.9 0 5.8 3.6 10.9 8.6 13.2-2 2.9-3 6.6-2.4 10.5 0.8 5.3 4.6 9.7 9.6 11.4 3.1 1.1 6 1 8.6 0.3v6.3h25.2c37 0 67-30 67-67v-23.1c0-25.4-20.6-46.1-46.1-46.1z"/>
				<path id="&lt;Path&gt;" class="s15" d="m588.1 46.7c0 0-12.1-1.5-22.1 9.5-9.9 11-9.2 35.1 7.3 38.1 16.5 3.1 14.8-47.6 14.8-47.6z"/>
				<path id="&lt;Path&gt;" class="s2" d="m632.8 90.7c0 0 3.7-19.3-6-33.6-5.5-8-23.6-17.5-38.7-10.4 0 0 8.2-9.5 26.3-7.4 0 0 31 3.4 23.2 48"/>
				<g id="&lt;Group&gt;">
					<path id="&lt;Path&gt;" class="s14" d="m478 273.1c4.9 1.1 63-21.6 70.4-27.9 7.4-6.2 41.9-71.7 41.9-71.7 8.2-23 8.7-32.9 8.7-32.9 0 0-17.1-3-29.3 18.4-6.5 11.5-38.7 64.8-38.7 64.8 0 0-46.7 25.6-53 29.2"/>
					<g id="&lt;Group&gt;">
						<g id="&lt;Group&gt;">
							<g id="&lt;Group&gt;">
								<path id="&lt;Path&gt;" class="s2" d="m579.9 211.2c0 0 4.3 9.3 7.1 20.6 41.1 34.8 65.4-8 65.4-8l3.7-32.1c0 0-17.4-12.4-2.2-47.6l-20.1-4.2-27.8 0.4-7 0.3c-8.8 7.6-19.5 23.6-23.8 33.5-3.3 7.8-10.3 22.3 4.7 37.1z"/>
							</g>
						</g>
						<g id="&lt;Group&gt;" style="opacity: .7">
							<g id="&lt;Group&gt;">
								<path id="&lt;Path&gt;" class="s4" d="m579.9 211.2c0 0 4.3 9.3 7.1 20.6 41.1 34.8 65.4-8 65.4-8l3.7-32.1c0 0-17.4-12.4-2.2-47.6l-20.1-4.2-27.8 0.4-7 0.3c-8.8 7.6-19.5 23.6-23.8 33.5-3.3 7.8-10.3 22.3 4.7 37.1z"/>
							</g>
						</g>
						<path id="&lt;Path&gt;" class="s5" d="m656.1 191.7c0 0-9.5-6.8-8.3-24.5l-2.5-0.8c-1.9 10.4 0.8 29.3 1.4 35.7 0.5 6.3 0.7 31.2-41.6 35.7-3.4 0.4-5.9 0.8-7.7 1.4 34.7 20.2 55-15.4 55-15.4z"/>
						<path id="&lt;Path&gt;" class="s7" d="m652.4 223.8c0 0 12.9 20.4 18.5 32.2 5.6 11.8 10.7 37.1 0 64.3-10.7 27.1-18.1 38-18.1 38 0 0-31.2 5.7-50.6-10.2 0.3-2.2 3.6-37.4 3.6-37.4l-57.4 31-32.6-48.3 65.2-46.5 6-15.1c0 0 9.4 7.6 32 5.5 22.6-2.1 33.4-13.5 33.4-13.5z"/>
						<path id="&lt;Path&gt;" class="s15" d="m605.8 310.7l2-14c0 0-12.4-4.9-20.8-18 0 0 2.1 13.3 14.3 20.6l-1 10.2-55.5 26.8 3.6 5.4z"/>
						<g id="&lt;Group&gt;">
							<g id="&lt;Group&gt;">
								<path id="&lt;Path&gt;" class="s14" d="m644.2 87.7c-4.5-4.4-11.6-3.1-14.8 3.2 0 0-6.1 1.9-20.7-3.2-12-4.2-25.9-13.4-28.2-24.5-4.4 6.9-7.3 20.5-6.1 38.6 1.5 22.4 9.3 26 13.1 27.3 3.7 1.4 10.8 1.5 17.6 0l0.9 11.2c0 0-13.7 17.7-7 29.5 22.5-7.7 34.8-29.9 34.8-29.9v-30.6c0 0 6.5 2.7 10.9-2.6 4.8-5.7 3.7-14.8-0.5-19z"/>
								<g id="&lt;Group&gt;">
									<path id="&lt;Path&gt;" class="s15" d="m603.9 91.9c-0.2 1.9 1.2 3.5 3 3.7 1.8 0.1 3.4-1.3 3.5-3.2 0.1-1.9-1.2-3.5-3-3.6-1.8-0.2-3.4 1.2-3.5 3.1z"/>
									<path id="&lt;Path&gt;" class="s15" d="m607.4 81.9l6.3 4.1c1.1-1.8 0.6-4.1-1.1-5.3-1.8-1.1-4.1-0.6-5.2 1.2z"/>
									<path id="&lt;Path&gt;" class="s16" d="m604.8 114.1l-7.2 2.1c0.6 2 2.6 3.2 4.6 2.6 2-0.5 3.1-2.7 2.6-4.7z"/>
									<path id="&lt;Path&gt;" class="s15" d="m575.9 83.8l6.9-3.1c-0.8-2-2.9-2.9-4.8-2-1.9 0.8-2.8 3.1-2.1 5.1z"/>
									<path id="&lt;Path&gt;" class="s15" d="m578.2 90.7c-0.1 1.7 1.1 3.2 2.8 3.4 1.7 0.1 3.2-1.2 3.3-3 0.2-1.8-1.1-3.3-2.8-3.4-1.7-0.1-3.1 1.2-3.3 3z"/>
									<path id="&lt;Path&gt;" class="s16" d="m594.6 88.8l0.3 18.5-11.1-2z"/>
								</g>
								<g id="&lt;Group&gt;">
									<path id="&lt;Path&gt;" class="s16" d="m605.1 129.1c7.2-1.4 21.7-6.6 23.7-12.6 0 0-0.6 3.8-4.8 7.8-4.2 4.1-18.5 9.2-18.5 9.2z"/>
								</g>
							</g>
						</g>
					</g>
				</g>
				<path id="&lt;Path&gt;" class="s15" d="m623.6 98.7c3.2 0 5.8-2.6 5.8-5.8v-14.5h-5.8z"/>
			</g>
			<path id="&lt;Path&gt;" class="s2" d="m581.9 495.9c0 0-67.4 65.5-114.1 93.6l0.1 17.4c51.1-27.5 114-102.4 114-102.4z"/>
			<g id="&lt;Group&gt;">
				<g id="&lt;Group&gt;">
					<path id="&lt;Path&gt;" class="s16" d="m482.6 174.8c-13.7 1.2-23 6.1-31.3 21.2-7.1 13-35.4 70.1-35.4 70.1 0 0-77.8-3.2-93.2-4.5-15.4-1.3-5.2 30.7-5.2 30.7 0 0 2.2 4.1 7.9-0.8 5.7-4.8 6-6.9 6-6.9 0 0 82.5 13.4 92.8 13.4 10.4 0 11.6-3.8 18.4-13 9.8-13.3 36.6-66.2 36.6-66.2z"/>
					<path id="&lt;Path&gt;" class="s6" d="m484.7 175c0 0-7.5-2.9-18.8 2.3-7.7 3.5-14.9 15.7-20.1 25.8-5.3 10.2-21.3 42.4-21.3 42.4 0 0 9.4 17 34.3 16.8l28.8-50.5z"/>
				</g>
				<g id="Boy 4 ">
					<g id="&lt;Group&gt;">
						<g id="&lt;Group&gt;">
							<g id="&lt;Group&gt;">
								<path id="&lt;Path&gt;" class="s16" d="m519.8 567.7c0.4 4.4 1.4 14.8 1.4 17.7 0 3.7-2.1 35.9-1.2 44.3 1.3 12.2 18.9 13.1 21.5-0.8 1.7-9.3 1.5-39.7 1.6-44.2 0.1-3.3 0.6-13.2 0.8-17z"/>
								<path id="&lt;Path&gt;" class="s7" d="m543.1 584.7c0.5 3.8 1.6 8.3 1.8 19.1 0.2 11.6 2.3 15.7 2.6 25.2 0.3 10.8-1.9 24.3-6.3 30.4-4.4 6.1-17 9.3-21.9-1-4.9-10.5-4.3-23.8-2.7-34.4 1.6-11.1 1.8-17.1 2.8-25.5 0.8-7.4 1.8-13.1 1.8-13.1 1.6 0.2 1.6 8.6 1.5 12.7l2.2-9.9c0.5-1.5 1.9-2.5 3.4-2.5l7.4-0.2c1.8-0.1 3.3 1.1 3.8 2.7l1.9 9.9c0.3-4.8 0.4-13.1 1.7-13.4z"/>
							</g>
							<path id="&lt;Path&gt;" class="s16" d="m417.4 526.4l-20.5 1.1 0.5-4.1 0.2-3.1 1.9-30.1 22.3 0.8-3.1 30.1-0.3 2.3z"/>
							<path id="&lt;Path&gt;" class="s15" d="m388.9 568.1c5.8-3.9 8.1-11.4 14.2-15 2.7-1.6 5.9-2.3 9-3.2 3-1 6.1-2.5 7.8-5.2 1.5-2.6 1.5-5.7 1.2-8.6-0.4-2.9-0.3-5.9-0.6-8.9-0.1-1.5-0.2-3.1-0.7-4.5 0-0.2-1.1-2-1.1-1.6 0 0-0.3 2.3-0.3 2.3-2.7 3.4-16 3.2-21 0-0.2-0.1 0.2-2.7 0.2-3.1-3.2 2.1-5.1 5.4-7.6 8.3-2.3 2.8-4.7 5.4-7.3 7.7-2.5 2.2-4.5 4.5-7.3 6.3-6 3.8-12.6 6.4-18.7 10-1.8 1.1-3.5 2.3-4.4 4.2-3 7 6.3 10.8 11.4 12.6 7.6 2.7 18.1 3.3 25.2-1.3z"/>
							<path id="&lt;Path&gt;" class="s7" d="m571.8 326.3c2.4 17.1-44.8 25.4-77.6 45.4-25.6 15.6-56.1 35.5-56.1 35.5 0 0 0.5 18.2-0.9 30.2-2.9 24.9-9.6 40.9-16.5 72.3 0 0-16.2 2.6-23.4-3 0 0-4.3-112.2-2.3-121.4 4.8-22.7 65.9-69.5 77.7-79.6 6.8-5.7 99.1 20.6 99.1 20.6z"/>
							<path id="&lt;Path&gt;" class="s7" d="m518 571.3c-8-59.1-17.2-106.6-19.1-126.8-2.2-30.8 0.6-76.3 3.2-97.5 2.6-21.2 71.2-21.1 71.2-21.1 6.6 31.7-30.1 117.8-30.1 117.8 0.5 5.9 2.5 6.5 5 32.5 3 30.3-2.3 92.8-2.5 95 0 0-14 11.4-27.7 0.1z"/>
						</g>
					</g>
				</g>
				<g id="Boy 1 ">
					<g id="&lt;Group&gt;">
						<g id="&lt;Group&gt;">
							<path id="&lt;Path&gt;" class="s0" d="m558.2 212.6c7.2 31.2 15.1 113.3 15.1 113.3-14 15.2-76.2 12.5-100.6-20.2-2.1-25.2-8.6-45-14.1-89.9-2.2-18.1 5.1-34.1 24-41l31-1.1 25.2 5.2c12.1 7 16.6 21.9 19.4 33.7z"/>
							<path id="&lt;Path&gt;" class="s5" d="m563.1 240l-33.8-20.1 4.7 69.8c0 0-8.4 24.1-17.8 28.1-9.1 3.8-22.8 4.8-35.8-3.7 27.9 24.6 80.3 25.6 92.9 11.8 0 0-4.7-49.2-10.2-85.9z"/>
							<g id="&lt;Group&gt;">
								<g id="&lt;Group&gt;">
									<path id="&lt;Path&gt;" class="s15" d="m505.2 104.3c0.8 16.4-11.9 30.4-28.3 31.1-16.4 0.8-30.3-11.9-31.1-28.3-0.8-16.4 11.9-30.3 28.3-31.1 16.4-0.7 30.3 11.9 31.1 28.3z"/>
									<path id="&lt;Path&gt;" class="s15" d="m527.8 124.4c0 0-3.7 22.9-5.5 26.7-1.7 3.8-5.7 5-5.7 5l-0.4-15.9z"/>
									<path id="&lt;Path&gt;" class="s15" d="m520.2 92.3c0 0 5.2-1.1 9.4 2.8 4.2 3.9 2.6 16.7-1.8 29.3l-9 1.5z"/>
									<path id="&lt;Path&gt;" class="s16" d="m516.1 126c1.9 1 4.3-2.6 6.4-5 2.1-2.5 9.3-6 13.3 1.5 4.1 7.6-2.3 18.3-8 20.4-9.8 3.6-11.6-2.7-11.6-2.7l1 35.8c-8.1 10-39.1 18.8-32.4 0.6l-0.5-10.9c0 0-8.9 1.4-13.3 1.3-5.1 0-10.7-3.5-14.2-14.6-4.3-14-4.9-31.9-2.9-50 2.6-24.6 31.9-26.6 49.6-16.6 17.7 10 12.6 40.2 12.6 40.2z"/>
									<path id="&lt;Path&gt;" class="s15" d="m516.2 129.1c0.8-0.4 4.2-6 6.3-8.1 3-3-2.3-28.7-2.3-28.7 0 0 2.8-6.5-3.6-12.9-4.5-4.5-12.9-10-25-7.2-8.9 2-18 4.5-27.1 2.5-4.5-0.9-8.9-2.4-13.5-2.8-0.6 0-1.2 0-1.6 0.3-0.4 0.4-0.5 1.1-0.5 1.7 0.1 2.9 1.2 5.9 3.1 8.2q-2.9-0.7-5.7-1.4c-0.4-0.1-0.9-0.2-1.2 0-0.4 0.3-0.4 0.7-0.5 1.2-0.2 4 1.5 8.1 4.5 10.8 6.2 5.6 12.9 7.2 21.3 7.5 19.4 0.8 29.9-3 32.4-3.5 3.3-0.6 4.2 2.6 6.4 11.5 2 7.7 0 24.7 7 20.9z"/>
									<path id="&lt;Path&gt;" class="s15" d="m520.3 94.3l10.7-6.4c-1.7-3.1-5.5-4.1-8.4-2.3-3 1.7-4 5.7-2.3 8.7z"/>
									<path id="&lt;Path&gt;" class="s17" d="m484.3 165.7c0 0 16.2-4 21.7-7.3 3.7-2.2 6.7-5.9 7.5-8.2 0 0-0.8 4.9-4 9.4-3.9 5.5-25 10.4-25 10.4z"/>
									<g id="&lt;Group&gt;">
										<path id="&lt;Path&gt;" class="s15" d="m484.3 123.5c0.1 1.9 1.7 3.4 3.5 3.3 1.8-0.1 3.2-1.7 3.1-3.6-0.1-1.9-1.7-3.3-3.5-3.2-1.8 0.1-3.2 1.7-3.1 3.5z"/>
										<path id="&lt;Path&gt;" class="s15" d="m487.1 111.4l7.2 3.5c0.9-2 0-4.5-1.9-5.5-2-0.9-4.4-0.1-5.3 2z"/>
										<path id="&lt;Path&gt;" class="s17" d="m486.6 146l-7.4 3.2c0.9 2.1 3.2 3.1 5.2 2.2 2-0.9 3-3.3 2.2-5.4z"/>
										<path id="&lt;Path&gt;" class="s15" d="m454.4 116.2l6.9-4.1c-1.1-2-3.6-2.7-5.5-1.5-1.9 1.1-2.5 3.7-1.4 5.6z"/>
										<path id="&lt;Path&gt;" class="s15" d="m457.6 124.5c0.1 1.8 1.6 3.3 3.4 3.2 1.8-0.1 3.2-1.7 3.1-3.6-0.1-1.8-1.6-3.3-3.4-3.2-1.8 0.1-3.2 1.7-3.1 3.6z"/>
										<path id="&lt;Path&gt;" class="s17" d="m475.2 120.3l2.7 19.6-12-0.7z"/>
									</g>
								</g>
							</g>
						</g>
					</g>
				</g>
				<path id="&lt;Path&gt;" class="s14" d="m468 273.9c0.3 2 3.5 6.6 9.8 9.6 6.4 3 13.4 1.2 12.9 6.7-0.5 5.6-4.8 12.8-11 14.4-6.2 1.7-12.1-3.9-14.8-8-2.8-4-4.9-28.2 1.7-30.2z"/>
				<g id="&lt;Group&gt;">
					<path id="&lt;Path&gt;" class="s16" d="m505 390.9c1.1 0 9.3-0.7 12-10.7 2.6-9.9 6.9-14.1 6.9-14.1 0 0 45.1-51.9 49.4-66.5 4.4-14.6-6.5-96.7-12.1-105.1-4-5.9-11.3-10.7-21-12.6 0 0-9.6 5.8-10.3 22.7-0.8 18.7 5.2 27.2 5.2 27.2l6.8 62.7-43 64.7z"/>
					<path id="&lt;Path&gt;" class="s16" d="m562.7 273.1c-2.8 2.1-1.8 7.3 1.6 11 3.3 3.6 10 7.5 10 7.5v-5.2z"/>
					<path id="&lt;Path&gt;" class="s6" d="m538.8 178.9c0 0-9.2 7.8-10.9 19.6-1.8 11.8 8.7 64.9 8.7 64.9 0 0 23.8 5.4 36.7-5.3 0 0-3.5-38-7.4-52.9-3.9-14.8-7.9-23.9-27.1-26.3z"/>
				</g>
			</g>
			<g id="&lt;Group&gt;">
				<path id="&lt;Path&gt;" class="s2" d="m467.8 589.5c-6.8 4.1-13.4 7.3-19.5 9.2-15.5 4.8-44.5-10.9-44.5-79.2 0-39.3 7.4-73.9 13.6-96.1 4.1-14.6-2-32.2-15.1-39.7-10.7-6.2-23.4-13.6-34.2-19.8-13.1-7.5-30.8-3.6-37.5 10-12.2 24.6-27.9 67.4-27.2 124 0.5 46.9 15.7 64.9 26.2 75.1 12.3 12.1 60.1 45.4 109.8 42.9 9.2-0.5 18.8-3.8 28.5-9"/>
				<path id="&lt;Path&gt;" class="s11" d="m392.8 573c-11.8-24.2-18.7-42.8-48.4-60-22.8-13.1-35.7-5.4-38 15.8 5 24.7 15.4 36.6 23.2 44.2 12.3 12.1 60.1 45.4 109.8 42.9-20.8 0-34.7-18.7-46.6-42.9z"/>
				<path id="&lt;Path&gt;" class="s11" d="m369.1 479.7c-0.3 2.5-2.2 5.5-4.4 6.8l-6.9 4c-2.2 1.3-5 0.5-6.2-1.7l-10.3-17.8c-1.3-2.1-2.1-6-1.8-8.5 1.6-15.1 8.5-64.6 29.2-98.2l29.7 17.1c0 0-24.1 46.3-29.3 98.3z"/>
				<path id="&lt;Path&gt;" class="s2" d="m367.1 478.5c-0.3 2.5-2.2 5.6-4.4 6.8l-6.9 4c-2.2 1.3-5 0.6-6.3-1.6l-10.2-17.8c-1.3-2.2-2.1-6-1.9-8.5 1.7-15.1 8.6-64.7 29.3-98.2l29.6 17c0 0-24 46.3-29.2 98.3z"/>
				<path id="&lt;Path&gt;" class="s18" d="m367.1 478.5c-0.3 2.5-2.2 5.6-4.4 6.8l-6.9 4c-2.2 1.3-5 0.6-6.3-1.6l-10.2-17.8c-1.3-2.2-2.1-6-1.9-8.5 1.7-15.1 8.6-64.7 29.3-98.2l29.6 17c0 0-24 46.3-29.2 98.3z"/>
				<g id="&lt;Group&gt;">
					<path id="&lt;Path&gt;" class="s19" d="m344.4 453.1l18.4 10.6"/>
					<path id="&lt;Path&gt;" class="s19" d="m345 459.9l16.6 9.5"/>
					<path id="&lt;Path&gt;" class="s19" d="m345.6 466.6l14.7 8.6"/>
					<path id="&lt;Path&gt;" class="s19" d="m346.2 473.4l12.9 7.5"/>
				</g>
				<path id="&lt;Path&gt;" class="s20" d="m384.2 484.6l6.9 4c2.2 1.2 4 4.3 3.9 6.8-0.1 3.1-0.3 7.2-1 11.3-1.2 8-7.8 14-15.8 14.6q-0.1 0-0.2 0c-2.1 0.2-4-1.6-3.6-3.6 1.9-8 4-18 5.4-30.8 0.3-2.5 2.2-3.5 4.4-2.3z"/>
				<path id="&lt;Path&gt;" class="s20" d="m325.6 450.7l-5-2.8c-2.2-1.3-4.5-0.3-5.1 2.1-0.9 4.2-2.2 10.5-2.2 15.9 0 11 3.7 18.3 6.1 20.9 2.5 2.6 6.7 4.5 6.6 1.3-0.1-7.2 0-16.1 2.6-30.6 0.5-2.5-0.9-5.5-3-6.8z"/>
				<path id="&lt;Path&gt;" class="s2" d="m453 596.1c4.6-1.4 9.6-3.7 14.9-6.5-7 4.1-13.6 7.3-19.6 9.1-15.5 4.8-44.5-10.9-44.5-79.2 0-39.3 7.4-73.9 13.6-96.1 4.1-14.6-2-32.2-15.1-39.7-10.8-6.2-23.4-13.6-34.2-19.8-7.9-4.5-17.4-4.9-25.3-1.5 8.5-6 20.5-6.6 30-1.1 10.7 6.2 23.4 13.5 34.2 19.7 13.1 7.6 19.2 25.2 15.1 39.7-6.3 22.3-13.7 56.8-13.7 96.2 0 68.2 29.1 84 44.6 79.2z"/>
				<g id="&lt;Group&gt;">
					<path id="&lt;Path&gt;" class="s5" d="m453 596.1c-15.5 4.8-44.6-11-44.6-79.2 0-39.4 7.4-73.9 13.7-96.2 1.9-6.6 1.6-13.9-0.5-20.6l-4.6 2.8c2 6.6 2.3 13.9 0.4 20.5-6.2 22.2-13.6 56.8-13.6 96.1 0 68.3 29 84 44.5 79.2 6-1.8 12.6-5 19.6-9.1-5.3 2.8-10.3 5.1-14.9 6.5z"/>
					<path id="&lt;Path&gt;" class="s12" d="m407 381c-10.8-6.2-23.5-13.5-34.2-19.7-9.5-5.5-21.5-4.9-30 1.1 7.9-3.4 17.4-3 25.3 1.5 10.8 6.2 23.4 13.6 34.2 19.8 7.1 4.1 12.2 11.2 14.7 19.2l4.6-2.8c-2.5-7.9-7.5-15-14.6-19.1z"/>
				</g>
			</g>
			<g id="&lt;Group&gt;">
				<g id="&lt;Group&gt;">
					<path id="&lt;Path&gt;" class="s6" d="m372 583.7c-7.2-23.5-36.6-43-64.1-35.3-3.9 1.1-8.1 2.8-12.3 5.3-26.7 15.4-48.3 52.8-48.3 83.5 0 5.8 0.8 10.9 2.2 15.3 7.2 23.5 36.5 42.9 64 35.2 3.9-1.1 8.1-2.9 12.4-5.3 26.6-15.4 48.2-52.8 48.2-83.6 0-5.7-0.8-10.7-2.1-15.1z"/>
					<path id="&lt;Path&gt;" class="s7" d="m325.9 682.4c26.6-15.4 48.2-52.8 48.2-83.6 0-30.7-21.6-43.2-48.2-27.8-26.7 15.3-48.3 52.7-48.3 83.5 0 30.8 21.6 43.3 48.3 27.9z"/>
					<path id="&lt;Path&gt;" class="s8" d="m304.3 679.7c-16.3 0-17.5-19.4-17.5-25.4 0-27.3 19.9-61.9 43.6-75.6 6.1-3.5 12-5.3 17-5.3 16.3 0 17.6 19.3 17.6 25.3 0 27.3-20 61.9-43.7 75.6-6.1 3.5-12 5.4-17 5.4z"/>
					<path id="&lt;Path&gt;" class="s9" d="m310.2 665.1c-11.8 0-12.7-14.1-12.7-18.4 0-19.8 14.5-45 31.7-54.9 4.4-2.5 8.6-3.8 12.3-3.8 11.8 0 12.7 14 12.7 18.3 0 19.8-14.5 45-31.7 54.9-4.4 2.5-8.6 3.9-12.3 3.9z"/>
					<path id="&lt;Path&gt;" class="s6" d="m325.9 605.1c10.2-5.9 18.5-1.1 18.5 10.7 0 11.8-8.3 26.2-18.5 32.1-10.3 5.9-18.6 1.2-18.6-10.7 0-11.8 8.3-26.2 18.6-32.1z"/>
					<path id="&lt;Path&gt;" class="s7" d="m325.9 619.2c3.5-2.1 6.3-0.4 6.3 3.6 0 4.1-2.8 9-6.3 11-3.6 2.1-6.4 0.4-6.4-3.6 0-4.1 2.8-9 6.4-11z"/>
				</g>
				<g id="&lt;Group&gt;">
					<path id="&lt;Path&gt;" class="s2" d="m364.7 552.6c-6.6-3.8-31-17.5-37-21.3-10.5-6.8-25.3-6.2-41.7 3.3-15.9 9.2-30.2 25-40.6 43.1-1.6 2.8-0.6 6.4 2.2 8 8.3 4.7 24.4 13.9 33.1 19.1 10.1 6 34-9 57.5-6.7 3.8 0.3 7.7 1.1 11.5 2.6 15.8 6.2 21.3 8.3 27.2 6.1 2-0.7 3.3-2.4 3.6-4.5q1-6.4 1-12.6c0-18.3-6.4-31.1-16.8-37.1z"/>
					<path id="&lt;Path&gt;" class="s21" d="m364.7 552.6c-6.6-3.8-31-17.5-37-21.3-10.5-6.8-25.3-6.2-41.7 3.3-7.7 4.5-15.2 10.6-21.9 17.8l81.4 47c1.4 0.4 2.8 0.8 4.2 1.3 15.8 6.2 21.3 8.3 27.2 6.1 2-0.7 3.3-2.4 3.6-4.5q1-6.4 1-12.6c0-18.3-6.4-31.1-16.8-37.1z"/>
					<path id="&lt;Path&gt;" class="s2" d="m381.5 589.7c0 5.1-0.5 10.3-1.4 15.6-7.6 4.3-11.9 2.6-30.4-4.6-3.8-1.5-7.7-2.3-11.5-2.6-23.5-2.3-47.4 12.7-57.5 6.7 5.5-10.4 12.3-20.3 20-28.7 7.2-7.9 15.1-14.6 23.5-19.5 5.8-3.3 11.4-5.5 16.6-6.7 9.2-2.1 17.3-1.1 23.9 2.7 10.4 6 16.8 18.8 16.8 37.1z"/>
					<path id="&lt;Path&gt;" class="s5" d="m381.5 589.7c0 5.1-0.5 10.3-1.4 15.6-7.6 4.3-11.9 2.6-30.4-4.6-3.8-1.5-7.7-2.3-11.5-2.6-23.5-2.3-47.4 12.7-57.5 6.7 5.5-10.4 12.3-20.3 20-28.7 7.2-7.9 15.1-14.6 23.5-19.5 5.8-3.3 11.4-5.5 16.6-6.7 9.2-2.1 17.3-1.1 23.9 2.7 10.4 6 16.8 18.8 16.8 37.1z"/>
				</g>
			</g>
			<g id="&lt;Group&gt;">
				<g id="&lt;Group&gt;">
					<path id="&lt;Path&gt;" class="s6" d="m318.9 295.3l6.5-11.3-27.6-15.9c-0.9-0.5-2-0.5-3.3 0.3-2.6 1.5-4.6 5-4.6 8 0 1.4 0.5 2.4 1.3 2.9q0 0.1 0 0.1z"/>
					<path id="&lt;Path&gt;" class="s7" d="m317.5 292.3c0 3 2.1 4.2 4.6 2.7 2.6-1.5 4.7-5 4.7-8 0-2.9-2.1-4.1-4.7-2.6-2.5 1.4-4.6 5-4.6 7.9z"/>
				</g>
				<path id="&lt;Path&gt;" class="s16" d="m322.7 261.6c-5.8 0-17.5-2.2-24.2 2.9-6.7 5.1-8.9 18.4-5.7 24 3.3 5.6 15.8 11.6 20.9 10.3 5-1.3 5.2-3.5 5.2-3.5l-4-2.3c0 0-2.8-12.4 5.2-12l5.3 3 6-8.1z"/>
				<g id="&lt;Group&gt;">
					<path id="&lt;Path&gt;" class="s0" d="m339 301.2l1.7-3.1-17.5-10.2c-0.2-0.1-0.5-0.1-0.9 0.1-0.7 0.4-1.2 1.4-1.2 2.2q0 0.6 0.3 0.8 0 0 0 0z"/>
					<path id="&lt;Path&gt;" class="s1" d="m338.6 300.3c0 0.8 0.6 1.2 1.3 0.8 0.6-0.4 1.2-1.4 1.2-2.2 0-0.8-0.6-1.1-1.2-0.7-0.7 0.4-1.3 1.3-1.3 2.1z"/>
				</g>
				<path id="&lt;Path&gt;" class="s2" d="m428.8 370.1c-5.7-0.3-17.8 2.8-21.8 10.9l-34.2-19.7c0 0 3.6-15.3-19.6-33.3z"/>
				<path id="&lt;Path&gt;" class="s11" d="m428.8 370.1c-5.7-0.3-17.8 2.8-21.8 10.9l-34.2-19.7c0 0 3.6-15.3-19.6-33.3z"/>
				<path id="&lt;Path&gt;" class="s2" d="m404.6 361.7l53.5 18.5v-12.2l-42.2-24.3z"/>
				<path id="&lt;Path&gt;" class="s2" d="m426.5 337.6l42.2 24.3-10.6 6.1-42.2-24.3z"/>
				<path id="&lt;Path&gt;" class="s12" d="m426.5 337.6l42.2 24.3-10.6 6.1-42.2-24.3z"/>
				<path id="&lt;Path&gt;" class="s2" d="m458.1 380.2l10.6-6.1v-12.2l-10.6 6.1z"/>
				<path id="&lt;Path&gt;" class="s5" d="m458.1 380.2l10.6-6.1v-12.2l-10.6 6.1z"/>
				<path id="&lt;Path&gt;" class="s2" d="m370.9 317.8l-42.2-24.4 10.6-6.1 42.2 24.4z"/>
				<path id="&lt;Path&gt;" class="s12" d="m370.9 317.8l-42.2-24.4 10.6-6.1 42.2 24.4z"/>
				<path id="&lt;Path&gt;" class="s2" d="m328.7 305.6l31.7 30.5 10.5-18.3-42.2-24.4z"/>
				<path id="&lt;Path&gt;" class="s2" d="m418.9 328.8c-1.7-1.9-4.8-4.5-7-5.7l-34.3-19.8c-2.2-1.3-5.3-0.8-6.9 1.1l-4.6 5.3c-1.7 1.9-3.7 5.4-4.5 7.8l-7.6 21.8c-0.8 2.4 0.3 5.4 2.5 6.6l34.3 19.9c2.2 1.2 5.7 1.2 7.9 0l2.7-1.6c2.2-1.2 5-4 6.2-6.2l6-10.4c1.3-2.2 4.1-5 6.3-6.2l6.6-3.8z"/>
				<path id="&lt;Path&gt;" class="s5" d="m418.9 328.8c-1.7-1.9-4.8-4.5-7-5.7l-34.3-19.8c-2.2-1.3-5.3-0.8-6.9 1.1l-4.6 5.3c-1.7 1.9-3.7 5.4-4.5 7.8l-7.6 21.8c-0.8 2.4 0.3 5.4 2.5 6.6l34.3 19.9c2.2 1.2 5.7 1.2 7.9 0l2.7-1.6c2.2-1.2 5-4 6.2-6.2l6-10.4c1.3-2.2 4.1-5 6.3-6.2l6.6-3.8z"/>
				<path id="&lt;Path&gt;" class="s2" d="m408.3 334.1l4.6-5.3c1.7-1.9 1.2-4.5-1-5.7l-34.3-19.8c-2.2-1.3-5.3-0.8-6.9 1.1l-4.6 5.3c-1.7 1.9-1.2 4.5 1 5.8l34.3 19.8c2.2 1.2 5.3 0.7 6.9-1.2z"/>
				<path id="&lt;Path&gt;" class="s6" d="m403.8 341.9l-7.5 21.8c-0.9 2.4-3.3 3.3-5.5 2.1l-34.3-19.9c-2.2-1.2-3.3-4.2-2.5-6.6l7.6-21.8c0.8-2.4 3.3-3.3 5.5-2l34.3 19.8c2.2 1.2 3.3 4.2 2.4 6.6z"/>
				<path id="&lt;Path&gt;" class="s22" d="m392.6 362.6l-34.3-19.8c-0.6-0.4-1.1-1.5-0.8-2.3l7.6-21.8q0-0.1 0-0.2c0 0.1 34.5 19.9 34.5 19.9 0.6 0.4 1 1.5 0.8 2.3l-7.6 21.8q0 0.1 0 0.1-0.1 0-0.2 0z"/>
				<path id="&lt;Path&gt;" class="s20" d="m366.7 322.2l-6.4 18.7 30.7 17.9 1.3-3.5c0 0-16.7-8.4-21.4-14.7-4.6-6.3-4.2-18.4-4.2-18.4z"/>
				<g id="&lt;Group&gt;">
					<g id="&lt;Group&gt;">
						<path id="&lt;Path&gt;" class="s1" d="m351.8 300.7c-0.8 0-1.5-0.5-1.7-1.3l-5.4-17.4-25.3-14.6c-0.4-0.2-0.7-0.6-0.9-1.1l-6.6-21.2c-0.3-1 0.3-2 1.3-2.3 0.9-0.3 1.9 0.2 2.2 1.2l6.4 20.6 25.4 14.6c0.4 0.2 0.7 0.6 0.8 1l5.6 18.1c0.3 1-0.3 2-1.2 2.3q-0.3 0.1-0.6 0.1z"/>
					</g>
					<g id="&lt;Group&gt;">
						<path id="&lt;Path&gt;" class="s1" d="m324.8 231.8l-12.8-7.3c-1.3-0.8-2.5-0.9-3.3-0.3-0.7 0.3-3.2 1.7-3.8 2.2-0.8 0.5-1.3 1.5-1.3 3v6.1c0 3.1 2.1 6.7 4.7 8.3l12.8 7.3c1.3 0.8 2.5 0.9 3.3 0.4 0.7-0.4 3.1-1.8 3.8-2.2 0.8-0.5 1.4-1.5 1.4-3.1v-6.1c0-3.1-2.2-6.7-4.8-8.3z"/>
						<path id="&lt;Path&gt;" class="s0" d="m308.3 243.8l12.8 7.3c2.6 1.5 4.7 0.3 4.7-2.7v-6.2c0-3-2.1-6.7-4.7-8.2l-12.8-7.4c-2.6-1.5-4.7-0.3-4.7 2.8v6.1c0 3.1 2.1 6.7 4.7 8.3z"/>
					</g>
				</g>
				<path id="&lt;Path&gt;" class="s1" d="m381.8 342.2c-0.6 1.9-2.4 2.6-4 1.7-1.6-0.9-2.3-3.1-1.7-4.9 0.6-1.9 2.4-2.6 4-1.7 1.5 0.9 2.3 3.1 1.7 4.9z"/>
				<g id="&lt;Group&gt;">
					<path id="&lt;Path&gt;" class="s0" d="m480.7 382.8l1.7-3-17.5-10.2c-0.2-0.1-0.5-0.1-0.9 0.1-0.7 0.4-1.2 1.4-1.2 2.2q0 0.6 0.3 0.8 0 0 0 0z"/>
					<path id="&lt;Path&gt;" class="s1" d="m480.3 382c0 0.8 0.6 1.2 1.3 0.8 0.6-0.4 1.2-1.4 1.2-2.2 0-0.8-0.6-1.1-1.2-0.7-0.7 0.4-1.3 1.3-1.3 2.1z"/>
				</g>
				<g id="&lt;Group&gt;">
					<path id="&lt;Path&gt;" class="s6" d="m500.3 399.6l6.5-11.3-27.6-15.9c-0.9-0.5-2-0.5-3.3 0.3-2.6 1.5-4.6 5-4.6 8 0 1.4 0.5 2.4 1.2 2.9l0.1 0.1q0 0 0 0z"/>
					<path id="&lt;Path&gt;" class="s15" d="m498.9 396.6c0 3 2.1 4.2 4.6 2.7 2.6-1.5 4.6-5 4.6-8 0-2.9-2-4.1-4.6-2.6-2.5 1.4-4.6 5-4.6 7.9z"/>
				</g>
				<path id="&lt;Path&gt;" class="s16" d="m498.9 359.2c-2.9 2.7-12.3 4.5-19 9.6-6.7 5.2-8.9 18.4-5.7 24 3.3 5.6 15.8 11.6 20.9 10.3 5-1.3 5.2-3.5 5.2-3.5l-4-2.2c0 0-2.8-12.5 5.2-12.1l5.3 3 6-8.1z"/>
				<g id="&lt;Group&gt;">
					<g id="&lt;Group&gt;">
						<path id="&lt;Path&gt;" class="s1" d="m498.4 370q-0.5 0-0.9-0.2l-42.9-24.7-4.7 9.8c-0.4 0.9-1.5 1.3-2.4 0.9-0.9-0.5-1.3-1.6-0.9-2.5l5.6-11.6c0.2-0.5 0.6-0.8 1.1-0.9 0.5-0.2 1-0.1 1.5 0.1l42.8 24.7 4.7-9.8c0.4-0.9 1.5-1.3 2.4-0.9 0.9 0.5 1.3 1.6 0.9 2.5l-5.6 11.6c-0.2 0.4-0.6 0.8-1.1 0.9q-0.2 0.1-0.5 0.1z"/>
					</g>
					<g id="&lt;Group&gt;">
						<path id="&lt;Path&gt;" class="s1" d="m514 341.1l-12.7-7.4c-1.3-0.8-2.5-0.8-3.4-0.3-0.6 0.4-3.2 1.7-3.8 2.2-0.8 0.5-1.3 1.5-1.3 3v6.2c0 3 2.1 6.7 4.8 8.2l12.7 7.4c1.3 0.7 2.5 0.8 3.4 0.3 0.6-0.4 3-1.8 3.7-2.2 0.9-0.4 1.4-1.5 1.4-3v-6.2c0-3-2.1-6.7-4.8-8.2z"/>
						<path id="&lt;Path&gt;" class="s0" d="m497.6 353l12.7 7.4c2.7 1.5 4.8 0.2 4.8-2.8v-6.2c0-3-2.1-6.7-4.8-8.2l-12.7-7.4c-2.7-1.5-4.8-0.2-4.8 2.8v6.2c0 3 2.1 6.7 4.8 8.2z"/>
					</g>
				</g>
			</g>
			<g id="Armq 2 ">
				<g id="&lt;Group&gt;">
					<g id="&lt;Group&gt;">
						<g id="&lt;Group&gt;">
							<path id="&lt;Path&gt;" class="s23" d="m698.4 264.7c0-0.9-0.4-53.1 7.7-77.1 8.1-24 20-29.8 27.5-14.9 7.4 14.9 7.8 61.1 4.2 81.7-3.5 20.5-39.4 10.3-39.4 10.3z"/>
						</g>
						<g id="&lt;Group&gt;" style="opacity: .8">
							<path id="&lt;Path&gt;" class="s24" d="m729.7 175.8c0 0-0.3 0.3-1 0.8-0.6 0.5-1.5 1.1-2.6 1.9q-0.9 0.6-1.8 1.2c-0.7 0.4-1.3 0.9-2 1.3-1.3 1-2.7 1.9-4.2 2.9q-1 0.8-2.1 1.5c-0.6 0.5-1.3 1-2 1.5q-1 0.7-1.9 1.4-0.9 0.7-1.7 1.3c-1.1 0.8-2 1.4-2.7 1.9-0.6 0.5-1 0.7-1 0.7 0 0 0.1-0.4 0.5-1.1 0.3-0.8 0.9-1.8 1.7-3 0.4-0.5 0.8-1.1 1.3-1.8 0.5-0.5 1.1-1.2 1.7-1.8 0.6-0.6 1.2-1.3 1.9-1.8 0.7-0.7 1.5-1.2 2.2-1.7 0.8-0.6 1.6-1.1 2.4-1.5 0.7-0.5 1.6-0.9 2.3-1.3 1.6-0.7 3.1-1.2 4.5-1.6 2.7-0.8 4.5-0.8 4.5-0.8z"/>
						</g>
						<g id="&lt;Group&gt;" style="opacity: .8">
							<path id="&lt;Path&gt;" class="s24" d="m732.5 189.5c0 0-0.5 0.4-1.3 1-0.8 0.6-1.9 1.4-3.2 2.5-2.7 2-6.3 4.5-9.9 7-3.6 2.5-7.2 5-10 6.8-1.4 1-2.5 1.8-3.3 2.3-0.9 0.6-1.4 0.9-1.4 0.9 0 0 0.2-0.6 0.7-1.5 0.2-0.5 0.5-1 0.9-1.6 0.4-0.6 0.8-1.3 1.3-2 2.1-2.8 5.4-6 9.2-8.6 3.8-2.6 8-4.7 11.3-5.7 1.6-0.5 3.1-0.8 4.1-1 1-0.1 1.6-0.1 1.6-0.1z"/>
						</g>
						<g id="&lt;Group&gt;" style="opacity: .8">
							<path id="&lt;Path&gt;" class="s24" d="m731.8 206.8c0 0-0.5 0.4-1.3 1.1-0.7 0.7-1.8 1.6-3.1 2.6-2.6 2.2-6.2 4.8-9.7 7.2q-1.4 1-2.7 1.9c-0.9 0.6-1.8 1.1-2.7 1.7-1.7 1.1-3.3 2.2-4.7 3.1-1.4 0.8-2.7 1.6-3.5 2.1-0.9 0.5-1.4 0.8-1.4 0.8 0 0 0.2-0.6 0.6-1.5 0.2-0.5 0.5-1.1 0.8-1.7 0.4-0.6 0.8-1.3 1.3-2 2-2.9 5.3-6.3 9.1-8.9 3.8-2.6 8.1-4.5 11.4-5.5 1.7-0.5 3.2-0.7 4.2-0.8 1.1-0.1 1.7-0.1 1.7-0.1z"/>
						</g>
						<g id="&lt;Group&gt;" style="opacity: .8">
							<path id="&lt;Path&gt;" class="s24" d="m731.8 224.3c0 0-0.5 0.4-1.3 1.1-0.7 0.7-1.8 1.6-3.1 2.6-2.6 2.2-6.2 4.8-9.7 7.2q-1.4 1-2.7 1.9c-0.9 0.6-1.8 1.1-2.7 1.7-1.7 1.1-3.3 2.2-4.7 3.1-1.4 0.9-2.7 1.6-3.5 2.1-0.9 0.5-1.4 0.8-1.4 0.8 0 0 0.2-0.5 0.6-1.5 0.2-0.5 0.5-1.1 0.8-1.7 0.4-0.6 0.8-1.3 1.3-2 2-2.9 5.3-6.3 9.1-8.9 3.8-2.6 8.1-4.5 11.4-5.5 1.7-0.4 3.2-0.7 4.2-0.8 1.1-0.1 1.7-0.1 1.7-0.1z"/>
						</g>
					</g>
					<g id="&lt;Group&gt;">
						<g id="&lt;Group&gt;">
							<g id="&lt;Group&gt;">
								<path id="&lt;Path&gt;" class="s17" d="m694.8 330.7l2.4-2 8.7 44.4c-3.5 0.7-7.2 0.6-10.2-0.4l-19-6.5c-6-2-12.9-8.4-15.5-14.1l-18.3-38.8z"/>
							</g>
							<path id="&lt;Path&gt;" class="s25" d="m694.8 330.7l2.4-2 8.7 44.4c-3.5 0.7-7.2 0.6-10.2-0.4l-19-6.5c-6-2-12.9-8.4-15.5-14.1l-18.3-38.8z"/>
							<g id="&lt;Group&gt;">
								<g id="&lt;Group&gt;">
									<path id="&lt;Compound Path&gt;" class="s17" d="m697.1 331.1l8.2 42.2c3.5-0.7 6.9-2.2 9.3-4.3l55.6-48.5c4.8-4.2 8-12.6 7.3-18.9l-4.5-36.5c0.3 2-0.7 4.2-3 6.2l-63.7 55.5c-2.4 2.1-5.7 3.6-9.2 4.3z"/>
								</g>
							</g>
						</g>
					</g>
					<g id="&lt;Group&gt;">
						<path id="&lt;Path&gt;" class="s26" d="m771.8 259l-4.5 0.8-38.8-13.2c-6-2.1-14.7-0.4-19.5 3.8l-62.8 55.1-4.7 0.9 1.2 6.1c0.4 2 2.1 3.8 5.1 4.8l39.1 13.4c3 1 6.6 1.1 10.2 0.4 3.5-0.7 6.8-2.2 9.2-4.3l63.7-55.5c2.3-2 3.3-4.2 3-6.2q0-0.1 0-0.1z"/>
						<g id="&lt;Group&gt;">
							<g id="&lt;Group&gt;">
								<path id="&lt;Compound Path&gt;" class="s17" d="m677.7 271l-6.1 5.3-27.1 23.8c-4.8 4.2-3.8 9.2 2.2 11.3l39 13.3c3 1.1 6.7 1.1 10.2 0.5 3.5-0.7 6.9-2.2 9.3-4.3l27.2-23.7 6.1-5.4z"/>
							</g>
						</g>
						<path id="&lt;Path&gt;" class="s26" d="m771.8 259.2c0.3 2-0.6 4.1-2.9 6.1l-30.4 26.5-60.8-20.8 30.2-26.5c4.7-4.2 13.4-5.9 19.4-3.9l39.4 13.5c3.1 1.1 4.8 2.9 5.1 5.1z"/>
					</g>
					<g id="&lt;Group&gt;">
						<path id="&lt;Path&gt;" class="s2" d="m763.9 269.7c0.3-0.3 3.4-13.8 6.1-22.9 4.8-16.9-6.2-22.7-5.1-27.6 1.8-7.6 5.1-20.5 5.1-20.5l-12.6-3.7c0 0-3.7 15.1-5.4 20.8-1.3 4.7-14 1.7-18.9 20-4.9 18.4-10.2 33-10.2 33l15.6 23z"/>
						<path id="&lt;Path&gt;" class="s13" d="m763.9 269.7c0.3-0.3 3.4-13.8 6.1-22.9 4.8-16.9-6.2-22.7-5.1-27.6 1.8-7.6 5.1-20.5 5.1-20.5l-12.6-3.7c0 0-3.7 15.1-5.4 20.8-1.3 4.7-14 1.7-18.9 20-4.9 18.4-10.2 33-10.2 33l15.6 23z"/>
						<path id="&lt;Path&gt;" class="s22" d="m770 246.8q0.5-1.8 0.7-3.5c-1.8-3.8-9.4-8.3-20.3-10.4l-7.2 24.9c12.2 1.7 19.8 8 21.4 9.4 1.8-6.4 3.9-15.2 5.4-20.4z"/>
						<path id="&lt;Path&gt;" class="s7" d="m756.5 198.7c0.5-1.9 13.1 1.4 12.6 3.4 0 0 2.1-8.6 2.1-8.6 1-3.5-11.7-7.2-12.7-3.7z"/>
					</g>
					<g id="&lt;Group&gt;">
						<path id="&lt;Path&gt;" class="s26" d="m759.5 251c0.4 1.9 0.3 3.5-1.3 6.5l-18.7 39.3-60.8-20.8 18.5-39.3c2.6-5.6 7.7-7.9 13.7-5.9l47.7 15.2c0 0 0.5 2.7 0.9 5z"/>
						<path id="&lt;Path&gt;" class="s17" d="m758.6 246c0.3 1.9 0.2 3.5-1.4 6.5l-18.7 39.3-60.8-20.8 18.5-39.3c2.6-5.6 7.7-7.9 13.7-5.9l43.5 15c3.1 1.1 4.7 2.9 5.2 5.2z"/>
						<path id="&lt;Path&gt;" class="s26" d="m738.6 291.8l-6.2 5.4-60.8-20.9 6.1-5.3 60.8 20.8z"/>
					</g>
					<path id="&lt;Path&gt;" class="s26" d="m655.9 234.6l15.7 41.7 6.1-5.3-15-41.3z"/>
				</g>
				<path id="&lt;Path&gt;" class="s14" d="m690.9 232.7l-28.2-3c0 0-38.4 27.8-48 33.1-2.4 0.7-5.5-1.5-7.9-2.3-6.5-2.5-11-2-17.4-2.7-5-0.6-7.6-2.4-8.2-1.3-0.8 1.4-1.2 4.8 2.4 7.4 1.8 1.3 4.9 2.5 8.7 3.9 0 0-5.7 1.1-15.4 0.8-13.2-0.4-21.4 6.1-8.3 16.5 8.2 6.5 18.3 9.5 38.3 4.7 9.3-2.2 55.9-27.1 55.9-27.1 10.1-5 19.5-10.7 24.6-16.5 5.2-5.9 5.6-10.9 3.5-13.5z"/>
				<path id="&lt;Path&gt;" class="s14" d="m651.5 143.6c9.8 0.2 16.9 3.1 21.4 13.1 4.4 10 19 71.2 20.6 79.5 1.7 8.2-14.2 16.7-14.2 16.7l-16.6-23.2-12.7-42.5c0 0-11.6-33.3 1.5-43.6z"/>
				<path id="&lt;Path&gt;" class="s26" d="m738.5 291.8c0 0-21.9-37.5-30.5-51.2-8.6-13.8-26.4-31.3-46.8-18.2-7.2 4.6-5.3 12.2-5.3 12.2l6.8-4.9c9.3-3.7 24.2-5.9 38.6 16.9 15.6 24.6 31.1 50.6 31.1 50.6z"/>
			</g>
		</g>
	</g>
</svg>