<svg version="1.2" xmlns="http://www.w3.org/2000/svg" viewBox="0 0 3367 1647" width="1080" height="528">
	<title>10872</title>
	<defs>
		<linearGradient id="g1" x2="1" gradientUnits="userSpaceOnUse" gradientTransform="matrix(684.787,975.403,-881.715,619.013,1130.509,-199.76)">
			<stop offset="0" stop-color="#a3bdd1"/>
			<stop offset="1" stop-color="#689add"/>
		</linearGradient>
		<linearGradient id="g2" x2="1" gradientUnits="userSpaceOnUse" gradientTransform="matrix(369.159,525.825,-512.802,360.016,3589.267,238.88)">
			<stop offset="0" stop-color="#a3bdd1"/>
			<stop offset="1" stop-color="#689add"/>
		</linearGradient>
		<linearGradient id="g3" x2="1" gradientUnits="userSpaceOnUse" gradientTransform="matrix(-2.614,201.252,-59.845,-0.777,444.478,490.071)">
			<stop offset="0" stop-color="#a3bdd1"/>
			<stop offset="1" stop-color="#689add"/>
		</linearGradient>
		<linearGradient id="g4" x2="1" gradientUnits="userSpaceOnUse" gradientTransform="matrix(-3.307,254.59,-75.705,-0.983,434.441,459.412)">
			<stop offset="0" stop-color="#a3bdd1"/>
			<stop offset="1" stop-color="#689add"/>
		</linearGradient>
		<linearGradient id="g5" x2="1" gradientUnits="userSpaceOnUse" gradientTransform="matrix(785.212,458.962,-284.363,486.5,585.633,225.831)">
			<stop offset="0" stop-color="#82aed1"/>
			<stop offset="1" stop-color="#689add"/>
		</linearGradient>
		<linearGradient id="g6" x2="1" gradientUnits="userSpaceOnUse" gradientTransform="matrix(260.917,-992.624,2711.014,712.607,1398.494,1748.167)">
			<stop offset="0" stop-color="#1e88b5"/>
			<stop offset="1" stop-color="#3adefb"/>
		</linearGradient>
		<linearGradient id="g7" x2="1" gradientUnits="userSpaceOnUse" gradientTransform="matrix(-2.614,201.255,-59.845,-0.777,1103.461,601.66)">
			<stop offset="0" stop-color="#a3bdd1"/>
			<stop offset="1" stop-color="#689add"/>
		</linearGradient>
		<linearGradient id="g8" x2="1" gradientUnits="userSpaceOnUse" gradientTransform="matrix(-2.614,201.254,-59.845,-0.777,236.81,125.893)">
			<stop offset="0" stop-color="#a3bdd1"/>
			<stop offset="1" stop-color="#689add"/>
		</linearGradient>
		<linearGradient id="g9" x2="1" gradientUnits="userSpaceOnUse" gradientTransform="matrix(-2.614,201.252,-59.844,-0.777,317.503,127.105)">
			<stop offset="0" stop-color="#a3bdd1"/>
			<stop offset="1" stop-color="#689add"/>
		</linearGradient>
	</defs>
	<style>
		.s0 { opacity: .6;fill: url(#g1) } 
		.s1 { opacity: .2;fill: #f9d4d9 } 
		.s2 { opacity: .6;fill: url(#g2) } 
		.s3 { fill: #f7c9cf } 
		.s4 { mix-blend-mode: multiply;fill: #e6d6d6 } 
		.s5 { fill: url(#g3) } 
		.s6 { fill: url(#g4) } 
		.s7 { fill: url(#g5) } 
		.s8 { fill: url(#g6) } 
		.s9 { fill: #cce7fe } 
		.s10 { opacity: .4;mix-blend-mode: screen;fill: #cce7fe } 
		.s11 { opacity: .4;mix-blend-mode: screen;fill: #59c5f4 } 
		.s12 { fill: #ffffff } 
		.s13 { fill: url(#g7) } 
		.s14 { opacity: .6;fill: url(#g8) } 
		.s15 { opacity: .6;fill: url(#g9) } 
		.s16 { fill: #007d28 } 
		.s17 { fill: #00a334 } 
		.s18 { fill: #f48c7f } 
		.s19 { fill: #184655 } 
		.s20 { fill: #13375b } 
		.s21 { fill: #355389 } 
		.s22 { fill: #3c8f7c } 
		.s23 { fill: #f47458 } 
		.s24 { fill: #b75742 } 
		.s25 { fill: #f7cc7f } 
		.s26 { fill: #f8a492 } 
		.s27 { fill: #f7a491 } 
		.s28 { fill: #50bfa5 } 
		.s29 { fill: #466eb6 } 
		.s30 { fill: #07345a } 
	</style>
	<g id="Layer 1">
		<g id="&lt;Group&gt;">
			<g id="&lt;Group&gt;">
				<path id="&lt;Path&gt;" class="s0" d="m1799 842.7c-366.8 0-721.4-153.6-941.5-326.4-182-142.9-618.7-361.4-857.5-224.9v1355.5h1808.5v-804.2z"/>
				<path id="&lt;Path&gt;" class="s1" d="m2473.7 796.8q0.2 28.8 0.3 57.6-337.5-5.9-675-11.7c-366.8 0-721.4-153.6-941.5-326.4q-2.1-1.6-4.2-3.3c95.4 3.5 196.8 6.1 289.3 35.4 90.1 28.5 163.2 102.4 251.4 138 220.2 88.7 466.6-42.4 695.4 10.9 129.7 30.3 253.2 119.3 384.3 98.5q0 0.5 0 1z"/>
				<path id="&lt;Path&gt;" class="s2" d="m3215 725.7c3.3-5.6 5.5-15.6 5.5-27.1 0-8.6-2.8-16.4-5.6-22.2-2.9-5.8-5.2-8.6-5.8-9.4-0.4 1-12 13.9-11.3 34.6 0.2 5.3 1.2 13.7 3.5 20.1q-10-2.9-20-5.6v-10.6c5.3-2.7 9.3-15.6 9.3-31.1 0-8.6-2.8-16.4-5.6-22.1-2.9-5.9-5.3-8.7-5.8-9.5-0.5 1.1-12.1 13.9-11.4 34.6 0.3 9 2.9 26.9 10.4 28.6v9.3c-37.9-10.2-75.9-18.4-113.3-24.2-166.7-25.8-316.4 109.6-316.4 286.8v669h618.6v-866.7c-49.2-20.5-100.4-39.1-152.1-54.5z"/>
				<path id="&lt;Path&gt;" class="s3" d="m0 1141.6v505.3h3367.1v-505.3z"/>
				<path id="&lt;Path&gt;" class="s4" d="m1451.2 1529.9c0 14.8 282.1 26.7 630.1 26.7 348 0 630.1-11.9 630.1-26.7 0-14.7-282.1-26.6-630.1-26.6-348 0-630.1 11.9-630.1 26.6z"/>
				<path id="&lt;Path&gt;" class="s5" d="m251.9 545.7c0-14.1-4.5-26.8-9.1-36.1-4.7-9.5-8.6-14.1-9.5-15.5-0.7 1.8-19.6 22.7-18.4 56.4 0.4 14.7 4.7 43.8 16.9 46.5v21.8h5v-22.5c8.6-4.5 15.1-25.4 15.1-50.6z"/>
				<path id="&lt;Path&gt;" class="s6" d="m190.8 529.8c0-17.8-5.7-34-11.5-45.7-6-12-10.8-17.8-12-19.5-0.9 2.2-24.8 28.6-23.3 71.3 0.6 18.5 5.9 55.3 21.4 58.8v27.5h6.3v-28.4c10.9-5.7 19.1-32.2 19.1-64z"/>
				<path id="&lt;Path&gt;" class="s7" d="m1808.5 842.7h-9.5c-121.2 0-241.1-16.7-355.3-45.4-89.5-22.6-180.4-38-271.8-46.3-76.4-6.9-151.8-15.2-221.2-24.9v-16.2c8.6-6.2 15.1-35.3 15.1-70.2 0-19.4-4.5-37.1-9.1-50-4.7-13.2-8.5-19.5-9.4-21.4-0.8 2.5-19.7 31.4-18.5 78.1 0.5 20.3 4.7 60.7 16.9 64.5v14.5c-117.9-16.7-217.8-37.8-274.7-64.3-77.7-36.2-190.6-49.2-305.3-50.7v-4.7c4.3-3.1 7.6-17.6 7.6-35.1 0-9.7-2.3-18.5-4.6-25-2.4-6.6-4.3-9.7-4.7-10.7-0.4 1.2-9.8 15.7-9.3 39.1 0.3 10.1 2.4 30.3 8.5 32.2v4.2q-10.7-0.1-21.3-0.1v-25.3c7.3-5.3 12.8-30 12.8-59.7 0-16.6-3.8-31.6-7.7-42.5-4.1-11.3-7.3-16.7-8.1-18.2-0.6 2-16.7 26.7-15.7 66.4 0.4 17.3 4 51.6 14.4 54.9v24.4q-18.5 0-36.8 0.4v-15.9c7.3-5.3 12.8-30 12.8-59.7 0-16.6-3.8-31.6-7.7-42.6-4.1-11.2-7.3-16.6-8.1-18.2-0.6 2.1-16.7 26.7-15.7 66.5 0.4 17.3 4 51.6 14.4 54.8v15.2c-115.3 2.8-225.7 14.9-296.5 24.4v399.3l1808.5-44.9z"/>
				<path id="&lt;Path&gt;" class="s8" d="m0 1169.1c16.6 27.6 236.6 13.6 556.1 20.4 165.4 3.6 356.9 63.4 561.8 63.1 181-0.4 371.2-60.6 562.1-63.1 190.7-2.5 382.8 52.7 563.8 48.8 204.5-4.4 394.7-68 560.4-73.1 313.3-9.6 533.3 36.7 562.9 30.6v-409.4h-3367.1z"/>
				<g id="&lt;Group&gt;" style="opacity: .4;mix-blend-mode: screen">
					<path id="&lt;Path&gt;" class="s9" d="m3059.5 849.8c-6.5-0.7-10.4 5.4-5.7 8.8 15.3 11.1 39.5 11.1 54.8 0 4.8-3.4 0.9-9.5-5.7-8.8-14.1 1.6-29.3 1.6-43.4 0z"/>
					<path id="&lt;Path&gt;" class="s9" d="m3190.3 846.7c-10.5-1.2-16.7 8.5-9.1 14 24.5 17.7 63.1 17.7 87.6 0 7.6-5.5 1.4-15.2-9.1-14-22.6 2.4-46.8 2.4-69.4 0z"/>
					<path id="&lt;Path&gt;" class="s9" d="m1499.7 850c-9.9-1.1-15.8 8.1-8.6 13.4 23.2 16.7 59.8 16.7 83.1 0 7.2-5.3 1.3-14.5-8.6-13.4-21.4 2.4-44.4 2.4-65.9 0z"/>
					<path id="&lt;Path&gt;" class="s9" d="m1286 815.6c-7.5-0.8-11.9 6.1-6.5 10 17.5 12.6 45 12.6 62.4 0 5.5-3.9 1-10.8-6.5-10-16 1.8-33.3 1.8-49.4 0z"/>
					<path id="&lt;Path&gt;" class="s9" d="m1368 871.6c-5.6-0.6-9 4.6-4.9 7.6 13.2 9.5 33.9 9.5 47.1 0 4.1-3 0.7-8.2-4.9-7.6-12.1 1.3-25.2 1.3-37.3 0z"/>
					<path id="&lt;Path&gt;" class="s9" d="m1186.6 893.9c-4.2-0.5-6.6 3.4-3.6 5.5 9.7 7 24.9 7 34.6 0 3-2.1 0.6-6-3.6-5.5-8.9 1-18.5 1-27.4 0z"/>
					<path id="&lt;Path&gt;" class="s9" d="m1372.8 810.1c-4-0.3-6.4 2.3-3.5 3.7 9.3 4.7 24.1 4.7 33.5 0 2.9-1.4 0.5-4-3.5-3.7-8.6 0.7-17.9 0.7-26.5 0z"/>
					<path id="&lt;Path&gt;" class="s9" d="m1419.9 821.7c-4-0.3-6.4 2.3-3.5 3.7 9.4 4.7 24.1 4.7 33.5 0 2.9-1.4 0.5-4-3.5-3.7-8.6 0.7-17.9 0.7-26.5 0z"/>
					<path id="&lt;Path&gt;" class="s9" d="m1419.9 810.1c-4-0.3-6.4 2.3-3.5 3.7 9.4 4.7 24.1 4.7 33.5 0 2.9-1.4 0.5-4-3.5-3.7-8.6 0.7-17.9 0.7-26.5 0z"/>
					<path id="&lt;Path&gt;" class="s9" d="m1464.1 813.7c-4-0.3-6.4 2.3-3.4 3.7 9.3 4.7 24.1 4.7 33.4 0 2.9-1.4 0.5-4-3.5-3.7-8.6 0.7-17.8 0.7-26.5 0z"/>
					<path id="&lt;Path&gt;" class="s9" d="m1511.9 806.5c-4-0.3-6.4 2.3-3.5 3.7 9.4 4.7 24.1 4.7 33.5 0 2.9-1.4 0.5-4-3.5-3.7-8.6 0.7-17.9 0.7-26.5 0z"/>
				</g>
				<g id="&lt;Group&gt;">
					<path id="&lt;Path&gt;" class="s10" d="m3089 816.2c-6.5-0.7-10.4 5.3-5.7 8.8 15.3 11 39.5 11.1 54.8 0 4.8-3.5 0.8-9.5-5.7-8.8-14.1 1.5-29.3 1.5-43.4 0z"/>
					<path id="&lt;Path&gt;" class="s10" d="m2972.4 846.7c-7.7-0.8-12.3 6.4-6.7 10.4 18.1 13.1 46.6 13.1 64.7 0 5.6-4 1-11.2-6.7-10.4-16.7 1.9-34.6 1.9-51.3 0z"/>
					<path id="&lt;Path&gt;" class="s10" d="m1994.3 898.9c-4.2-0.4-6.7 3.4-3.6 5.6 9.7 7 25.1 7.1 34.8 0 3-2.2 0.5-6-3.6-5.6-9 1-18.6 1-27.6 0z"/>
					<path id="&lt;Path&gt;" class="s10" d="m2063.1 876.2c-5.3-0.5-8.5 4.4-4.6 7.2 12.4 8.9 32 8.9 44.4 0 3.9-2.8 0.7-7.7-4.6-7.2-11.5 1.3-23.8 1.3-35.2 0z"/>
					<path id="&lt;Path&gt;" class="s10" d="m2132.1 833.5c-5.3-0.5-8.4 4.4-4.6 7.2 12.5 8.9 32.1 8.9 44.5 0 3.9-2.8 0.7-7.7-4.6-7.2-11.5 1.3-23.8 1.3-35.3 0z"/>
					<path id="&lt;Path&gt;" class="s10" d="m2019.2 840.5c-5.8-0.6-9.2 4.7-5 7.7 13.4 9.7 34.6 9.7 48 0 4.2-3 0.8-8.3-4.9-7.7-12.4 1.3-25.7 1.3-38.1 0z"/>
					<path id="&lt;Path&gt;" class="s10" d="m742.9 846.7c-7.1-0.7-11.2 5.8-6.1 9.5 16.4 11.8 42.3 11.8 58.7 0 5.1-3.7 0.9-10.2-6.1-9.5-15.1 1.7-31.4 1.7-46.5 0z"/>
					<path id="&lt;Path&gt;" class="s10" d="m327.1 840.2c-6.4-0.7-10.3 5.2-5.6 8.6 15 10.9 38.7 10.9 53.7 0 4.7-3.4 0.8-9.3-5.6-8.6-13.8 1.5-28.7 1.5-42.5 0z"/>
					<path id="&lt;Path&gt;" class="s10" d="m395.4 824.5c-6.6-0.7-10.6 5.5-5.7 8.9 15.5 11.2 39.9 11.2 55.4 0 4.9-3.4 0.9-9.6-5.7-8.9-14.3 1.6-29.7 1.6-44 0z"/>
					<path id="&lt;Path&gt;" class="s10" d="m719.5 920.6c-5.3-0.6-8.5 4.3-4.6 7.1 12.5 9 32.2 9 44.6 0 3.9-2.8 0.8-7.7-4.6-7.1-11.5 1.2-23.9 1.2-35.4 0z"/>
					<path id="&lt;Path&gt;" class="s10" d="m288.4 817.5c-5.4-0.5-8.6 4.4-4.7 7.2 12.5 9 32.2 9 44.7 0 3.9-2.8 0.7-7.7-4.7-7.2-11.5 1.3-23.8 1.3-35.3 0z"/>
					<path id="&lt;Path&gt;" class="s10" d="m224.3 844.8c-6.4-0.7-10.2 5.3-5.6 8.6 15 10.9 38.7 10.9 53.7 0 4.7-3.3 0.9-9.3-5.5-8.6-13.9 1.5-28.8 1.5-42.6 0z"/>
					<path id="&lt;Path&gt;" class="s10" d="m185.6 822.2c-5.3-0.6-8.5 4.3-4.6 7.1 12.4 9 32.1 9 44.6 0 3.9-2.8 0.7-7.7-4.6-7.1-11.5 1.2-23.9 1.2-35.4 0z"/>
					<path id="&lt;Path&gt;" class="s10" d="m107.7 830.4c-5.3-0.6-8.4 4.2-4.6 7 12.3 8.9 31.7 8.9 44 0 3.8-2.8 0.7-7.6-4.6-7-11.3 1.2-23.5 1.2-34.8 0z"/>
					<path id="&lt;Path&gt;" class="s10" d="m76 811.8c-4.4-0.5-7 3.6-3.8 5.9 10.2 7.3 26.3 7.3 36.6 0 3.2-2.3 0.5-6.4-3.8-5.9-9.5 1-19.6 1-29 0z"/>
					<path id="&lt;Path&gt;" class="s10" d="m789 819.1c-5.3-0.6-8.5 4.4-4.6 7.2 12.5 9 32.1 9 44.6 0 3.9-2.8 0.7-7.8-4.6-7.2-11.5 1.3-23.9 1.3-35.4 0z"/>
					<path id="&lt;Path&gt;" class="s10" d="m661.8 835.2c-6.8-0.7-10.9 5.6-5.9 9.2 15.9 11.5 41 11.5 57 0 4.9-3.6 0.9-9.9-5.9-9.2-14.7 1.6-30.5 1.6-45.2 0z"/>
				</g>
				<path id="&lt;Path&gt;" class="s11" d="m1922.8 1065c-571.3 104.2-1417.9 61.9-1922.8 21v86c38.8 21.6 255.9 11.1 556.1 17.5 165.4 3.6 356.9 63.4 561.8 63.1 181-0.4 371.2-60.6 562.1-63.1 190.7-2.5 382.8 52.7 563.8 48.8 204.5-4.4 394.7-68 560.4-73.1 313.3-9.6 533.3 36.7 562.9 30.6v-180.6c-389.5-27.6-949.7-40.5-1444.3 49.8z"/>
				<path id="&lt;Path&gt;" class="s12" d="m3367.1 1193.6c-30.4-3.8-146.9-49.9-335.8-36.4-21.5 1.4-39 2.7-63.5 2.1-41.6-0.3-70.9-8.1-105.6-10.7-52.2-3.6-120 4.9-168.3 25l0.4 3.7c33.5 3.9 133.1 5 157.7 3.1 51.9-3.2 86.5-19.1 178.5-2.9 87.5 14.6 227.7 33.3 315.3 24.4 7-0.9 14.2-1.6 21.3-4.2z"/>
				<g id="&lt;Group&gt;" style="mix-blend-mode: screen">
					<path id="&lt;Path&gt;" class="s12" d="m2243.8 1236.4c22-9.4 60.8-16.9 83.8-19.6 24.5-2.7 26-2.5 56.7-0.1 54.6 4.9 78.6-14.2 139.1-29.7 39-10.1 63.3-16 112.6-17.3 19.1-0.3 38.4 0.3 57.9 3.9l0.4 3.7c-28 14.3-76.5 29.3-109.8 36.4-24.1 5.2-72.9 10-84.8 10.4-19.4 0.8-35.7-0.8-57.4 0.8-52.9 4.1-67 22.7-112.3 24.8-28.4 1.3-59.1-0.1-86.1-9.6z"/>
				</g>
				<path id="&lt;Path&gt;" class="s12" d="m2243.8 1236.4c-11.8-1.6-23.5-2.9-35.2-4.2-203.2-27.8-241.8-43.2-385.7-53.2-133.9-7.8-150.7 3.6-284.2 15.2-98.7 10-100.3 2.4-246.3 27.9-48.7 8.6-91.3 15.5-122.4 20.4-32.7 5.2-65.9 4.7-98.6-1.1-72.8-13.1-199.9-31.9-270.8-35.3-118.6-6.4-102.3-9.9-180.8-27.3-1.7-0.3-11.6-2.2-21.5-3.4-39.3-5.2-118.3 0.1-161.1 10.5v3.8c43 11.7 118.8 17.5 159.4 18.1 52.1 1.6 86-10.1 180 17.5 105.5 30.1 226.2 52 334.4 30.5 4.6-0.9 9.3-1 13.9-0.5 67.1 8.1 139.8 3.2 206.2-6.5 97.2-13.8 139-32.4 208.8-42.7 93.3-13 142.9-5.6 175.6-3.7 214.4 22 366.6 60.5 528.4 37.7z"/>
				<path id="&lt;Path&gt;" class="s12" d="m244.8 1172.4c-23.9 3.2-50 11.4-82.4 8.7-37.5-2.6-36.3-14.5-109-12.2-27.8 0.8-46.7 3.2-53.4-0.3v5.1c11.6 18.1 60.9 26.5 79.2 28 46 4.1 57.3-12.4 110.6-8.2 20.7 1.6 90 19.2 164.9 11.9 24.9-2.2 58.5-7.5 82.5-15.7v-3.8c-31-11.2-77.6-17.4-109.9-18.4-23.6-0.8-71 3.3-82.5 4.9z"/>
				<path id="&lt;Path&gt;" class="s12" d="m1193.6 131.8c10.4-4.9 22.7-7.8 35.9-8 12.1-20.8 40.5-34.7 72.7-34.7 19.4 0 37.7 5.2 51.9 14 15.7-25.9 51.9-44 92.8-44 27 0 52.5 7.7 71.4 21.2q4.1-0.4 8.2-0.4c29.3 0 53.2 17.1 53.2 38.2 0 4.7-1.3 9.4-3.6 13.7z"/>
				<path id="&lt;Path&gt;" class="s12" d="m2643.9-72.9c14.8-7 32.3-11.1 51-11.3 17.3-29.6 57.6-49.4 103.4-49.4 27.6 0 53.6 7.3 73.7 19.9 22.4-36.8 73.8-62.5 132.1-62.5 38.3 0 74.6 10.9 101.5 30.1q5.7-0.6 11.6-0.6c41.7 0 75.6 24.4 75.6 54.3 0 6.8-1.7 13.4-5 19.5z"/>
				<path id="&lt;Path&gt;" class="s13" d="m910.9 657.3c0-14.1-4.6-26.8-9.1-36.1-4.8-9.5-8.6-14.1-9.5-15.5-0.7 1.8-19.6 22.7-18.5 56.4 0.5 14.6 4.7 43.8 17 46.5v21.8h5v-22.5c8.6-4.5 15.1-25.4 15.1-50.6z"/>
				<path id="&lt;Path&gt;" class="s12" d="m124.3-134.8c10.4-4.9 22.8-7.8 35.9-7.9 12.2-20.9 40.6-34.8 72.9-34.8 19.4 0 37.8 5.1 52 14 15.7-25.9 52-44.1 93-44.1 27 0 52.6 7.7 71.5 21.3q4.1-0.5 8.2-0.5c29.4 0 53.3 17.2 53.3 38.3 0 4.8-1.2 9.4-3.6 13.7z"/>
				<path id="&lt;Path&gt;" class="s14" d="m80.3 208.3c0-11.4-3.7-21.7-7.4-29.3-3.8-7.7-6.9-11.4-7.6-12.5-0.7 1.5-15.9 18.4-15 45.7 0.4 11.9 3.8 35.5 13.7 37.7v17.6h4v-18.2c7-3.6 12.3-20.6 12.3-41z"/>
				<path id="&lt;Path&gt;" class="s15" d="m124.9 182.7c0-14.1-4.5-26.8-9.1-36.1-4.7-9.5-8.6-14.1-9.4-15.4-0.8 1.7-19.7 22.6-18.5 56.4 0.5 14.6 4.7 43.7 16.9 46.5v21.7h5v-22.4c8.6-4.5 15.1-25.5 15.1-50.7z"/>
				<path id="&lt;Path&gt;" class="s16" d="m463.3 1409.7c-40.5-31.2-244.2 86.9-244.2 86.9 0 0 125.5-245.7 77.9-312.5-47.6-66.7-116.1 51.7-116.1 51.7 0 0 93.9-197.2-9.5-265.4-81-53.4-155.3 91-171.4 123.2v553.3h493.7c0 0 10.1-205.9-30.4-237.2z"/>
				<path id="&lt;Path&gt;" class="s17" d="m826.5 1544.8c-14.2-18.3-221.8 39.1-221.8 39.1 0 0 72.7-110.2 19.5-140-53.3-29.8-184.6 87.2-184.6 87.2 0 0 35.5-120.3-39-134.7-74.6-14.5-108.3 125.2-108.3 125.2 0 0 19.1-96.8-46.6-122.1-65.7-25.2-146.8 156.8-146.8 156.8 0 0 72.8-201.9 39-268.4-33.7-66.6-126 179.5-126 179.5 0 0 23.1-120.4-11.9-175v354.5h789.2c0 0 51.5-83.7 37.3-102.1z"/>
			</g>
			<path id="&lt;Path&gt;" class="s16" d="m3367.1 1439.5c0 0-24.6-49.8-79.5-23.8-54.9 25.9-32.3 82.2-32.3 82.2 0 0-32.9-25.4-58.2 0-25.3 25.5-23.7 68.3-23.7 68.3 0 0-34.4-23.9-55.9-12-21.6 12-16.2 90.4-16.2 90.4h265.8z"/>
			<path id="&lt;Path&gt;" class="s17" d="m2879.5 1647c0 0-31.2-45.2-22.6-55.1 8.6-9.9 134.6 21 134.6 21 0 0-44.2-59.4-11.9-75.5 32.3-16.2 112 47 112 47 0 0-21.5-64.9 23.7-72.7 45.2-7.8 65.7 67.6 65.7 67.6 0 0-11.6-52.3 28.3-65.9 39.8-13.6 89.1 84.7 89.1 84.7 0 0-44.2-109.1-23.7-145 20.4-35.9 76.4 97 76.4 97 0 0-17.3-80.9 16-103.2v200.1h-265.8z"/>
			<g id="&lt;Group&gt;">
				<g id="&lt;Group&gt;">
					<g id="&lt;Group&gt;">
						<path id="&lt;Path&gt;" class="s18" d="m1973.8 1350.4l-18.4 31.8-32.8-33.1c0 0-2.1-37.3-21.8-97.4 19 2.7 45.8-3.9 65 0 8 52.7 8 98.7 8 98.7z"/>
						<path id="&lt;Path&gt;" class="s19" d="m1928.4 1345.7c0 0 19.5 5.4 25.7 4.1 6.3-1.3 14.1-9.4 20.6-5 6.4 4.4 17.3 41.2 15.3 49.3-2 8.5-7.9 17.9-14.3 19.2-6.3 1.4-125.8 1.8-143.4-2.6-17.6-4.4-13.6-23 5-31.5 18.6-8.4 81.6-39.9 91.1-33.5z"/>
					</g>
					<path id="&lt;Path&gt;" class="s19" d="m1817.7 1009.7c11.7-66 269.7-72.7 269.7-72.7 53.6 17 33.6 42.2 72.4 74.8-14.3 24.8-27.5 45.3-32.8 46.2-13.8 2.3-211.8 2.8-211.8 2.8l41.6 234.7c-21.5 3.4-34.5 1-56 5.2-33.4-96.7-93.1-235-83.1-291z"/>
					<path id="&lt;Path&gt;" class="s20" d="m2391.7 535.5c-9.6 33.6 64.1-68 94-65.8 22.4 1.6 45 8.8 62.2 24.3 73.4 66.5 20.2 244.4-79.3 237.5-47.9-3.3-83.1-58-127.6-77.3-37.9-16.4-46.3-20-66-51.1-19.6-31-26.6-79.3-18.3-112.8 5.6-22.8 14.3-32.8 29.5-43.1 24.5-16.5 139.2-28.7 105.5 88.3z"/>
					<path id="&lt;Path&gt;" class="s20" d="m2303.1 954.2c35-22.7 51.1-73.2 110.3-10.7 50.6 55.9-19 98.5-39 112.5-21.3 15-243.5 95.4-243.5 95.4 0.4 0.3 27.6 6.2 51.9 42.4 23.6 35.9 94.3 131.3 105.3 135 11 3.7 21.4 8.9 21.4 8.9l-25 92.1c0 0-18.4-66-24-78.8-3.4-7.6-193.9-199.9-193.9-228.6 0-53.2 195.7-141.6 236.5-168.2z"/>
					<path id="&lt;Path&gt;" class="s19" d="m2401.7 1397.3c-0.6 69.9 56.1 126.6 126 126 67.9-0.6 123.3-56 123.9-123.9 0.6-69.8-56.2-126.6-126.1-126-67.8 0.6-123.2 56-123.8 123.9z"/>
					<path id="&lt;Path&gt;" class="s21" d="m2526.6 1498.6c55.3 0 100.3-44.9 100.3-100.2 0-55.3-45-100.3-100.3-100.3-55.3 0-100.2 45-100.2 100.3 0 55.3 44.9 100.2 100.2 100.2z"/>
					<path id="&lt;Path&gt;" class="s19" d="m1535.5 1437c19.1 69.8 88.5 111.6 155 93.4 66.6-18.2 105.2-89.4 86.1-159.2-19-69.7-88.4-111.6-155-93.4-66.6 18.2-105.1 89.5-86.1 159.2z"/>
					<path id="&lt;Path&gt;" class="s21" d="m1659 1510c8.4 0 16.8-1.2 25-3.4 25.7-7 47-24.1 60-48.2 13.2-24.5 16.3-53.1 8.8-80.7-12.7-46.8-53.7-79.5-99.6-79.5-8.4 0-16.9 1.2-25.1 3.4-25.6 7-46.9 24.1-59.9 48.2-13.3 24.5-16.4 53.1-8.9 80.7 12.8 46.8 53.8 79.5 99.7 79.5z"/>
					<path id="&lt;Path&gt;" class="s18" d="m2076.3 833.2c-11.2-3.8-15.9-8.5-13.6-10.5 2.3-2.1 38.3 11.5 43 11.5 4.7-0.1-41.6-14.8-41.9-17.8-0.3-3 1.1-3.5 4.2-3.5 3.2-0.1 36.2 16.8 40.3 14.9 4.1-2-26.4-13-31.4-14.8-5.1-1.8-0.3-4.8 9.5-3 9.8 1.9 20.3 11.9 35.2 13.2 14.9 1.4 17.4-1.3 15.3-2.9-2.1-1.5-14-0.4-17.1-1.4-3.1-1-3.8-6.3 7.7-5.7 11.6 0.6 19.3 6.2 22.7 10.3 3.5 4.2 80.3 4.4 107.3-4.9 9.2-3.2 21-23.4 21.8-43.5 27 4.1 39.4 7.4 63.7 20.7-14.2 44.8-34.1 88.7-52.2 90.4-38.4 3.4-147.8-37-147.8-37 0 0-27.2 4.1-39.5 2-12.4-2.1-25.5-5.5-29.2-11.3-3.7-5.8 25 3.2 30.3 2.5 5.2-0.7-17.1-5.3-28.3-9.2z"/>
					<path id="&lt;Path&gt;" class="s22" d="m2295.3 644.2c10.3-10.5 44.7-27.7 63 21.6 9.4 26.1 0.7 85.4-15.3 135.9-24.3-13.3-50.4-21.2-77.4-25.4 1.7-39.2-2-98.7 29.7-132.1z"/>
					<path id="&lt;Path&gt;" class="s19" d="m1713.5 837.2l-94.3-5.3 5.4 30.2 88.9-0.9z"/>
					<path id="&lt;Path&gt;" class="s23" d="m1745.3 866.9l89 531.5-149.6-121.3 5.3-408z"/>
					<path id="&lt;Path&gt;" class="s24" d="m2429.2 1113l10 8.9 187 133 9.4 74.6c0 0-215.4 11.4-250.6 25.1-34.8 13.6-41.5 106-41.5 106l-454.3 0.7c-37.3 0-76.4-19.3-104-51-35-39.1-84.7-87.8-116.9-96.3-55.8-14.6-125.9-1-125.9-1l-44.8-22c0 0 51.7-91.4 178.2-45.4 122.5 46.3 117.3 157.9 221.4 165 72.2 5.1 209.2 2.7 285.8 0.8 35.6-0.9 62.7-30.3 59.4-65.6-2.1-23-9.1-48.7-26.5-70.1-44.9-53.7-149.3-118.2-149.3-118.2l-4.5-38.6z"/>
					<path id="&lt;Path&gt;" class="s23" d="m2467.7 1082.7l-0.4 12.7-422.9 3.2-4.3-35.9 397.2-6.7c17.3-0.3 31 11.7 30.4 26.7z"/>
					<path id="&lt;Path&gt;" class="s19" d="m2439.2 1121.9l10.9-26.4-394.4 3 5.7 26.2z"/>
					<path id="&lt;Path&gt;" class="s23" d="m2469.9 1231.1q4.3-1.3 8.5-2.4c122.8-30.5 227.2 57.4 201.7 172.5l-278 0.7-58.6 58.7c0 0 14.8-195.8 126.4-229.5z"/>
					<path id="&lt;Path&gt;" class="s20" d="m1605.1 713.2c-4.4-17.9-2.4-32.4 4.5-32.5 6.8-0.1 15.8 14.3 20 32.2 4 16.7 2.5 30.5-3.3 32.3l84.5 118-13.1 3.9-73.4-121.8c-6.6-1.1-15-15-19.2-32.1z"/>
					<path id="&lt;Path&gt;" class="s24" d="m1738.5 826.1l20.7 2.9 18.7 31.9-35.2 8.6z"/>
					<path id="&lt;Path&gt;" class="s19" d="m1653.2 1066.1c2.9 25.5 25 47.7 49.1 49.8 24.1 2 41.8-17 39.7-42.5-2.1-25.5-23.9-47.7-48.8-49.7-24.9-2-42.9 17-40 42.4z"/>
					<path id="&lt;Path&gt;" class="s23" d="m1653.2 1066c2.9 25.3 22.1 47.3 42.7 49 20.6 1.8 35.4-17.4 33.1-42.8-2.2-25.4-21.1-47.3-42.4-49-21.3-1.8-36.3 17.4-33.4 42.8z"/>
					<path id="&lt;Path&gt;" class="s25" d="m1725.4 1071.9c-1.6-18.6-15.8-44-38.5-45.8-21.9-1.7-32.3 20.1-30.1 40.2 2.7 23.7 20.1 44.2 38.8 45.8 21.2 1.8 31.6-20.1 29.8-40.2z"/>
					<path id="&lt;Path&gt;" class="s26" d="m1781.9 337.2c0.7 25.7-3.5 24.7-3.3 28 0.2 3.9 30.6 46.4 30.6 46.4 0 0 89 125.8 94 132.4l135.6 81.5-19.3 79c0 0-145.3-92.5-152.1-98.7-6.8-6.2-107.7-190.1-117.1-206 0 0-18.1-14.9-29.1-24.6-11-9.8-17.3-23.9-20-27.1-0.4-0.5-8.8-11.7-15.5-28.3-5.8-14.3 6.1-3.3 6.1-3.3 0 0 15.4 24.6 17.1 23 1.2-1.1-7.9-14.1-14.5-29.8-1.7-4-3.4-8-4.9-11.7-3.9-9.7 0.8-14.7 6.5-5.3 2 3.4 5.2 9 6.9 13.4 1.9 4.6 5 8.4 7.2 12.1 4.3 7.3 7.3 12.8 7.5 12.4 0.3-0.4 2.1 0.5 0.5-3.9-2.1-5.2-8.7-15.4-11.1-23.3-1.3-4.5-4.7-13.7-4.7-13.7 0 0-2.5-14.8-1.7-15.2 4.3-2.3 8.8 7.4 9.9 13.7 2.7 3.7 6 13.5 6 13.5 0 0 10.9 18.3 13.5 16.8 1-0.6-4.4-12.7-7.9-25.3-3.2-11.7-4.6-24-2.4-25 3.7-1.6 8.6 11.1 8.6 11.1 0 0 3 9 4.2 11.9 1.5 3.5 6.5 13.4 6.5 13.4 0 0 19.2 33.9 21.5 32.3 2.3-1.6 6.5-8.2 6.1-10.7-0.5-2.5-3.8-6.7-4.3-9.2-0.4-2.5 1-6.1 4-6.9 3-0.8 9.9 10.5 9.9 10.5 0 0 5.5 9.2 5.7 16.6z"/>
					<path id="&lt;Path&gt;" class="s21" d="m1952.1 563.8c4.6-1.9 143 54.9 149.3 84.4 6.2 29.6-29.6 83.9-68.7 70.4-39.2-13.5-125.2-78.9-125.2-78.9 0 0 30-69.9 44.6-75.9z"/>
					<path id="&lt;Path&gt;" class="s21" d="m2087.4 937l-7.6-19.8c0 0-87.1-167.3-85.8-253.1 0.8-38.1 39.4-58 44.4-59.1 25.3-5.4 76.8-34.6 119-5.6 49.7 34.8 106.7 200.1 108.2 249.1 1.5 49.1 5.8 139.3-17.5 178.4-38.5-32.6-107.1-72.9-160.7-89.9z"/>
					<g id="&lt;Group&gt;">
						<path id="&lt;Path&gt;" class="s27" d="m2029.8 1353.8l-18.4 31.8-32.8-33.2c0 0-2.1-37.2-21.8-97.3 19 2.7 45.8-3.9 65 0 8 52.7 8 98.7 8 98.7z"/>
						<path id="&lt;Path&gt;" class="s19" d="m1984.4 1349.1c0 0 19.5 5.4 25.7 4.1 6.3-1.3 14.1-9.4 20.6-5 6.4 4.4 17.3 41.2 15.3 49.3-2 8.5-7.9 17.9-14.3 19.2-6.3 1.3-125.8 1.8-143.4-2.6-17.6-4.4-13.6-23 5-31.5 18.6-8.4 81.6-39.9 91.1-33.5z"/>
					</g>
					<path id="&lt;Path&gt;" class="s22" d="m1895.9 1015.7c-5.5-66.8 191.5-78.7 191.5-78.7 53.6 17 121.4 36.1 160.3 68.8-14.3 24.7-45.8 51.3-51.1 52.2-13.8 2.3-183.6 11.1-183.6 11.1l36.7 229.1-91.3 9.6c-7-15.6-55.7-209.2-62.5-292.1z"/>
					<path id="&lt;Path&gt;" class="s27" d="m2351.1 1328.8c10.9 3.7 21.3 8.9 21.3 8.9l-24.9 92.1c0 0-18.4-66-24.1-78.8-0.5-1.3-6.5-7.3-16.1-16.6 6.8-11.4 13-23.2 20.8-33.7 10.9 15.8 19.5 26.9 23 28.1z"/>
					<path id="&lt;Path&gt;" class="s19" d="m2343.9 1376.1c3.4-16 0.5-32.9 7.8-47.1 10.7 3.7 21.6 6.5 21.6 6.5 0 0-14.2 101.2-30.9 104.3-10.4 2-0.7-30.5-6.7-50.8 4-3.4 7.1-7.4 8.2-12.9z"/>
					<path id="&lt;Path&gt;" class="s21" d="m2119.3 1116c0-53.2 166-124.3 202.8-156.2 1.5-1.3 95.1-78.8 154.3-16.3 50.5 55.9-19 98.5-39.1 112.5-21.2 15-219.7 68.6-219.7 68.6 3.8 3.9 26.7 20.9 51 57.1 16.2 24.6 47.7 79.9 71.3 114.2-7.8 10.5-25.8 27.1-32.6 38.5-47-45.9-188-194.5-188-218.4z"/>
					<path id="&lt;Path&gt;" class="s21" d="m2467.7 878.9l26.3 98.5-174.3-15.6 22.3-66.9z"/>
					<path id="&lt;Path&gt;" class="s28" d="m2331.1 831.9c-7.8-8.1-29.4-37-38.5-64.9-17.5-54 10.3-131.6 14.3-134.3 0 0 103.4-20.7 124.6 17.4 33.7 60.5 39.7 179.1 48.9 259.1 1.3 11.2-109.8 11-146.4-3.2 3.9-31 5.6-65.2-2.9-74.1z"/>
					<path id="&lt;Path&gt;" class="s27" d="m2066.6 844.2c15.5-8.1-19.5-203.9 44-239.2 0 0 25.3-16.7 58.2 11.4 32.4 28.2-18.3 295.2-49.5 311.7-46.6 24.7-209.1-34.7-250.4-44.5l4.9-43c0 0 179.1 10.8 192.8 3.6z"/>
					<path id="&lt;Path&gt;" class="s29" d="m2066.6 799.1c-1.6-67.9 1.5-170.5 44-194.1 0 0 25.3-16.7 58.2 11.4 18.9 16.4 31.3 124.9 16.6 209.8-28.5-15.8-85.5-27.5-118.8-27.1z"/>
					<path id="&lt;Path&gt;" class="s20" d="m1782.1 702.2c-5.4-17.8-15.2-31.8-22-31.3-6.7 0.6-7.7 15.5-2.3 33.3 5.2 16.6 14.1 30 20.6 31.1l-19.8 123 14.8 2.6 7.1-125.7c5.9-1.6 6.7-16 1.6-33z"/>
					<path id="&lt;Path&gt;" class="s20" d="m1748.8 689.3c0 26.8 17.9 48.5 40.1 48.5 22.1 0 40.1-21.7 40.1-48.5 0-26.7-18-48.4-40.1-48.4-22.2 0-40.1 21.7-40.1 48.4z"/>
					<path id="&lt;Path&gt;" class="s23" d="m1672.1 828.7l6.2 40.3 64.4 0.5-4.2-43.4z"/>
					<g id="&lt;Group&gt;">
						<path id="&lt;Path&gt;" class="s27" d="m2347 563.4c0 0 5.2 48.5 11 61.9 5.8 13.4 5.8 61.8-24.1 70.8-30 9-30.5-53.1-32-67.5-1.5-14.4-3.7-61.4-3.7-61.4z"/>
						<path id="&lt;Path&gt;" class="s23" d="m2348.7 578.1c-3 3.3-6.5 6.2-10.6 8.9-14.4 9.1-27.8 9.1-38.7 3.8-0.7-12.8-1.2-23.6-1.2-23.6l48.8-3.8c0 0 0.6 6.2 1.7 14.7z"/>
						<path id="&lt;Path&gt;" class="s27" d="m2328.5 464.7c0 0 18.2 3.8 29.7 20.3 11.4 16.5 20.5 68.6-15.9 91.7-36.4 23.2-66.1-12.2-67.2-43.6-1-31.5 5.2-73.5 53.4-68.4z"/>
						<path id="&lt;Path&gt;" class="s27" d="m2357.2 527c-2.6 8.2 0 16.3 5.7 18 5.7 1.7 12.4-3.6 14.9-11.8 2.6-8.2 0-16.2-5.7-17.9-5.7-1.7-12.4 3.5-14.9 11.7z"/>
						<path id="&lt;Path&gt;" class="s20" d="m2321.3 460.6c0 0 23.9 50.2 44.3 54.5 20.3 4.3 20.5 29.6 20.5 29.6 0 0-1.5-58.5-20.7-71.7-19.3-13.3-44.1-12.4-44.1-12.4z"/>
					</g>
					<path id="&lt;Path&gt;" class="s20" d="m2489.2 636.3c0 45.8 34.3 83 76.6 83 42.4 0 76.7-37.2 76.7-83 0-45.9-34.3-83-76.7-83-42.3 0-76.6 37.1-76.6 83z"/>
					<path id="&lt;Path&gt;" class="s24" d="m1798.4 1385.9l70.5 25.9-86.6-490.8 25.2-7.6-29.6-52.5-35.2 8.6z"/>
					<path id="&lt;Path&gt;" class="s19" d="m1882.7 837.2c0 0-104.8-5.6-126.6-0.4-7 1.7-2.1 22.9 3.4 27.5 25.4 21.1 123.2 19.4 123.2 19.4z"/>
					<path id="&lt;Path&gt;" class="s29" d="m1867.1 860.3c0 12.9 7 23.3 15.6 23.3 8.7 0 15.7-10.4 15.7-23.3 0-12.9-7-23.3-15.7-23.3-8.6 0-15.6 10.4-15.6 23.3z"/>
					<path id="&lt;Path&gt;" class="s27" d="m1867.1 836.5c0 0-22.3-20.8-31-20.8-8.6 0-20.3 2.9-24 2.9-2.1 0-21.2 35.6-16.4 40.6 3 3 18.4-24.6 18.4-24.6 0 0-17.6 28.4-9.7 30.4 4.3 1.1 19.9-27.5 19.9-27.5 0 0-13.5 23.7-11.9 24.6 6.8 4 32.8-25.8 32.8-25.8z"/>
				</g>
				<path id="&lt;Path&gt;" class="s27" d="m2380.2 620.8c0 0 85.2-135.9 101.8-166 15-27.2 83.2-129.9 85.3-134.3 2.1-4.3-26.6-60-18.9-61.4 7.7-1.4 13.2 29.2 21.6 26.1 8.4-3.1 38.8-74.4 43-70.5 8 7.2-16.9 44.3-12.5 47 4.3 2.6 22.4-41.1 31.2-39.3 8.9 1.9-20.9 39.9-18.7 43.5 2.2 3.6 32.7-32 36.9-23.8 2.2 4.5-28 31.1-22.9 34 5 3 31.2-13.8 33.3-8.4 2.1 5.4-23.8 11.1-32.7 24.8-8.9 13.7-22.3 19.1-30.2 45-3.8 12.8-46 102.4-84.2 176.5-39.1 76-74.3 136.3-74.3 136.3z"/>
				<path id="&lt;Path&gt;" class="s28" d="m2361.6 652.9c3-15.2 55.4-99.6 55.4-99.6 0 0 65.3 30.6 72.2 49.9 0 0-66.1 97.8-58.6 100.2z"/>
				<path id="&lt;Path&gt;" class="s25" d="m2366.5 591.3c5.1-12.5-6.1-29.8-7.9-32.4-0.5-0.8 6.1-5.6 7.5-5.6 4.9 0 10.4 25.8 4.6 39.8-3.4 8.4-12 13.8-25.4 16l-0.8-4.5c11.8-2 19.1-6.4 22-13.3z"/>
				<path id="&lt;Path&gt;" class="s24" d="m2396.9 468.7c5.9 16.3 6.3 51.7-8.6 76.6-11.5 19.2-26.9 17.6-30.2 15.9-3.3-1.6 17.1-19.1 10.2-59.8-7.1-41.4-47.4-40-68-31.4-20.5 8.7-31.2 63-21 82.7 10.3 19.8-36.6-13.2-23.9-67.2 11.5-48.7 52.3-67.1 95-55.5 19.7 5.4 39.2 18.8 46.5 38.7z"/>
				<g id="&lt;Group&gt;">
					<path id="&lt;Path&gt;" class="s24" d="m2338.4 616.4c33.5 0 35.9-20.5 36-21.4l-12.3-1.2v-0.2c0 0.5-2.3 12.3-29.5 10.3-3.4-0.3-6.4 2.3-6.6 5.7-0.3 3.4 2.3 6.3 5.7 6.6q3.5 0.2 6.7 0.2z"/>
				</g>
				<path id="&lt;Path&gt;" class="s30" d="m2036.6 388.8c0 0 24.2-25.5 43.6 5.5 0 0 15-8.4 25.5 6.6 0 0 27.1-8.2 33.7 32.3 0 0 13.9-2.6 15.7 13.9 1.9 16.6-6.5 27.6-6.5 27.6 0 0 7.8 5.9 4.2 21.1-3 13-13.7 14.9-13.7 14.9 0 0-2.9 21.8-12.3 28.4-9.5 6.6-22.4 3.4-22.4 3.4 0 0-3.4 11.9-14.4 10.8-11.1-1-24.8-11.6-37.1-6.8-12.4 4.7-44.4-0.3-44.4-0.3 0 0-36-16-25.3-52.8 0 0-18.9-17.1-2.3-37.6 0 0-12.1-32.1 11.8-51 23.9-18.9 43.9-16 43.9-16z"/>
				<path id="&lt;Path&gt;" class="s27" d="m2040.7 561.9l-4.4 32.4c0 0-9.8 46.8 2.8 55.9 12.6 9 53.7-57.2 53.7-57.2l-4.4-82.3z"/>
				<path id="&lt;Path&gt;" class="s23" d="m2089.8 537.4c-10.4 28.1-35.2 45.3-52.8 52l3.7-27.5 47.7-51.2z"/>
				<path id="&lt;Path&gt;" class="s30" d="m2155.6 454.8c0 12.5-7.2 22.7-16 22.7-8.7 0-15.9-10.2-15.9-22.7 0-12.5 7.2-22.7 15.9-22.7 8.8 0 16 10.2 16 22.7z"/>
				<path id="&lt;Path&gt;" class="s30" d="m2107.8 406c0 7.2-8.7 13.1-19.4 13.1-10.7 0-19.3-5.9-19.3-13.1 0-7.2 8.6-13 19.3-13 10.7 0 19.4 5.8 19.4 13z"/>
				<path id="&lt;Path&gt;" class="s27" d="m2059.3 424.3c-25.6-8.8-52.9 8.2-56.8 34.5-1.7 11.5-3.3 25.9-3.5 41.7-0.7 37.9 18.9 74.9 36.1 74.9 17.3 0 64.9-24.6 66.6-78.4 1-33.3-15.6-63.5-42.4-72.7z"/>
				<path id="&lt;Path&gt;" class="s27" d="m2089 501.2c0 8.4 5.5 15.2 12.4 15.2 6.8 0 12.4-6.8 12.4-15.2 0-8.4-5.6-15.1-12.4-15.1-6.9 0-12.4 6.7-12.4 15.1z"/>
				<path id="&lt;Path&gt;" class="s30" d="m1984.7 405.4c-17.8 14.1-24.1 35.5-14 47.8 10.1 12.3 32.7 10.9 50.5-3.2 17.8-14.1 24.1-35.5 14-47.8-10.1-12.3-32.8-10.9-50.5 3.2z"/>
				<path id="&lt;Path&gt;" class="s30" d="m2031.2 416.9c0 6.2 7.4 11.1 16.5 11.1 9.1 0 16.5-4.9 16.5-11.1 0-6.1-7.4-11-16.5-11-9.1 0-16.5 4.9-16.5 11z"/>
				<path id="&lt;Path&gt;" class="s30" d="m1982 464.1c0 7.9 6.3 14.2 14.1 14.2 7.8 0 14.1-6.3 14.1-14.2 0-7.9-6.3-14.3-14.1-14.3-7.8 0-14.1 6.4-14.1 14.3z"/>
			</g>
		</g>
	</g>
</svg>