<svg version="1.2" xmlns="http://www.w3.org/2000/svg" viewBox="0 0 1000 1000" width="1000" height="1000">
	<title>163074-OVZHSC-109</title>
	<style>
		tspan { white-space:pre } 
		.s0 { fill: #2dd4bf } 
		.t1 { font-size: 5px;line-height: 7px;fill: #ffffff;font-weight: 400;font-family: "BPreplay", "BPreplay" } 
		.s2 { fill: #f0fdfa } 
		.s3 { fill: #99f6e4 } 
		.s4 { fill: none;stroke: #2dd4bf;stroke-linecap: round;stroke-linejoin: round;stroke-width: 2 } 
		.s5 { fill: #042f2e } 
		.s6 { fill: none;stroke: #14b8a6;stroke-linecap: round;stroke-linejoin: round;stroke-width: 2 } 
		.s7 { fill: #99f6e4 } 
		.s8 { fill: #0d9488 } 
		.s9 { fill: #f0fdfa } 
		.s10 { fill: none;stroke: #0d9488;stroke-miterlimit:10;stroke-width: 2 } 
		.s11 { fill: #2dd4bf } 
		.s12 { fill: #0d9488 } 
		.s13 { fill: none;stroke: #0d9488;stroke-miterlimit:10 } 
		.s14 { fill: #042f2e } 
		.s15 { fill: #f3d152 } 
		.s16 { fill: #0d9488 } 
		.s17 { fill: #0d9488 } 
		.s18 { fill: #0d9488 } 
		.s19 { fill: #dba3a7 } 
		.s20 { fill: #f1ced1 } 
		.s21 { fill: #0d9488 } 
		.s22 { fill: #2dd4bf } 
		.s23 { fill: #5eead4 } 
		.s24 { fill: #042f2e } 
		.s25 { fill: #dba3a7 } 
		.s26 { fill: #dba3a7 } 
		.s27 { fill: #262533 } 
		.s28 { fill: #042f2e } 
		.s29 { fill: #042f2e } 
		.s30 { fill: #0f766e } 
		.s31 { fill: none;stroke: #042f2e;stroke-miterlimit:10;stroke-width: .5 } 
		.s32 { fill: #0d9488 } 
		.s33 { fill: none;stroke: #f3d152;stroke-miterlimit:10;stroke-width: 2 } 
		.s34 { fill: #f5de5d;stroke: #042f2e;stroke-miterlimit:10;stroke-width: .5 } 
		.s35 { fill: #99f6e4 } 
	</style>
	<g id="Background">
		<g id="&lt;Group&gt;">
			<g id="&lt;Group&gt;">
			</g>
		</g>
	</g>
	<g id="Objects">
		<g id="&lt;Group&gt;">
			<path id="&lt;Path&gt;" class="s0" d="m516.5 725.4c0 16.5-13.5 30-30 30-16.6 0-30-13.5-30-30 0-16.6 13.4-30 30-30 16.5 0 30 13.4 30 30z"/>
			<text id="DELIBERY
SERVICE
" style="transform: matrix(2,0,0,2,459.648,715.057)" >
				<tspan x="3.2" y="3.9" class="t1">DELIBERY
</tspan>
				<tspan x="4.2" y="10.9" class="t1">SERVICE
</tspan>
			</text>
		</g>
		<g id="&lt;Group&gt;">
			<g id="&lt;Group&gt;">
				<path id="&lt;Path&gt;" class="s2" d="m69.6 79.7c124.9-21.4 251.5-32.3 378.2-31.4 40 0.3 80.6 1.8 118.9 13.7 4.9 1.6 10.8 4.7 10.4 9.8-0.2 2.6-1.9 4.7-3.8 6.4-19.4 18.3-57.9 17.6-63.8 43.6 32.3 9.2 66.5 7.7 100.1 7.7 42.4 0 84.8 2.5 126.9 7.6 22 2.6 48.1 9.4 54.4 30.6 5.3 17.7-7.7 36.6-24.3 44.5-16.6 7.9-35.8 7.5-54.2 6.9-126.2-4.3-252.4-12.5-377.4-29.5-49.6-6.8-102.6-14.4-147.7 7.2-11.6 5.6-22.3 12.9-34.2 17.8-40.8 16.8-92.7-1.5-113.9-40.2-2.8-5.1-5.2-10.8-4.9-16.7 0.6-11.1 10.2-19.5 19.6-25.5 9.4-5.9 20-11.6 24.7-21.7 4.8-10.1-1.3-25.6-12.4-24.7 0 0-7.6-4.2 3.4-6.1z"/>
				<g id="&lt;Group&gt;">
					<path id="&lt;Path&gt;" class="s2" d="m70.3 81.9c85.1-11.8 170.2-21.6 256.1-26 41.7-2.1 83.4-3 125.1-2.6 20.1 0.2 40.2 0.7 60.1 2.8 10.8 1.2 21.5 2.8 32 5q7.4 1.6 14.6 3.6c4.9 1.4 16.2 2.8 10.7 10.8-3.7 5.5-14.6 9-20.4 11.4-6.3 2.6-12.8 4.9-19 7.8-11.6 5.4-21.4 13-24.8 25.8-0.7 2.6 0.9 5.4 3.5 6.1 41.8 11.3 85.6 6.8 128.3 8q32.8 0.9 65.5 3.8c18.7 1.7 38.4 2.6 56.5 8.2 16.7 5.2 33.5 18 26.9 37.8-7.3 22.1-31.4 28.8-52.2 29.5-21.3 0.8-42.9-1-64.2-1.9q-33.5-1.5-67-3.4c-91.1-5.3-181.9-13.5-272.3-25.9-39-5.3-79.4-10.8-118.1-1.2-19 4.7-35 14.3-52.2 23.2-15.1 7.8-31.4 11.3-48.4 9.4-18.2-2.1-36.3-9.9-50.1-22-6.6-5.8-12.6-12.7-16.8-20.5-7.7-14.3-2.2-24.7 9.9-33.5 11.9-8.7 29.5-17.1 30.1-34.1 0.2-6-1.8-12.7-6.1-17-1.9-1.9-4.2-3.3-6.7-4-2.8-0.8-7 0.8-1-1 3-0.9 1.7-5.2-1.3-4.7-7.7 1.3-11.5 7.6-3.2 11.5 5.4 2.6 8.5 3 10.1 9.4 1.7 6.4-0.9 12-5.3 16.6-7.3 7.8-17.8 11.7-26.2 18-14 10.4-19.3 25-11.7 41.3 7 14.9 18.9 27.4 32.5 36.5 28.3 18.7 65.2 21.7 95.8 7.3 10.1-4.7 19.4-10.9 29.5-15.7 10.9-5.2 22.6-8.6 34.5-10.7 22.3-4 45.4-3.1 67.9-0.9 48.1 4.6 95.8 12.2 143.9 16.9 51 5.1 102.2 8.9 153.4 11.7q37.4 2.1 74.8 3.6c23.7 1 48 3.2 71.7 1.7 18.6-1.2 37.3-6.4 49.7-21.2 10.3-12.2 14.5-29.3 6.6-43.9-8.3-15.2-26.1-21.9-42.2-25.1-24.1-4.9-49.4-6.1-73.8-7.6-27.5-1.7-54.9-2.1-82.4-2-28.2 0.1-56.4-0.2-83.8-7.7q1.7 3.1 3.5 6.1c7.7-28.7 51.8-21.6 65.7-45.3 16.2-27.5-71.4-32-85.2-33-45.5-3-91.5-1.7-137.1-0.1q-68.5 2.6-136.7 10c-51 5.5-101.8 12.6-152 22.7-3 0.6-1.7 5 1.3 4.5z"/>
				</g>
			</g>
			<g id="&lt;Group&gt;">
				<path id="&lt;Path&gt;" class="s2" d="m927.9 373.9c-127.9-11.5-256.5 5-383.8 22q-72.8 9.8-145.5 19.8c-7.1 1-14.5 2.1-20.3 6.2-5.9 4.2-9.5 12.4-6.2 18.7 19.2 2.9 38.6-1.4 57.7-4.9 99.7-18.4 201.9-16.9 303.2-15.3 10.2 0.2 21.8 1.1 28 9.2-11.1 12.9-16.6 30.6-14.8 47.5 0.6 5 2.1 10.5 6.6 12.8 3.3 1.7 7.4 1.1 11.1 0.4 16.3-3.4 32.1-9.2 47.8-14.9q47.7-17.3 95.3-34.7c15.6-5.7 31.7-11.7 43.3-23.5 11.6-11.9 17.3-31.3 8.5-45.3z"/>
				<g id="&lt;Group&gt;">
					<path id="&lt;Path&gt;" class="s2" d="m927.9 367.9c-159.1-13-318.7 12.4-476 33.9-21.5 2.9-44.7 3.8-65.7 9.5-13.5 3.7-26.2 16.1-20.4 31 1.2 3 3.1 4.5 6.3 4.8 31.2 3.6 63.2-6.8 93.9-11.1 33.5-4.7 67.3-7.4 101.1-8.8 32.5-1.5 65.1-1.7 97.6-1.6 16.3 0.1 32.6 0.3 48.8 0.6 13 0.1 33.6-3.2 43.2 7.6q0-4.2 0-8.5c-8.9 11-14.6 23.4-16.3 37.5-1.2 10.4-1.4 26.3 9.3 32.3 11.3 6.2 30.9-2.7 41.7-6.2 17.2-5.7 34.2-12.2 51.2-18.4q25.7-9.4 51.4-18.7c14.6-5.4 29.9-10.1 43.6-17.8 22.6-12.6 40.4-39.7 26.3-65.1-1-1.7-3.1-3.1-5.1-2.9-10.3 0.6-20.6 1.8-30.9 2.4-6.9 0.5-7 11.3 0 10.9 10.3-0.7 20.6-0.9 30.9-1.5q-2.6-1.5-5.1-2.9c13.2 23.8-11.6 44.6-31 53.3-23.3 10.5-48.3 18.1-72.3 26.8-23.6 8.6-47.2 18.1-71.3 25.2-5.5 1.6-13.1 5-18.9 4.6-8.7-0.7-8.5-8.8-8.3-15.6 0.3-13 5.2-25.4 13.3-35.4 2.2-2.6 2.3-5.8 0-8.5-7.9-8.9-19.4-10.5-30.8-10.8-17.3-0.5-34.7-0.6-52.1-0.8-33.8-0.3-67.7-0.3-101.5 0.8-33.8 1.2-67.5 3.4-101 7.5-16 2-32 4.3-47.8 7.2-19.3 3.4-38.5 7.9-58.2 5.1q2.3 2.3 4.6 4.6c-6.5-17.9 31.8-18.2 41.6-19.6q27.5-3.7 55.1-7.4c35.9-4.9 71.8-9.6 107.8-14.5 73.5-10.1 147.3-18.9 221.5-21.2 41.2-1.3 82.4-0.2 123.5 3.7 7.7 0.7 7.7-11.4 0-12z"/>
				</g>
			</g>
		</g>
		<g id="&lt;Group&gt;">
			<g id="&lt;Group&gt;">
				<path id="&lt;Path&gt;" class="s3" d="m842.4 683.5c-25.1-30.6-37.2-69.6-48.7-107.5-7-23.1-14.1-46.9-11.6-70.9 2.7-25.6 16.1-48.6 26.7-72.1 27.4-60.9 37-129.7 27.3-195.7-4-27.1-11.2-53.9-11.4-81.2-0.1-27.4 8.1-56.6 29.4-73.8 21.2-17.3 57.3-17 72.9 5.4 10 14.3 9.7 33.2 7.9 50.6-1.8 17.3-4.9 34.5-9.1 51.4-5 20.3-11.8 41.6-5.9 61.6 6.9 23.7 29.6 39 43 59.8 18.1 28.1 18 63.8 15.2 97-1.8 22.3-4.6 44.6-12.1 65.7-16.7 46.7-56.2 86.9-55.5 136.6 0.3 25.7 10.9 54.8-5.1 74.9-5.8 7.3-13.1 11.1-21.3 13.6-11.5 3.5-24 0.4-33-7.6z"/>
			</g>
			<g id="&lt;Group&gt;">
				<path id="&lt;Path&gt;" class="s4" d="m782.8 531.7c19.7 27.7 80.3 86.1 80.3 86.1"/>
				<path id="&lt;Path&gt;" class="s4" d="m802.1 454.9c18.2 19.2 43.2 49.9 61 69.5"/>
				<path id="&lt;Path&gt;" class="s4" d="m807.9 442c16.8 17.5 38.4 40.5 55.2 58"/>
				<path id="&lt;Path&gt;" class="s4" d="m863.1 549.7c0 0 78.9-59 107.7-93.4"/>
				<path id="&lt;Path&gt;" class="s4" d="m864.3 421.9c29-32 72.2-71.1 104.7-99.6"/>
				<path id="&lt;Path&gt;" class="s4" d="m863.1 151.1q0 323.6 0 647.1"/>
				<path id="&lt;Path&gt;" class="s4" d="m839.9 315c8.7 8.6 23 22.3 23 22.3"/>
				<path id="&lt;Path&gt;" class="s4" d="m863.8 299.3q28.3-21.7 56.6-43.5"/>
				<path id="&lt;Path&gt;" class="s4" d="m863.6 316.5c20.7-17.5 42.7-33.7 65.6-48.2"/>
				<path id="&lt;Path&gt;" class="s4" d="m824 157c12.5 10.9 25.7 21.1 39.4 30.4"/>
				<path id="&lt;Path&gt;" class="s4" d="m862.9 211.3c13.9-18.2 29-35.4 45.1-51.7 12-12.1 26-27.7 27.7-30.5"/>
			</g>
		</g>
		<g id="&lt;Group&gt;">
			<g id="&lt;Group&gt;">
				<path id="&lt;Path&gt;" class="s5" d="m155.1 804.8c-15.4-0.7-31-0.6-46.4-0.5-15.5 0.1-31.1 0-46.5 1-3.5 0.2-3.5 2.8 0 3 15.4 1 31 0.9 46.5 1 15.4 0.1 31 0.2 46.4-0.5 4.7-0.2 4.7-3.8 0-4z"/>
			</g>
			<g id="&lt;Group&gt;">
				<path id="&lt;Path&gt;" class="s5" d="m150.8 818.5c-9.7 0-21.6-1-30.7 1.4-1.1 0.3-1.1 1.3 0 1.6 9.1 2.3 21 1.4 30.7 1.4 5.2 0 5.2-4.4 0-4.4z"/>
			</g>
			<g id="&lt;Group&gt;">
				<path id="&lt;Path&gt;" class="s5" d="m143.1 828.8c-37.9-0.4-75.7-0.8-113.5 0.8-2.9 0.1-2.9 2.3 0 2.5 37.8 1.5 75.6 1.1 113.5 0.7 4.6 0 4.6-3.9 0-4z"/>
			</g>
		</g>
		<path id="&lt;Path&gt;" class="s6" d="m128 761.7c-2.5-5.5-3.2-11.8-1.9-17.8 9.9-46.9 19.3-94.1 18.8-142-0.3-38.3-6.9-76.3-9.5-114.6-2.1-31.4-1.5-62.9 1.9-94.1 3.7-34.1 12.3-70.7 39.9-91.7 2.5-1.9 5.6-2.9 8.7-2.3 5.6 1 6.5 5.5 7.2 9.6 7.8 46.8 15.6 95 4.9 141.1-5.5 23.6-15.9 47-12.9 71.1 1.2 9.8 4.6 19.2 7.7 28.6 13.2 39.7 22.1 82.2 13.6 123.1-8.5 40.9-37.7 79.6-78.4 89z"/>
		<g id="&lt;Group&gt;">
			<path id="&lt;Path&gt;" class="s7" d="m892.1 898c0 12.6-175.9 22.9-392.9 22.9-217.1 0-393-10.3-393-22.9 0-12.7 175.9-22.9 393-22.9 217 0 392.9 10.2 392.9 22.9z"/>
		</g>
		<g id="&lt;Group&gt;">
			<g id="&lt;Group&gt;">
				<path id="&lt;Path&gt;" class="s8" d="m198.4 752.5v-40.5l40.8-3.9z"/>
				<path id="&lt;Path&gt;" class="s5" d="m859.9 835.5c0 37.1-30.1 67.2-67.2 67.2-37.1 0-67.2-30.1-67.2-67.2 0-37.2 30.1-67.3 67.2-67.3 37.1 0 67.2 30.1 67.2 67.3z"/>
				<path id="&lt;Path&gt;" class="s9" d="m792.7 876.7c-22.7 0-41.3-18.5-41.3-41.2 0-22.8 18.6-41.3 41.3-41.3 22.8 0 41.3 18.5 41.3 41.3 0 22.7-18.5 41.2-41.3 41.2z"/>
				<path id="&lt;Path&gt;" class="s10" d="m792.7 871.5c-19.9 0-36.1-16.2-36.1-36 0-19.9 16.2-36.1 36.1-36.1 19.9 0 36.1 16.2 36.1 36.1 0 19.8-16.2 36-36.1 36z"/>
				<path id="&lt;Path&gt;" class="s5" d="m392.3 835.5c0 37.1-30.1 67.2-67.3 67.2-37.1 0-67.2-30.1-67.2-67.2 0-37.2 30.1-67.3 67.2-67.3 37.2 0 67.3 30.1 67.3 67.3z"/>
				<path id="&lt;Path&gt;" class="s9" d="m325 876.7c-22.7 0-41.2-18.5-41.2-41.2 0-22.8 18.5-41.3 41.2-41.3 22.8 0 41.3 18.5 41.3 41.3 0 22.7-18.5 41.2-41.3 41.2z"/>
				<path id="&lt;Path&gt;" class="s10" d="m325 871.5c-19.8 0-36-16.2-36-36 0-19.9 16.2-36.1 36-36.1 19.9 0 36.1 16.2 36.1 36.1 0 19.8-16.2 36-36.1 36z"/>
				<path id="&lt;Path&gt;" class="s11" d="m601.8 822.1h-56.2c-31.9 0-53.8-32-42.4-61.8l38.7-100.4-254.5 12.3c0 0-119.8 70.3-119.8 164.3 0 0 444.6 0 518.4 0 73.9 0 86.4-124.4 54.6-187.1-31.8-62.8-50.5-103.2-50.5-103.2l-13.9 6.6c0 0 12.3 24.1 25 50.8 17.5 36.9 17.1 79.9-1.1 116.5l-13.9 28.1c-21.2 42.7-36.9 70.9-84.4 73.9z"/>
				<g id="&lt;Group&gt;">
					<path id="&lt;Path&gt;" class="s12" d="m541.9 659.9l-0.4-32-271.9-18.8v32.9c0 8.6 3.9 16.8 10.7 22.2l9.9 7.8z"/>
				</g>
				<path id="&lt;Path&gt;" class="s13" d="m397.9 836.5c0 0 63.5-7.8 63.5-59.9 0-42-24.9-75.7-104-75.7-98 0-168.1 135.6-168.1 135.6"/>
				<path id="&lt;Path&gt;" class="s0" d="m675.3 552.6l-18.2-41.1c0 0 20.4-44.1 70.3-36.9v49.8l-40.8 9.3 4.3 11.9c0.2 0.3 0 0.7-0.3 0.9l-14.4 6.4c-0.3 0.2-0.7 0-0.9-0.3z"/>
				<path id="&lt;Path&gt;" class="s14" d="m678 528.2c0 4.6-3.8 8.3-8.4 8.3-4.6 0-8.3-3.7-8.3-8.3 0-4.6 3.7-8.3 8.3-8.3 4.6 0 8.4 3.7 8.4 8.3z"/>
				<path id="&lt;Path&gt;" class="s15" d="m727.4 474.6c0 0 20.7 17.7 0 49.8z"/>
				<path id="&lt;Path&gt;" class="s11" d="m699.1 854.1c0 0 2.8-92.1 62.2-113.7 78.5-28.6 106.3 34 106.3 34 0 0-4.7 0.6-52.4 10.7-47.8 10-67.5 52.3-82.5 61.5-15 9.2-33.6 7.5-33.6 7.5z"/>
				<path id="&lt;Path&gt;" class="s0" d="m748.3 668.3l8.7-18.4 14.6 55.6-16.8-8.9z"/>
				<path id="&lt;Path&gt;" class="s15" d="m757 649.9c0 0 13.5 18.9 14.6 27.8 1.1 8.9 0 27.8 0 27.8l-14.2-53.7"/>
				<g id="&lt;Group&gt;">
					<path id="&lt;Path&gt;" class="s16" d="m400.2 773.3h-71.4c-1.8 0-3-1.8-2.3-3.5 0.4-0.9 1.3-1.6 2.3-1.6h71.4c1.8 0 3 1.9 2.3 3.5-0.4 1-1.3 1.6-2.3 1.6z"/>
					<path id="&lt;Path&gt;" class="s16" d="m394.8 786.5h-71.3c-1.8 0-3.1-1.9-2.4-3.5 0.4-1 1.3-1.6 2.4-1.6h71.3c1.8 0 3.1 1.8 2.4 3.5-0.4 0.9-1.3 1.6-2.4 1.6z"/>
					<path id="&lt;Path&gt;" class="s16" d="m389.5 799.6h-71.4c-1.8 0-3-1.8-2.3-3.5 0.4-1 1.3-1.6 2.3-1.6h71.4c1.8 0 3 1.8 2.3 3.5-0.4 1-1.3 1.6-2.3 1.6z"/>
					<path id="&lt;Path&gt;" class="s16" d="m384.1 812.7h-71.3c-1.8 0-3-1.8-2.3-3.5 0.3-0.9 1.3-1.6 2.3-1.6h71.3c1.9 0 3.1 1.9 2.4 3.5-0.4 1-1.3 1.6-2.4 1.6z"/>
				</g>
				<g id="&lt;Group&gt;">
					<path id="&lt;Path&gt;" class="s17" d="m302.1 611.3c-0.3 0 6.8 59.8 6.8 59.8l8-0.3-7.4-59.5z"/>
				</g>
				<g id="&lt;Group&gt;">
					<path id="&lt;Path&gt;" class="s17" d="m389.9 617.4c0.5 0 8.1 49.4 8.1 49.4l11.8-0.5-4.1-47.8z"/>
				</g>
				<g id="&lt;Group&gt;">
					<g id="&lt;Group&gt;">
						<path id="&lt;Path&gt;" class="s18" d="m264.5 758.6c10.3-9.8 21.4-19.2 33.5-26.7 12.3-7.6 25.1-11.6 39-15.1 1.6-0.4 1.2-2.9-0.4-2.9-29.4 0.2-55.1 22.7-73.9 42.9-1.1 1.2 0.6 2.9 1.8 1.8z"/>
					</g>
				</g>
				<g id="&lt;Group&gt;">
					<g id="&lt;Group&gt;">
						<path id="&lt;Path&gt;" class="s18" d="m202.1 761c21.7-26.3 46.5-47.9 72.1-70 1.3-1.2-0.4-3.5-2-2.5-28.3 17.9-52.2 44.3-71.3 71.5-0.5 0.7 0.7 1.7 1.2 1z"/>
					</g>
				</g>
				<g id="&lt;Group&gt;">
					<g id="&lt;Group&gt;">
						<path id="&lt;Path&gt;" class="s18" d="m719.4 664.8c-1.7 16.2-3 32.3-7.4 48.2-4 14.8-10.7 28.4-16 42.8-0.4 1.2 1.5 2.4 2.3 1.3 18.7-23.9 27.3-62.4 24-92.3-0.2-1.9-2.7-1.9-2.9 0z"/>
					</g>
				</g>
				<path id="&lt;Path&gt;" class="s13" d="m699.8 844.3c2.7-24.2 14-86.6 61.5-103.9"/>
				<g id="&lt;Group&gt;">
					<g id="&lt;Group&gt;">
						<path id="&lt;Path&gt;" class="s18" d="m760.1 748.4c8.1-2.4 16.2-4.4 24.6-5.7 8.3-1.3 16.7-1 24.9-2.7 1.3-0.2 1.3-2.3 0-2.6-15.9-3.4-35.6 2-50.4 7.6-2.1 0.8-1.3 4 0.9 3.4z"/>
					</g>
				</g>
				<g id="&lt;Group&gt;">
					<g id="&lt;Group&gt;">
						<path id="&lt;Path&gt;" class="s18" d="m681.9 491.4c5.8-3.3 12.1-5.6 18.6-7.4 5.1-1.4 10.7-1.8 15.4-4.3 1-0.5 0.4-1.8-0.5-1.9-6-0.6-12.6 1.7-18.2 3.4-6 1.8-11.6 4.4-16.9 7.6-1.6 1-0.1 3.6 1.6 2.6z"/>
					</g>
				</g>
			</g>
			<g id="&lt;Group&gt;">
				<path id="&lt;Path&gt;" class="s19" d="m548.1 311.4l-22.6-17.8-0.9 0.8c2.4 12.3 6.9 23.3 12.8 33.7z"/>
				<path id="&lt;Path&gt;" class="s20" d="m524.6 294.4l-35.4 31.6 30.5 29.8 17.7-27.7c-5.9-10.4-10.4-21.4-12.8-33.7z"/>
				<g id="&lt;Group&gt;">
					<path id="&lt;Path&gt;" class="s21" d="m478.4 542.9c-59.6-19.2-114.2 6.1-89.9 59.7 12.1 26.9 69.2 34.4 123.2 35.3 17.2-22.1 34.7-43.7 47.5-68.8-41.3-13.8-80.8-26.2-80.8-26.2z"/>
				</g>
				<path id="&lt;Path&gt;" class="s20" d="m559.2 569.1c-12.8 25.1-30.3 46.7-47.5 68.8 53.7 0.8 104.3-5 104.3-5l35.4-28.6c-6.5-5.6-50.3-21.2-92.2-35.2z"/>
				<path id="&lt;Path&gt;" class="s20" d="m651.4 604.3c0 0 10 8.4 6.1 21.5-3.8 13-62.8 180.8-62.8 180.8l-9.2-3.7c0 0-5.4-128.9 10.7-151.1 16.1-22.2 55.2-47.5 55.2-47.5z"/>
				<path id="&lt;Path&gt;" class="s9" d="m585.4 801.1l-5.2 11.6c-1.4 3.3-1.5 7-0.2 10.2l0.1 0.3c1 2.5 3.3 4.1 5.9 4.3l35.5 2.3 17.3-5.9c0.9-0.3 1.1-1.3 0.5-2l-1.3-1.5c-0.5-0.4-1.1-0.7-1.7-0.7l-14.8 1-25.3-18.3z"/>
				<g id="&lt;Group&gt;">
					<path id="&lt;Path&gt;" class="s22" d="m466.4 377.7c4.8 35.9 9.6 73.9 30.6 104.1l-2-33.8c0 0 9.8-2 19.7-6.8-5.8-27.2-31.5-44.2-48.3-63.5z"/>
				</g>
				<g id="&lt;Group&gt;">
					<path id="&lt;Path&gt;" class="s21" d="m407 502.9c-12.3 25.9-26.1 59.1-24.4 73.4l118.4-26.2-2.5-42.8c-30.1 5.3-61.6 6.1-91.5-4.4z"/>
				</g>
				<g id="&lt;Group&gt;">
					<path id="&lt;Path&gt;" class="s23" d="m519.7 355.8l-23.6-36.1c0 0-24.6 9.5-39.2 28.4-10.6 13.7-32.2 119.4-32.2 119.4 0 0-8.4 15.6-17.7 35.4 29.9 10.5 61.4 9.7 91.5 4.4l-1.5-25.5c-21-30.2-25.8-68.2-30.6-104.1 16.8 19.3 42.5 36.3 48.3 63.5 9.4-4.6 18.8-11.8 20.2-22.2 2.8-21.5-15.2-63.2-15.2-63.2z"/>
				</g>
				<g id="&lt;Group&gt;">
					<path id="&lt;Path&gt;" class="s20" d="m532.7 305c0 0 9.8 10.3 26.4 11.6 38.2 3.1 38.4-76.8 15.6-93.4-22.7-16.7-53-15.4-66 11.1-6.7 13.7-4.5 48.4 12.2 63.4z"/>
					<path id="&lt;Path&gt;" class="s20" d="m590 264.4c0 0 7.9 19 3.4 23.1-3.4 3.1-8.3 2.1-8.3 2.1"/>
				</g>
				<path id="&lt;Path&gt;" class="s24" d="m580.9 265.1c-0.2 2-1.1 3.5-2.1 3.4-0.9-0.1-1.5-1.8-1.3-3.7 0.2-2 1.2-3.5 2.1-3.4 1 0.1 1.6 1.8 1.3 3.7z"/>
				<path id="&lt;Path&gt;" class="s25" d="m579.2 283.1c0 8.1-6.5 14.6-14.6 14.6-8.1 0-14.6-6.5-14.6-14.6 0-8.1 6.5-14.6 14.6-14.6 8.1 0 14.6 6.5 14.6 14.6z"/>
				<g id="&lt;Group&gt;">
					<g id="&lt;Group&gt;">
						<path id="&lt;Path&gt;" class="s24" d="m573.5 258.1c1.4-0.6 2.7-1.1 4.2-1.4 1.1-0.3 2.2-0.4 3.1-1.1 0.2-0.2 0.1-0.7-0.1-0.8-2.4-1-5.8 1.1-7.7 2.5-0.5 0.3 0 1.1 0.5 0.8z"/>
					</g>
				</g>
				<g id="&lt;Group&gt;">
					<path id="&lt;Path&gt;" class="s26" d="m575 287.2c0.9 2.5 2 4.4 4.1 6 1.7 1.2 4.4 2.8 6.5 2.1 0.4-0.2 0.5-0.7 0.1-0.9-1.6-1.1-3.7-1.4-5.3-2.5-1.9-1.3-3.5-3.1-4.4-5.1-0.3-0.6-1.3-0.2-1 0.4z"/>
				</g>
				<path id="&lt;Path&gt;" class="s27" d="m574.7 223.2c5.7-0.7-35.6-23.3-57.7-5.6-22.1 17.7-16.5 71.6-37.6 72.1-190.3 4.7-136.1 131.5-89.1 130.4 47-1.1 54.2-39.9 60.3-57.7 0 0 1.8-29.3 54.6-40 52.7-10.7 31.2-44.8 31.2-44.8 0 0 15.9 0 14.5-25.3 0 0 13.3-27.9 23.8-29.1z"/>
				<path id="&lt;Path&gt;" class="s27" d="m574.9 222.2c0 0 4.6 4.7 6.9 9.3 0 0-16.1 8-22 15.6 0 0 4.6 25.7-8.5 30-13.1 4.2-15.7 0-15.7 0 0 0 13.4-62.8 39.3-54.9z"/>
				<g id="&lt;Group&gt;">
					<path id="&lt;Path&gt;" class="s20" d="m541.9 267.4c0 0-4.2-6.1-11.4-1.5-7.3 4.6 0.7 18 10.9 14.2z"/>
					<g id="&lt;Group&gt;">
						<path id="&lt;Path&gt;" class="s26" d="m539.9 270.7c-0.3-1.9-3.1-3-4.8-2.7-2 0.3-3.8 2.2-3.8 4.3-0.1 0.5 0.7 0.8 1 0.4 0.5-0.5 0.8-1.1 1.4-1.4 0.6-0.3 1.3-0.5 1.9-0.6 1.4-0.1 2.2 0.6 3.5 0.8 0.4 0.1 0.8-0.4 0.8-0.8z"/>
					</g>
				</g>
				<g id="&lt;Group&gt;">
					<path id="&lt;Path&gt;" class="s28" d="m559.7 320.5c-1.2 0-2.3-0.5-3-1.4-7.7-9.3-13.5-20.4-16.7-32-0.6-2 0.7-4.2 2.7-4.8 2.1-0.5 4.2 0.7 4.8 2.7 3 10.6 8.2 20.7 15.2 29.1 1.3 1.7 1.1 4.2-0.6 5.5-0.7 0.6-1.6 0.9-2.4 0.9z"/>
				</g>
				<g id="&lt;Group&gt;">
					<g id="&lt;Group&gt;">
						<path id="&lt;Path&gt;" class="s21" d="m487.4 284.3c0 0-35.7-77.5 44-88.9 12.3-1.8 40.1 1.8 51.7 29.9l-23 18.7c-2.4 2-3.9 4.8-4.1 7.9l-2 26c-0.6 8.1-7.9 14-16 13z"/>
					</g>
					<g id="&lt;Group&gt;">
						<g id="&lt;Group&gt;">
							<path id="&lt;Path&gt;" class="s29" d="m539.9 292.1q-1 0-2-0.1l-50.6-6.5c-0.6-0.1-1.1-0.7-1-1.3 0.1-0.6 0.7-1 1.3-1l50.5 6.6c3.6 0.4 7.2-0.6 10-2.9 2.8-2.3 4.5-5.5 4.8-9.1l1.9-26c0.3-3.4 2-6.5 4.6-8.6l22.9-18.8c0.5-0.4 1.2-0.3 1.6 0.2 0.4 0.5 0.4 1.2-0.1 1.6l-23 18.7c-2.1 1.7-3.5 4.3-3.7 7.1l-2 26c-0.3 4.2-2.3 8-5.6 10.7-2.8 2.2-6.1 3.4-9.6 3.4z"/>
						</g>
					</g>
				</g>
				<g id="&lt;Group&gt;">
					<path id="&lt;Path&gt;" class="s30" d="m496.8 637.1l46.3-76.6c0.2-0.3 0.6-0.4 1-0.3l28.5 11.4c0.4 0.2 0.6 0.8 0.3 1.2l-50.5 66.1c-0.2 0.2-0.4 0.3-0.6 0.3l-24.4-0.9c-0.6 0-0.9-0.7-0.6-1.2z"/>
				</g>
				<path id="&lt;Path&gt;" class="s31" d="m478.4 542.9l63.1 20.3"/>
				<g id="&lt;Group&gt;">
					<path id="&lt;Path&gt;" class="s23" d="m571.2 223c3.5 0 6.7-1.1 9.3-3-5.9-10.9-14.5-17.3-23.2-20.9-1.3 2.3-2.1 5-2.1 7.9 0 8.8 7.1 16 16 16z"/>
				</g>
				<path id="&lt;Path&gt;" class="s32" d="m585.4 801.1l-3-23.4c-0.1-0.6 0.5-1.2 1.1-1.1l21.7 2.7c0.6 0.1 1 0.8 0.7 1.4l-9.7 21.7z"/>
			</g>
			<g id="&lt;Group&gt;">
				<path id="&lt;Path&gt;" class="s33" d="m340.9 517.8c1.9-9.8 5.2-23.9 8.8-33.1 20.1-51.1 52-97.4 92.4-134.5 11.7-10.7 46.5-33.3 62.4-17.6"/>
				<path id="&lt;Path&gt;" class="s33" d="m508.8 565c11.4-23.1 11.6-104.2 11.4-150.6-0.1-10.5-0.1-21.1-2.1-31.4-2.3-12.1-6.4-40.4-13.6-50.4"/>
				<g id="&lt;Group&gt;">
					<g id="&lt;Group&gt;">
						<path id="&lt;Path&gt;" class="s15" d="m340.4 514.6c40.2 14.1 71.3 33.9 113.2 43.5 0 0 49.3 1.5 59 0.2l-22 82.3c-3.7 13.8-17.8 22-31.6 18.3l-118.9-31.7c-13.4-3.6-21.6-17.2-18.5-30.7z"/>
					</g>
					<path id="&lt;Path&gt;" class="s9" d="m353.8 569.1l-44.3 25 11.4 33.7c0 0 48.4-15.7 53.4-23.5 5-7.8-20.5-35.2-20.5-35.2z"/>
					<path id="&lt;Path&gt;" class="s9" d="m422.7 619.7l25.5 36.4 26.5-5.9-21.4-30.5z"/>
					<path id="&lt;Path&gt;" class="s9" d="m362.9 587.2l-6.5 37.2 35.6 4.6 0.3-29.3z"/>
					<path id="&lt;Path&gt;" class="s34" d="m340.4 514.6c0 0-16.5 84 2.6 94.5 19.2 10.4 112.3 35.5 127.9 30.1 15.6-5.5 41.7-80.9 41.7-80.9"/>
				</g>
			</g>
			<path id="&lt;Path&gt;" class="s31" d="m467.7 376.2c3.9 11.8 11 30.4 20.9 51.5"/>
			<g id="&lt;Group&gt;">
				<path id="&lt;Path&gt;" class="s20" d="m555.2 466.2c0 0-9.4-22.9-21.4-58.9-15 6.9-30 13-45 20.3 14.1 30 31.5 61.4 43.7 72.9 23.7 22.1 117.1 23.5 117.1 23.5l2.4-9.4z"/>
				<g id="&lt;Group&gt;">
					<path id="&lt;Path&gt;" class="s23" d="m522.3 370.8c-3.4-11.2-7.1-19.5-10.9-25.8-11-18-38-15-44.8 5-1.5 4.4-2.4 9.3-2.1 14.1 0.7 8.4 11.1 35.4 24.3 63.5 15-7.3 30-13.4 45-20.3-3.7-11-7.6-23.3-11.5-36.5z"/>
				</g>
				<path id="&lt;Path&gt;" class="s20" d="m649.6 524c0 0 2.6 5.8 7.4 5.4 2.8-0.1 7.1-3.8 10.1-6.8 2.2-2.2 5.7-2.3 8.1-0.3l4.6 4c0 0-7 5.7-5.4 10.4l10.5-8.6c1.2-0.9 1.5-2.7 0.7-4l-8.1-14.1c-0.7-1.2-2.2-1.8-3.6-1.4l-21.9 6z"/>
				<path id="&lt;Path&gt;" class="s31" d="m533.8 407.3c-3.7-11-7.6-23.3-11.5-36.5-3.4-11.2-7.1-19.5-10.9-25.8-5.9-9.7-16.5-13.3-26.1-11.4"/>
			</g>
		</g>
		<g id="&lt;Group&gt;">
			<g id="&lt;Group&gt;">
				<path id="&lt;Path&gt;" class="s35" d="m111.9 737.3c-3.4 2.9-8.3 3.2-12 0.7-24.4-17.1-41.7-43.5-52.4-71.5-11.6-30.3-16.3-62.8-20.7-95-7.9-56.6-15.2-115.4 1.2-170.2 6.3-20.7 17.1-41.8 36.3-51.8 4.8-2.4 10.3-4.2 15.5-3 8.9 2 13.8 11.3 17.2 19.7 34.3 84.3 29.4 178.7 21.6 269.4-2.7 31.1-5.6 62.3-3.4 93.4 0.3 3.2-1 6.2-3.3 8.3z"/>
			</g>
			<g id="&lt;Group&gt;">
				<path id="&lt;Path&gt;" class="s6" d="m65.2 434.8c0.7 84.9 1.6 171.1 26 252.4 3.1 10.5 6.6 20.8 11 30.8 8.1 18.8 19.5 37.1 19.9 57.5"/>
				<path id="&lt;Path&gt;" class="s6" d="m84.1 660.7l-47.7-31.9"/>
				<path id="&lt;Path&gt;" class="s6" d="m75 613.1l47.6-70.2"/>
				<path id="&lt;Path&gt;" class="s6" d="m73.4 602l48.7-71.6"/>
				<path id="&lt;Path&gt;" class="s6" d="m68.4 560.3l-48.1-42.6"/>
				<path id="&lt;Path&gt;" class="s6" d="m68.4 550.4l-48.1-47"/>
				<path id="&lt;Path&gt;" class="s6" d="m66.3 503.4l50.3-68.6"/>
				<path id="&lt;Path&gt;" class="s6" d="m65.2 460.6l-44.8-22.8"/>
				<path id="&lt;Path&gt;" class="s6" d="m91.2 687.2l25.1-24.1"/>
			</g>
		</g>
	</g>
</svg>