<svg version="1.2" xmlns="http://www.w3.org/2000/svg" viewBox="0 0 1000 1000" width="1000" height="1000">
	<title>3765584</title>
	<style>
		.s0 { fill: #b1e10f } 
		.s1 { fill: #9cc70d } 
		.s2 { fill: #46cc65 } 
		.s3 { fill: #008e83 } 
		.s4 { fill: #ffffff } 
		.s5 { fill: #008278 } 
		.s6 { fill: #00b078 } 
		.s7 { fill: #006b63 } 
		.s8 { fill: #00a89b } 
		.s9 { fill: #008c81 } 
		.s10 { fill: #8ab300 } 
	</style>
	<g id="OBJECTS">
		<g id="&lt;Group&gt;">
			<g id="&lt;Group&gt;">
				<g id="&lt;Group&gt;">
					<g id="&lt;Group&gt;">
						<path id="&lt;Path&gt;" class="s0" d="m876 591l10.8-41.4 68.9 17.9-10.8 41.4z"/>
						<path id="&lt;Path&gt;" class="s1" d="m944.9 608.9l5.4-20.5-69-17.9-5.3 20.5z"/>
						<path id="&lt;Path&gt;" class="s0" d="m706.8 608.1l42-161.2 114.6 29.9-41.9 161.2z"/>
						<path id="&lt;Path&gt;" class="s1" d="m793.9 722.9l75.9-23.8-54.6-62.9-0.2-0.1-108.1-28.1-22.5 86.4 109.2 28.5z"/>
						<path id="&lt;Path&gt;" class="s2" d="m820.9 638l42.8-164.6 54.8 60.2-43.4 166.9z"/>
						<path id="&lt;Path&gt;" class="s3" d="m815.1 636.5l54.7 62.6 5.3 1.4-54.2-62.5z"/>
						<path id="&lt;Path&gt;" class="s3" d="m793.9 722.9l75.9-23.8 5.3 1.4-83.5 26.6z"/>
						<path id="&lt;Path&gt;" class="s3" d="m815.1 636.5l42.9-164.6 5.7 1.5-42.8 164.6z"/>
						<path id="&lt;Path&gt;" class="s2" d="m939.1 612.9l13.5-51.7 13.4 3.5-13.5 51.7z"/>
					</g>
					<g id="&lt;Group&gt;">
						<path id="&lt;Path&gt;" class="s4" d="m859.4 566.1l15.5-59.6 21.9 27.5-15.1 61z"/>
						<path id="&lt;Path&gt;" class="s0" d="m875.9 510.2l19 24-14.1 56.8-19.4-25.1z"/>
						<g id="&lt;Group&gt;">
							<path id="&lt;Path&gt;" class="s3" d="m876.1 562.6l-3.7 14.7 7.5 9.7 3.7-14.9z"/>
							<path id="&lt;Path&gt;" class="s3" d="m867.8 548.8l7.3 9.4 4.7-18.5-7.3-9.3z"/>
							<path id="&lt;Path&gt;" class="s3" d="m888.8 551l-7.4-9.3-4.7 18.6 7.4 9.5z"/>
							<path id="&lt;Path&gt;" class="s3" d="m874.5 560.5l-7.3-9.5-3.8 14.7 7.4 9.6z"/>
							<path id="&lt;Path&gt;" class="s3" d="m880.4 537.4l3.6-14.3-7.2-9.1-3.7 14.1z"/>
							<path id="&lt;Path&gt;" class="s3" d="m882 539.4l7.4 9.4 3.6-14.4-7.4-9.3z"/>
						</g>
					</g>
					<g id="&lt;Group&gt;">
						<path id="&lt;Path&gt;" class="s4" d="m841.9 633.4l15.6-59.6 21.8 27.5-15.1 60.9z"/>
						<path id="&lt;Path&gt;" class="s0" d="m858.4 577.5l19 24-14.1 56.7-19.4-25z"/>
						<g id="&lt;Group&gt;">
							<path id="&lt;Path&gt;" class="s3" d="m858.6 629.8l-3.7 14.8 7.5 9.7 3.7-14.9z"/>
							<path id="&lt;Path&gt;" class="s3" d="m850.3 616.1l7.3 9.4 4.7-18.6-7.3-9.3z"/>
							<path id="&lt;Path&gt;" class="s3" d="m871.3 618.3l-7.4-9.4-4.7 18.6 7.4 9.6z"/>
							<path id="&lt;Path&gt;" class="s3" d="m857 627.8l-7.3-9.5-3.8 14.7 7.4 9.5z"/>
							<path id="&lt;Path&gt;" class="s3" d="m862.9 604.7l3.6-14.3-7.2-9.2-3.7 14.2z"/>
							<path id="&lt;Path&gt;" class="s3" d="m864.5 606.7l7.4 9.4 3.6-14.5-7.4-9.2z"/>
						</g>
					</g>
					<g id="&lt;Group&gt;">
						<path id="&lt;Path&gt;" class="s4" d="m764.4 527.9l13.6-52.3 52.3 13.6-13.6 52.3z"/>
						<path id="&lt;Path&gt;" class="s3" d="m780.5 479.9l45.5 11.8-11.9 45.5-45.4-11.8z"/>
						<path id="&lt;Path&gt;" class="s2" d="m820.5 512.8l-15.6-26.5-14-3.7 25.9 44.3z"/>
						<path id="&lt;Path&gt;" class="s2" d="m809.4 536l-30.1-51.3-3.7 14 19.7 33.6z"/>
					</g>
					<g id="&lt;Group&gt;">
						<path id="&lt;Path&gt;" class="s4" d="m745.4 600.8l13.6-52.3 52.3 13.6-13.6 52.3z"/>
						<path id="&lt;Path&gt;" class="s3" d="m761.5 552.8l45.5 11.9-11.8 45.4-45.5-11.8z"/>
						<path id="&lt;Path&gt;" class="s2" d="m801.5 585.7l-15.5-26.5-14.1-3.7 26 44.3z"/>
						<path id="&lt;Path&gt;" class="s2" d="m790.4 608.9l-30.1-51.3-3.6 14 19.7 33.6z"/>
					</g>
					<g id="&lt;Group&gt;">
						<g id="&lt;Group&gt;">
							<g id="&lt;Group&gt;">
								<path id="&lt;Path&gt;" class="s4" d="m823.7 688l2.6-9.8 9.8 2.6-2.6 9.8z"/>
								<path id="&lt;Path&gt;" class="s3" d="m826.8 679.1l8.5 2.2-2.2 8.5-8.5-2.2z"/>
								<path id="&lt;Path&gt;" class="s2" d="m834.3 685.2l-3-5-2.6-0.6 4.9 8.2z"/>
								<path id="&lt;Path&gt;" class="s2" d="m832.2 689.6l-5.7-9.7-0.6 2.7 3.6 6.3z"/>
							</g>
							<g id="&lt;Group&gt;">
								<path id="&lt;Path&gt;" class="s4" d="m820.7 699.6l2.6-9.8 9.8 2.5-2.6 9.8z"/>
								<path id="&lt;Path&gt;" class="s3" d="m823.8 690.6l8.5 2.2-2.2 8.5-8.5-2.2z"/>
								<path id="&lt;Path&gt;" class="s2" d="m831.3 696.7l-3-4.9-2.6-0.7 4.9 8.3z"/>
								<path id="&lt;Path&gt;" class="s2" d="m829.2 701.1l-5.7-9.6-0.6 2.6 3.6 6.3z"/>
							</g>
						</g>
						<g id="&lt;Group&gt;">
							<g id="&lt;Group&gt;">
								<path id="&lt;Path&gt;" class="s4" d="m812.3 685.1l2.5-9.8 9.8 2.5-2.5 9.8z"/>
								<path id="&lt;Path&gt;" class="s3" d="m815.3 676.1l8.5 2.2-2.2 8.5-8.5-2.2z"/>
								<path id="&lt;Path&gt;" class="s2" d="m822.8 682.2l-2.9-4.9-2.6-0.7 4.8 8.3z"/>
								<path id="&lt;Path&gt;" class="s2" d="m820.7 686.6l-5.6-9.6-0.7 2.6 3.7 6.3z"/>
							</g>
							<g id="&lt;Group&gt;">
								<path id="&lt;Path&gt;" class="s4" d="m809.3 696.6l2.5-9.8 9.8 2.6-2.5 9.7z"/>
								<path id="&lt;Path&gt;" class="s3" d="m812.3 687.6l8.5 2.2-2.2 8.5-8.5-2.2z"/>
								<path id="&lt;Path&gt;" class="s2" d="m819.8 693.8l-2.9-5-2.6-0.7 4.8 8.3z"/>
								<path id="&lt;Path&gt;" class="s2" d="m817.7 698.1l-5.6-9.6-0.7 2.6 3.7 6.3z"/>
							</g>
						</g>
					</g>
					<path id="&lt;Path&gt;" class="s3" d="m690 672.9l9.6-37.1 72.4 18.8-9.7 37.1z"/>
					<path id="&lt;Path&gt;" class="s5" d="m690 672.9l5-19.5 72.4 18.8-5.1 19.5z"/>
					<path id="&lt;Path&gt;" class="s4" d="m724.3 677.6c-1.7-0.4-2.6-2.1-2.2-3.7 0.4-1.6 2.1-2.6 3.7-2.2 1.6 0.5 2.6 2.1 2.1 3.7-0.4 1.6-2 2.6-3.6 2.2z"/>
				</g>
				<g id="&lt;Group&gt;">
					<path id="&lt;Path&gt;" class="s0" d="m160.8 707.3c-30.7 26.6-33.3 73.5-5 103.3 25.4 26.8 67.7 29.7 96.4 6.6 18.3-14.7 27.4-36.4 26.8-57.9-0.3-10.1 3.8-19.7 11.4-26.2l8-6.9-42.8-49.6-8 6.9c-7.6 6.6-17.8 9.2-27.8 7.5-20.3-3.5-42.1 1.7-59 16.3z"/>
					<path id="&lt;Path&gt;" class="s1" d="m298.4 726.2l-19.4-22.4-7.1 6.1c-7.5 6.6-11.7 16.2-11.4 26.2 0.7 21.5-8.4 43.2-26.7 57.9-26.5 21.3-64.5 20.5-90.2-0.7 3.1 6.2 7.1 12 12.2 17.3 25.4 26.8 67.7 29.7 96.4 6.6 18.3-14.7 27.4-36.4 26.8-57.9-0.3-10.1 3.8-19.7 11.4-26.2z"/>
					<g id="&lt;Group&gt;">
						<g id="&lt;Group&gt;">
							<path id="&lt;Path&gt;" class="s5" d="m240.1 737.8c-4.4 4.9-7.9 12.7-9.2 19-1.3 6.4-1 14.9 1 21.3-3.2-6.1-4.2-15.1-3.2-21.7 1-6.7 5.2-14.8 9.4-20.3 12.4-15.7 43.6-32 49.3-34.5-47.7 13.1-67.4 40.5-69.3 55.9-1.9 15.9 9 36.1 28.3 39-6.1-11.3-6.9-23.9-5.6-36.4 1.3-11.4 4.8-23.2 12.5-32.2-5.4 2.5-9.7 6-13.2 9.9z"/>
						</g>
						<path id="&lt;Path&gt;" class="s5" d="m204.7 755.2c4.1-0.6 8.2-1.6 12.1-3.1 1.7-4.6 4.6-10.1 9.1-15.9-6.4 2.3-13.1 3.8-19.8 4.4-7.9 0.6-16 0-23.7-2.1 8 0.4 15.8 0.1 23.4-1 7.7-1.2 15.2-3.1 22.5-6.1q1.4-0.5 2.8-1.2 3.3-3.4 7.4-6.8c-12.1-0.2-24.4-1.1-36.3-0.1-14.4 1.3-28.9 5.3-43.3 7.9 8.9 16.1 28.9 26.4 45.8 24z"/>
					</g>
					<path id="&lt;Path&gt;" class="s5" d="m307.2 667.5l7.7 9c9.7 11.2 8.4 28.1-2.8 37.8l-13.7 11.9-42.8-49.6 13.7-11.8c11.2-9.7 28.2-8.5 37.9 2.7z"/>
					<path id="&lt;Path&gt;" class="s6" d="m260.4 669.5l45 52.1c1 1.1 0.9 2.8-0.3 3.7-1.1 1-2.8 0.9-3.7-0.2l-45-52.1c-1-1.1-0.9-2.8 0.2-3.8 1.2-1 2.8-0.8 3.8 0.3z"/>
					<path id="&lt;Path&gt;" class="s6" d="m267.6 663.3l45 52.1c1 1.1 0.8 2.8-0.3 3.7-1.1 1-2.8 0.9-3.8-0.2l-45-52.1c-0.9-1.1-0.8-2.8 0.3-3.8 1.1-1 2.8-0.8 3.8 0.3z"/>
					<path id="&lt;Path&gt;" class="s6" d="m274.8 657.1l45 52.1c0.9 1.1 0.8 2.8-0.3 3.7-1.1 1-2.8 0.9-3.8-0.2l-45-52.1c-0.9-1.1-0.8-2.8 0.3-3.8 1.1-1 2.8-0.8 3.8 0.3z"/>
					<path id="&lt;Path&gt;" class="s6" d="m282 650.9l45 52c0.9 1.2 0.8 2.9-0.3 3.8-1.1 1-2.8 0.9-3.8-0.3l-45-52c-0.9-1.2-0.8-2.8 0.3-3.8 1.1-1 2.8-0.9 3.8 0.3z"/>
				</g>
				<g id="&lt;Group&gt;">
					<path id="&lt;Path&gt;" class="s3" d="m642.9 329.7l-17.5-12.5 118.6-154.8 7.1 5z"/>
					<path id="&lt;Path&gt;" class="s2" d="m685.7 169c-35.8 0.3-64.9-7.5-64.9-7.5 0 0 29-8.1 64.7-8.4 35.8-0.2 64.9 7.5 64.9 7.5 0 0-28.9 8.1-64.7 8.4z"/>
					<path id="&lt;Path&gt;" class="s2" d="m788.5 121.2c-20.6 29.2-43.8 48.4-43.8 48.4 0 0 10.3-28.3 30.9-57.6 20.6-29.2 43.8-48.4 43.8-48.4 0 0-10.2 28.3-30.9 57.6z"/>
					<path id="&lt;Path&gt;" class="s2" d="m768.7 221.2c14 33 32.7 56.6 32.7 56.6 0 0-4.1-29.8-18.1-62.8-14-32.9-32.7-56.5-32.7-56.5 0 0 4.1 29.8 18.1 62.7z"/>
					<path id="&lt;Path&gt;" class="s7" d="m757.8 169.6c-3.6 5-10.5 6.1-15.5 2.6-4.9-3.6-6.1-10.5-2.5-15.5 3.5-4.9 10.4-6.1 15.4-2.5 5 3.5 6.1 10.4 2.6 15.4z"/>
				</g>
				<g id="&lt;Group&gt;">
					<path id="&lt;Path&gt;" class="s3" d="m708.1 354.4l-8.5-10.9 101-74 3.4 4.4z"/>
					<path id="&lt;Path&gt;" class="s2" d="m763.5 263c-22.1-6.3-38.7-16.3-38.7-16.3 0 0 19.3 0.3 41.4 6.6 22.1 6.3 38.7 16.3 38.7 16.3 0 0-19.3-0.3-41.4-6.6z"/>
					<path id="&lt;Path&gt;" class="s2" d="m835.5 252.2c-18 14.3-35.8 21.9-35.8 21.9 0 0 11.4-15.6 29.4-29.9 18-14.3 35.8-21.9 35.8-21.9 0 0-11.4 15.6-29.4 29.9z"/>
					<path id="&lt;Path&gt;" class="s2" d="m805.2 310.2c2.7 22.8 9.9 40.7 9.9 40.7 0 0 2.9-19.1 0.2-41.9-2.7-22.8-9.9-40.7-9.9-40.7 0 0-2.9 19.1-0.2 41.9z"/>
					<path id="&lt;Path&gt;" class="s7" d="m807.8 276.4c-3.1 2.5-7.6 1.9-10-1.2-2.4-3.1-1.9-7.5 1.2-9.9 3.1-2.5 7.5-1.9 10 1.2 2.4 3.1 1.8 7.5-1.2 9.9z"/>
				</g>
				<g id="&lt;Group&gt;">
					<g id="&lt;Group&gt;">
						<g id="&lt;Group&gt;">
							<path id="&lt;Path&gt;" class="s8" d="m577.6 814.8c-13.3-32.8-0.5-68.9-0.5-68.9 0 0 34.3 17 47.6 49.8 13.3 32.7 0.6 68.8 0.6 68.8 0 0-34.4-17-47.7-49.7z"/>
							<path id="&lt;Path&gt;" class="s9" d="m580.7 757l-8.8 16q-0.2 2.3-0.2 4.7l10.2-18.5c4.3 9.6 9.1 20.7 14 32.4l-15.8 28.7q0.6 1.1 1.2 2.2l15.6-28.4c4.5 10.7 9 21.9 13.4 32.9l-10.5 19.1q0.8 0.8 1.5 1.5l10-18.1c4.9 12.3 9.6 24.2 13.7 34.9q0.3 0.1 0.3 0.1c0 0 0.3-1 0.9-2.8-2.9-7.4-6-15.3-9.3-23.5l12.4 9q0.2-1.2 0.4-2.3l-14.2-10.3c-4.2-10.8-8.7-21.9-13.2-32.8l28.2 18.9q-0.1-1.3-0.3-2.6l-28.5-19.2q-0.3-0.2-0.6-0.1c-4.5-10.8-8.9-21.3-13.1-30.8l34.9 23.4q-1-1.9-2-3.7l-34.4-23.2c-3-6.7-5.8-12.8-8.3-18.1-0.7-0.3-1.1-0.5-1.1-0.5 0 0-0.2 0.6-0.6 1.8q2.1 4.3 4.3 9.2 0 0-0.1 0.1z"/>
						</g>
						<g id="&lt;Group&gt;">
							<path id="&lt;Path&gt;" class="s8" d="m695.5 822.8c-33.2-12.1-51.4-45.8-51.4-45.8 0 0 35.6-14.1 68.8-2 33.3 12.1 51.5 45.8 51.5 45.8 0 0-35.6 14.1-68.9 2z"/>
							<path id="&lt;Path&gt;" class="s9" d="m654.7 781.7l6 17.3q1.6 1.7 3.3 3.4l-6.9-20c10 3.2 21.5 7.1 33.5 11.3l10.7 30.9q1.2 0.4 2.4 0.6l-10.6-30.6c10.9 3.9 22.3 8 33.4 12.1l7.2 20.6q1 0 2.1-0.1l-6.8-19.5c12.4 4.6 24.4 9.1 35.1 13.2q0.3-0.1 0.3-0.1c0 0-0.5-1-1.5-2.6-7.4-2.8-15.4-5.8-23.7-8.9l15-3.2q-0.7-0.9-1.4-1.8l-17.1 3.6c-10.9-4-22.2-8.2-33.3-12.1l32.9-8.3q-1-0.8-2.1-1.6l-33.3 8.4q-0.3 0.1-0.5 0.4c-11-4-21.8-7.7-31.6-11l40.7-10.1q-2-0.6-4.1-1.1l-40.2 10c-7-2.3-13.4-4.3-19-5.9-0.7 0.3-1.1 0.4-1.1 0.4 0 0 0.3 0.6 0.9 1.7q4.6 1.3 9.7 2.9 0 0.1 0 0.1z"/>
						</g>
						<g id="&lt;Group&gt;">
							<path id="&lt;Path&gt;" class="s0" d="m663.9 733.6c-35.4 0.4-64.3-24.7-64.3-24.7 0 0 28.4-25.7 63.7-26.1 35.4-0.4 64.3 24.7 64.3 24.7 0 0-28.3 25.7-63.7 26.1z"/>
							<path id="&lt;Path&gt;" class="s10" d="m611.2 709.6l11.7 14.1q2.1 1 4.3 1.9l-13.5-16.3c10.5-0.5 22.6-0.9 35.3-1.1l21 25.1q1.2-0.1 2.4-0.3l-20.7-24.9c11.6-0.2 23.7-0.3 35.5-0.4l14 16.8q0.9-0.5 1.9-0.9l-13.2-15.9c13.2-0.1 26.1-0.1 37.5 0q0.2-0.2 0.2-0.2c0 0-0.8-0.7-2.3-1.9-7.9 0-16.4 0-25.3 0l13-8.3q-1-0.5-2.1-1.1l-14.7 9.4c-11.6 0-23.6 0.1-35.4 0.3l27.9-19.3q-1.2-0.4-2.5-0.7l-28.3 19.5q-0.3 0.2-0.3 0.6c-11.7 0.1-23.1 0.4-33.4 0.8l34.5-23.8q-2.1 0.1-4.2 0.4l-34.1 23.6c-7.3 0.3-14.1 0.7-19.9 1.1-0.6 0.5-0.9 0.8-0.9 0.8 0 0 0.5 0.5 1.5 1.2q4.7-0.3 10.1-0.6 0 0 0 0.1z"/>
						</g>
						<g id="&lt;Group&gt;">
							<path id="&lt;Path&gt;" class="s8" d="m631.6 772.6c-3-21.4 12.5 2.2 22.2 10.7 15.2 9.7 18.5 1.5 10-10.5-7.5-8.6-5.6-14.1 5.9-12.9 13.5 2.4 55.6 19.8 40.4-9.1-11.6-12.9-25.8-7.6-37.7-13.4-11.5-7.7 9.1-22.9-15.7-26-12.8-0.4-23.5 23.1-26.9 3.6-0.6-2.8-1.5-4.4-4.1-6.1-11.7-6.1-19.2 13.1-29.6 11.2-24-4.5-44 18.1-2.3 29.6 11.9 3.3 17.3 21 25.6 29.1 4.9 4.8 13.2 0.6 12.2-6.2z"/>
							<path id="&lt;Path&gt;" class="s9" d="m580.8 733.2l8.1 15q1.2 0.4 2.4 0.8l-8.4-15.6c9 1.3 19.3 3.1 30 5l18.7 34.4q0-0.1 0-0.2-0.3-2.5-0.4-4.2l-16-29.6c9.8 1.7 20 3.7 30 5.6l22.6 41.6q0.6-1.1 0.6-2.7l-20.9-38.5c29.3 5.7 56.2 11.4 65.5 13.4q-0.2-0.9-0.5-1.9c-9-1.9-31.1-6.6-56.1-11.5l17.4-6.8q-0.7-0.3-1.4-0.6-0.3-0.2-0.7-0.5l-18.5 7.3c-9.8-2-20-3.9-29.9-5.7l46.1-20q-0.2-0.9-0.6-1.7l-47.9 20.7q-0.3 0.2-0.4 0.5c-9.9-1.9-19.5-3.5-28.3-4.9l37.9-16.4q-0.2-0.8-0.3-1.7 0 0-0.1-0.1l-40.8 17.7c-7-1.1-13.5-2-18.9-2.6q-0.3 0.8-0.3 1.7c3.3 0.4 7 0.9 11 1.4q0.1 0.1 0.1 0.1z"/>
						</g>
						<g id="&lt;Group&gt;">
							<path id="&lt;Path&gt;" class="s0" d="m623 811.5c7.8-24.6 12.3 8.7 18.3 22.9 11.4 18.3 19.2 11.1 16.2-6.2-3.6-13 1.2-18 13-10.7 13.2 9.5 49.6 49.8 48.1 11-5.7-19.9-23.8-21.5-33.6-33.9-8.4-14.2 21.5-20-3.5-36-13.5-7-37.2 12.7-30.8-10 0.8-3.3 0.6-5.5-1.3-8.7-9.4-12.6-27.3 4.3-37.5-3.2-23.5-17.1-56.6-3.2-17.7 30.7 11 9.6 7.7 31.4 12.5 44.4 2.8 7.7 13.8 7.5 16.3-0.3z"/>
							<path id="&lt;Path&gt;" class="s10" d="m588.7 743l1 20.3q1 1 2.2 2.1l-1.1-21.1c9 6 19.2 13.1 29.8 20.8l2.3 46.6q0.1-0.1 0.1-0.2 0.9-2.9 1.8-4.7l-2-40.2c9.6 7 19.7 14.3 29.4 21.6l2.8 56.3q1.3-0.8 2-2.6l-2.6-52.1c28.6 21.2 54.6 41.2 63.5 48.1q0.3-1.1 0.4-2.3c-8.7-6.7-30-23.1-54.3-41.3l22.2 1.7q-0.6-0.7-1.2-1.4-0.3-0.4-0.5-0.8l-23.6-1.8c-9.6-7.1-19.5-14.5-29.3-21.5l59.9 2.3q0.3-1.1 0.2-2.1l-62.1-2.4q-0.4 0-0.7 0.2c-9.7-7-19.2-13.8-27.9-19.8l49.2 1.9q0.2-0.9 0.5-2 0 0 0-0.1l-52.9-2c-7.1-4.9-13.5-9.1-19.1-12.6q-0.7 0.8-1.2 1.7c3.4 2.1 7.2 4.6 11.2 7.2q0 0.1 0 0.2z"/>
						</g>
					</g>
				</g>
				<g id="&lt;Group&gt;">
					<g id="&lt;Group&gt;">
						<g id="&lt;Group&gt;">
							<path id="&lt;Path&gt;" class="s0" d="m169.3 580.8c47.1 13.7 95.1-9.1 95.1-9.1 0 0-28.3-44.9-75.4-58.6-47.1-13.7-95.1 9.1-95.1 9.1 0 0 28.4 44.9 75.4 58.6z"/>
							<path id="&lt;Path&gt;" class="s10" d="m248.6 568.3l-20.8 14.5q-3.2 0.5-6.5 1l24.2-16.7c-13.9-4.7-29.9-9.7-46.8-14.8l-37.3 25.8q-1.6-0.6-3.2-1.2l37-25.6c-15.5-4.7-31.6-9.3-47.4-13.8l-24.8 17.2q-1.2-1-2.2-1.9l23.5-16.3c-17.7-5-34.9-9.8-50.2-14q-0.2-0.3-0.2-0.3c0 0 1.4-0.7 3.8-1.6 10.6 2.8 22 6 33.8 9.3l-14.2-15.8q1.5-0.4 3.1-0.8l16.2 18c15.5 4.4 31.5 9 47.2 13.6l-30.1-36.1q1.8-0.1 3.6-0.1l30.5 36.6q0.3 0.4 0.3 0.9c15.5 4.6 30.6 9.2 44.2 13.6l-37.2-44.7q2.8 1 5.5 2.1l36.8 44.2c9.7 3.2 18.5 6.2 26.1 9 0.6 0.8 0.9 1.3 0.9 1.3 0 0-0.8 0.4-2.4 1.1q-6.2-2.2-13.2-4.6-0.1 0.1-0.2 0.1z"/>
						</g>
						<g id="&lt;Group&gt;">
							<path id="&lt;Path&gt;" class="s8" d="m188.3 602.5c34.2-6.4 57.4-36.2 57.4-36.2 0 0-32.3-19.4-66.6-13.1-34.3 6.4-57.5 36.2-57.5 36.2 0 0 32.4 19.5 66.7 13.1z"/>
							<path id="&lt;Path&gt;" class="s9" d="m234.6 569.2l-8.6 15.9q-1.8 1.3-3.8 2.7l10-18.3c-10.3 1.4-22.1 3.4-34.4 5.6l-15.5 28.3q-1.2 0.1-2.4 0.2l15.3-28.1c-11.3 2-23 4.2-34.4 6.4l-10.3 18.9q-1-0.3-2-0.6l9.7-17.8c-12.8 2.4-25.3 4.9-36.3 7.1q-0.3-0.1-0.3-0.1c0 0 0.7-0.8 1.9-2.2 7.7-1.6 15.9-3.2 24.5-4.9l-14.1-5.5q0.8-0.7 1.7-1.5l16.1 6.3c11.2-2.2 22.8-4.4 34.3-6.5l-30.7-13.3q1.1-0.6 2.3-1.2l31 13.5q0.4 0.1 0.5 0.5c11.4-2.1 22.4-4 32.4-5.6l-37.9-16.5q2.1-0.2 4.2-0.3l37.5 16.3c7.1-1.1 13.7-2.1 19.4-2.7 0.7 0.3 1 0.5 1 0.5 0 0-0.4 0.6-1.2 1.5q-4.6 0.6-9.8 1.3-0.1 0.1-0.1 0.1z"/>
						</g>
						<g id="&lt;Group&gt;">
							<path id="&lt;Path&gt;" class="s0" d="m206.9 524.5c22.3 26.9 59.6 32.6 59.6 32.6 0 0 1.3-37.7-21-64.6-22.3-26.8-59.6-32.5-59.6-32.5 0 0-1.2 37.7 21 64.5z"/>
							<path id="&lt;Path&gt;" class="s10" d="m258.6 548.8l-18 0.2q-2.1-0.9-4.3-2l20.9-0.2c-6.3-8.3-13.7-17.6-21.7-27.3l-32.2 0.3q-0.7-1-1.4-2l32-0.3c-7.2-8.9-14.8-18.1-22.3-27l-21.5 0.2q-0.3-1-0.6-2l20.4-0.2c-8.4-10-16.6-19.7-24-28.2q0-0.3 0-0.3c0 0 1.1 0.1 2.9 0.5 5.1 6 10.5 12.4 16.2 19l-2.1-15q1.1 0.4 2.2 0.8l2.3 17.1c7.4 8.7 15 17.8 22.3 26.8l-3.3-33.3q1.1 0.7 2.2 1.4l3.3 33.7q0.1 0.4-0.1 0.7c7.3 8.9 14.3 17.6 20.6 25.6l-4.1-41.2q1.3 1.7 2.4 3.5l4 40.7c4.4 5.7 8.4 10.9 11.8 15.6 0 0.8 0 1.2 0 1.2 0 0-0.6-0.1-1.9-0.4q-2.7-3.7-5.9-7.9 0 0-0.1 0z"/>
						</g>
						<g id="&lt;Group&gt;">
							<path id="&lt;Path&gt;" class="s8" d="m206 554.8c17.9-11.4-9.6-8-22.2-9.9-17-5.2-12.9-12.9 1.5-14.2 11.2 0.2 14.2-4.8 5.9-12.6-10.4-8.6-50.3-29.2-18.9-36.2 17.1 0.4 22.2 14.5 34.1 19.8 13.1 3.7 11.5-21.5 29.5-4.9 8.5 9.4-2.3 32.5 14.5 22.6 2.5-1.3 4.3-1.6 7.2-0.8 12.1 4.9 2.4 22.8 10.5 29.4 18.6 15.1 14.4 44.5-20.8 20.6-10.1-6.8-26.8 0.4-38.2-0.7-6.8-0.7-8.9-9.5-3.1-13.1z"/>
							<path id="&lt;Path&gt;" class="s9" d="m268 567.9l-16.5 3.4q-1-0.6-2.1-1.3l17.1-3.6c-6.7-5.9-14.6-12.6-22.9-19.4l-37.8 7.9q0.1-0.1 0.2-0.1 2-1.4 3.3-2.4l32.6-6.9c-7.6-6.2-15.6-12.7-23.4-19l-45.7 9.6q0.4-1.2 1.7-2.1l42.2-8.9c-23-18.4-44.4-35-51.8-40.7q0.8-0.4 1.7-0.8c7.2 5.5 24.8 19.1 44.4 34.8l-5.9-17.4q0.6 0.4 1.3 0.7 0.4 0.1 0.8 0.1l6.4 18.6c7.7 6.1 15.6 12.5 23.3 18.9l-14.4-47.5q0.8-0.4 1.7-0.6l14.9 49.2q0.1 0.3 0 0.6c7.6 6.3 15 12.5 21.7 18.2l-11.9-39q0.7-0.3 1.5-0.8 0 0 0.1 0l12.8 41.9c5.3 4.6 10.1 8.9 14 12.6q-0.5 0.7-1.1 1.3c-2.4-2.3-5.2-4.7-8.1-7.4q-0.1 0-0.1 0.1z"/>
						</g>
						<g id="&lt;Group&gt;">
							<path id="&lt;Path&gt;" class="s0" d="m253.8 634.6c-11.7-22.5-10.5 10.5-14 25.3-7.9 19.7-16.7 14-16.7-3.3 1.4-13.3-4.2-17.3-14.4-8.3-11.3 11.5-39.9 56.7-44.9 18.8 2.3-20.3 19.5-24.9 27-38.5 5.7-15.2-24.3-15.8-2.7-35.6 12-9.1 38.3 6.2 28.3-14.8-1.3-3.1-1.5-5.3-0.2-8.7 7-13.8 27.3-0.4 36-9.4 19.9-20.5 54.4-12.5 22.3 26.9-9.2 11.2-2.3 31.8-4.8 45.2-1.5 8-12.2 9.6-15.9 2.4z"/>
							<path id="&lt;Path&gt;" class="s10" d="m275.7 562.3l2.4 19.9q-0.8 1.2-1.8 2.4l-2.4-20.7c-7.7 7.4-16.4 16-25.5 25.2l5.5 45.7q0-0.1-0.1-0.2-1.4-2.6-2.5-4.3l-4.7-39.3c-8.3 8.4-16.8 17.2-25 25.8l6.6 55.2q-1.3-0.6-2.3-2.2l-6.2-51c-24.2 25.3-46.1 49.1-53.7 57.3q-0.4-1-0.8-2.2c7.4-8 25.3-27.4 45.9-49.1l-21.2 5.3q0.5-0.8 0.9-1.5 0.2-0.5 0.3-0.9l22.7-5.7c8.1-8.5 16.5-17.3 24.8-25.8l-57.8 12.2q-0.4-0.9-0.5-2l59.9-12.7q0.4 0 0.7 0.1c8.2-8.4 16.3-16.6 23.8-23.9l-47.5 10.1q-0.3-0.9-0.8-1.8 0-0.1 0-0.2l51.1-10.8c6-5.8 11.6-11.1 16.4-15.4q0.8 0.7 1.4 1.5c-2.9 2.6-6.1 5.6-9.6 8.9q0 0 0 0.1z"/>
						</g>
					</g>
				</g>
				<g id="&lt;Group&gt;">
					<g id="&lt;Group&gt;">
						<path id="&lt;Compound Path&gt;" fill-rule="evenodd" class="s1" d="m290.5 194l-54 41.4-12.9-16.7c-4-5.2-3-12.7 2.2-16.7l35.2-27c5.2-4 12.7-3 16.7 2.2zm-53.2 35l46.7-35.8-10-13.2c-2.5-3.1-7.1-3.7-10.3-1.3l-35.1 27c-3.2 2.4-3.8 7-1.4 10.2z"/>
						<g id="&lt;Group&gt;">
							<path id="&lt;Path&gt;" class="s0" d="m405.4 333.6l-63.1 48.4c-5.3 4.1-12.8 3.4-17.3-1.5l-115.8-125.2c-5.1-5.6-4.4-14.4 1.6-19l87.8-67.4c6.1-4.6 14.7-3 18.8 3.4l91 144.2c3.6 5.6 2.2 13.1-3 17.1z"/>
							<g id="&lt;Group&gt;">
								<path id="&lt;Path&gt;" class="s1" d="m399.1 321.5l-6.8 5.3-82.8-125.5 9.1-6.9z"/>
								<path id="&lt;Path&gt;" class="s1" d="m384.1 333l-6.9 5.3-87.5-121.8 9.1-6.9z"/>
								<path id="&lt;Path&gt;" class="s1" d="m369.1 344.5l-6.9 5.3-92.3-118 9.1-7z"/>
								<path id="&lt;Path&gt;" class="s1" d="m354.1 356.1l-6.9 5.2-97.2-114.3 9.1-7z"/>
								<path id="&lt;Path&gt;" class="s1" d="m339.1 367.6l-6.9 5.3-102-110.7 9.1-7z"/>
							</g>
							<path id="&lt;Path&gt;" class="s1" d="m327.2 173.8l-119 91.4c-2.7 2-6.5 1.5-8.5-1.1l-6.3-8.2c-2-2.6-1.5-6.4 1.2-8.5l119-91.3c2.7-2.1 6.5-1.5 8.5 1.1l6.2 8.1c2.1 2.7 1.6 6.5-1.1 8.5z"/>
						</g>
					</g>
					<g id="&lt;Group&gt;">
						<path id="&lt;Path&gt;" class="s4" d="m319.8 299.9q0-0.1 0 0z"/>
						<path id="&lt;Path&gt;" class="s4" d="m319.7 299.9q0 0.1 0 0.1 0 0-0.1 0 0 0.1 0 0.1 0 0-0.1 0.1 0 0-0.1 0.1 0 0-0.1 0.1 0 0-0.1 0.1-0.1 0-0.1 0.1-0.1 0-0.1 0.1-0.1 0.1-0.2 0.1-0.1 0.1-0.1 0.2-0.1 0-0.2 0.1-0.1 0.1-0.2 0.2-0.1 0-0.1 0.1-0.1 0.1-0.3 0.2 0 0.1-0.1 0.1-0.1 0.1-0.2 0.2-0.1 0.1-0.2 0.2-0.1 0.1-0.3 0.2-0.1 0-0.2 0.1-0.1 0.1-0.2 0.3-0.1 0-0.2 0.1-0.2 0.1-0.4 0.3 0 0-0.1 0.1-0.5 0.4-1 0.7 0 0.1-0.1 0.1-0.2 0.2-0.4 0.3-0.1 0.1-0.2 0.1-0.1 0.2-0.3 0.3-0.1 0.1-0.2 0.1-0.2 0.1-0.3 0.2-0.2 0.1-0.3 0.2-0.1 0.1-0.3 0.2-0.1 0.1-0.2 0.1-0.2 0.1-0.3 0.2-0.1 0.1-0.2 0.2-0.2 0.1-0.3 0.1-0.2 0.1-0.3 0.2-0.1 0.1-0.3 0.1-0.1 0.1-0.2 0.1-0.1 0.1-0.3 0.2-0.1 0-0.2 0.1-0.1 0.1-0.3 0.1-0.1 0.1-0.2 0.1-0.1 0.1-0.3 0.1-0.1 0.1-0.2 0.1-0.1 0.1-0.2 0.1-0.1 0-0.2 0.1-0.2 0-0.3 0-0.1 0-0.2 0.1-0.1 0-0.2 0-0.1 0-0.2 0-0.1 0-0.2 0-0.1 0-0.2 0-0.1 0-0.2 0-0.1 0-0.1 0-0.2-0.1-0.4-0.1-0.2-0.1-0.4-0.3-0.2-0.1-0.3-0.3c-2.1-2.4-2.6-11-3.1-13.4l5.7-1.3-11.5-8.8-8.8 12.4 5.5-1 1.7 11.1c0.6 4.6 3.5 8.3 7.7 10.1 4.3 1.8 9 1.1 12.6-1.7l0.3-0.2 8.8-6.7-5.6-7.3q0 0 0 0 0 0-0.1 0z"/>
						<path id="&lt;Path&gt;" class="s4" d="m302.2 279.1q0-0.1 0-0.1 0 0 0 0 0-0.1-0.1-0.1 0-0.1 0-0.1 0-0.1 0-0.1 0-0.1 0-0.1-0.1-0.1-0.1-0.2 0 0 0-0.1 0-0.1-0.1-0.2 0-0.1 0-0.2 0 0-0.1-0.1 0-0.1 0-0.2 0-0.1-0.1-0.2 0-0.1 0-0.3 0-0.1-0.1-0.2 0-0.1 0-0.3-0.1-0.1-0.1-0.1 0-0.2 0-0.4-0.1-0.1-0.1-0.2 0-0.2-0.1-0.4 0 0 0-0.1 0-0.2-0.1-0.5 0 0 0-0.1-0.2-0.9-0.3-1.8 0-0.1 0-0.1-0.1-0.3-0.1-0.6 0-0.1 0-0.1-0.1-0.3-0.1-0.5 0-0.1 0-0.2-0.1-0.2-0.1-0.4 0-0.2 0-0.3 0-0.2 0-0.4 0-0.1-0.1-0.2 0-0.2 0-0.4 0-0.1 0-0.3 0-0.1 0-0.3 0-0.1 0-0.3 0-0.1 0-0.3 0-0.1 0-0.3 0-0.1 0-0.3 0-0.1 0-0.2 0-0.2 0-0.3 0-0.2 0-0.3 0.1-0.1 0.1-0.3 0-0.1 0-0.2 0-0.1 0.1-0.3 0-0.1 0-0.2 0-0.1 0.1-0.2 0-0.1 0-0.2 0-0.1 0.1-0.2 0-0.1 0-0.2 0.1-0.1 0.2-0.2 0-0.1 0-0.1 0.1-0.2 0.2-0.2 0-0.1 0-0.1 0.1-0.2 0.3-0.3 0.2-0.2 0.4-0.3 0.2 0 0.4 0c3.1-0.8 11 2.8 13.3 3.5l-1.5 5.6 13.2-6-6.8-13.6-1.8 5.3-10.6-3.7c-4.3-1.6-9-0.8-12.5 2.1-3.5 2.9-5.2 7.4-4.4 11.9v0.4l1.9 10.9 9-1.5q0 0 0 0z"/>
						<path id="&lt;Path&gt;" class="s4" d="m302.2 279.1q0 0 0 0z"/>
						<path id="&lt;Path&gt;" class="s4" d="m343.8 269.2l-10.6-4.4-3.5 8.5q0 0 0 0 0 0 0.2 0.1 0 0 0 0 0.2 0 0.5 0.1 0 0 0 0 0.3 0.1 0.6 0.2 0.1 0 0.1 0 0.3 0.2 0.7 0.3 0.1 0 0.1 0 0.4 0.2 0.9 0.3 0 0.1 0.1 0.1 0.4 0.1 0.9 0.3 0.1 0 0.1 0.1 0.5 0.2 1.1 0.4 0 0 0 0 0.5 0.2 1 0.5 0.1 0 0.1 0 0.5 0.2 1 0.5 0.1 0 0.2 0 0.5 0.3 0.9 0.5 0.1 0.1 0.2 0.1 0.4 0.3 0.9 0.5 0 0.1 0.1 0.1 0.4 0.3 0.8 0.5 0.1 0.1 0.1 0.1 0.4 0.3 0.7 0.6 0.1 0 0.1 0.1 0.3 0.2 0.6 0.5 0 0.1 0 0.1 0.3 0.3 0.4 0.6 0 0 0 0 0.2 0.3 0.2 0.6 0.1 0.3 0 0.6 0 0.2-0.1 0.3c-1.1 3.1-8.2 7.8-10.1 9.4l-4-4.2-1.9 14.3 15.1 1.5-3.5-4.3 8.8-7c3.6-2.8 5.5-7.2 4.9-11.7-0.6-4.6-3.5-8.4-7.7-10.2z"/>
						<path id="&lt;Path&gt;" class="s4" d="m329.7 273.3q-0.1 0 0 0z"/>
					</g>
				</g>
				<g id="&lt;Group&gt;">
					<g id="&lt;Group&gt;">
						<path id="&lt;Path&gt;" class="s3" d="m238.6 394.2l-5.4 2-11.8-33.7 3.2-1.2z"/>
						<path id="&lt;Path&gt;" class="s5" d="m224.9 362.1l-1.2 0.5 11.5 32.9 3.4-1.3z"/>
					</g>
					<g id="&lt;Group&gt;">
						<path id="&lt;Path&gt;" class="s0" d="m248.1 351.7q0.1-0.6 0.2-1.2c0.6-6.3-3.9-11.9-10-12.8-0.2-7.2-5.6-13.3-12.9-14-7.3-0.7-13.9 4.3-15.3 11.3-5.9 0.2-10.8 4.7-11.4 10.7q-0.2 1.8 0.2 3.5c-4.9 1.1-8.7 5.2-9.2 10.4-0.7 6.5 4.1 12.3 10.6 12.9q1.3 0.1 2.6 0c1.6 3.8 5.3 6.7 9.7 7.1 4.3 0.4 8.2-1.5 10.6-4.7 1.9 3.1 5.2 5.3 9.1 5.7 4.7 0.5 9-1.9 11.3-5.7q0.2 0.1 0.4 0.1c6.5 0.6 12.3-4.2 12.9-10.7 0.6-5.9-3.2-11.2-8.8-12.6z"/>
						<path id="&lt;Path&gt;" class="s1" d="m248.1 351.7q0.1-0.6 0.2-1.2c0.6-6.3-3.9-11.9-10-12.8-0.2-7.2-5.6-13.3-12.9-14-2.2-0.2-4.4 0.1-6.4 0.9 2.6 2.5 4.2 6 4.2 9.8 6.2 1 10.7 6.6 10 12.9q0 0.6-0.1 1.2c5.5 1.4 9.4 6.7 8.8 12.6-0.6 6.5-6.4 11.3-12.9 10.7q-0.2-0.1-0.5-0.1c-1.1 1.8-2.6 3.3-4.5 4.3 1.9 2.6 4.9 4.3 8.3 4.6 4.7 0.5 9-1.9 11.3-5.7q0.2 0.1 0.4 0.1c6.5 0.6 12.3-4.2 12.9-10.7 0.6-5.9-3.2-11.2-8.8-12.6z"/>
					</g>
					<g id="&lt;Group&gt;">
						<path id="&lt;Path&gt;" class="s3" d="m242.9 410.6l4.8 6.1-39 28.5-2.8-3.6z"/>
						<path id="&lt;Path&gt;" class="s5" d="m206.9 440.8l1.1 1.4 37.9-27.8-3-3.8z"/>
					</g>
					<g id="&lt;Group&gt;">
						<path id="&lt;Path&gt;" class="s3" d="m324.3 418l-10 29.6-181.1-68 5.9-17.4z"/>
						<path id="&lt;Path&gt;" class="s5" d="m143.9 363.7l-2.2 6.6 176.3 66.2 6.3-18.5z"/>
					</g>
					<g id="&lt;Group&gt;">
						<path id="&lt;Path&gt;" class="s0" d="m141.6 301q-1.5-0.7-3.1-1.2c-16.8-5.7-35 2.8-41.5 19.1-19.6-4.2-39.6 6.8-46.2 26.2-6.6 19.6 2.8 40.6 21.1 49-3.2 16.2 5.9 32.6 21.9 38 3.2 1 6.4 1.6 9.6 1.7-0.1 13.9 8.6 27 22.6 31.7 17.3 5.8 36.2-3.5 42-20.9q1.2-3.4 1.6-6.9c11.5-2.1 21.6-10.2 25.6-22.1 3.9-11.4 1.2-23.4-6-32 9.7-3.1 17.8-10.6 21.3-21 4.2-12.5 0.6-25.8-8.4-34.5q0.3-0.6 0.5-1.1c5.8-17.4-3.5-36.3-20.9-42.1-15.7-5.4-32.7 1.8-40.1 16.1z"/>
						<path id="&lt;Path&gt;" class="s1" d="m141.6 301q-1.5-0.7-3.1-1.2c-16.8-5.7-35 2.8-41.5 19.1-19.6-4.2-39.6 6.8-46.2 26.2-2 6-2.5 12.1-1.8 18 8.6-5.4 19.2-7.5 29.7-5.2 6.5-16.3 24.6-24.9 41.4-19.2q1.7 0.6 3.2 1.3c7.4-14.4 24.3-21.5 40.1-16.2 17.4 5.9 26.7 24.7 20.8 42.1q-0.2 0.6-0.4 1.2c4.3 4.1 7.4 9.4 8.9 15.1 8.1-3.6 14.7-10.5 17.8-19.6 4.2-12.5 0.6-25.8-8.4-34.5q0.3-0.6 0.5-1.1c5.8-17.4-3.5-36.3-20.9-42.1-15.7-5.4-32.7 1.8-40.1 16.1z"/>
					</g>
					<g id="&lt;Group&gt;">
						<path id="&lt;Path&gt;" class="s0" d="m184.3 415q-0.8 0.1-1.6 0.2c-8.3 1.7-13.9 9.7-12.6 18-9.3 2.9-15 12.4-13 22.1 1.9 9.7 10.9 16.2 20.6 15.4 2.5 7.5 10.3 12.1 18.3 10.5q2.3-0.5 4.4-1.6c3.3 5.9 10.1 9.2 17 7.8 8.7-1.7 14.3-10.2 12.6-18.8q-0.4-1.8-1.1-3.3c4.4-3.7 6.6-9.5 5.4-15.4-1.1-5.7-5.1-10-10.2-11.9 3.3-3.6 4.9-8.7 3.8-13.9-1.2-6.2-6-10.9-11.8-12.4q0-0.3-0.1-0.6c-1.7-8.6-10.1-14.3-18.8-12.5-7.9 1.6-13.2 8.6-12.9 16.4z"/>
						<path id="&lt;Path&gt;" class="s1" d="m184.3 415q-0.8 0.1-1.6 0.2c-8.3 1.7-13.9 9.7-12.6 18-9.3 2.9-15 12.4-13 22.1 0.6 3 1.8 5.6 3.6 7.9 2.2-4.3 6.2-7.7 11.1-9.3-1.2-8.4 4.3-16.3 12.7-18q0.8-0.2 1.6-0.2c-0.4-7.8 5-14.9 12.8-16.4 8.7-1.8 17.1 3.8 18.8 12.5q0.1 0.3 0.2 0.6c2.8 0.7 5.3 2.2 7.3 4.2 2.5-3.5 3.6-8 2.7-12.5-1.2-6.2-6-10.9-11.8-12.4q0-0.3-0.1-0.6c-1.7-8.6-10.1-14.3-18.8-12.5-7.9 1.6-13.2 8.6-12.9 16.4z"/>
					</g>
				</g>
				<g id="&lt;Group&gt;">
					<g id="&lt;Group&gt;">
						<path id="&lt;Path&gt;" class="s3" d="m782.1 413.1l1.2-3.6 22.5 7.7-0.7 2.2z"/>
						<path id="&lt;Path&gt;" class="s5" d="m804.5 419.2l0.2-0.8-21.9-7.6-0.7 2.3z"/>
					</g>
					<g id="&lt;Group&gt;">
						<path id="&lt;Path&gt;" class="s0" d="m800.4 435.6q0.2 0.3 0.5 0.6c3 2.9 7.8 2.9 10.9 0.1 3.7 2.9 9.2 2.6 12.6-1 3.4-3.5 3.5-9 0.4-12.6 2.3-3.2 2-7.6-0.9-10.4q-0.8-0.8-1.9-1.3c1.5-3 0.9-6.7-1.6-9.1-3.1-3.1-8.1-3-11.2 0.2q-0.6 0.6-1 1.3c-2.7-0.7-5.7 0-7.7 2.2-2 2-2.7 4.9-2 7.5-2.4-0.4-4.9 0.4-6.7 2.3-2.2 2.3-2.7 5.5-1.7 8.3q-0.1 0.1-0.2 0.2c-3 3.1-2.9 8.1 0.2 11.1 2.8 2.8 7.2 2.9 10.3 0.6z"/>
						<path id="&lt;Path&gt;" class="s1" d="m800.4 435.6q0.2 0.3 0.5 0.6c3 2.9 7.8 2.9 10.9 0.1 3.7 2.9 9.2 2.6 12.6-1 1-1 1.7-2.3 2.2-3.6-2.4 0.3-4.9-0.4-6.9-1.9-3.1 2.8-7.9 2.8-10.9-0.1q-0.3-0.3-0.5-0.6c-3.1 2.3-7.5 2.2-10.3-0.6-3.1-3-3.2-8-0.2-11.1q0.1-0.1 0.2-0.2c-0.5-1.4-0.6-2.8-0.4-4.2-2.1 0-4.2 0.8-5.8 2.4-2.2 2.3-2.7 5.5-1.7 8.3q-0.1 0.1-0.2 0.2c-3 3.1-2.9 8.1 0.2 11.1 2.8 2.8 7.2 2.9 10.3 0.6z"/>
					</g>
					<g id="&lt;Group&gt;">
						<path id="&lt;Path&gt;" class="s3" d="m771.7 408.6h-5.2l1.3-32.2h3z"/>
						<path id="&lt;Path&gt;" class="s5" d="m770.9 377.3h-1.2l-1.2 31.3h3.2z"/>
					</g>
					<g id="&lt;Group&gt;">
						<path id="&lt;Path&gt;" class="s3" d="m734.3 448l-11.4-17.4 110.4-66.5 6.6 10.3z"/>
						<path id="&lt;Path&gt;" class="s5" d="m837.2 376.3l-2.6-3.9-107.4 64.7 7.1 10.9z"/>
					</g>
					<g id="&lt;Group&gt;">
						<path id="&lt;Path&gt;" class="s0" d="m870.8 401q1-0.5 2-1.1c9.9-6.5 12.9-19.5 7.1-29.6 10.4-8.5 12.9-23.5 5.4-35-7.4-11.5-22.3-15.3-34.2-9.2-7.1-8.4-19.5-10.4-28.9-4.2-1.9 1.2-3.5 2.6-4.9 4.2-7.2-5.8-17.6-6.6-25.9-1.3-10.2 6.7-13.1 20.4-6.5 30.6q1.4 2 3 3.7c-3.7 6.9-3.6 15.5 0.9 22.5 4.4 6.7 11.8 10.3 19.3 10.1-2.4 6.3-1.9 13.7 2.1 19.8 4.8 7.4 13.3 11 21.5 9.9q0.2 0.3 0.4 0.7c6.6 10.2 20.3 13.2 30.6 6.5 9.3-6 12.5-17.8 8.1-27.6z"/>
						<path id="&lt;Path&gt;" class="s1" d="m870.8 401q1-0.5 2-1.1c9.9-6.5 12.9-19.5 7.1-29.6 10.4-8.5 12.9-23.5 5.4-35-2.2-3.5-5.2-6.3-8.6-8.3-0.7 6.7-4 13.1-9.5 17.6 5.8 10.1 2.7 23.2-7.2 29.6q-0.9 0.6-1.9 1.1c4.4 9.8 1.1 21.6-8.1 27.6-10.3 6.7-24 3.8-30.6-6.5q-0.3-0.3-0.5-0.7c-3.9 0.5-8-0.1-11.6-1.6-1.4 5.7-0.6 12 2.9 17.4 4.8 7.4 13.3 11 21.5 9.9q0.2 0.3 0.4 0.7c6.6 10.2 20.3 13.2 30.6 6.5 9.3-6 12.5-17.8 8.1-27.6z"/>
					</g>
					<g id="&lt;Group&gt;">
						<path id="&lt;Path&gt;" class="s0" d="m793.7 376.2q0.3-0.5 0.5-1c2.6-5 0.7-11.2-4.1-14 2.2-6-0.3-12.9-6.2-15.9-5.9-3-13-1-16.5 4.4-5-1.8-10.6 0.4-13.1 5.2q-0.7 1.4-1 2.9c-4.4-0.7-9 1.5-11.1 5.7-2.7 5.3-0.6 11.7 4.6 14.4q1.1 0.5 2.2 0.8c0.1 3.7 2.2 7.3 5.8 9.1 3.4 1.8 7.4 1.5 10.4-0.4 0.6 3.2 2.6 6.2 5.7 7.8 3.8 1.9 8.2 1.3 11.3-1.1q0.2 0.1 0.4 0.2c5.2 2.7 11.6 0.6 14.3-4.6 2.4-4.8 1-10.5-3.2-13.5z"/>
						<path id="&lt;Path&gt;" class="s1" d="m793.7 376.2q0.3-0.5 0.5-1c2.6-5 0.7-11.2-4.1-14 2.2-6-0.3-12.9-6.2-15.9-1.8-0.9-3.7-1.4-5.6-1.4 1.3 3 1.5 6.4 0.3 9.6 4.8 2.9 6.7 9 4.1 14.1q-0.3 0.5-0.5 0.9c4.2 3.1 5.6 8.8 3.2 13.5-2.7 5.3-9.1 7.3-14.3 4.7q-0.2-0.1-0.4-0.2c-1.5 1.1-3.3 1.9-5.2 2.1 0.8 2.7 2.6 5.2 5.4 6.6 3.8 1.9 8.2 1.3 11.3-1.1q0.2 0.1 0.4 0.2c5.2 2.7 11.6 0.6 14.3-4.6 2.4-4.8 1-10.5-3.2-13.5z"/>
					</g>
				</g>
				<g id="&lt;Group&gt;">
					<g id="&lt;Group&gt;">
						<g id="&lt;Group&gt;">
							<path id="&lt;Path&gt;" class="s3" d="m488.1 785.5l2.8 2.7-17.6 16.8-1.7-1.7z"/>
							<path id="&lt;Path&gt;" class="s5" d="m472.1 802.9l0.6 0.6 17.2-16.3-1.8-1.7z"/>
						</g>
						<g id="&lt;Group&gt;">
							<path id="&lt;Path&gt;" class="s0" d="m438.9 784.6q-0.7 0.2-1.4 0.4c-7.3 2.5-11.4 10.3-9.3 17.7-8 3.7-12 12.8-9.2 21.3 2.9 8.6 11.7 13.4 20.3 11.5 3.2 6.4 10.7 9.7 17.7 7.3q2.1-0.7 3.8-1.9c3.6 4.9 10.1 7.1 16.2 5.1 7.6-2.6 11.7-10.8 9.2-18.4q-0.6-1.5-1.4-2.9c3.5-3.7 4.9-9.2 3.1-14.4-1.7-5-5.8-8.5-10.6-9.5 2.6-3.7 3.4-8.5 1.9-13-1.9-5.5-6.7-9.1-12-9.8q-0.1-0.2-0.2-0.5c-2.6-7.6-10.8-11.7-18.4-9.1-6.9 2.3-10.9 9.3-9.7 16.2z"/>
							<path id="&lt;Path&gt;" class="s1" d="m438.9 784.6q-0.7 0.2-1.4 0.4c-7.3 2.5-11.4 10.3-9.3 17.7-8 3.7-12 12.8-9.2 21.3 0.9 2.6 2.3 4.9 4.2 6.7 1.5-4.1 4.7-7.7 8.9-9.6-2.1-7.4 2-15.2 9.3-17.7q0.7-0.2 1.5-0.4c-1.3-6.9 2.7-13.9 9.6-16.2 7.6-2.6 15.9 1.5 18.4 9.1q0.1 0.3 0.2 0.5c2.6 0.3 5 1.4 7.1 2.9 1.9-3.4 2.3-7.5 1-11.5-1.9-5.5-6.7-9.1-12-9.8q-0.1-0.2-0.2-0.5c-2.6-7.6-10.8-11.7-18.4-9.1-6.9 2.3-10.9 9.3-9.7 16.2z"/>
						</g>
						<g id="&lt;Group&gt;">
							<path id="&lt;Path&gt;" class="s3" d="m497.1 778.2l2.5-4.7 28.5 16.3-1.4 2.8z"/>
							<path id="&lt;Path&gt;" class="s5" d="m525.9 792.2l0.5-1.1-27.7-15.8-1.6 2.9z"/>
						</g>
						<g id="&lt;Group&gt;">
							<path id="&lt;Path&gt;" class="s3" d="m479.1 725.8l21.1-2.1 8.3 131.1-12.5 1.2z"/>
							<path id="&lt;Path&gt;" class="s5" d="m495.6 852.6l4.7-0.4-8-127.7-13.2 1.3z"/>
						</g>
						<g id="&lt;Group&gt;">
							<path id="&lt;Path&gt;" class="s0" d="m457.4 871.5q0 1.1 0.1 2.3c1.1 12 11.5 20.9 23.4 20.4 2.8 13.3 15.2 22.7 29.1 21.3 13.9-1.3 24.4-13 24.5-26.7 10.9-2.5 18.5-12.7 17.4-24.1-0.2-2.3-0.8-4.4-1.6-6.4 8.7-3.8 14.3-12.9 13.4-22.8-1.2-12.4-12.2-21.5-24.6-20.3q-2.5 0.2-4.8 1c-4.5-6.6-12.3-10.6-20.8-9.8-8.1 0.8-14.8 5.8-18.1 12.7-4.7-5.2-11.6-8.1-19-7.4-8.9 0.8-16.2 6.8-19 14.8q-0.5 0-0.9 0c-12.4 1.2-21.5 12.2-20.3 24.6 1.1 11.3 10.3 19.8 21.2 20.4z"/>
							<path id="&lt;Path&gt;" class="s1" d="m457.4 871.5q0 1.1 0.1 2.3c1.1 12 11.5 20.9 23.4 20.4 2.8 13.3 15.2 22.7 29.1 21.3 4.3-0.4 8.2-1.8 11.6-3.9-5.7-3.8-10-9.8-11.5-16.9-11.9 0.5-22.2-8.4-23.4-20.4q-0.1-1.1-0.1-2.3c-10.9-0.6-20.1-9.1-21.1-20.3-1.2-12.4 7.8-23.4 20.3-24.6q0.4-0.1 0.8-0.1c1.4-3.8 3.8-7.2 6.9-9.8-4.5-4-10.6-6.1-17.1-5.5-8.9 0.8-16.2 6.8-19 14.8q-0.5 0-0.9 0c-12.4 1.2-21.5 12.2-20.3 24.6 1.1 11.3 10.3 19.8 21.2 20.4z"/>
						</g>
						<g id="&lt;Group&gt;">
							<path id="&lt;Path&gt;" class="s0" d="m522.3 817.9q0.3 0.6 0.7 1.1c4.2 6 12.3 7.5 18.4 3.6 5.5 6.1 14.8 7.3 21.7 2.4 6.9-4.9 8.8-14.2 4.7-21.4 5-4.5 5.9-12.2 1.8-17.8q-1.2-1.7-2.7-2.9c3.4-4.6 3.6-11.1 0.1-16-4.4-6.1-12.9-7.5-19-3.2q-1.2 0.9-2.2 2c-4.3-2.1-9.6-1.8-13.8 1.2-4.1 2.8-6 7.5-5.7 12.1-4-1.3-8.5-0.8-12.2 1.8-4.4 3.2-6.3 8.5-5.5 13.5q-0.2 0.2-0.4 0.3c-6.1 4.4-7.5 12.9-3.2 19 4 5.6 11.4 7.3 17.3 4.3z"/>
							<path id="&lt;Path&gt;" class="s1" d="m522.3 817.9q0.3 0.6 0.7 1.1c4.2 6 12.3 7.5 18.4 3.6 5.5 6.1 14.8 7.3 21.7 2.4 2.1-1.5 3.7-3.4 4.9-5.5-4.2-0.3-8.2-2.2-11.1-5.4-6.1 3.8-14.2 2.3-18.4-3.6q-0.4-0.6-0.8-1.2c-5.9 3-13.2 1.3-17.2-4.2-4.4-6.2-3-14.7 3.2-19q0.2-0.2 0.4-0.3c-0.4-2.5-0.2-4.9 0.7-7.2-3.6-0.8-7.5-0.1-10.7 2.2-4.4 3.2-6.3 8.5-5.5 13.5q-0.2 0.2-0.4 0.3c-6.1 4.4-7.5 12.9-3.2 19 4 5.6 11.4 7.3 17.3 4.3z"/>
						</g>
					</g>
					<g id="&lt;Group&gt;">
						<g id="&lt;Group&gt;">
							<path id="&lt;Path&gt;" class="s3" d="m404.8 717.4l1.6 3.6-22.4 9.3-0.9-2.1z"/>
							<path id="&lt;Path&gt;" class="s5" d="m383.6 728l0.4 0.8 21.8-9.2-1-2.2z"/>
						</g>
						<g id="&lt;Group&gt;">
							<path id="&lt;Path&gt;" class="s0" d="m359.1 699.1q-0.7-0.1-1.5-0.1c-7.7-0.3-14.3 5.6-14.9 13.2-8.8 0.6-15.8 7.8-16.2 16.7-0.3 9 6.2 16.7 15 17.9 0.6 7.2 6.5 12.9 13.9 13.2q2.2 0.1 4.2-0.5c1.7 5.9 7 10.3 13.4 10.5 8 0.3 14.7-6 15-14q0.1-1.6-0.2-3.1c4.6-2.3 7.8-6.9 8-12.4 0.2-5.3-2.4-10-6.5-12.7 3.7-2.5 6.2-6.6 6.3-11.4 0.2-5.8-2.9-10.9-7.8-13.4q0.1-0.3 0.1-0.6c0.3-8-6-14.7-14-15-7.2-0.3-13.5 4.8-14.8 11.7z"/>
							<path id="&lt;Path&gt;" class="s1" d="m359.1 699.1q-0.7-0.1-1.5-0.1c-7.7-0.3-14.3 5.6-14.9 13.2-8.8 0.6-15.8 7.8-16.2 16.7-0.1 2.8 0.5 5.4 1.5 7.7 3-3.3 7.1-5.5 11.8-5.8 0.7-7.6 7.2-13.5 15-13.2q0.7 0 1.5 0.1c1.3-6.9 7.5-12 14.8-11.7 8 0.3 14.2 7 13.9 15q0 0.3 0 0.6c2.3 1.2 4.3 3 5.6 5.2 3-2.5 4.9-6.2 5-10.4 0.2-5.8-2.9-10.9-7.8-13.4q0.1-0.3 0.1-0.6c0.3-8-6-14.7-14-15-7.2-0.3-13.5 4.8-14.8 11.7z"/>
						</g>
						<g id="&lt;Group&gt;">
							<path id="&lt;Path&gt;" class="s3" d="m415.8 713.8l4-3.5 20.9 25.3-2.4 2.1z"/>
							<path id="&lt;Path&gt;" class="s5" d="m437.7 737l0.9-0.8-20.3-24.6-2.5 2.2z"/>
						</g>
						<g id="&lt;Group&gt;">
							<path id="&lt;Path&gt;" class="s3" d="m417.5 658.3l20.5 5.6-38.8 125.6-12-3.3z"/>
							<path id="&lt;Path&gt;" class="s5" d="m388 782.8l4.6 1.3 37.7-122.3-12.8-3.5z"/>
						</g>
						<g id="&lt;Group&gt;">
							<path id="&lt;Path&gt;" class="s0" d="m345.6 786.9q-0.4 1.1-0.8 2.2c-3.1 11.6 3.4 23.6 14.7 27.3-2.1 13.5 6.2 26.7 19.7 30.3 13.5 3.7 27.4-3.5 32.3-16.2 11.1 1.5 21.8-5.4 24.9-16.5 0.6-2.1 0.8-4.3 0.8-6.5 9.4-0.5 17.9-6.9 20.5-16.6 3.3-12-3.8-24.4-15.8-27.7q-2.4-0.6-4.8-0.8c-1.8-7.7-7.8-14.2-16-16.4-7.9-2.2-15.9 0.1-21.4 5.3-2.5-6.4-8-11.6-15.1-13.6-8.7-2.3-17.6 0.7-23.1 7.1q-0.4-0.1-0.8-0.3c-12-3.2-24.4 3.8-27.7 15.9-3 10.9 2.6 22.1 12.6 26.5z"/>
							<path id="&lt;Path&gt;" class="s1" d="m345.6 786.9q-0.4 1.1-0.8 2.2c-3.1 11.6 3.4 23.6 14.7 27.3-2.1 13.5 6.2 26.7 19.7 30.3 4.1 1.2 8.2 1.3 12.2 0.5-4-5.6-5.9-12.7-4.7-19.9-11.3-3.7-17.9-15.7-14.7-27.3q0.3-1.1 0.7-2.2c-10-4.5-15.5-15.7-12.6-26.5 3.3-12.1 15.7-19.2 27.7-15.9q0.5 0.1 0.9 0.3c2.6-3.1 6.1-5.4 9.9-6.7-2.8-5.3-7.8-9.6-14-11.3-8.7-2.3-17.6 0.7-23.1 7.1q-0.4-0.1-0.8-0.3c-12-3.2-24.4 3.8-27.7 15.9-3 10.9 2.6 22.1 12.6 26.5z"/>
						</g>
						<g id="&lt;Group&gt;">
							<path id="&lt;Path&gt;" class="s0" d="m452.5 766.5q-0.5 1-0.8 2.2c-3.1 11.6 3.4 23.6 14.7 27.3-2.1 13.5 6.2 26.6 19.7 30.3 13.5 3.7 27.4-3.5 32.3-16.3 11.1 1.6 21.8-5.3 24.9-16.4 0.6-2.2 0.8-4.4 0.7-6.5 9.5-0.5 18-7 20.6-16.6 3.3-12-3.8-24.4-15.8-27.7q-2.4-0.7-4.8-0.8c-1.9-7.7-7.8-14.2-16-16.5-7.9-2.1-15.9 0.2-21.4 5.4-2.5-6.4-8-11.7-15.1-13.6-8.7-2.4-17.6 0.7-23.1 7q-0.4-0.1-0.8-0.2c-12-3.3-24.4 3.8-27.7 15.8-3 10.9 2.5 22.1 12.6 26.6z"/>
							<path id="&lt;Path&gt;" class="s1" d="m452.5 766.5q-0.5 1-0.8 2.2c-3.1 11.6 3.4 23.6 14.7 27.3-2.1 13.5 6.2 26.6 19.7 30.3 4.1 1.1 8.2 1.2 12.2 0.5-4-5.6-5.9-12.7-4.7-19.9-11.4-3.8-17.9-15.7-14.7-27.4q0.3-1.1 0.7-2.1c-10-4.5-15.5-15.7-12.6-26.6 3.3-12 15.7-19.1 27.7-15.8q0.5 0.1 0.9 0.2c2.6-3.1 6.1-5.4 9.9-6.6-2.8-5.4-7.8-9.6-14-11.3-8.7-2.4-17.6 0.7-23.1 7q-0.4-0.1-0.8-0.2c-12-3.3-24.4 3.8-27.7 15.8-3 10.9 2.5 22.1 12.6 26.6z"/>
						</g>
						<g id="&lt;Group&gt;">
							<path id="&lt;Path&gt;" class="s0" d="m425.2 759.8q0.1 0.6 0.3 1.3c1.9 7.1 8.9 11.4 16 9.9 2.9 7.7 11.2 12.1 19.4 9.9 8.2-2.1 13.2-10.1 12-18.3 6.2-2.5 9.8-9.4 8-16.1q-0.5-1.9-1.5-3.6c4.8-3.1 7.3-9.1 5.7-14.9-1.9-7.3-9.3-11.6-16.6-9.7q-1.5 0.4-2.8 1c-3.3-3.5-8.3-5.1-13.3-3.8-4.8 1.3-8.3 4.9-9.6 9.3-3.3-2.6-7.7-3.7-12-2.5-5.3 1.3-9 5.6-9.9 10.6q-0.3 0.1-0.5 0.1c-7.3 2-11.7 9.4-9.8 16.7 1.8 6.6 8.1 10.8 14.6 10.1z"/>
							<path id="&lt;Path&gt;" class="s1" d="m425.2 759.8q0.1 0.6 0.3 1.3c1.9 7.1 8.9 11.4 16 9.9 2.9 7.7 11.2 12.1 19.4 9.9 2.5-0.6 4.7-1.8 6.5-3.4-3.8-1.8-6.9-4.9-8.5-9-7 1.5-14-2.8-15.9-9.9q-0.2-0.7-0.3-1.3c-6.6 0.7-12.8-3.5-14.6-10.1-1.9-7.3 2.5-14.8 9.7-16.7q0.3 0 0.5-0.1c0.5-2.4 1.6-4.6 3.2-6.5-3.1-1.9-6.9-2.6-10.7-1.6-5.3 1.3-9 5.6-9.9 10.6q-0.3 0.1-0.5 0.1c-7.3 2-11.7 9.4-9.8 16.7 1.8 6.6 8.1 10.8 14.6 10.1z"/>
						</g>
					</g>
				</g>
				<g id="&lt;Group&gt;">
					<path id="&lt;Path&gt;" class="s5" d="m765.9 516.9c0 143.5-116.3 259.8-259.8 259.8-143.5 0-259.8-116.3-259.8-259.8 0-143.5 116.3-259.8 259.8-259.8 143.5 0 259.8 116.3 259.8 259.8z"/>
					<path id="&lt;Path&gt;" class="s3" d="m729.9 519c0 123.6-121.2 114.4-224.5 182.2-114.3 75-223.1-58.6-223.1-182.2 0-123.6 126.7-339.2 255.2-178.5 77.2 96.6 192.4 54.9 192.4 178.5z"/>
					<g id="&lt;Group&gt;">
						<path id="&lt;Path&gt;" class="s2" d="m732.5 573.6c0.4-5.6-7.2-18.6-7.6-2.5 1.2 11.2 15.6 6.1 15.9 19.2-2.1 2.9-5.8 10.1 1.7 4.7 2.2 8.6 7.3-1.4 12.3-2.7q0 0 0 0 0.9-3.2 1.8-6.4 0 0 0 0 0.9-3.2 1.7-6.4c-5.4-8.5-16.1-13.2-25.8-5.9z"/>
						<path id="&lt;Path&gt;" class="s2" d="m722.2 394.2q-4-7.7-7.9-15.3c-0.5 11.4-5.5 21.7-14.8 28.9-4 7.3 30.8 4 22.7-13.6z"/>
						<path id="&lt;Path&gt;" class="s2" d="m705.8 371.6c0.5 1.9 3.1 4.2 4.5 4.8-4.1-6 22.8 1.1-6.6-14.4-0.6 2.6 3.2 0.7 2.1 9.6z"/>
						<path id="&lt;Path&gt;" class="s2" d="m713.7 613.2c0 1.1 2.3 0.9 2.5-0.8 0-1.4-2.2-0.6-2.5 0.8z"/>
						<path id="&lt;Path&gt;" class="s2" d="m700.7 357.5c2.2-1.7-2.3-4.7-4.2-6-0.1 2.1 2.3 4.9 4.2 6z"/>
						<path id="&lt;Path&gt;" class="s2" d="m695.5 610.6c2.7-1.3 5.6-4 11.5-9.1-1.7-1-11.3 3.6-11.5 9.1z"/>
						<path id="&lt;Path&gt;" class="s2" d="m691.7 563.4c3.1-0.8 9.4 1.5 11.6-3.3-0.9-2-17.6 1.2-11.6 3.3z"/>
						<path id="&lt;Path&gt;" class="s2" d="m697.4 589.9c2-8.6 0-16.4-6.9-21.5-5.6 6.2-5.6 13.6-4 22.8 8.4-16.4 1.1-10.1 10.9-1.3z"/>
						<path id="&lt;Path&gt;" class="s2" d="m685.3 604.4c0.1 1.5 3.6 2 4.6 0.2 0-1.9-3.7-2.1-4.6-0.2z"/>
						<path id="&lt;Path&gt;" class="s2" d="m681.8 609c1.7-0.2 2.7-0.4 0 0z"/>
						<path id="&lt;Path&gt;" class="s2" d="m681.8 609c-1.8 0.5 6.1 4.7 0 0z"/>
						<path id="&lt;Path&gt;" class="s2" d="m675.8 604.6c-11.1 2.2 9.8 3.4 0 0z"/>
						<path id="&lt;Path&gt;" class="s2" d="m675.8 604.6c2.5-0.7 3.9-1.3 0 0z"/>
						<path id="&lt;Path&gt;" class="s2" d="m744.1 608.3c-3.9 24.8-28.1 25.5-13.5 4.9-0.9 0.4-10.3-4.5-11.4 0.5-24.8 17.1-49.2 34.6-73.5 52.4 2.6-1.6-23.9 39.7-8.9 34.4 19.3-5.9 38.3-16.1 59.1-10.9-1.8 3.2-2.6 5.6-2.6 7.4q0 0 0 0 2.1-2.2 4.2-4.4 0-0.1 0-0.1 2.1-2.2 4.1-4.5 0-0.1 0.1-0.1 2-2.3 3.9-4.6 0.1-0.1 0.1-0.1 2-2.4 3.9-4.8 0 0 0 0 1.9-2.4 3.8-4.9 0 0 0 0 1.9-2.5 3.7-5 0 0 0 0 1.8-2.5 3.5-5.1 0.1 0 0.1 0 1.7-2.6 3.4-5.2 0 0 0 0 1.7-2.6 3.4-5.3 0 0 0 0c7.6-12.3 14.2-25.4 19.7-39.1q0 0 0 0c-0.6-3.3-1.5-5.5-3.1-5.5z"/>
						<path id="&lt;Path&gt;" class="s2" d="m662.6 606.2c17.2 2.1-11.7-14.3-26.9-6.8 9.1 8.1 7.8 4.6 26.9 6.8z"/>
						<path id="&lt;Path&gt;" class="s2" d="m682.8 536.5c-5.5-14.7-6 13.9-29.1 21.7-12.5 16.6 36.1 48.8 29.1-21.7z"/>
						<path id="&lt;Path&gt;" class="s2" d="m646.4 577c-5.2 0.3-5.8 10.4-0.7 10.2 5.2-0.3 5.9-10.4 0.7-10.2z"/>
						<path id="&lt;Path&gt;" class="s2" d="m638.3 585.5c1.8-17.9-24.8-37.3-39.8-43.4 4.6 7.5 34.1 70 39.8 43.4z"/>
						<path id="&lt;Path&gt;" class="s2" d="m597.9 541.8q0.3 0.1 0.6 0.3c-0.3-0.4-0.5-0.5-0.6-0.3z"/>
						<path id="&lt;Path&gt;" class="s2" d="m533.8 520.5c-2.4 2.9-3.4 27.4 6.8 16 1.1-3.7-2.5-12.6-6.8-16z"/>
						<path id="&lt;Path&gt;" class="s2" d="m407.7 626.7c-0.2 11.6-19.3 9.9-15.7 24.2-1.8 14.5 15.2 39.2 16 12.2-1.2-6.7 11.8-24.7-0.3-36.4z"/>
						<path id="&lt;Path&gt;" class="s2" d="m605.6 493.1c4.4 14.5 6.7 68.1 27.1 64.7-2.4-7.7-34.1-65.3-6.5-49.4 7.2 23.7 33 2.9 21-18.8-6.7-8.6-20.5-20.5-4.1-30.1 8.1-2.7-0.2 30.8 9.7 10-3.4-11.4 11.2-11.7 18.5-19.2 16.9-17.1 6.9-38.7-8.4-54.5-0.1-2.2 2.1-4.8 4.8-8-1.9 0.1-25.9-8.5-12.9-12.5 13.4-4 26.2 14.1 30.6 23.6 2 4.6 6 2.7 8.4-1.4-27.1-30.4 6.5-23.5-7.3-52.7-17.9-22.2 20.7 17.4 4.4-3.6-9.3-12.6-31.5-8.7-36.5-24-0.5-6.2 5-6.1 12-4.7-44.2-34.7-99.8-55.4-160.3-55.4-48.2 0-93.3 13.2-132 36q0 0 0 0-2.6 1.6-5.2 3.2 0 0 0 0c-32.3 20.1-59.9 47.2-80.7 79.1q0 0 0 0c3.5 1.7 6.9 6.3 10.2 15 12.8-7.9-12-20.5-1.3-23.5 10.1-2.2 8.8 31.8 18.8 24.6 7.7-25 3.7-10 15.6 2.2 4.6 4 29.7-14.3 18.3 11.7-5.2 18.8-30.7 7.2-44.4 6.8-3.4 15.9-26.8 6.5-23.3-9.8 2.9-7.1-2.1-4.9-8.8-0.9q0 0 0 0c-5.4 10.8-10 22.1-13.9 33.7q0 0.1-0.1 0.3-1 3.2-2 6.4-0.2 0.5-0.3 1-0.9 2.9-1.7 5.9-0.1 0.6-0.3 1.2-0.8 3-1.5 6-0.1 0.5-0.3 1-2.4 10.5-4.1 21.3-0.1 0.9-0.2 1.8-0.4 2.6-0.7 5.3-0.2 1.2-0.3 2.4-0.3 2.3-0.5 4.7-0.1 1.3-0.2 2.6-0.2 2.3-0.3 4.7-0.1 1.3-0.2 2.6-0.1 2.5-0.2 5-0.1 1.1-0.1 2.2-0.1 3.7-0.1 7.3 0 4 0.1 8 0 0.4 0 0.7 0.2 3.8 0.4 7.7c9.5 3 24.7-2 30.3 13.5-3.1 15.1 1.5 30.7 8.4 43.8 7.4 14.1 3.1 30 8.1 45 12.8 18 27.6 75.6 60.5 53.5 11.4-15.9 15.1-41.6 23.1-59.4-17.5-45.7 10.5-67.7 32-107.7 6.3-21.2-2.9-6.2-8.9-8.2-22.3-7.4-28.4-15-40.6-38.7-6.1-13.7-12-29.6-12.6-44.6 4.4 3.5 8.2 9.4 10.1 15 9.2 10.2 16.3 73.4 39.6 53 17.6-10.3 60.7-31.2 35.2-51.1-10.2-8-43.4-9.3-31.4-30.7 8.3 15.7 25 16 40 20 23.8 6.2 38.5 12.6 56.9 29.5 2.6 13 12.2 60.6 27.8 58.8 4.9-13.5 31-96.8 55.7-60.2 7.4 3.2 6.5 16.7 13 23.8 3.5-0.3 9.4-11.9 11.6 4.5z"/>
						<path id="&lt;Path&gt;" class="s2" d="m346.5 397.3c-0.4-1.6-4-0.6-4.4 1.3 0.4 2.2 3.9 0.6 4.4-1.3z"/>
						<path id="&lt;Path&gt;" class="s2" d="m295.4 392.4c-2.1 0.4-5.2-0.2-7.1 1.9 0.8-0.9 2.2 9.5 7.1-1.9z"/>
						<path id="&lt;Path&gt;" class="s2" d="m283.7 384.6c-0.2-0.4-0.4-0.7-0.9-0.6q-1.5 2.5-3 5.1c0.2 2.9 2 4.4 3.9-4.5z"/>
					</g>
				</g>
				<g id="&lt;Group&gt;">
					<g id="&lt;Group&gt;">
						<path id="&lt;Path&gt;" class="s0" d="m422.6 266l-1.9-0.4 14.4-86.7 1.9 0.3z"/>
						<path id="&lt;Path&gt;" class="s0" d="m453.6 258.7l-51.2-71.5 1.6-1.1 51.2 71.5z"/>
						<path id="&lt;Path&gt;" class="s0" d="m472.1 230.5l-86.8-14.3 0.3-1.9 86.8 14.3z"/>
						<path id="&lt;Path&gt;" class="s0" d="m393.7 248.8l-1.2-1.6 71.5-51.2 1.2 1.6z"/>
						<path id="&lt;Compound Path&gt;" fill-rule="evenodd" class="s2" d="m420.8 271.2c-26.4-4.3-44.3-29.3-39.9-55.7 4.3-26.3 29.3-44.2 55.7-39.9 26.3 4.4 44.2 29.4 39.9 55.7-4.4 26.4-29.4 44.3-55.7 39.9zm14.7-88.8c-22.7-3.7-44.1 11.6-47.9 34.3-3.7 22.6 11.6 44 34.3 47.8 22.6 3.7 44.1-11.6 47.8-34.3 3.8-22.6-11.6-44.1-34.2-47.8z"/>
						<path id="&lt;Path&gt;" class="s0" d="m584.4 266l-2-0.4 14.4-86.7 1.9 0.3z"/>
						<path id="&lt;Path&gt;" class="s0" d="m615.4 258.7l-51.2-71.5 1.6-1.1 51.2 71.5z"/>
						<path id="&lt;Path&gt;" class="s0" d="m633.8 230.5l-86.8-14.3 0.3-1.9 86.8 14.3z"/>
						<path id="&lt;Path&gt;" class="s0" d="m555.4 248.8l-1.2-1.6 71.6-51.2 1.1 1.6z"/>
						<path id="&lt;Compound Path&gt;" fill-rule="evenodd" class="s2" d="m582.5 271.2c-26.4-4.3-44.3-29.3-39.9-55.7 4.4-26.3 29.3-44.2 55.7-39.9 26.4 4.4 44.3 29.4 39.9 55.7-4.4 26.4-29.3 44.3-55.7 39.9zm14.7-88.8c-22.6-3.7-44.1 11.6-47.8 34.3-3.8 22.6 11.6 44 34.2 47.8 22.6 3.7 44.1-11.6 47.8-34.3 3.8-22.6-11.6-44.1-34.2-47.8z"/>
						<path id="&lt;Compound Path&gt;" fill-rule="evenodd" class="s3" d="m491.5 228.7q0 0 0 0 0 0 0 0 0 0 0 0-0.1 0-0.1 0l-63.6-1.9c-1.2 0-2.3-0.7-2.9-1.7-0.6-1.1-0.6-2.3 0.1-3.4l44.5-74.3c0.4-0.6 0.9-1 1.5-1.3l-4.4-20.1c-0.3-1.8 0.8-3.6 2.6-4 1.9-0.4 3.6 0.7 4 2.6l4.6 21.2h96.9c1.4 0 2.6 0.8 3.1 2.1 0.5 1.3 0.2 2.8-0.8 3.7l-83.2 76.2q0 0.1 0 0.1c-0.7 0.6-1.5 0.8-2.3 0.8zm-57.8-8.4l53.6 1.6-14.4-67zm45.6-67.7l14.3 66.3 72.4-66.3z"/>
						<path id="&lt;Path&gt;" class="s3" d="m590.8 228.1c-1.6 0-3-1.1-3.3-2.6l-21-97.7c-0.2-1 0-2 0.7-2.8 0.6-0.8 1.6-1.3 2.6-1.3h32.2c4.7 0 9.1 2.3 11.8 6.1 4.6 6.4 6 12.5 4.2 17.6-1.8 5.2-6.8 8.9-14.8 11.1-1.8 0.5-3.7-0.5-4.2-2.3-0.5-1.8 0.6-3.7 2.4-4.2 3.9-1.1 8.9-3.2 10.3-6.9 1.3-3.8-1.6-8.8-3.4-11.4-1.4-2-3.8-3.2-6.3-3.2h-28l20.1 93.5c0.4 1.9-0.8 3.6-2.6 4q-0.4 0.1-0.7 0.1z"/>
						<path id="&lt;Path&gt;" class="s7" d="m458.6 111.8c0 0 45.9 2.8 45 9.2-0.9 6.4-44.6 5.4-44.6 5.4 0 0-6.8-10.1-0.4-14.6z"/>
						<path id="&lt;Path&gt;" class="s7" d="m433.8 224.3c-0.5 2.8-3.2 4.7-6 4.3-2.8-0.5-4.7-3.2-4.2-6 0.4-2.8 3.1-4.7 5.9-4.3 2.8 0.5 4.8 3.2 4.3 6z"/>
						<path id="&lt;Path&gt;" class="s7" d="m595.5 224.3c-0.5 2.8-3.1 4.7-5.9 4.3-2.9-0.5-4.8-3.2-4.3-6 0.4-2.8 3.1-4.7 5.9-4.3 2.9 0.5 4.8 3.2 4.3 6z"/>
					</g>
					<path id="&lt;Path&gt;" class="s7" d="m507.5 223.6c0 7.1-5.8 12.9-12.9 12.9-7.2 0-12.9-5.8-12.9-12.9 0-7.1 5.7-12.9 12.9-12.9 7.1 0 12.9 5.8 12.9 12.9z"/>
				</g>
			</g>
		</g>
	</g>
</svg>