<svg version="1.2" xmlns="http://www.w3.org/2000/svg" viewBox="0 0 1000 799" width="1000" height="799">
	<title>4093899</title>
	<style>
		.s0 { fill: #e2e0e1 } 
		.s1 { fill: #ccfbf1 } 
		.s2 { fill: #9fcc3e } 
		.s3 { fill: #80a814 } 
		.s4 { fill: #2dd4bf } 
		.s5 { fill: #0f1f2d } 
		.s6 { fill: #ffbbd5 } 
		.s7 { fill: #ff5f94 } 
		.s8 { fill: #ffffff } 
		.s9 { fill: #1d1d1b } 
		.s10 { fill: #213549 } 
		.s11 { fill: #203449 } 
		.s12 { fill: #fcc768 } 
		.s13 { fill: #c1cbd3 } 
	</style>
	<g id="OBJECTS">
		<g id="&lt;Group&gt;">
			<path id="&lt;Path&gt;" class="s0" d="m460.8 752.1c0 4.8-71.1 8.7-158.9 8.7-87.8 0-159-3.9-159-8.7 0-4.9 71.2-8.8 159-8.8 87.8 0 158.9 3.9 158.9 8.8z"/>
			<path id="&lt;Path&gt;" class="s0" d="m535.9 754.8c0 5.4 21.3 9.9 121.7 9.9 56.4 0 106.7-1.4 140.1-3.6q0 0 0 0 5.7 0.8 11.3 1.9c11.5 2.3 22.9 5.4 34.6 5.4 11.8 0.1 24.2-3.6 31.7-12.6 3.3-4 5.7-9.1 10.3-11.8 5.9-3.3 13.2-1.4 19.8 0.4 11.5 3 24.2 5.3 35 0.3 10.6-4.8 17.6-16.6 16.7-28.3-0.7-9.5-6.2-18.6-5.2-28.1 1.4-14.6 17.1-24.2 20.5-38.5 3.4-14.3-7.1-29-20.4-35.2-12.1-5.7-27-5.8-38.5 1.1-8.6 5.2-14.6 13.9-19 23-5.4 11.2-9.3 24.2-19.9 30.8-11.8 7.5-27.3 3.7-41.1 5.9-11.2 1.8-21.7 7.9-28.9 16.7-5.7 7-9.3 15.5-14.2 23.1-9.5 14.7-24.4 25.7-41.1 31-26.9-0.8-58.3-1.3-91.7-1.3-100.4 0-121.7 4.4-121.7 9.9z"/>
			<path id="&lt;Path&gt;" class="s1" d="m106.5 657.1h754.1l20-170.6-147.1-75-102.9-127.4h-306.2l-97 150.9-159.8 70.7z"/>
		</g>
		<g id="&lt;Group&gt;">
			<g id="&lt;Group&gt;">
				<path id="&lt;Path&gt;" class="s2" d="m771 363.2c-4.9 15-13.8 28.4-24.6 39.9-11.7 12.3-25.7 22.4-40.3 31.1-12 7.2-24.5 13.5-37.8 17.5-12.3 3.7-25.3 5.4-38 3.8 9.7-29.7 30.1-55.7 56.5-72.3 24.9-15.6 55-22.7 84.2-20z"/>
				<path id="&lt;Path&gt;" class="s3" d="m681.8 311c5.9 17.6 3.7 37.7-4.4 54.6-8.2 17.4-22.1 31.7-37.9 42.7-4.4-19.3-4.2-40 3.1-58.4 7-17.6 21.3-32.8 39.2-38.9z"/>
				<path id="&lt;Path&gt;" class="s3" d="m759.7 371c-13.5 6.2-26.7 12.9-39.7 20.1q2.4-7.6 4.8-15.2c0.4-1.3-1.6-1.8-2-0.6q-2.6 8.5-5.2 16.9-0.1 0.2-0.1 0.4c-1.6 0.9-3.2 1.7-4.8 2.7-6.1 3.5-12.2 7.2-18.2 11q3.6-9.6 7.2-19.2c0.4-1.2-1.6-1.8-2-0.5q-4 10.7-8 21.5-11.9 7.6-23.4 15.8-0.5 0.4-1 0.8 2.6-11.1 5.1-22.3c0.3-1.2-1.7-1.8-2-0.5q-2.7 12.1-5.5 24.2 0 0.2 0 0.4c-6.8 4.9-13.5 10-20 15.2-1.1 0.8 0.4 2.3 1.4 1.5q10.2-8.2 20.7-15.8 12.3 0.5 24.6 0.9c1.3 0 1.3-2 0-2.1l-21.9-0.7q9.5-6.8 19.2-13.2 2-1.2 3.9-2.5 13.1 1.8 26.2 3.6c1.3 0.2 1.8-1.7 0.5-1.9q-12-1.7-24-3.4 11.8-7.5 24.1-14.3 8.4 1.8 16.9 3.6c1.3 0.2 1.8-1.7 0.6-2q-7.5-1.6-14.9-3.2 5.9-3.2 11.9-6.4 13.1-6.8 26.6-13c1.2-0.6 0.2-2.3-1-1.8z"/>
				<path id="&lt;Path&gt;" class="s3" d="m759.9 449.3c-8.6 9.7-21.5 15.4-34.6 16.4-13.4 1-26.8-2.3-39-8.1 10.1-9.4 22.7-16.5 36.4-18.5 13.1-1.8 27.3 1.5 37.2 10.2z"/>
			</g>
			<g id="&lt;Group&gt;">
				<path id="&lt;Path&gt;" class="s3" d="m139.2 646.2c6.4 12.6 8.9 27.2 7.2 41.2-14.7-2.5-27.3-13.9-33.3-27.7-5.9-13.5-6-29-2.8-43.5 12.3 6.8 22.5 17.4 28.9 30z"/>
				<path id="&lt;Path&gt;" class="s2" d="m125.2 683.8c19 10 33.9 28.2 38.5 49.2-6.7 2.5-14.1 3.3-21.3 3.7-5.2 0.3-10.4 0.4-15.5-0.1-15.8-1.7-30.4-10.1-41-21.9-9.7-11-16.1-24.8-19.3-39.1 19.8-3.6 40.8-1.1 58.6 8.2z"/>
				<path id="&lt;Path&gt;" class="s3" d="m156.1 727.2q-6.8-5-13.7-9.7-0.1-0.1-0.1-0.2-5.2-11.8-10.5-23.7c-0.5-1.2-2.3-0.1-1.8 1.1q4.6 10.3 9.2 20.7-10.2-6.8-20.7-13-2.3-8.1-4.5-16.3c-0.4-1.2-2.4-0.7-2 0.6q2 7.1 3.9 14.2-11.2-6.7-22.9-12.7-0.6-0.3-1.3-0.6-0.1-0.5-0.3-0.9-0.7-1.5-1.5-2.9-1.3-2.9-2.7-5.7c-0.6-1.2-2.4-0.2-1.8 1q1.2 2.5 2.4 5 0.5 1 1 2.1-7.3-3.7-14.7-7.1c-1.2-0.6-2.2 1.2-1 1.7 5.1 2.4 10.2 4.9 15.3 7.4q-0.5 0.2-1.1 0.3-1.3 0.3-2.6 0.6-2.7 0.7-5.5 1.3c-1.2 0.3-0.7 2.3 0.6 2q3-0.7 6.1-1.5 1.5-0.3 3-0.7c0.7-0.1 1.6-0.2 2.2-0.6q12.1 6.2 23.8 13-10 1.9-20.1 3.7c-1.3 0.2-0.8 2.2 0.5 2q11.2-2 22.3-4.1 10.3 6.1 20.3 12.7 0.3 0.3 0.6 0.5-10.8 2.4-21.7 4.9c-1.3 0.3-0.7 2.2 0.6 2q11.7-2.7 23.5-5.3 7.2 4.8 14.2 10c1.1 0.7 2.1-1 1-1.8z"/>
			</g>
		</g>
		<g id="&lt;Group&gt;">
			<g id="&lt;Group&gt;">
				<path id="&lt;Path&gt;" class="s4" d="m421.2 111.4l-7.4-0.1-5.4-0.1c2-25.3 29.6-38.1 67.7-38.9 38-0.7 26.7 47.4 26.7 47.4l-0.4-0.1-18.1-5.5-6.4-2-22.2-0.3z"/>
				<path id="&lt;Compound Path&gt;" fill-rule="evenodd" class="s5" d="m578 170.9c-3.1 5.8-8.8 8.9-15 10.4-1.3 1.1-2.4 2.4-3.2 3.9-0.9 2.1-1 4.5-1.6 6.7-1.5 5.2-6.1 9.2-11.3 10.6-4.3 1.2-8.9 0.8-13.1-0.7-8-13.5-17.7-23.8-29.2-25.7l-20.3-35.4c0 0 6.5-8.3 3.4-16-1.1-3-3.1-4.6-5.1-5.1-3.2-0.8-6.7 1.2-8.1 5.1 0 0-14.6-5.1-18.8-12.9l22.2 0.3 6.4 2 18.1 5.5c0.9 1.9 2 3.7 3.5 5.3 8.1 6.1 19.7 2.6 28.8 0.6 8.6-1.8 18.8-2.6 25.7 4 3.1 3 4.1 6.8 4.6 10.9 0.4 2.2 0.7 4.5 1.8 6.5 0.9 1.7 2.5 3 4.1 4.1 3.1 2.4 6.4 4.5 7.9 8.3 1.4 3.7 1 8-0.8 11.6zm-5-15.9c-2.9-2.2-6.3-4-8.1-7.3-1.9-3.7-1.5-8-2.8-11.9-1.2-3.7-4.3-6.4-7.7-7.9-9.1-4.1-19.2-0.1-28.3 1.6-4.4 0.8-9.1 1.1-13.5 0.3q0.8 0.4 1.6 0.7c9.4 3.1 19.5-1 29.3-2 3.6-0.3 7.3-0.2 10.7 1.1 3.3 1.3 6.3 4.1 7.2 7.6 0.6 2.7 0 5.5-0.3 8.3-0.3 2.8-0.3 5.9 1.4 8.1 1.5 2 4 3 6.2 4.3 2.3 1.3 4.3 3.2 5.6 5.6 1.2 2.3 1.5 5.2 0.6 7.7q-0.5 1.2-1.2 2.2c2.1-2.3 3.7-5.1 3.9-8.3 0.3-4.1-1.4-7.6-4.6-10.1z"/>
				<path id="&lt;Path&gt;" class="s6" d="m504.6 176.1c0 0-30.7 35.4-38.4 33.4-7.2-1.8-5.1-9.1-4.8-9.8q0-0.1 0-0.1 0 0 0 0v-7.5l11-26.6c-2.6 5-6.5 8.8-11 11.2q-2.4 1.3-4.9 2.1c-12.1 3.9-26.6-0.4-34-13.3-1.7-3.1-2.9-6.6-3.8-10.2-1.7-7.4-1.7-15.5-1.1-22.8 0.8-9.7 2.8-18 3.6-21.1l34.5 0.4c2.5 4.7 8.7 8.3 13.3 10.6 3.1 1.5 5.5 2.3 5.5 2.3 1.4-3.9 4.9-5.9 8.1-5.1 2 0.5 4 2.1 5.1 5.1 3.1 7.7-3.4 16-3.4 16z"/>
				<path id="&lt;Path&gt;" class="s5" d="m472.4 165.5l-11 26.6v-15.4c4.5-2.4 8.4-6.2 11-11.2z"/>
				<path id="&lt;Path&gt;" class="s7" d="m464.8 131.5c4 0 7.2 3.2 7.2 7.2 0 3.9-3.2 7.2-7.2 7.2-4 0-7.2-3.3-7.2-7.2 0-4 3.2-7.2 7.2-7.2z"/>
				<path id="&lt;Path&gt;" class="s8" d="m456.9 149.7c0 0 8.9 5.7 2.9 14-5.9 8.4-14.5 0.3-14.5 0.3z"/>
				<path id="&lt;Path&gt;" class="s9" d="m447.9 126.5c1.6 0 3 1.8 3 4 0 2.2-1.4 4-3 4-1.7 0-3.1-1.8-3.1-4 0-2.2 1.4-4 3.1-4z"/>
				<path id="&lt;Path&gt;" class="s7" d="m436.5 135.1c0 0 4.1 16.9 3.9 16.8l-3.3-1.7c0 0-9.2 7.4-10.2 3.9-0.9-3.5 9.6-19 9.6-19z"/>
				<path id="&lt;Path&gt;" class="s9" d="m424.5 126.5c1.7 0 3.1 1.8 3.1 4 0 2.2-1.4 4-3.1 4-1.6 0-3-1.8-3-4 0-2.2 1.4-4 3-4z"/>
				<path id="&lt;Path&gt;" class="s5" d="m413.8 111.3l7.4 0.1c-0.8 3.1-2.8 11.4-3.6 21.1 0 0-6.4-5.7-3.8-21.2z"/>
				<path id="&lt;Path&gt;" class="s5" d="m425.2 121.2c-1.9 0.1-3.7 0.7-5.2 1.6-0.5 0.3-0.7 0.9-0.4 1.4 0.3 0.5 0.9 0.7 1.4 0.4q0.5-0.4 1.1-0.6c0 0 0.1-0.1 0.1-0.1q0.1 0 0.2-0.1 0.3-0.1 0.6-0.2 0.6-0.1 1.1-0.2 0.2-0.1 0.4-0.1 0 0 0 0 0 0 0 0 0.4-0.1 0.7-0.1c0.5 0 1-0.4 1-1 0-0.5-0.5-1-1-1z"/>
				<path id="&lt;Path&gt;" class="s5" d="m451.6 122.7c-1.7-0.8-3.5-1.3-5.4-1.3-0.5 0-1 0.5-1 1 0 0.6 0.5 1 1 1q0.7 0 1.3 0.1 0 0 0 0 0 0 0.1 0 0.1 0 0.2 0.1 0.4 0 0.7 0.1 0.5 0.1 1.1 0.3 0.3 0.1 0.6 0.2 0.1 0.1 0.3 0.1c-0.2-0.1 0.1 0.1 0.1 0.1 0.5 0.2 1.1 0.1 1.4-0.4 0.2-0.4 0.1-1.1-0.4-1.3z"/>
				<path id="&lt;Path&gt;" class="s5" d="m479.6 75.5c-0.9-0.9-2.3 0.5-1.4 1.4 7.5 8.2 9 20.3 3.7 30.1-0.6 1.1 1.1 2.1 1.7 1 5.8-10.6 4.2-23.7-4-32.5z"/>
				<path id="&lt;Path&gt;" class="s5" d="m445 76.7c-8 6.7-13.1 16.5-14.1 26.9-0.1 1.3 1.9 1.3 2 0 1-9.9 5.9-19.2 13.6-25.5 1-0.8-0.5-2.3-1.5-1.4z"/>
				<path id="&lt;Path&gt;" class="s5" d="m425.2 84.6c-2.8 3.1-4.7 6.9-5.3 11-0.1 0.6 0.1 1.1 0.6 1.3 0.5 0.1 1.2-0.2 1.3-0.7 0.6-3.8 2.3-7.4 4.8-10.2 0.9-1-0.5-2.4-1.4-1.4z"/>
				<path id="&lt;Path&gt;" class="s5" d="m454.4 78.7c-5.1 5-8.3 11.6-9.2 18.7-0.1 1.3 1.9 1.3 2 0 0.9-6.5 4-12.7 8.6-17.3 0.9-0.9-0.5-2.3-1.4-1.4z"/>
			</g>
			<g id="&lt;Group&gt;">
				<path id="&lt;Path&gt;" class="s5" d="m365.7 301.1l0.3 9.8q-2.2 0.5-4.4 0.5c-5.7 0-11.8-2.3-18.1-6.8 10.3-1 22.2-3.5 22.2-3.5z"/>
				<path id="&lt;Path&gt;" class="s4" d="m461.4 199.6q0 0 0 0 0 0 0 0.1c-0.3 0.7-4.3 10.7-8.4 21.7-5.7-18.9 8.4-21.8 8.4-21.8z"/>
				<path id="&lt;Path&gt;" class="s4" d="m453.2 266.4v0.1c-1.6 0.5-3 1.8-2.7 5l-54.1 1.2-13.6-9.4c-1.2-8.2-3-15.8-5.4-23.1l3.2-11.7 64 26.6c2.4 5.8 8.6 11.3 8.6 11.3z"/>
				<path id="&lt;Path&gt;" class="s4" d="m365 277.8l-0.1-4.3 9-0.2 10-0.3 12.5-0.3 54.1-1.2c-0.3-3.2 1.1-4.5 2.7-5v-0.1c0 0-6.2-5.5-8.6-11.3-0.6-1.4-1-2.8-1-4.2 0-3.6 4.8-17.2 9.4-29.5 4.1-11 8.1-21 8.4-21.7-0.3 0.7-2.4 8 4.8 9.8 7.7 2 38.4-33.4 38.4-33.4 11.5 1.9 21.2 12.2 29.2 25.7 19 32.2 28.3 82.7 28.3 82.7q0 0-0.1 0c-17.8 19.9-56.4 27.3-71.6 29.6-4 0.6-6.4 0.8-6.4 0.8 38.1-35.8 45.2-96.5 45.2-96.5-9.9 31.7-32.3 66.8-45.2 81.5-2.8 3.1-5.1 5.3-6.8 6.4-9.5 5.7-111.2 5.5-111.2 5.5v-0.9l-0.3-9.8-0.1-0.7z"/>
				<path id="&lt;Path&gt;" class="s6" d="m562.1 284.5c0 0 3.3 3 8.2 8.1-34.4 35.1-74.4 37.2-74.4 37.2l-1.9-5.3c39.3-3 67.1-38.8 68-40q0.1 0 0.1 0z"/>
				<path id="&lt;Path&gt;" class="s5" d="m562 284.5c-0.9 1.2-28.7 37-68 40l-3.6-10.4c15.2-2.3 53.8-9.7 71.6-29.6z"/>
				<path id="&lt;Path&gt;" class="s5" d="m529.2 218.4c0 0-7.1 60.7-45.2 96.5v-15c12.9-14.7 35.3-49.8 45.2-81.5z"/>
				<path id="&lt;Path&gt;" class="s6" d="m380.6 228.5l-3.2 11.7q-1.9-6.1-4.4-12.1-0.6-1.3-1.1-2.6-1.9-4.3-4-8.4z"/>
				<path id="&lt;Path&gt;" class="s6" d="m352.7 216.8q1.3-1 2.7-1.8c2.6-1.2 5.7-1.6 8.5-0.8 0.3 0.1 0.7 0.2 1 0.4 0.3 0.3 0.4 0.6 0.5 0.9q0.1 0.5 0.1 1c0 2.2-1 4.4-2.7 5.9 1.5 0.5 3.1 0.5 4.6 0.9 1.5 0.3 3.1 1.1 3.7 2.5 0.4 1.2 0.1 2.6-0.7 3.7-0.7 1.1-1.8 1.9-2.8 2.6 2.6 0.3 5.1 1.6 6.9 3.5 0.3 0.3 0.7 0.8 0.8 1.3 0.2 1-0.6 1.9-1.4 2.5-1.7 1.2-3.9 1.6-6 1.7q-0.3 0-0.6 0c-1.8 0.1-3.7 0-5.4-0.3-1.3-0.2-2.7-0.5-3.7-1.3q-0.7-0.5-1.1-1.2c-1.2-2-0.8-4.9 1.1-6.4-1.8 0-3.7-0.1-5-1.4-1.6-1.5-1.2-4.6 0.8-5.7-1.8-0.9-3.7-2.1-3.8-4.1-0.1-1.2 0.6-2.4 1.5-3.2q0.5-0.4 1-0.7z"/>
				<path id="&lt;Path&gt;" class="s10" d="m373.2 265.4l-20-14.2c0.8-2.1 1.1-4.6 0.7-7.2l15.5 4q1.3 4.5 2.3 8.8 0.9 4.4 1.5 8.6z"/>
				<path id="&lt;Path&gt;" class="s6" d="m329.7 266.2c3.8-0.4 8.4-0.5 12.1-0.6 2.1-0.1 3.9-0.1 5.2-0.2 5.8-0.3 17.4 11.8 18 12.4l0.6 22.6 0.1 0.7c0 0-11.9 2.5-22.2 3.5-7.2 0.8-13.7 0.7-15.1-1.3-3.4-5.1 0.8-8.4 0.8-8.4 0 0-4.9 0.5-5.9-3.3-0.6-2.2 0.8-4.1 2.1-5.3 0.9-0.8 1.7-1.3 1.7-1.3 0 0-1.8-0.5-3.7-1.4-1.9-0.9-3.9-2.2-4.3-3.6-0.2-0.6 0.1-1.2 0.7-1.8 2-1.8 7.1-3.2 7.1-3.2 0 0-4.5-3.9-4.6-6.6 0-0.7 0.9-1.1 2.4-1.5 1.3-0.3 3-0.6 5-0.7z"/>
				<path id="&lt;Path&gt;" class="s5" d="m383.9 273l-10 0.3q-0.2-3.9-0.7-7.9-0.6-4.2-1.5-8.6-1-4.3-2.3-8.8-0.9-3.4-2.1-6.9 0.3 0 0.6 0c2.1-0.1 4.3-0.5 6-1.7 0.8-0.6 1.6-1.5 1.4-2.5-0.1-0.5-0.5-1-0.8-1.3-1.8-1.9-4.3-3.2-6.9-3.5 1-0.7 2.1-1.5 2.8-2.6 0.8-1.1 1.1-2.5 0.7-3.7-0.6-1.4-2.2-2.2-3.7-2.5-1.5-0.4-3.1-0.4-4.6-0.9 1.7-1.5 2.7-3.7 2.7-5.9q0-0.5-0.1-1c-0.1-0.3-0.2-0.6-0.5-0.9-0.3-0.2-0.7-0.3-1-0.4-2.8-0.8-5.9-0.4-8.5 0.8q-1.7-2.9-3.4-5.6c-4.4-6.8-9.2-12.7-14.1-17.3-3.1-3.1-6.2-5.4-9.1-7.1-3.4-2-6.6-3-9.4-3q-2 0-3.6 0.7c-3 1.2-5.3 4.2-6.8 8.6-1.3 3.6-2 8.3-2.1 13.7-0.2 13.6 3.4 30 10.3 46.4 2.2 5.5 4.8 10.7 7.5 15.5-1.5 0.4-2.4 0.8-2.4 1.5 0.1 2.7 4.6 6.6 4.6 6.6 0 0-5.1 1.4-7.1 3.2-4.4-6.9-8.4-14.7-11.9-22.9-7.3-17.6-11.2-35.6-11-50.5 0.3-16.3 5.6-27.4 15-31.4 9.4-3.9 21.1 0.2 32.9 11.4 8.5 8.1 16.5 19.3 23.1 32.3q2.1 4.1 4 8.4 0.5 1.3 1.1 2.6 2.5 6 4.4 12.1c2.4 7.3 4.2 14.9 5.4 23.1q0.7 4.7 1.1 9.7z"/>
				<path id="&lt;Path&gt;" class="s5" d="m342.6 256.8c-1.9-0.7-3.7-2-5.3-3.8-1.4-1.6-2.7-3.7-3.5-6.1-1.6-4.9-1.1-9.8 0.9-13 1.1-1.7 2.5-2.9 4.3-3.5q0.4-0.2 0.9-0.2c5.1-1.1 10.9 3.3 13.2 10.2q0.6 1.9 0.8 3.6c0.4 2.6 0.1 5.1-0.7 7.2-0.9 2.8-2.8 4.9-5.3 5.7-1.7 0.6-3.6 0.5-5.3-0.1z"/>
				<path id="&lt;Path&gt;" class="s10" d="m342.6 256.8l-0.8 8.8c-3.7 0.1-8.3 0.2-12.1 0.6l7.6-13.2c1.6 1.8 3.4 3.1 5.3 3.8z"/>
				<path id="&lt;Path&gt;" class="s10" d="m328.8 185l11.1 45.2q-0.5 0-0.9 0.2c-1.8 0.6-3.2 1.8-4.3 3.5l-25.7-42.6c1.5-4.4 3.8-7.4 6.8-8.6q1.6-0.7 3.6-0.7c2.8 0 6 1 9.4 3z"/>
				<path id="&lt;Path&gt;" class="s5" d="m490.9 198.3q-18.2 30.2-34.1 61.7c-0.4 0.7-0.6 1.4-1.1 2-0.4 0.6-1.1 0.7-1.7 0.9-0.9 0.4-1.8 1.1-2.4 2-1.4 1.7-1.8 4.1-1 6.1 0.4 1.2 2.3 0.7 1.9-0.5-0.7-1.9-0.1-4.2 1.7-5.4 0.7-0.5 1.7-0.6 2.4-1.1 1-0.7 1.5-2.2 2-3.2q3.8-7.5 7.8-15 8-15.1 16.4-29.8 4.8-8.4 9.8-16.7c0.7-1.1-1.1-2.1-1.7-1z"/>
				<path id="&lt;Path&gt;" class="s5" d="m549.8 253.5q-2.6-8-5.2-16c-0.4-1.3-2.3-0.7-1.9 0.5q2.6 8 5.2 16c0.4 1.2 2.3 0.7 1.9-0.5z"/>
				<path id="&lt;Path&gt;" class="s5" d="m553.6 266.9q-1.2-4.3-2.5-8.7c-0.4-1.3-2.3-0.7-1.9 0.5q1.2 4.4 2.5 8.8c0.4 1.2 2.3 0.7 1.9-0.6z"/>
				<path id="&lt;Path&gt;" class="s5" d="m547.4 260.3c-0.6-2.6-1.5-5.1-2.6-7.5-0.3-0.5-1-0.6-1.4-0.4-0.5 0.3-0.6 0.9-0.4 1.4 1.1 2.2 1.9 4.6 2.4 7 0.1 0.5 0.8 0.8 1.3 0.7 0.5-0.2 0.8-0.7 0.7-1.2z"/>
				<path id="&lt;Path&gt;" class="s5" d="m479.1 230.6q-4.6 8.4-8.5 17.2c-0.5 1.1 1.2 2.2 1.7 1q3.9-8.8 8.5-17.2c0.6-1.2-1.1-2.2-1.7-1z"/>
				<path id="&lt;Path&gt;" class="s5" d="m478.5 242.3c-0.5-0.3-1.1-0.2-1.4 0.3q-1.7 3.3-3 6.7c-0.2 0.5 0.2 1.1 0.7 1.2 0.6 0.1 1.1-0.2 1.3-0.7q1.2-3.1 2.8-6.1c0.2-0.5 0.1-1.2-0.4-1.4z"/>
				<path id="&lt;Path&gt;" class="s5" d="m369.9 276.9c0-1.3-2-1.3-2 0q0.2 15.3 2.1 30.5c0.1 1.2 2.1 1.2 2 0q-1.9-15.2-2.1-30.5z"/>
				<path id="&lt;Path&gt;" class="s11" d="m561.3 259.8q-6.1-20.8-13.6-41.1c-0.5-1.2-2.4-0.7-2 0.5q7.5 20.4 13.6 41.2c0.4 1.2 2.3 0.7 2-0.6z"/>
				<path id="&lt;Path&gt;" class="s11" d="m562.7 243.4q-2.2-7.4-5.5-14.4c-0.5-1.1-2.2-0.1-1.7 1q3.2 6.8 5.2 14c0.4 1.2 2.3 0.7 2-0.6z"/>
				<path id="&lt;Path&gt;" class="s11" d="m296.4 177.5c-9.9 17.1-7.4 37.6-3.4 56.1 0.3 1.2 2.2 0.7 1.9-0.5-3.9-18-6.4-37.9 3.2-54.6 0.7-1.1-1.1-2.1-1.7-1z"/>
				<path id="&lt;Path&gt;" class="s11" d="m301.8 253.2q-3-6.1-4.7-12.7c-0.4-1.3-2.3-0.7-2 0.5 1.2 4.6 2.9 9 5 13.2 0.5 1.2 2.2 0.2 1.7-1z"/>
				<path id="&lt;Path&gt;" class="s11" d="m291.3 246.2q-2.9-8-4.4-16.5c-0.3-1.2-2.2-0.7-2 0.6q1.6 8.4 4.5 16.4c0.4 1.2 2.4 0.7 1.9-0.5z"/>
				<path id="&lt;Path&gt;" class="s11" d="m372.9 210.8c-4.6-11.7-12.1-22.1-21.8-30.1-1-0.8-2.4 0.6-1.4 1.5 9.4 7.7 16.8 17.8 21.3 29.1 0.4 1.2 2.4 0.7 1.9-0.5z"/>
				<path id="&lt;Path&gt;" class="s11" d="m378.2 207.6c-2.4-5.6-5.5-10.8-9.3-15.5-0.8-1.1-2.2 0.4-1.4 1.4 3.6 4.6 6.6 9.7 9 15.1 0.5 1.2 2.2 0.2 1.7-1z"/>
			</g>
			<g id="&lt;Group&gt;">
				<path id="&lt;Path&gt;" class="s7" d="m588.3 438.9l-18 61.7-0.1 0.2-0.1 0.5-0.1 0.2q-0.2 0.8-0.6 2.1-0.1 0.4-0.3 1.1v0.2c-0.3 0.8-0.6 1.7-0.8 2.7-3.2 10.9-9.1 30.8-9.1 30.9l-22.9 78.3-43.4-5.3-5.2-0.7 0.3-1.6 20.4-143.6 59.8-26.7z"/>
				<path id="&lt;Path&gt;" class="s4" d="m329 497.5q-0.8 3.4-1.7 6.7-1.5 6.1-2.9 11.7c-1.3 5.4-2.5 10.5-3.6 14.9l-9-2.1-4.6-1.1c0.2-0.9 1.5-6.4 3.6-14.7 0.8-3.5 1.8-7.4 2.9-11.7q0.6-2.6 1.4-5.4 3.8 0.8 7.7 1.9c2.1 0.6 4.3 0.5 6.2-0.2z"/>
				<path id="&lt;Path&gt;" class="s4" d="m479.9 611.5l6.6 6.3q-1.8 2.4-3.1 5.3-1.5 2.9-2.2 6.2l-14.7-14-82.6-79.3-47.7-45.7q0-0.2 0.1-0.3c1-3.8-0.1-7.7-2.6-10.4q-0.2-0.3-0.5-0.5c-0.1-0.1-0.2-0.2-0.3-0.3q-0.5-0.5-1.1-0.9-0.8-0.5-1.7-0.9-0.4-0.2-0.7-0.3-0.4-0.1-0.8-0.2 0 0 0 0-4-1.1-8-2c2.5-9 5-18.3 7.7-27.4 3.4-11.8 7-23 10.3-32.2q0 0 0 0c2.6-6.9 5-12.7 7.2-16.6 16.7-40.4 49.5-52.7 56.1-54.8v14.9c-5.9 2.5-16.3 8-26.2 18.6 16.4-5.8 34.7-8 43.9-8.7v14c-21.6 1.9-52.6 8.8-61 21.7q-0.2 0.4-0.4 0.8c-6 10.5-14.9 39.5-22.9 69q1.5 0.4 2.6 1.4l141.4 135.6q-1.3 0.8-2.5 1.6z"/>
				<path id="&lt;Path&gt;" class="s4" d="m641.1 629.3c0 2.9 0.5 5.6 1.4 8.2l-88.5 9-11.9 1.2-4 0.4c1.7-3.7 2.7-7.9 2.7-12.3q0 0 0 0h0.1l12-1.2 88.5-9.1q-0.3 1.9-0.3 3.8z"/>
				<path id="&lt;Path&gt;" class="s4" d="m658.5 606.5c-4.1 1.1-7.7 3.3-10.6 6.2l-62.2-65-8.3-8.7-21.4-22.4-32 92.3c-4-2.1-8.5-3.2-13.4-3.2h-0.3l33.6-96.7 0.5-1.7 23.8-68.4h14.8l-22.5 65 4.1 4.3 21.6 22.6 8.3 8.7z"/>
				<path id="&lt;Path&gt;" class="s12" d="m318.3 394.7c0 0 16.6 39.2-19.4 54.2z"/>
				<path id="&lt;Compound Path&gt;" fill-rule="evenodd" class="s13" d="m540.8 635.8q0 0 0 0c0 4.4-1 8.6-2.7 12.3-4.6 10.5-15 17.8-27.2 17.9h-0.3c-13.1 0-24.3-8.5-28.4-20.3-1.1-3.1-1.7-6.4-1.7-9.9q0-3.3 0.7-6.5 0.7-3.3 2.2-6.2 1.3-2.9 3.1-5.3c1.8-2.4 4-4.5 6.4-6.3q1.7-1.3 3.6-2.3c4.2-2.2 8.8-3.4 13.8-3.5h0.3c4.9 0 9.4 1.1 13.4 3.2 2.7 1.3 5.2 3 7.4 5.1q1.2 1.2 2.3 2.5c4.4 5.2 7.1 11.9 7.1 19.3zm-11.4-0.4c0-10.3-8.4-18.6-18.7-18.6-10.2 0-18.6 8.3-18.6 18.6 0 10.3 8.4 18.6 18.6 18.6 10.3 0 18.7-8.3 18.7-18.6z"/>
				<path id="&lt;Path&gt;" class="s4" d="m463.2 603.7l-7.1 1.5-13.4 2.8-13.3 2.8c0-8.1 4.9-14.9 11.2-20.4q2.3-2 4.8-3.7z"/>
				<path id="&lt;Path&gt;" class="s4" d="m510.9 666l-2.6 14.2-4-1.3-48.3-15.2-15.4-4.8c7.7-13.7 28.9-14.2 41.6-13.2 4.1 11.8 15.3 20.3 28.4 20.3z"/>
				<path id="&lt;Path&gt;" class="s4" d="m493.3 580.1l5.6 16.1-9.1 1.9-19.5 4.1-7.1 1.5-17.8-17c1.8-1.2 3.5-2.3 5.3-3.3 9.1-5.4 17.8-8.1 17.8-8.1l21.3-5.2 3.5 10z"/>
				<path id="&lt;Path&gt;" class="s11" d="m670.6 499.5c71.6 0 129.9 58.2 129.9 129.8 0 71.6-58.3 129.9-129.9 129.9-65.3 0-119.6-48.5-128.5-111.5l11.9-1.2c8.4 56.9 57.5 100.7 116.6 100.7 65 0 117.9-52.9 117.9-117.9 0-64.9-52.9-117.8-117.9-117.8-29 0-55.6 10.5-76.1 28l-8.3-8.7c22.7-19.5 52.2-31.3 84.4-31.3z"/>
				<path id="&lt;Path&gt;" class="s9" d="m664.7 605.7c13 0 23.6 10.6 23.6 23.6 0 13.1-10.6 23.7-23.6 23.7-10.2 0-18.9-6.5-22.2-15.5l6.9-0.7c6.5-0.7 11.9-5 14.2-11.1 2.3-6.2 0.9-12.9-3.7-17.7l-1.4-1.5q3-0.8 6.2-0.8z"/>
				<path id="&lt;Path&gt;" class="s9" d="m659.9 608c4.6 4.8 6 11.5 3.7 17.7-2.3 6.1-7.7 10.4-14.2 11.1l-6.9 0.7c-0.9-2.6-1.4-5.3-1.4-8.2q0-1.9 0.3-3.8l6.7-0.7c2.9-0.3 3.9-2.4 4.3-3.3 0.3-0.9 0.8-3.1-1.1-5.2l-3.4-3.6c2.9-2.9 6.5-5.1 10.6-6.2z"/>
				<path id="&lt;Path&gt;" class="s9" d="m651.3 616.3c1.9 2.1 1.4 4.3 1.1 5.2-0.4 0.9-1.4 3-4.3 3.3l-6.7 0.7c0.8-4.9 3.1-9.4 6.5-12.8z"/>
				<path id="&lt;Path&gt;" class="s7" d="m608.2 391c-2.3 4.2-5.5 8.2-9.3 11.9-17.9 17.3-50.1 28.9-77.2 36-3.5 0.9-6.8 1.8-10.1 2.5-21 5-36.8 7.1-36.8 7.1l20 69.7c-2.2 2.3-5.1 4.3-8.6 6.2-9.2 4.9-22.2 8.4-34.5 10.9-18.1 3.6-34.5 4.8-34.5 4.8 0 0-23.1-100.7-22-114.9 0.5-6.5 46.8-41.9 70.6-59.5 19-13.4 34.4-23.6 34.4-23.6l-4.3-12.3c0 0 40-2.1 74.4-37.2 17.8 18.6 56.6 64.8 37.9 98.4z"/>
				<path id="&lt;Path&gt;" class="s5" d="m625.3 438.9h-103.6c27.1-7.1 59.3-18.7 77.2-36 48.5 0 26.4 36 26.4 36z"/>
				<path id="&lt;Path&gt;" class="s11" d="m577.4 539l8.3 8.7c-20.4 21.2-32.9 50-32.9 81.6q0 2.7 0.1 5.3l-12 1.2q-0.1-3.2-0.1-6.5c0-35 14-66.9 36.6-90.3z"/>
				<path id="&lt;Path&gt;" class="s10" d="m568.2 438.9l-59.8 26.7 3.2-24.2c3.3-0.7 6.6-1.6 10.1-2.5z"/>
				<path id="&lt;Path&gt;" class="s9" d="m556.7 514.7l-0.7 1.9-0.7-0.7q0.7-0.6 1.4-1.2z"/>
				<path id="&lt;Path&gt;" class="s4" d="m772 515.6c-3.2 5.2-10 6.8-15.1 3.6-45.1-28.1-90.6-34.1-135.2-17.8-18 6.6-32.3 15.7-41.8 22.8-4 3-7.2 5.7-9.3 7.6-2.4 2.1-3.6 3.3-3.7 3.4-2.1 2.2-4.9 3.3-7.7 3.3h-0.2c-2.7 0-5.5-1-7.6-3.1q-0.8-0.7-1.3-1.5c-3-4.2-2.7-10.1 1-14 0.2-0.2 1.7-1.7 4.2-4l0.7 0.7 0.7-1.9c2.1-1.9 4.7-4.1 7.9-6.5q2.1-1.6 4.5-3.3c10.5-7.7 25.5-16.8 44.1-23.8 35.5-13.2 91.2-20.5 155.3 19.4 5.1 3.2 6.7 10 3.5 15.1z"/>
				<path id="&lt;Path&gt;" class="s10" d="m510.7 616.8c10.3 0 18.7 8.3 18.7 18.6 0 10.3-8.4 18.6-18.7 18.6-10.2 0-18.6-8.3-18.6-18.6 0-10.3 8.4-18.6 18.6-18.6z"/>
				<path id="&lt;Path&gt;" class="s10" d="m504.3 678.9l-4.1 10.5-46.7-18.1 2.5-7.6z"/>
				<path id="&lt;Path&gt;" class="s10" d="m489.8 598.1l2.3 9.9-4.1 1.2-8.1 2.3-6.7 1.9-6.7 1.9-20.1 5.6-3.7-12.9 13.4-2.8 7.1-1.5 7.1-1.5z"/>
				<path id="&lt;Path&gt;" class="s6" d="m486.2 524.4l3.6 45.7-21.3 5.2-16.8-40c12.3-2.5 25.3-6 34.5-10.9z"/>
				<path id="&lt;Path&gt;" class="s10" d="m476.6 374.3c0 2.4-1 4.6-2.5 6.2-1.6 1.5-3.7 2.5-6.1 2.5h-48.4v-17.3h48.4c4.7 0 8.6 3.9 8.6 8.6z"/>
				<path id="&lt;Path&gt;" class="s10" d="m450.3 359.5h-48.4v-17.2h48.4c4.8 0 8.6 3.8 8.6 8.6 0 2.4-0.9 4.5-2.5 6.1-1.6 1.6-3.7 2.5-6.1 2.5z"/>
				<path id="&lt;Path&gt;" class="s11" d="m383.4 536.6c24 23.6 39 56.4 39 92.7 0 71.6-58.2 129.9-129.8 129.9-71.6 0-129.9-58.3-129.9-129.9 0-71.6 58.3-129.8 129.9-129.8q10.8 0 21.1 1.7c-1.1 4.3-2.1 8.2-2.9 11.7q-9-1.4-18.2-1.4c-65 0-117.9 52.9-117.9 117.8 0 65 52.9 117.9 117.9 117.9 64.9 0 117.8-52.9 117.8-117.9 0-53.9-36.4-99.5-86-113.4q1.4-5.6 2.9-11.7c21.4 6 40.6 17.3 56.1 32.4z"/>
				<path id="&lt;Path&gt;" class="s13" d="m338.6 414.9q0 0 0 0c-3.3 9.2-6.9 20.4-10.3 32.2-10.3 7.9-29.4 1.8-29.4 1.8 36-15 19.4-54.2 19.4-54.2 16.3 2.4 20.2 19.4 20.3 20.2z"/>
				<path id="&lt;Path&gt;" class="s4" d="m333.7 479.6c2.5 2.7 3.6 6.6 2.6 10.4q-0.1 0.1-0.1 0.3c-1.1 3.6-3.8 6.2-7.2 7.2-1.9 0.7-4.1 0.8-6.2 0.2q-3.9-1.1-7.7-1.9c-70-15.1-111.7 30.2-112.1 30.7-2.2 2.4-5.2 3.7-8.2 3.7-2.6 0-5.3-1-7.4-2.8-4.5-4.1-4.9-11-0.8-15.6 2.1-2.3 51.3-55.8 134-37.3q4 0.9 8 2 0 0 0 0c0.3 0.1 0.5 0.1 0.8 0.2q0.3 0.1 0.7 0.3 0.9 0.4 1.7 0.9 0.6 0.4 1.1 0.9 0.2 0.1 0.3 0.3 0.3 0.2 0.5 0.5z"/>
				<path id="&lt;Path&gt;" class="s9" d="m332.9 478.8c0.1 0.1 0.2 0.2 0.3 0.3q-0.1-0.2-0.3-0.3z"/>
				<path id="&lt;Path&gt;" class="s9" d="m330.1 477q0.9 0.4 1.7 0.9-0.8-0.5-1.7-0.9z"/>
				<path id="&lt;Path&gt;" class="s9" d="m329.4 476.7c-0.3-0.1-0.5-0.1-0.8-0.2q0.4 0.1 0.8 0.2z"/>
				<path id="&lt;Path&gt;" class="s4" d="m320.8 530.8l-19.9 76.4c-2.6-1-5.4-1.5-8.2-1.5l19.1-77z"/>
				<path id="&lt;Path&gt;" class="s9" d="m300.9 607.2c8.9 3.4 15.3 12 15.3 22.1 0 13.1-10.6 23.7-23.6 23.7-13.1 0-23.7-10.6-23.7-23.7 0-13 10.6-23.6 23.7-23.6q0 0 0.1 0l-5.4 21.6c-0.9 1.6-0.5 3.6 0.7 4.8 0.8 0.9 1.9 1.3 2.9 1.3 1.5 0 3-0.8 3.7-2.3z"/>
				<path id="&lt;Path&gt;" class="s9" d="m300.9 607.2l-6.3 23.9c-0.7 1.5-2.2 2.3-3.7 2.3-1 0-2.1-0.4-2.9-1.3-1.2-1.2-1.6-3.2-0.7-4.8l5.4-21.6c2.8 0 5.6 0.5 8.2 1.5z"/>
				<path id="&lt;Path&gt;" class="s5" d="m571.6 321.6q-1.9-2.9-3.8-5.8c-0.7-1.1-2.4-0.1-1.7 1 9.6 14.6 20.5 31.7 16.1 50.1-2.1 8.7-8 15.1-15 20.3-7.6 5.5-15.8 10-24.1 14-17.6 8.5-36.2 15.3-54.7 21.5-9.4 3.1-18.8 5.8-28.3 8.5-3.4 1-7 2.7-7.7 6.5-0.4 2.2-0.1 4.5 0.1 6.7q0.4 3.7 1.1 7.4c1.9 10 4.3 19.8 6.5 29.7q3.4 15 6.8 30.1 0.8 3.8 1.7 7.5c0.2 1.3 2.2 0.7 1.9-0.5q-6.8-30.2-13.5-60.4c-1.1-5-2.2-10-2.6-15-0.2-2.2-0.6-5 0.7-6.9 1-1.6 2.9-2.3 4.7-2.9 4.5-1.4 9.2-2.6 13.7-4q7.3-2.1 14.5-4.5c18.4-6.1 36.8-12.8 54.4-21.2 8.5-4 16.8-8.4 24.4-13.8 6.9-4.8 13.1-10.6 16.1-18.6 6.6-17.3-2.1-35.3-11.3-49.7z"/>
				<path id="&lt;Path&gt;" class="s4" d="m288.5 659.4v70.8c0 5.1 8 5.1 8 0v-70.8c0-5.1-8-5.2-8 0z"/>
				<path id="&lt;Path&gt;" class="s4" d="m185.6 629.5h70.8c5.1 0 5.1-8 0-8h-70.8c-5.2 0-5.2 8 0 8z"/>
				<path id="&lt;Path&gt;" class="s4" d="m328.9 633.3h70.8c5.2 0 5.2-8 0-8h-70.8c-5.1 0-5.1 8 0 8z"/>
				<path id="&lt;Path&gt;" class="s4" d="m264.6 647.4l-50.1 50.1c-3.6 3.6 2 9.3 5.7 5.7l50-50.1c3.7-3.6-2-9.3-5.6-5.7z"/>
				<path id="&lt;Path&gt;" class="s4" d="m212.9 553.5l50.1 50c3.6 3.7 9.3-2 5.6-5.6l-50.1-50.1c-3.6-3.6-9.3 2-5.6 5.7z"/>
				<path id="&lt;Path&gt;" class="s4" d="m311.5 657.5l50.1 50.1c3.6 3.6 9.3-2 5.7-5.7l-50.1-50c-3.6-3.7-9.3 2-5.7 5.6z"/>
				<path id="&lt;Path&gt;" class="s4" d="m373.1 555.3l-50.1 50c-3.6 3.7-9.3-2-5.6-5.6l50-50.1c3.7-3.6 9.3 2 5.7 5.7z"/>
				<path id="&lt;Path&gt;" class="s4" d="m662.7 664.4v70.8c0 5.2 8 5.2 8 0v-70.8c0-5.1-8-5.1-8 0z"/>
				<path id="&lt;Path&gt;" class="s4" d="m703.1 638.4h70.8c5.1 0 5.2-8 0-8h-70.8c-5.1 0-5.2 8 0 8z"/>
				<path id="&lt;Path&gt;" class="s4" d="m638.8 652.5l-50.1 50c-3.6 3.7 2 9.3 5.7 5.7l50-50.1c3.7-3.6-2-9.3-5.6-5.6z"/>
				<path id="&lt;Path&gt;" class="s4" d="m663.5 520.6v70.8c0 5.2 8 5.2 8 0v-70.8c0-5.1-8-5.1-8 0z"/>
				<path id="&lt;Path&gt;" class="s4" d="m685.7 662.6l50.1 50c3.6 3.7 9.3-2 5.6-5.6l-50-50.1c-3.6-3.6-9.3 2-5.7 5.7z"/>
				<path id="&lt;Path&gt;" class="s4" d="m747.3 560.3l-50.1 50.1c-3.6 3.6-9.3-2-5.6-5.7l50-50c3.7-3.7 9.3 2 5.7 5.6z"/>
				<path id="&lt;Path&gt;" class="s11" d="m199.1 733c-16-12.5-28.7-29.3-36.4-48.2q-3.2-7.9-5.2-16.2c-0.4-1.3-2.3-0.8-2 0.5 4.9 20 15.1 38.6 29.3 53.6q6 6.4 12.9 11.7c1 0.8 2.4-0.6 1.4-1.4z"/>
				<path id="&lt;Path&gt;" class="s11" d="m175.4 724.5c-10-9.9-17.5-22.1-21.7-35.5-0.4-1.3-2.4-0.7-2 0.5 4.3 13.7 12 26.3 22.3 36.4 0.9 0.9 2.3-0.5 1.4-1.4z"/>
				<path id="&lt;Path&gt;" class="s11" d="m804.8 665.5c-5.7 21.7-18.3 40.8-32.9 57.6-4.1 4.7-8.4 9.3-12.8 13.8-0.9 0.9 0.5 2.4 1.4 1.4 15.8-16.1 30.6-33.8 39.9-54.5 2.6-5.7 4.7-11.7 6.3-17.8 0.3-1.2-1.6-1.8-1.9-0.5z"/>
				<path id="&lt;Path&gt;" class="s11" d="m567.9 726.9c-11.2-12-19.9-26.5-25.3-42.1q-2.3-6.6-3.8-13.5c-0.3-1.2-2.2-0.7-1.9 0.6 3.6 16.4 10.6 32.1 20.6 45.6q4.2 5.7 9 10.8c0.9 1 2.3-0.5 1.4-1.4z"/>
				<path id="&lt;Path&gt;" class="s11" d="m560 730.9c-6.3-6.2-11.8-13.2-16.2-20.8-0.7-1.1-2.4-0.1-1.8 1 4.6 7.8 10.2 14.9 16.6 21.3 0.9 0.9 2.3-0.6 1.4-1.5z"/>
				<path id="&lt;Path&gt;" class="s11" d="m395.3 407.9c-4.7 8.3-9.7 17.2-8.8 27.1 0.2 1.3 2.2 1.3 2 0-0.8-9.5 4-18.1 8.5-26 0.7-1.2-1-2.2-1.7-1.1z"/>
				<path id="&lt;Path&gt;" class="s11" d="m386.1 413.9c-2.2 3.7-3.8 7.7-4.8 11.9-0.3 1.3 1.7 1.8 1.9 0.5 0.9-4 2.5-7.8 4.6-11.4 0.7-1.1-1.1-2.1-1.7-1z"/>
				<path id="&lt;Path&gt;" class="s11" d="m261.8 466.4c-22.3 3.7-43.7 12.4-62.3 25.1q-7.9 5.5-15.1 11.8c-1 0.8 0.5 2.2 1.4 1.4 16.8-14.8 36.7-25.8 58.1-32.1q9.1-2.7 18.4-4.3c1.3-0.2 0.7-2.1-0.5-1.9z"/>
				<path id="&lt;Path&gt;" class="s11" d="m223.7 471.2c-12.5 4.4-24.2 10.6-34.8 18.5-1 0.7 0 2.5 1 1.7 10.5-7.7 22-13.9 34.3-18.2 1.2-0.4 0.7-2.4-0.5-2z"/>
				<path id="&lt;Path&gt;" class="s11" d="m306.5 400.2q-10-11.9-20-23.9c-0.9-1-2.3 0.4-1.5 1.4q10.1 12 20.1 23.9c0.8 1 2.2-0.4 1.4-1.4z"/>
				<path id="&lt;Path&gt;" class="s11" d="m294.2 416.9q-10.6-5.1-21.5-9.5c-1.2-0.4-1.7 1.5-0.5 2q10.6 4.3 21 9.3c1.1 0.5 2.1-1.2 1-1.8z"/>
				<path id="&lt;Path&gt;" class="s11" d="m294 432.5q-14.8 0.5-29.5 1.1c-1.3 0-1.3 2 0 2q14.7-0.6 29.5-1.1c1.3 0 1.3-2 0-2z"/>
				<path id="&lt;Path&gt;" class="s11" d="m312.5 394.1q-2.4-5.7-5.3-11.2c-0.6-1.2-2.3-0.1-1.7 1q2.8 5.5 5.3 11.3c0.2 0.4 0.9 0.6 1.4 0.3 0.5-0.3 0.5-0.9 0.3-1.4z"/>
				<path id="&lt;Path&gt;" class="s11" d="m292.1 442.6q-5.8 1.7-11.7 3.1c-1.3 0.2-0.8 2.2 0.5 1.9q5.9-1.3 11.7-3c1.2-0.4 0.7-2.3-0.5-2z"/>
			</g>
		</g>
	</g>
</svg>