<svg version="1.2" xmlns="http://www.w3.org/2000/svg" viewBox="0 0 1000 1000" width="1000" height="1000">
	<title>5451503</title>
	<style>
		.s0 { fill: #ccfbf1 } 
		.s1 { fill: #2dd4bf } 
		.s2 { opacity: .4;fill: #ffffff } 
		.s3 { opacity: .4;fill: #14b8a6 } 
		.s4 { opacity: .6;fill: #ffffff } 
		.s5 { fill: #fafafa } 
		.s6 { fill: #263238 } 
		.s7 { fill: #37474f } 
		.s8 { fill: #455a64 } 
		.s9 { opacity: .1;fill: #000000 } 
		.s10 { fill: #ffbda7 } 
		.s11 { fill: #ebebeb } 
		.s12 { fill: #000000 } 
		.s13 { fill: #f0997a } 
		.s14 { fill: #f0fdfa } 
		.s15 { opacity: .2;fill: #000000 } 
		.s16 { fill: #b16668 } 
		.s17 { opacity: .3;fill: #ffffff } 
	</style>
	<g id="Shadow">
		<path id="Shadow 14 " class="s0" d="m765.6 600.1c-146.7-84.7-384.5-84.7-531.2 0-146.8 84.7-146.8 222 0 306.7 146.7 84.7 384.5 84.7 531.2 0 146.8-84.7 146.8-222 0-306.7z"/>
	</g>
	<g id="Clock">
		<g id="Clock 2 ">
			<g id="Clock">
				<path id="&lt;Path&gt;" class="s1" d="m857.3 675.7v61.9q0 0.2 0 0.4v0.7h-0.1c-0.4 52.5-35.3 104.9-104.6 144.9-139.5 80.6-365.7 80.6-505.2 0-69.4-40-104.2-92.4-104.6-144.9h-0.1v-0.8q0-0.1 0-0.3v-61.9l44.7 7.2c15.8-16.5 35.7-32 60-46 139.5-80.5 365.7-80.5 505.2 0 24.1 13.9 43.9 29.3 59.6 45.6z"/>
				<path id="&lt;Path&gt;" class="s2" d="m857.3 675.7v61.9q0 0.2 0 0.4v0.7h-0.1c-0.4 52.5-35.3 104.9-104.6 144.9-139.5 80.6-365.7 80.6-505.2 0-69.4-40-104.2-92.4-104.6-144.9h-0.1v-0.8q0-0.1 0-0.3v-61.9l44.7 7.2c15.8-16.5 35.7-32 60-46 139.5-80.5 365.7-80.5 505.2 0 24.1 13.9 43.9 29.3 59.6 45.6z"/>
				<path id="&lt;Path&gt;" class="s3" d="m282.6 901.4c-12.2-5.4-24-11.3-35.2-17.8-69.4-40-104.2-92.4-104.6-144.9h-0.1v-0.8q0-0.1 0-0.3v-61.9l44.7 7.2c3.7-3.9 7.7-7.7 11.9-11.5l83.3 20.5z"/>
				<g id="&lt;Group&gt;">
					<path id="&lt;Path&gt;" class="s1" d="m752.6 528.9c-139.5-80.6-365.7-80.6-505.2 0-139.5 80.5-139.5 211.1 0 291.7 139.5 80.5 365.7 80.5 505.2 0 139.5-80.6 139.5-211.2 0-291.7z"/>
				</g>
				<path id="&lt;Path&gt;" class="s4" d="m752.6 528.9c-139.5-80.6-365.7-80.6-505.2 0-139.5 80.5-139.5 211.1 0 291.7 139.5 80.5 365.7 80.5 505.2 0 139.5-80.6 139.5-211.2 0-291.7z"/>
				<g id="&lt;Group&gt;">
					<path id="&lt;Path&gt;" class="s1" d="m804.5 629.2c31.3 54.3 4.5 112.9-71.7 157-126.2 72.8-339.4 72.8-465.6 0-33-19.1-57.8-41.9-71.7-66-31.3-54.2-4.5-112.9 71.7-156.9 126.2-72.9 339.4-72.9 465.6 0 33 19.1 57.8 41.9 71.7 65.9q0 0 0 0z"/>
					<path id="&lt;Path&gt;" class="s1" d="m804.5 625.2c31.3 59 4.5 122.9-71.7 170.8-126.2 79.3-339.4 79.3-465.6 0-33-20.7-57.8-45.6-71.7-71.7-31.3-59.1-4.5-123 71.7-170.9 126.2-79.3 339.4-79.3 465.6 0 33 20.8 57.8 45.6 71.7 71.8q0 0 0 0z"/>
					<path id="&lt;Path&gt;" class="s2" d="m804.5 625.2c31.3 59 4.5 122.9-71.7 170.8-126.2 79.3-339.4 79.3-465.6 0-33-20.7-57.8-45.6-71.7-71.7-31.3-59.1-4.5-123 71.7-170.9 126.2-79.3 339.4-79.3 465.6 0 33 20.8 57.8 45.6 71.7 71.8q0 0 0 0z"/>
				</g>
				<g id="&lt;Group&gt;">
					<path id="&lt;Path&gt;" class="s5" d="m266.9 582.8c-48.5 30.6-77 67.6-83.2 105.6 1.7 12.1 5.5 24.1 11.8 35.9 13.9 26.1 38.7 51 71.7 71.7 126.2 79.3 339.4 79.3 465.6 0 48.5-30.5 76.9-67.5 83.1-105.6-1.6-12-5.5-24-11.7-35.8q0 0 0 0c-13.9-26.2-38.7-51-71.8-71.8-126.2-79.3-339.3-79.3-465.5 0z"/>
					<g id="&lt;Group&gt;">
						<path id="&lt;Path&gt;" class="s1" d="m687.6 800.9c-3 1.7-7.9 1.6-11.1-0.2l-23.7-13.7c-3.2-1.8-3.3-4.7-0.4-6.4 3-1.7 7.9-1.5 11.1 0.3l23.7 13.6c3.2 1.9 3.3 4.7 0.4 6.4z"/>
						<path id="&lt;Path&gt;" class="s1" d="m687.6 591.3c-3-1.7-7.9-1.6-11.1 0.3l-23.7 13.6c-3.2 1.8-3.3 4.7-0.4 6.4 3 1.7 7.9 1.6 11.1-0.3l23.7-13.6c3.2-1.9 3.3-4.7 0.4-6.4z"/>
					</g>
					<g id="&lt;Group&gt;">
						<path id="&lt;Path&gt;" class="s1" d="m311.3 800.9c2.9 1.7 7.9 1.6 11-0.2l23.8-13.7c3.1-1.8 3.3-4.7 0.3-6.4-2.9-1.7-7.9-1.5-11 0.3l-23.8 13.6c-3.1 1.9-3.3 4.7-0.3 6.4z"/>
						<path id="&lt;Path&gt;" class="s1" d="m311.3 591.3c2.9-1.7 7.9-1.6 11 0.3l23.8 13.6c3.1 1.8 3.3 4.7 0.3 6.4-2.9 1.7-7.9 1.6-11-0.3l-23.8-13.6c-3.1-1.9-3.3-4.7-0.3-6.4z"/>
					</g>
				</g>
			</g>
			<path id="&lt;Path&gt;" class="s6" d="m635.7 659.1c0 0-124.3 0.4-141.4 1.9 0 0 1.8 11.8 0 12l13.5 18.1 127.9-20.1z"/>
			<path id="&lt;Path&gt;" class="s7" d="m507.8 679.2l127.9-20.1c0 0-124.3 0.4-141.4 1.9z"/>
			<g id="&lt;Group&gt;">
				<path id="&lt;Path&gt;" class="s7" d="m635.7 752.6c0 0-93.5-68.3-114.6-85-1.1-1-2.3-2-3.9-2.8-9.5-5.5-24.9-5.5-34.4 0-4.8 2.7-7.2 6.3-7.2 9.9 0 1.9 0 8.9 0 10.7 0 3.6 2.3 7.3 7.2 10.1 23 15.1 142.8 72.4 142.8 72.4l10.1-4.5z"/>
				<path id="&lt;Path&gt;" class="s8" d="m517.2 664.8c-9.5-5.5-24.9-5.5-34.4 0-9.6 5.5-9.6 14.4 0 19.9 23 15.1 142.8 72.4 142.8 72.4l10.1-4.5c0 0-108.9-82.3-118.5-87.8z"/>
				<g id="&lt;Group&gt;">
					<path id="&lt;Path&gt;" class="s6" d="m507.8 670.2c-4.3-2.5-11.3-2.5-15.6 0-4.3 2.5-4.3 6.5 0 9 4.3 2.5 11.3 2.5 15.6 0 4.3-2.5 4.3-6.5 0-9z"/>
				</g>
			</g>
			<g id="&lt;Group&gt;">
				<path id="&lt;Path&gt;" class="s7" d="m565.9 583.9l-1.8-1.4 16.7-22.3 1.9 1.4z"/>
			</g>
			<g id="&lt;Group&gt;">
				<path id="&lt;Path&gt;" class="s7" d="m432.7 583.9l-16.8-22.3 1.9-1.4 16.7 22.3z"/>
			</g>
			<g id="&lt;Group&gt;">
				<path id="&lt;Path&gt;" class="s7" d="m580.8 830.8l-16.7-22.4 1.8-1.4 16.8 22.4z"/>
			</g>
			<g id="&lt;Group&gt;">
				<path id="&lt;Path&gt;" class="s7" d="m417.8 830.8l-1.9-1.4 16.8-22.4 1.8 1.4z"/>
			</g>
			<g id="&lt;Group&gt;">
				<path id="&lt;Path&gt;" class="s7" d="m719 647.5l-0.4-2.3 36.6-7.6 0.5 2.3z"/>
			</g>
			<g id="&lt;Group&gt;">
				<path id="&lt;Path&gt;" class="s7" d="m755.2 754.6l-36.6-7.6 0.4-2.3 36.7 7.6z"/>
			</g>
			<g id="&lt;Group&gt;">
				<path id="&lt;Path&gt;" class="s7" d="m279.5 647.5l-36.6-7.6 0.4-2.3 36.7 7.6z"/>
			</g>
			<g id="&lt;Group&gt;">
				<path id="&lt;Path&gt;" class="s7" d="m243.3 754.6l-0.4-2.3 36.6-7.6 0.5 2.3z"/>
			</g>
		</g>
	</g>
	<g id="Character">
		<path id="Shadow 6 " class="s9" d="m411.1 683.7c20.6 7.2 40.3 17 58.6 29 20.5 13.4 39.3 29.7 61.2 40.8 28.4 14.5 61 19.7 92.9 18.1 18-0.8 37.6-4.8 49.1-18.7 3-3.6 5.3-7.9 5.3-12.5 0.1-6.8-4.7-12.6-9.6-17.3-26.3-24.9-63-35.1-98.4-43-35.3-8-56.6-18-91.3-36-14.9-7.7-29.6-16-44.5-23.2q-0.2-0.1-0.4-0.2c-7.6-3.7-14.8-7.7-22.8-10.6-12.8-4.5-25.9-8.5-39.4-10-13.4-1.5-27.4-0.5-40 4.8-3.2 1.3-6.4 3.1-8.4 6-1.6 2.5-2.1 5.5-2 8.5 0.2 6 2.7 11.8 6.3 16.6 3.5 4.9 8.1 8.9 12.8 12.7 20.7 16.2 46 26.3 70.6 35z"/>
		<g id="Character 1 ">
			<g id="Bottom">
				<g id="&lt;Group&gt;">
					<path id="&lt;Path&gt;" class="s10" d="m562.7 352.7l-74.3 4.2c0 0-5.7 24.2-7.8 42.5-2.1 18.4 8.4 36.4 8.4 36.4l4.6 31.3c-35.1 9.8-48.5 30.1-65.5 49.3-12.3 13.9-21.3 21.5-31 29.3-9.3 7.6-16.9 12.4-0.9 26.1 8.7 7.4 12.9 7.9 20.5 2.2 11.9-8.7 60.8-35.8 93.9-53.7 25.1-11.9 29.1-12.5 37.3-36.4 16.9-49.3 17.3-112.7 14.8-131.2z"/>
					<path id="&lt;Path&gt;" class="s6" d="m487.6 436.4c0 0-9.5-15.7-9.1-30.4 0.3-14.6 7.7-49.1 7.7-49.1l76.5-4.2c2.7 17.2 1.4 60.5-2 81.8-5.4 34.8-10.9 50.7-17.1 62.9-6.2 12.2-7.3 11.6-38.3 28.3-29.7 16.1-59.1 31.6-59.1 31.6 0 0-10.8 0.4-18.9-12.8-8.2-13.2-4.9-21.7-4.9-21.7 0 0 18.8-24.8 31.8-36.5 13-11.6 38-21 38-21z"/>
					<g id="&lt;Group&gt;">
						<path id="&lt;Path&gt;" class="s6" d="m371.2 559.6c-2.3 2.1-4.1 3.1-4.6 7.5-0.6 4.3 0.8 9.9 1.4 14.3 0.6 4.4-0.4 9.1-2.6 12.8-2.2 3.6-7.8 11.7-2.8 26.1 4.9 14.5 14.4 20.9 19 23.8 4.7 3 9 3.6 12.6 0.3 3.7-3.3-23-84.8-23-84.8z"/>
						<path id="&lt;Path&gt;" class="s7" d="m395.3 551.8c-0.2-2.5 0.2-4 0.7-5l1.1-1.1c-1.1-1.2-4.9 1.8-11.1 4-5.4 1.9-9.5 4.4-14.8 9.9-3.3 6.9 2 15.9 0.3 24.4-1.7 8.5-11.4 16.4-4.7 34.2 6.1 16.1 21 25 27.4 26.2 0 0 10.3-5.3 8.2-13-1.4-5.5-2.6-10.4-0.1-22.2 1.4-6.5 7.9-22.9 9.7-26 1.9-3.2 8.1-8.8 5.7-9.3-6-1.3-8.9-3.8-18-14.3-2.6-3-7.3 4.7-7.3 4.7 0 0 0.1-2.4 1.8-5.7 1.7-3.5 1.2-4.3 1.1-6.8z"/>
						<path id="&lt;Path&gt;" class="s11" d="m365.3 613.3c2.7-3 9.6-7 21.4-3.6 7.2 2.1 14.1 9.9 15.1 13.4 0.9 3.5 3.4 11.5-0.4 15.7-3.7 4.1-7.2 5.6-7.2 5.6 0 0-11.3-0.7-20.9-14.3-6.4-9.1-8-16.8-8-16.8z"/>
						<path id="&lt;Path&gt;" class="s11" d="m403.1 614.2c0.4-4.6-2.6-9-5.9-11.9-1.8-1.6-3.9-2.8-6.1-3.8-2.1-0.9-4.7-2-6.9-1.1-0.5 0.1-1 0.9-0.5 1.3 1.6 1.6 4.2 2.1 6.2 3 1.8 0.8 3.6 1.9 5.2 3.2 1.5 1.2 2.7 2.6 3.8 4.2 1.2 1.9 1.8 3.9 2.4 6 0.4 1.2 1.7-0.2 1.8-0.9z"/>
						<path id="&lt;Path&gt;" class="s11" d="m405.6 602.1c0-4.7-3.3-8.8-6.9-11.4-2-1.5-4.1-2.5-6.4-3.3-2.1-0.7-4.8-1.6-7-0.5-0.4 0.2-0.8 1-0.4 1.4 1.8 1.4 4.4 1.7 6.5 2.4 1.9 0.7 3.8 1.6 5.5 2.8 1.6 1 2.9 2.4 4.1 3.9 1.4 1.7 2.1 3.6 2.9 5.7 0.5 1.2 1.7-0.4 1.7-1z"/>
						<path id="&lt;Path&gt;" class="s11" d="m408.8 593.5c0-4.7-3.2-8.9-6.8-11.6-1.9-1.4-4-2.5-6.3-3.3-2.1-0.8-4.8-1.7-6.9-0.7-0.5 0.2-0.9 1.1-0.5 1.4 1.8 1.5 4.4 1.8 6.4 2.6 2 0.7 3.8 1.6 5.5 2.8 1.6 1.1 2.9 2.5 4 4 1.4 1.8 2.1 3.7 2.9 5.8 0.4 1.1 1.7-0.4 1.7-1z"/>
					</g>
				</g>
				<g id="&lt;Group&gt;">
					<path id="&lt;Path&gt;" class="s10" d="m599.6 700.3c-2.3-2.8-4.3-6-6.1-9.1-7.9-13.2-13.8-20-16.4-41.5-1.1-9.4-6.7-53.7-8.7-95.7-0.9-18.3-2.5-33.9-4.3-41.7-0.3-1.4-18-65-41.2-108.6 0 0 14.2-5.9 22.3-18 8.2-12.2 14.9-28.4 14.9-28.4l-91.6-16.5c-6.3 7.5-12 14.6-16.7 26.3-5.2 13-9.2 32.4-4.3 50.8 4.4 16.7 14.6 34.7 21.9 46 13.3 20.8 35.9 52.2 43.5 63.2 0 0-0.6 22.9 9.3 54.4 4.6 14.7 16.2 45.3 19.8 65.2 0.5 2.8 0.8 4.4 1 6.4l0.1 1.3c0.1 3.4-0.4 7.5-2.7 12.1-4.1 8.2-1.7 15.5 5.4 19.1 4.1 2.1 8 4.3 10.6 8.1 2.9 4.1 3.7 9.3 5.8 13.9 2.2 4.9 5.9 9.1 10.5 11.9 1.9 1.2 3.9 2.7 6.1 2.8 3.4 0.1 6.7-0.3 10.1 0 2.6 0.2 5.3 0.6 7.9 0 2.4-0.6 4.6-2.2 7.1-2.6 2.4-0.3 4.3-0.1 6.6-0.8 1.9-0.5 2.6-1 3.4-2.7 1.2-2.2-0.1-5-0.6-5.6-1.6-1.6-2.7-2-5.3-3.5-3.2-1.9-6.1-4-8.4-6.8z"/>
					<g id="&lt;Group&gt;">
						<path id="&lt;Path&gt;" class="s6" d="m537 681.4c0 3.1-0.5 5.1 2.4 8.4 2.9 3.3 8 5.9 11.6 8.5 3.7 2.5 6.6 6.4 7.8 10.4 1.3 4.1 3.6 13.6 17.6 19.6 14.1 5.9 25.2 3.1 30.5 1.6 5.3-1.5 8.6-4.2 8.6-9.2 0-4.9-78.5-39.3-78.5-39.3z"/>
						<path id="&lt;Path&gt;" class="s7" d="m546.6 658.6c-2.5-1.4-3.1-3.1-3.5-4.2l-0.1-1.3c-1.7-0.1-1.1 4.6-3.6 10.6-2.2 5.3-3 10-2.4 17.7 2.9 7 13.1 9.1 18.3 16 5.2 6.9 4.7 19.4 22.4 26.3 16 6.2 32.6 1 37.8-3 0 0 2.9-11.1-4.3-14.8-5-2.6-9.4-4.9-16.6-14.7-3.9-5.3-11.8-21.1-12.9-24.6-1.1-3.5-0.8-10-3.2-10.4-2.3-0.4-18.9 2.7-22.6 3.9-3.7 1.2-1.4 8.6-1.4 8.6 0 0-1.7-1.6-3-5.2-1.4-3.5-2.7-3.7-4.9-4.9z"/>
						<path id="&lt;Path&gt;" class="s11" d="m570.5 720c0.9-8 5.5-14.3 15.4-18.3 7-2.8 15.5-2.5 18.7-0.8 3.3 1.6 10.9 5.1 11.5 10.7 0.6 5.6-0.6 9.1-0.6 9.1 0 0-7.9 7.3-24.6 6.1-14.4-1.1-20.4-6.8-20.4-6.8z"/>
						<path id="&lt;Path&gt;" class="s11" d="m598.9 694c-3.2-3.4-8.5-4.1-12.9-3.6-2.3 0.3-4.6 1.1-6.8 2.1-2.1 0.9-4.6 2.1-5.5 4.3-0.1 0.5 0.1 1.4 0.7 1.4 2.3-0.2 4.3-1.8 6.4-2.7 1.8-0.8 3.8-1.5 5.9-1.8 1.8-0.3 3.7-0.3 5.6 0 2.2 0.4 4.1 1.2 6.1 2.2 1.1 0.5 1-1.4 0.5-1.9z"/>
						<path id="&lt;Path&gt;" class="s11" d="m591.5 684c-3.5-3.1-8.8-3.4-13.1-2.4-2.3 0.5-4.6 1.4-6.7 2.6-1.9 1.1-4.4 2.5-5 4.8-0.1 0.5 0.2 1.3 0.8 1.3 2.2-0.4 4.1-2.2 6.1-3.2 1.8-1 3.7-1.8 5.7-2.3 1.8-0.5 3.7-0.6 5.6-0.5 2.3 0.2 4.2 0.9 6.3 1.6 1.2 0.5 0.8-1.4 0.3-1.9z"/>
						<path id="&lt;Path&gt;" class="s11" d="m587.2 675.9c-3.4-3.1-8.7-3.5-13.1-2.7-2.3 0.5-4.6 1.4-6.7 2.5-2 1.1-4.4 2.5-5.1 4.8-0.1 0.4 0.2 1.3 0.8 1.2 2.2-0.3 4.2-2 6.1-3 1.8-1 3.8-1.8 5.8-2.2 1.8-0.5 3.7-0.5 5.6-0.4 2.3 0.2 4.1 0.9 6.2 1.7 1.2 0.5 0.9-1.4 0.4-1.9z"/>
					</g>
					<g id="&lt;Group&gt;">
						<path id="&lt;Path&gt;" class="s7" d="m511.5 527.7c-1.1 26.5 11.6 59.3 17.3 75.9 3 8.8 10.2 30.8 10.2 30.8 0 0 2.4 4.8 17.2 3.3 14.7-1.4 19.3-7 19.3-7 0 0-5.2-60.4-6.7-88.6-1.4-23.9-4.2-31.7-6.8-41-2.6-11.9-16.4-49.9-25.9-72.5l-8.4-21.9c0 0 31.5-15.9 32.4-49.4l-91.3-18.2c-5.9 5.3-14.1 13-20.2 26.6-5.5 12-7.4 27.2-5.4 42.4 2 15.5 7.8 25.8 13 36.3 4.8 9.8 49.8 75 55.3 83.3z"/>
					</g>
					<path id="&lt;Path&gt;" class="s6" d="m521.2 436.4c7.4 13.1 14.3 26.6 20 40.6 2.9 7 5.4 14.2 7.8 21.4 1.1 3.6 2.2 7.2 3.2 10.9 0.5 1.8 1 3.7 1.4 5.5 0.4 1.9 0.8 3.8 1.1 5.6 2.6 15 4.2 30 5.6 45 1.4 15 2.3 30.1 2.8 45.1-2.2-14.9-4.2-29.8-6.1-44.7l-3-22.4c-1-7.4-2.1-14.9-3.4-22.2-0.4-1.8-0.7-3.7-1.1-5.5-0.4-1.8-0.9-3.6-1.3-5.4-0.9-3.6-2-7.2-3-10.8-2.1-7.1-4.6-14.2-7.1-21.3-5.1-14.1-10.9-27.9-16.9-41.8z"/>
				</g>
			</g>
			<g id="Bag">
				<path id="&lt;Path&gt;" class="s6" d="m350.4 301.6c23.1-13.4 63.2-11.7 92-25.3 28.8-13.5 39.2-38.5 39.2-38.5l13.9-1c-2 12.9-19 43.8-50.3 53.9-31.3 10-65.1 10.3-76.8 17z"/>
				<g id="&lt;Group&gt;">
					<path id="&lt;Path&gt;" class="s6" d="m405.5 378.7c-16.6 25.2-24.9 37.5-31.3 41.7-10.8 7.2-41.3 10.3-44.1 9.9-1.7-0.2 57.4-53.8 57.4-53.8z"/>
					<path id="&lt;Path&gt;" class="s7" d="m387.5 376.5l-38.5-74.1c0 0-60 26.7-67.1 32.4-7.2 5.8-2.4 25.7 8.5 51.6 10.9 25.9 34.4 47.5 42.8 43.5 15.7-7.6 54.3-53.4 54.3-53.4z"/>
					<path id="&lt;Path&gt;" class="s8" d="m405.5 378.7c0 0-31.5-60.7-37.1-71-10.5-5-17.3-9.2-34.2-3.5-22.5 7.5-29.9 6.2-36.3 5.1-6.5-1 17 59.7 28.8 75.9 40.2 12.7 60.8-8.7 60.8-8.7z"/>
					<path id="&lt;Path&gt;" class="s9" d="m334.2 304.2c-22.5 7.5-29.9 6.2-36.3 5.1-6.5-1 17 59.7 28.8 75.9 40.2 12.7 60.8-8.7 60.8-8.7l-37.1-74.9c-4.4-0.3-9.5 0.4-16.2 2.6z"/>
					<path id="&lt;Path&gt;" class="s1" d="m315.2 341.3c-2 1-2.6 1.9-0.4 7.5 2.8 6.8 5 11.2 6 11.8 1.5 1 3.7-0.3 5-1.1 1.7-1.1 0.5-2.3-2.8-10.9-1.2-3-3-7.1-3.3-7.9-0.6-1.4-2.4-0.4-4.5 0.6z"/>
				</g>
			</g>
			<g id="Top 1 ">
				<g id="&lt;Group&gt;">
					<path id="&lt;Path&gt;" class="s6" d="m623.2 318.1c-1.3-0.9-4.2 1.2-8 4.1-3.3 2.4-3.2 6.1-3.2 6.1 0 0 3.3 0 6.5-2.9 3.3-2.9 4.7-7.3 4.7-7.3z"/>
					<path id="&lt;Path&gt;" class="s12" d="m628.4 345.9c-1.3-0.6-1.7-1.2 0.3-2.8 2-1.5 8.8-5.4 8.8-5.4l1.3 2.8c0 0-8 6.1-10.4 5.4z"/>
					<g id="&lt;Group&gt;">
						<path id="&lt;Path&gt;" class="s10" d="m551 236.8c10.5-0.4 12.1 2.1 27.4 10 10.1 5.2 74.3 42.5 82.7 48.3 6.7 4.6-25.3 24.3-25.9 24.2-0.7-0.1-71.5-30.5-71.5-30.5z"/>
						<g id="&lt;Group&gt;">
							<path id="&lt;Path&gt;" class="s10" d="m627.7 332.6c-2-2.1-6.6-7.4-10.1-6.4-5.4 1.7-8.1 3.5-16.2 6.3-5.9 2.1-13.1 4.9-14.8 6.5-4.2 4.1-4.1 15.6-3.1 20.6 0.9 4.8 5.8 3.4 5.8 3.4 0.3 1.1 1.3 3.3 5.4 2.9 0.2 1.5 2.2 3.6 5.8 3.2 0.3 1.7 3.4 2.6 5.6 1.8 3.1-1 6.6-4.9 8.6-6.3 1.9-1.2 3-1.9 3.1-2.9 0.2-1.3-1.1-2.8-3.6-2.9 2.9-0.6 5.9-1.7 8-4 1.8-1.8 3.4-4.2 4.6-6.4 1.3-2.4 2-3.2 3.9-5 3.1-2.8-0.5-7.8-2.5-10.2q-0.3-0.3-0.5-0.6z"/>
							<path id="&lt;Path&gt;" class="s13" d="m614.2 358.8c-0.9 0.4-1.8 0.8-2.6 1.4-0.4 0.3-0.7 0.6-1 0.9-0.4 0.4-0.6 0.8-1 1.2l-0.2 0.2-0.2-0.2c-1.3-0.8-2.9-0.9-4.5-1.1 1.6-0.4 3.3-0.3 4.8 0.6h-0.4c0.6-0.7 1.3-1.5 2.2-2 0.9-0.5 1.9-0.8 2.9-1z"/>
							<path id="&lt;Path&gt;" class="s13" d="m607.9 366.2c0.3-0.7 0.6-1.4 0.8-2.1 0.3-0.6 0.4-1.3 0.7-2.1 0.3 0.8 0.2 1.6-0.1 2.4-0.3 0.7-0.7 1.4-1.4 1.8z"/>
							<path id="&lt;Path&gt;" class="s13" d="m600.5 369.1c-0.8-1.9-0.9-4.1-0.9-6.1 0.1-2.1 0.3-4.2 1.2-6.1q-0.5 3-0.6 6.1-0.1 3 0.3 6.1z"/>
							<path id="&lt;Path&gt;" class="s13" d="m594.7 365.9c-0.6-2.4-0.9-4.9-0.9-7.4 0-2.5 0.2-5 1.1-7.4-0.3 2.5-0.5 4.9-0.4 7.4-0.1 2.5 0.1 4.9 0.2 7.4z"/>
							<path id="&lt;Path&gt;" class="s13" d="m589.3 363c-1.8-4.8-1.7-10.4 0.2-15.1-0.4 2.5-0.8 5-0.8 7.5-0.1 2.6 0.2 5.1 0.6 7.6z"/>
							<path id="&lt;Path&gt;" class="s13" d="m590.3 344c0-0.6 0.2-1.2 0.5-1.8 0.3-0.5 0.8-1 1.3-1.3 1.1-0.7 2.3-1 3.5-1q-0.8 0.4-1.6 0.7c-0.6 0.2-1.1 0.5-1.6 0.8-1 0.5-1.6 1.5-2.1 2.6z"/>
							<path id="&lt;Path&gt;" class="s13" d="m595.9 346.9c0-0.6 0.1-1.3 0.5-1.8 0.3-0.6 0.7-1 1.3-1.4 1.1-0.6 2.3-0.9 3.5-0.9q-0.8 0.3-1.7 0.7c-0.5 0.2-1 0.4-1.5 0.7-1 0.6-1.6 1.6-2.1 2.7z"/>
							<path id="&lt;Path&gt;" class="s13" d="m602.6 350.8c0-0.6 0.1-1.2 0.5-1.8 0.3-0.5 0.7-1 1.3-1.4 1.1-0.6 2.3-0.9 3.5-0.9q-0.8 0.3-1.7 0.7c-0.5 0.2-1 0.4-1.5 0.8-1 0.5-1.6 1.5-2.1 2.6z"/>
						</g>
						<path id="&lt;Path&gt;" class="s10" d="m627.7 346.8c4.8-6.1 31.5-16.4 38-24.5 4.8-6.1 7.5-11 7-14.9-0.5-4.2-4.8-7.6-12.8-13.2-4.9 1.5-13.1 5.3-21.6 11.9-9.5 7.3-19.7 20.1-27.7 22.8z"/>
						<path id="&lt;Path&gt;" class="s13" d="m624.7 311.2c-0.8 0.7-2.1 1.8-2.9 2.5 2 0.8 3.9 1.6 5.5 2.3 1.1-1.2 2.7-2.9 4.2-4.5 7-7.6 14.3-12.4 23.2-12.7-12.6-3.4-24.4 7.2-30 12.4z"/>
					</g>
					<g id="&lt;Group&gt;">
						<g id="&lt;Group&gt;">
							<path id="&lt;Path&gt;" class="s7" d="m635.4 321.1l-7.7-3.5c-1.5-0.7-3.9-0.5-5.3 0.5l-6.8 4.9c-0.7 0.5-1 1-1 1.6 0 0.4 0.2 2 0.2 2.4 0.1 0.5 0.5 1.1 1.3 1.4l7.6 3.5c1.6 0.7 4 0.5 5.4-0.5l6.8-4.9c0.7-0.5 1-1 0.9-1.6 0-0.4-0.1-2-0.2-2.4 0-0.6-0.5-1.1-1.2-1.4z"/>
							<path id="&lt;Path&gt;" class="s8" d="m615.6 323l6.8-4.9c1.4-1 3.8-1.2 5.3-0.5l7.7 3.5c1.5 0.7 1.7 2.1 0.3 3.1l-6.9 4.8c-1.4 1-3.8 1.2-5.3 0.5l-7.6-3.5c-1.6-0.7-1.7-2.1-0.3-3z"/>
							<path id="&lt;Path&gt;" class="s1" d="m626.1 328.8c-0.8 0.1-1.6 0-2.2-0.3l-7.2-3.3c-0.4-0.2-0.7-0.5-0.7-0.7-0.1-0.3 0.2-0.6 0.6-0.9l6.4-4.6c0.5-0.4 1.3-0.6 2.1-0.7 0.8-0.1 1.6 0 2.2 0.3l7.2 3.3c0.4 0.2 0.7 0.5 0.8 0.7 0 0.3-0.2 0.6-0.7 0.9l-6.4 4.6c-0.5 0.4-1.3 0.6-2.1 0.7z"/>
							<path id="&lt;Path&gt;" class="s4" d="m623.9 328.5c0.6 0.3 1.4 0.4 2.2 0.3 0.8-0.1 1.6-0.3 2.1-0.7l6.4-4.6q0.4-0.2 0.5-0.5-0.2-0.1-0.5-0.3l-7.2-3.3c-0.6-0.2-1.4-0.3-2.2-0.3-0.8 0.1-1.6 0.4-2.1 0.7l-6.4 4.6q-0.3 0.3-0.5 0.5 0.2 0.2 0.5 0.3z"/>
							<g id="&lt;Group&gt;">
								<path id="&lt;Path&gt;" class="s8" d="m622.5 330.4q-0.1 0-0.1 0l-5.4-2.5c-0.2-0.1-0.2-0.2-0.2-0.4 0.1-0.1 0.3-0.2 0.4-0.1l5.4 2.5c0.1 0 0.2 0.2 0.1 0.3q-0.1 0.2-0.2 0.2z"/>
							</g>
						</g>
					</g>
					<path id="&lt;Path&gt;" class="s6" d="m629.3 329.9c1.1 0.5 3.6 2.4 4.1 7.2 0.6 4.9-2.2 8.5-5 8.8 0.9 0.7 3.3 0 6.3-1.8q1.5-0.9 2.5-1.5c2-1.2 3.3-3.4 3.4-5.7q0.1-1-0.1-2.2c-0.5-3.8-1.4-6.6-4.8-9.3z"/>
				</g>
				<path id="&lt;Path&gt;" class="s14" d="m539.6 235.3c0 0 7.2 0 11.4 1.5 4.1 1.5 20.1 14.5 30.3 39.1 10.2 24.7-14.9 39.3-14.9 39.3 0 0-3.4 27.2-3.4 32.9-0.1 5.7 3.6 14.8-0.1 21.1-4.6 7.6-19.2 16.6-54.2 11-26.2-4.2-48.7-21.7-51.2-27.1-2.5-5.5-0.4-6.6 3.1-13.2 5.8-10.7 7.8-14.5 6.8-34.6-0.6-13.5 1-27.6 3-36.3 3-13.9 7.7-24.5 11.2-31.2 20.3-1 58-2.5 58-2.5z"/>
				<path id="&lt;Path&gt;" class="s10" d="m481.6 237.8c-15.8 1.2-23.6 5.8-36.5 23.8-17.7 24.7-36.4 52.3-39.6 62.7l42.6 3.1 28.1-35.6c0 0 15.2-29.5 5.4-54z"/>
				<g id="&lt;Group&gt;">
					<path id="&lt;Path&gt;" class="s7" d="m481.6 237.8l13.9-1c6.5 16.3 0.4 53.9-20.1 76.7-19 21.1-47 49.5-69.9 65.2l-18-2.2c0 0 20.6-14 53.9-47.3 38.6-38.6 43.6-60.8 40.2-91.4z"/>
					<g id="&lt;Group&gt;">
						<g id="&lt;Group&gt;">
							<path id="&lt;Path&gt;" class="s1" d="m510.4 415.3l-71.9-34.1 18.8-105.1 71.9 34.1z"/>
							<path id="&lt;Path&gt;" class="s15" d="m510.4 415.3l-71.9-34.1 18.8-105.1 71.9 34.1z"/>
							<path id="&lt;Path&gt;" class="s5" d="m508 409.7l-68.7-32.6 17.5-98 68.7 32.6z"/>
							<path id="&lt;Path&gt;" class="s1" d="m507.8 378.4l11.9-66.2-62.4-36.1-18.8 105.2 66.1 38.2c1.4 0.8 2.8 0.1 3.1-1.4l6-33.6c0.3-1.4-0.5-3-1.7-3.7z"/>
						</g>
						<path id="&lt;Path&gt;" class="s10" d="m405.5 324.3c-3.2 10.4-2.1 12.6 7.5 21.9 9.7 9.3 41 28.4 62.8 38.1 11.3 5 21.6 3.4 28.1 2.9 8.9-0.8 16.3-13 17.1-18 4.6-6.4 2.6-9.9-0.2-11.6l-4 5.6c0 0-5 1.8-11.1 0-6.2-1.8 1.7-7.3 4.1-11.3 2.4-4 3-6.5 0-9.7-1.9-0.6-3.4 2-11.5 6.2-6.1 3.3-10.6 8.5-17.6 5.3-5.5-2.5-32.6-26.3-32.6-26.3l2.1-11.4z"/>
					</g>
				</g>
				<g id="&lt;Group&gt;">
					<path id="&lt;Path&gt;" class="s6" d="m516.3 213.5c0 0-5.6-13.7-8.4-22.6-2.8-8.9-10-38.1 11.1-45 2.6-8.6 13.3-14.9 31-14.7 17.7 0.3 30.7 8.1 38.3 17.5 9.6 11.9 12.2 37.5-6.1 47.1z"/>
					<path id="&lt;Path&gt;" class="s6" d="m477.4 145.1c-4.2 5.1-5.9 11.1-10.9 18.1-4.3 5.9-10.3 9-17.6 8.8-6.8-0.1-14.5-3.8-18.3-10-0.3 9.9 4.4 15.5 11 18.3-9.4-0.5-18.3-5.6-23.5-13.5-2.1-3.1-3.6-6.6-5.6-9.9-6.7-11.6-13.4-15-27.2-12.4 8.7 1 13.5 6.1 16.4 14.3 2.9 8.2 3.9 20.2 8.2 27.7 4.2 7.2 9.8 11.8 17.4 15.1 7.6 3.4 17.1 4.9 25.3 3.7-5.6 4-12.6 4.2-19.6 3.9 7.3 6.9 23.6 7.5 34.4 3.1 13-5.3 20-19.5 24-32.9 1.4-5.1 2.7-10.2 5-15 2.3-4.7 5.9-9 10.8-11 5.8-2.4 9.4 0 14.3 2.3 2.8-3.3 6.9-7.7 5.8-11.2-1.9-5.9-12.5-11.8-17.6-12.5-12.4-1.6-24.7 3.5-32.3 13.1z"/>
					<path id="&lt;Path&gt;" class="s10" d="m586.6 164.3c0 0 4.3 7.5-0.7 24.7-0.8 2.9 0 8.8-1.8 16.5-4.1 17.4-11.7 24.7-21.1 25.9-4.2 0.6-11-1.1-14.6-2.5l-2.9 9.8c4.7 16 4.8 32.2 2.2 45.1-12.1-19.9-24.2-34.3-37.1-48.2l7.8-30.3c0 0-5.8 2.8-10.4-4.5-5.1-8.1-2.5-18.2 3.7-20.6 9.2-3.5 13.1 3.8 14 7.9 0.9 4.1 8 3.1 6.7-8.9 4.2 0 12.7-11.3 14.1-20.4 12.5 8.9 29.9 11.8 40.1 5.5z"/>
					<g id="&lt;Group&gt;">
						<path id="&lt;Path&gt;" class="s6" d="m547.2 175.9l8.3-2.5c0.8 2.3-0.4 4.7-2.7 5.4-2.3 0.6-4.8-0.6-5.6-2.9z"/>
						<path id="&lt;Path&gt;" class="s6" d="m585.1 183.7l-6.7-5.5c-1.6 1.8-1.4 4.5 0.4 6 1.9 1.5 4.7 1.3 6.3-0.5z"/>
						<path id="&lt;Path&gt;" class="s13" d="m566 186.2l-3.1 19.2 11.7-1z"/>
						<path id="&lt;Path&gt;" class="s13" d="m548.4 228.9c-4.7-1.8-16.1-7.9-21.1-13.1-2.7-2.9-4.3-8.2-4.6-10.5 0 0-1.1 8.8 2.7 13.6 6.1 7.7 21.5 15.2 21.5 15.2z"/>
						<path id="&lt;Path&gt;" class="s6" d="m574.6 190.3c-0.2 1.8 1.1 3.5 2.9 3.8 1.8 0.3 3.4-0.9 3.7-2.7 0.2-1.8-1.1-3.5-2.9-3.8-1.8-0.3-3.4 1-3.7 2.7z"/>
						<path id="&lt;Path&gt;" class="s6" d="m550.1 186.4c-0.5 1.8 0.5 3.6 2.3 4.2 1.7 0.5 3.5-0.4 4-2.2 0.5-1.7-0.5-3.5-2.2-4.1-1.7-0.6-3.6 0.4-4.1 2.1z"/>
						<path id="&lt;Path&gt;" class="s16" d="m551.1 207.6c-0.4 1.3 0.4 2.7 1.6 3.1 1.3 0.4 2.7-0.3 3-1.6 0.4-1.3-0.3-2.6-1.6-3-1.3-0.5-2.7 0.2-3 1.5z"/>
					</g>
				</g>
			</g>
		</g>
	</g>
	<g id="Symbols">
		<g id="Exclamation Sign">
			<path id="&lt;Compound Path&gt;" class="s1" d="m626.1 182.2l5.2 2.9c0.9 0.5 2.1 0.3 2.6-0.5l18.9-28.6c0.5-0.8 0.2-1.9-0.8-2.4l-9.7-5.5c-0.9-0.5-2-0.3-2.4 0.5l-14.8 31.2c-0.4 0.8 0.1 1.9 1 2.4zm0.4 5.4c-3.3-1.9-6.8-0.3-8.2 2.3-1.9 3.3-0.3 6.7 2.3 8.2 3.2 1.8 6.7 0.2 8.2-2.3 1.8-3.3 0.2-6.8-2.3-8.2z"/>
			<g id="&lt;Group&gt;">
				<path id="&lt;Compound Path&gt;" class="s1" d="m641 205.1l3.5 3.3c0.6 0.6 1.6 0.7 2.1 0.2l20.6-18.8c0.6-0.5 0.5-1.4-0.1-2l-6.5-6.3c-0.7-0.6-1.6-0.6-2 0l-17.9 21.5c-0.5 0.6-0.3 1.5 0.3 2.1zm-0.8 4.3c-2.2-2.1-5.3-1.5-6.9 0.2-2.1 2.2-1.6 5.2 0.1 6.9 2.3 2.1 5.3 1.5 7-0.2 2.1-2.2 1.5-5.2-0.2-6.9z"/>
				<path id="&lt;Compound Path&gt;" class="s17" d="m641 205.1l3.5 3.3c0.6 0.6 1.6 0.7 2.1 0.2l20.6-18.8c0.6-0.5 0.5-1.4-0.1-2l-6.5-6.3c-0.7-0.6-1.6-0.6-2 0l-17.9 21.5c-0.5 0.6-0.3 1.5 0.3 2.1zm-0.8 4.3c-2.2-2.1-5.3-1.5-6.9 0.2-2.1 2.2-1.6 5.2 0.1 6.9 2.3 2.1 5.3 1.5 7-0.2 2.1-2.2 1.5-5.2-0.2-6.9z"/>
			</g>
		</g>
	</g>
</svg>