<svg version="1.2" xmlns="http://www.w3.org/2000/svg" viewBox="0 0 1229 771" width="1080" height="678">
	<title>3643905</title>
	<defs>
		<clipPath clipPathUnits="userSpaceOnUse" id="cp1">
			<path d="m719.66 641.95c16.28 0 29.53-13.24 29.53-29.53v-425.59c0-16.28-13.25-29.53-29.53-29.53h-209.32c-16.28 0-29.53 13.25-29.53 29.53v425.59c0 16.29 13.25 29.53 29.53 29.53z"/>
		</clipPath>
	</defs>
	<style>
		tspan { white-space:pre } 
		.s0 { fill: #caf5ff } 
		.s1 { fill: #a6edc3 } 
		.s2 { fill: none;stroke: #98e2b6;stroke-linecap: round;stroke-linejoin: round;stroke-width: 1.5 } 
		.s3 { fill: #b5f5d0 } 
		.s4 { fill: #f4ede3 } 
		.s5 { fill: none;stroke: #ffffff;stroke-miterlimit:10;stroke-width: 16.4 } 
		.s6 { fill: none;stroke: #ffffff;stroke-miterlimit:10;stroke-width: 9.4 } 
		.s7 { fill: #ffffff } 
		.s8 { fill: #f4ebe2 } 
		.s9 { fill: #eaded3 } 
		.s10 { fill: #2d287c } 
		.s11 { fill: none;stroke: #fc5475;stroke-linecap: round;stroke-linejoin: round;stroke-width: 4 } 
		.s12 { fill: none;stroke: #fc5475;stroke-linecap: round;stroke-linejoin: round;stroke-width: 4;stroke-dasharray: 14.44098,10.31498 } 
		.s13 { fill: none;stroke: #fc5475;stroke-linecap: round;stroke-linejoin: round;stroke-width: 4;stroke-dasharray: 13.08612,9.34724 } 
		.s14 { fill: none;stroke: #fc5475;stroke-linecap: round;stroke-linejoin: round;stroke-width: 4;stroke-dasharray: 12.23256,8.73754 } 
		.s15 { fill: #fc5475 } 
		.s16 { fill: #455875 } 
		.s17 { fill: none;stroke: #dadfe5;stroke-linecap: round;stroke-linejoin: round;stroke-width: 6 } 
		.s18 { fill: none;stroke: #dadfe5;stroke-linecap: round;stroke-linejoin: round;stroke-width: 6;stroke-dasharray: 61.71359999999999,25.071199999999997 } 
		.s19 { fill: none;stroke: #455875;stroke-linecap: round;stroke-miterlimit:10;stroke-width: 2.4 } 
		.s20 { fill: #5539b4 } 
		.s21 { fill: #3a2a87 } 
		.s22 { fill: #012851 } 
		.s23 { fill: #353535 } 
		.s24 { fill: none;stroke: #2d287c;stroke-miterlimit:10;stroke-width: 1.7 } 
		.s25 { fill: #fcc000 } 
		.s26 { fill: #fece00 } 
		.s27 { fill: #00b8f0 } 
		.s28 { fill: #ffd5b0 } 
		.s29 { fill: #0096d1 } 
		.s30 { fill: #ffb985 } 
		.s31 { fill: #3f49a5 } 
		.s32 { fill: #1b2072 } 
		.s33 { fill: #0f0c59 } 
		.s34 { fill: #15004d } 
		.s35 { fill: #406aff } 
		.s36 { fill: #ff5476 } 
		.s37 { fill: #d83d62 } 
		.s38 { fill: #0831ae } 
		.s39 { fill: #6ce3ff } 
		.s40 { fill: #eefaff } 
		.s41 { fill: #252ba2 } 
		.s42 { fill: #172577 } 
		.s43 { fill: #9fdef7 } 
		.s44 { fill: #7fd5ef } 
		.s45 { fill: #009aef } 
		.s46 { fill: #0092d3 } 
		.s47 { fill: none;stroke: #caf5ff;stroke-linecap: round;stroke-linejoin: round;stroke-width: 2 } 
		.s48 { fill: none;stroke: #caf5ff;stroke-linecap: round;stroke-linejoin: round;stroke-width: 4 } 
		.s49 { fill: #444444 } 
		.s50 { fill: #ffdd4d } 
		.s51 { fill: none;stroke: #f78a37;stroke-miterlimit:10;stroke-width: 1.1 } 
		.s52 { opacity: .4;mix-blend-mode: multiply;fill: #f9b234 } 
		.s53 { fill: #ccf5ff } 
		.s54 { fill: #a1e9ff } 
		.t55 { font-size: 8px;fill: #5539b4;font-weight: 700;font-family: "Montserrat-Bold", "Montserrat" } 
		.s56 { opacity: .5;fill: #d18619 } 
		.s57 { fill: #3e3e3e } 
		.s58 { fill: #d18619 } 
	</style>
	<g id="OBJECTS">
		<g id="&lt;Group&gt;">
			<g id="&lt;Group&gt;">
				<g id="&lt;Group&gt;" style="opacity: .4">
					<path id="&lt;Path&gt;" class="s0" d="m88 636.1c0 0-23.9-109.2 97.7-148.4 121.6-39.1 99-105.3 132.3-173.6 33.3-68.2 113.9-81 191-50.6 77 30.4 89 62.6 147.7 63.2 58.6 0.5 82.6-44.8 188-56.8 105.3-12 210.9 14.3 278.3 174.2 39.3 93.3 31.5 190.9 31.5 190.9"/>
				</g>
				<g id="&lt;Group&gt;">
					<path id="&lt;Path&gt;" class="s0" d="m691.8 118.5h295.9c0 0-72.4-66.2-86.2-30.6 0 0-41.8-43-77.5-49.3-39.1-6.9-31 33.6-31 33.6 0 0-39.4-39.1-82.3-37.7-42.9 1.5-18.9 84-18.9 84z"/>
				</g>
				<g id="&lt;Group&gt;" style="opacity: .3">
					<path id="&lt;Path&gt;" class="s0" d="m110.1 115.3h212.5c0 0-52-47.5-61.8-22 0 0-30.1-30.8-55.7-35.4-28.1-4.9-22.3 24.2-22.3 24.2 0 0-28.3-28.1-59.1-27.1-30.8 1.1-13.6 60.3-13.6 60.3z"/>
				</g>
				<g id="&lt;Group&gt;">
					<path id="&lt;Path&gt;" class="s0" d="m304.2 225.4h212.5c0 0-52-47.5-61.9-22 0 0-30-30.8-55.6-35.4-28.1-4.9-22.3 24.2-22.3 24.2 0 0-28.3-28.1-59.1-27.1-30.8 1-13.6 60.3-13.6 60.3z"/>
				</g>
				<g id="&lt;Group&gt;" style="opacity: .5">
					<path id="&lt;Path&gt;" class="s0" d="m981.8 218.8h212.6c0 0-52-47.5-61.9-22 0 0-30-30.9-55.7-35.4-28.1-5-22.3 24.2-22.3 24.2 0 0-28.3-28.1-59.1-27.1-30.8 1-13.6 60.3-13.6 60.3z"/>
				</g>
			</g>
			<g id="&lt;Group&gt;">
				<g id="&lt;Group&gt;">
					<path id="&lt;Path&gt;" class="s1" d="m772.1 582.8c0 0 1-30.5 10-38.8 9-8.2 16.7-6.5 23.6-12.2 6.9-5.8 7.4-18.8 14.9-22.8 7.5-4 12.3-2.2 16.8-7 4.5-4.7 12.7-11.5 17.2-5.5 4.5 6-4.2 17.4-6.5 25.8-2.2 8.5-14.2 12.2-22.5 21.7-8.2 9.5-4.7 31-24.2 37.5"/>
					<path id="&lt;Path&gt;" class="s2" d="m849.2 500.2c0 0-37.2 33.1-62.2 83.3"/>
					<path id="&lt;Path&gt;" class="s2" d="m828.5 511.4c0 0-3.7 10.7-5.2 16.6"/>
					<path id="&lt;Path&gt;" class="s2" d="m846.6 510.9c0 0-11 6.3-16.2 8.8"/>
					<path id="&lt;Path&gt;" class="s2" d="m812.8 531.5c0 0-3.7 10.7-5.2 16.6"/>
					<path id="&lt;Path&gt;" class="s2" d="m802.4 556.6c0 0 12.8-6.8 18.8-14.7"/>
				</g>
				<g id="&lt;Group&gt;">
					<path id="&lt;Path&gt;" class="s1" d="m722.6 533.8c0 0-5-30.1 2.2-40 7.2-9.8 15-9.6 20.7-16.6 5.6-7 3.6-19.8 10.1-25.2 6.6-5.4 11.6-4.6 15.1-10.2 3.5-5.5 10.2-13.8 15.8-8.8 5.6 5-0.7 17.9-1.3 26.6-0.5 8.7-11.6 14.8-17.8 25.7-6.2 10.9 1.4 31.3-16.4 41.5"/>
					<path id="&lt;Path&gt;" class="s2" d="m781.9 437.7c0 0-29.9 39.7-44.6 93.9"/>
					<path id="&lt;Path&gt;" class="s2" d="m763.9 452.7c0 0-1.6 11.3-1.9 17.3"/>
					<path id="&lt;Path&gt;" class="s2" d="m781.5 448.7c0 0-9.5 8.4-14.2 11.8"/>
					<path id="&lt;Path&gt;" class="s2" d="m752.4 475.6c0 0-1.5 11.2-1.8 17.3"/>
					<path id="&lt;Path&gt;" class="s2" d="m747.1 502.3c0 0 11.2-9.3 15.6-18.2"/>
				</g>
				<g id="&lt;Group&gt;">
					<path id="&lt;Path&gt;" class="s1" d="m355.8 618.7c0 0-1-30.5-10-38.7-9-8.3-16.7-6.5-23.6-12.3-6.9-5.7-7.4-18.7-14.9-22.7-7.5-4-12.3-2.3-16.8-7-4.5-4.8-12.7-11.5-17.2-5.5-4.5 6 4.2 17.3 6.5 25.8 2.2 8.4 14.2 12.2 22.5 21.7 8.2 9.5 4.7 31 24.2 37.5"/>
					<path id="&lt;Path&gt;" class="s2" d="m278.7 536.2c0 0 37.1 33 62.1 83.3"/>
					<path id="&lt;Path&gt;" class="s2" d="m299.3 547.3c0 0 3.8 10.7 5.2 16.7"/>
					<path id="&lt;Path&gt;" class="s2" d="m281.3 546.9c0 0 10.9 6.3 16.2 8.8"/>
					<path id="&lt;Path&gt;" class="s2" d="m315 567.5c0 0 3.8 10.7 5.2 16.6"/>
					<path id="&lt;Path&gt;" class="s2" d="m325.5 592.6c0 0-12.8-6.8-18.8-14.8"/>
				</g>
				<g id="&lt;Group&gt;">
					<g id="&lt;Group&gt;">
						<path id="&lt;Path&gt;" class="s3" d="m727.5 516.6c0 0 19.1-48.6 50.1-41.2 32.7 7.8 4.4 88.1 4.4 88.1 0 0 15-18.1 37.5-13.6 22.5 4.5 0 48.6 0 48.6 0 0 27-19.2 42.5-11.7 15.5 7.6-4 30.6-4 30.6 0 0 35-27.2 58.3-18.9 23.2 8.4 2 40.5 2 40.5h-177"/>
					</g>
					<path id="&lt;Path&gt;" class="s3" d="m489.4 492.9c0 0-19.4-52-45-45-25.7 7-9.2 55.1-9.2 55.1l9.2 37.5c0 0-20.3-17.4-40.1-12.5-19.8 4.9-8.3 46.8-8.3 46.8 0 0-45.6-29.9-65.1-22.9-19.4 7 0 48.2 0 48.2 0 0-54.9-28.7-66.4-10.2-11.5 18.5 22.6 48.7 22.6 48.7h209.9"/>
				</g>
			</g>
			<g id="&lt;Group&gt;">
				<g id="&lt;Group&gt;">
					<g id="&lt;Group&gt;">
						<path id="&lt;Path&gt;" class="s4" d="m719.7 642c16.2 0 29.5-13.3 29.5-29.6v-425.6c0-16.3-13.3-29.5-29.5-29.5h-209.4c-16.2 0-29.5 13.2-29.5 29.5v425.6c0 16.3 13.3 29.6 29.5 29.6z"/>
					</g>
					<g id="&lt;Clip Group&gt;" clip-path="url(#cp1)">
						<g id="&lt;Group&gt;">
							<path id="&lt;Path&gt;" class="s5" d="m475 113.5l303 303.1"/>
							<path id="&lt;Path&gt;" class="s5" d="m604.9 243.5l-158.9 158.9"/>
							<path id="&lt;Path&gt;" class="s5" d="m509.1 339.3l146.4 146.5 95.8-95.9"/>
							<path id="&lt;Path&gt;" class="s5" d="m525.1 500.8c-17.3-17.3-17.3-45.4 0-62.6l41.4-41.4 62.6 62.6-41.3 41.4c-17.3 17.3-45.4 17.3-62.7 0z"/>
							<path id="&lt;Path&gt;" class="s5" d="m552.5 296l-100.4-100.4"/>
							<path id="&lt;Path&gt;" class="s5" d="m571.6 210.2l94.9-94.9"/>
							<path id="&lt;Path&gt;" class="s5" d="m647.8 286.4l138.4-138.3"/>
							<path id="&lt;Path&gt;" class="s5" d="m593.2 495.3l191 191"/>
							<path id="&lt;Path&gt;" class="s5" d="m655.5 485.8l46 45.9-35.9 35.9"/>
							<path id="&lt;Path&gt;" class="s5" d="m636 538l-175.8 175.8"/>
							<path id="&lt;Path&gt;" class="s6" d="m606.6 436.8l95.8-95.8"/>
							<path id="&lt;Path&gt;" class="s6" d="m641.8 140l75.2 75.2"/>
							<path id="&lt;Path&gt;" class="s6" d="m568 609.2l95.8 95.8"/>
							<path id="&lt;Path&gt;" class="s6" d="m525.1 500.8l-85.6 85.6"/>
							<path id="&lt;Path&gt;" class="s6" d="m704.5 606.6l67.5-67.6"/>
							<path id="&lt;Path&gt;" class="s6" d="m684.4 323l26.1-26.2c6.9-6.8 6.9-17.8 0-24.6l-24.2-24.3"/>
							<path id="&lt;Path&gt;" class="s7" d="m729.5 531.5c0 15.5-12.5 28-28 28-15.4 0-27.9-12.5-27.9-28 0-15.4 12.5-27.9 27.9-27.9 15.5 0 28 12.5 28 27.9z"/>
							<g id="&lt;Group&gt;">
								<path id="&lt;Path&gt;" class="s8" d="m711.7 531.5c0 5.7-4.6 10.2-10.2 10.2-5.6 0-10.1-4.5-10.1-10.2 0-5.6 4.5-10.1 10.1-10.1 5.6 0 10.2 4.5 10.2 10.1z"/>
							</g>
							<g id="&lt;Group&gt;">
								<path id="&lt;Path&gt;" class="s3" d="m576.8 379.6l-40.2-40.3 40.2-40.2 40.2 40.2z"/>
							</g>
							<g id="&lt;Group&gt;">
								<path id="&lt;Path&gt;" class="s9" d="m656.1 458.3l-24.3-24.2 24.3-24.3 24.2 24.3z"/>
							</g>
							<g id="&lt;Group&gt;">
								<path id="&lt;Path&gt;" class="s9" d="m686.3 428.1l-24.2-24.3 24.2-24.2 24.3 24.2z"/>
							</g>
							<g id="&lt;Group&gt;">
								<path id="&lt;Path&gt;" class="s9" d="m717.8 396.6l-24.2-24.3 5.9-5.9 24.3 24.2z"/>
							</g>
							<g id="&lt;Group&gt;">
								<path id="&lt;Path&gt;" class="s3" d="m536.7 489.1c-11.1-11.1-11.1-29.1 0-40.2l29.7-29.7 40.2 40.3-29.6 29.6c-11.1 11.1-29.1 11.1-40.3 0z"/>
							</g>
							<g id="&lt;Group&gt;">
								<path id="&lt;Path&gt;" class="s3" d="m634.2 650.5l-40.2-40.3 40.2-40.2 40.3 40.2z"/>
							</g>
							<g id="&lt;Group&gt;">
								<path id="&lt;Path&gt;" class="s3" d="m689.3 705.5l-40.3-40.2 40.3-40.2 40.2 40.2z"/>
							</g>
							<g id="&lt;Group&gt;">
								<path id="&lt;Path&gt;" class="s3" d="m647.8 252.4l-40.2-40.2 40.2-40.2 40.2 40.2z"/>
							</g>
							<g id="&lt;Group&gt;">
								<path id="&lt;Path&gt;" class="s3" d="m460.2 336.2l-40.2-40.2 40.2-40.2 40.2 40.2z"/>
							</g>
						</g>
					</g>
					<g id="&lt;Group&gt;">
						<g id="&lt;Group&gt;">
							<path id="&lt;Compound Path&gt;" fill-rule="evenodd" class="s10" d="m719.7 151.4c19.5 0 35.3 15.9 35.3 35.4v425.6c0 19.6-15.8 35.4-35.3 35.4h-209.4c-19.5 0-35.3-15.8-35.3-35.4v-425.6c0-19.5 15.8-35.4 35.3-35.4zm-233 35.4v425.6c0 13.1 10.7 23.7 23.7 23.7h209.3c13.1 0 23.7-10.6 23.7-23.7v-425.6c0-13-10.6-23.6-23.7-23.6h-209.3c-13 0-23.7 10.6-23.7 23.6z"/>
						</g>
					</g>
				</g>
				<g id="&lt;Group&gt;">
					<path id="&lt;Path&gt;" class="s10" d="m754.7 269.9h-4.5v-44.7h4.5c2.9 0 5.2 2.3 5.2 5.2v34.3c0 2.9-2.3 5.2-5.2 5.2z"/>
				</g>
				<g id="&lt;Group&gt;">
					<path id="&lt;Path&gt;" class="s10" d="m754.7 322.2h-4.5v-44.6h4.5c2.9 0 5.2 2.3 5.2 5.1v34.4c0 2.8-2.3 5.1-5.2 5.1z"/>
				</g>
				<g id="&lt;Group&gt;">
					<g id="&lt;Group&gt;">
						<path id="&lt;Path&gt;" class="s11" d="m613.8 444.1l-5-5"/>
						<path id="&lt;Path&gt;" class="s12" d="m601.6 431.9l-83.9-84"/>
						<path id="&lt;Path&gt;" class="s11" d="m514.1 344.3l-5-5 5-4.9"/>
						<path id="&lt;Path&gt;" class="s13" d="m520.7 327.8l76-76"/>
						<path id="&lt;Path&gt;" class="s11" d="m600 248.5l4.9-5-4.9-4.9"/>
						<path id="&lt;Path&gt;" class="s14" d="m593.8 232.4l-26.6-26.6"/>
						<path id="&lt;Path&gt;" class="s11" d="m564.2 202.7l-5-4.9"/>
					</g>
				</g>
				<path id="&lt;Compound Path&gt;" fill-rule="evenodd" class="s15" d="m585.8 143.9l-0.1 0.1c-1.9 2.7-4.1 5.3-6.6 7.5l-27.6 27.7c-0.7 0.7-1.9 0.7-2.6 0l-27.6-27.7c-2.5-2.2-4.7-4.8-6.6-7.6h-0.1c-4.7-6.9-7.5-15.3-7.5-24.3 0-29.1 28.8-51.4 59.4-40.1 10.9 4 19.6 12.6 23.7 23.5 5.7 15.2 3.1 29.9-4.4 40.9zm-45.1-18.2c0.8 1.4 1.9 2.6 3.4 3.4 10.6 5.9 21.5-5.1 15.6-15.7-0.8-1.4-2-2.5-3.4-3.3-10.6-5.9-21.4 4.9-15.6 15.6z"/>
				<path id="&lt;Path&gt;" class="s15" d="m556.8 188.7c0 3.6-2.9 6.6-6.6 6.6-3.7 0-6.6-3-6.6-6.6 0-3.7 2.9-6.7 6.6-6.7 3.7 0 6.6 3 6.6 6.7z"/>
			</g>
			<g id="&lt;Group&gt;">
				<path id="&lt;Path&gt;" class="s16" d="m1180.2 665.7h-1130.4c-9.4 0-17-7.6-17-17 0-9.4 7.6-17 17-17h1130.4c9.4 0 17 7.6 17 17 0 9.4-7.6 17-17 17z"/>
				<g id="&lt;Group&gt;">
					<g id="&lt;Group&gt;">
						<path id="&lt;Path&gt;" class="s17" d="m49.8 648.7h32"/>
						<path id="&lt;Path&gt;" class="s18" d="m106.8 648.7h1028.9"/>
						<path id="&lt;Path&gt;" class="s17" d="m1148.2 648.7h32"/>
					</g>
				</g>
				<path id="&lt;Path&gt;" class="s19" d="m840 677h183.1"/>
				<path id="&lt;Path&gt;" class="s19" d="m419.6 719.6h449.5"/>
				<path id="&lt;Path&gt;" class="s19" d="m287.1 677h183.1"/>
				<path id="&lt;Path&gt;" class="s19" d="m167.1 677h81.6"/>
				<path id="&lt;Path&gt;" class="s19" d="m373.8 729.9h161.3"/>
			</g>
			<g id="&lt;Group&gt;">
				<g id="&lt;Group&gt;">
					<g id="&lt;Group&gt;">
						<path id="&lt;Path&gt;" class="s20" d="m913.2 482.6c-0.2 2.6-0.4 4.9-0.7 6.6-0.6 3.8-2.2 9.8-4.1 16.5q-0.6 2-1.2 4c-4.3 14.7-6.4 30-5.7 45.3 1.2 26.3-8.5 70.8-9.8 75-2.4 3.2-7.1 1.1-8.8 0.5-2-29.4-5.7-93.2-5.7-94.6 0.8-30.2 4.5-58 4.8-62.5 0.4-4.4 0.8-29.2 2.9-30.1 4.7-1.7 16.9-5.8 22.4 2.2 5.7 8.4 6.6 25.9 5.9 37.1z"/>
					</g>
					<g id="&lt;Group&gt;">
						<path id="&lt;Path&gt;" class="s21" d="m913.2 482.6c-0.2 2.6-0.4 4.9-0.7 6.6-0.6 3.8-2.2 9.8-4.1 16.5-0.6-9.5-1.7-35.9-1.7-35.9z"/>
					</g>
					<g id="&lt;Group&gt;">
						<path id="&lt;Path&gt;" class="s20" d="m965.7 623.4c0 3-0.2 4.6-8.2 4.6 0.8 1.2-29-66.9-33.5-79.7-0.3-0.8-1.5-4.2-1.8-5.4-2.2-6.6-9.2-40.7-12.5-54l-9.4-42.8c0 0-12.9 1.8-3.7 1.2 11.7-0.7 26.4-6.5 26.4-6.5 19.5 16.7 21.3 35.9 20.5 45.4-0.3 3.9-0.1 20.6-0.3 25.2-0.6 16 2.2 32.1 8.8 46.7 11.7 25.7 12.7 56.7 13.7 65.3z"/>
					</g>
					<path id="&lt;Path&gt;" class="s22" d="m970.9 630.5c-0.8 0.9-3.2 2.1-4.9 3-1 0.4-4.4 2.4-7.8 4.3-1.3 0.8-2.8 1.2-4.4 1.2h-5.5c-1 0-1.4-0.7-1.3-1.2 0-1.1 1-2.1 2.6-2.4q0.6-0.1 1.2-0.3c1.8-0.7 3.3-2.1 4.3-3.7 1.1-1.6 1.8-3.1 1.8-3.1 1.9-2.1 4.8-1.6 4.8-1.6 3.6-1.8 4-3.3 4-3.3 3.1 0.9 6.1 6.2 5.2 7.1z"/>
					<path id="&lt;Path&gt;" class="s22" d="m891.7 630c0 0-1.1 1.2-5.1 1 0 0-2.3-1.8-5-0.8 0 0-4.1 3.5-6.9 4.1-2.9 0.6-6.3 0.9-7 2.2-0.8 1.2-0.5 2.1-0.5 2.1 0 0-0.2 0.5 3.3 0.7 3.5 0.1 14.7-0.4 16.7-0.3 1.9 0.1 4.5 0.2 5.7-0.2 1.3-0.4 1.1-6.5-1.2-8.8z"/>
				</g>
				<g id="&lt;Group&gt;">
					<g id="&lt;Group&gt;">
						<path id="&lt;Path&gt;" class="s23" d="m1004.5 633.8c0.6 2.5-0.8 5-3.2 5.6-2.5 0.7-5-0.8-5.6-3.2-0.7-2.4 0.8-4.9 3.2-5.6 2.4-0.6 4.9 0.8 5.6 3.2z"/>
					</g>
					<g id="&lt;Group&gt;">
						<path id="&lt;Path&gt;" class="s24" d="m982.8 534.4l-16.5 4.4-16-59.5c-0.2-0.9 0.3-1.7 1.1-2l13.5-3.6c0.8-0.2 1.7 0.3 1.9 1.1z"/>
					</g>
					<g id="&lt;Group&gt;">
						<path id="&lt;Path&gt;" class="s25" d="m998.2 531.2l24.7 91.7c0.7 2.6-0.8 5.2-3.3 5.8l-29.9 8.1c-1.3 0.3-2.7-0.5-3.1-1.8l-25.8-96c-0.3-1.4 0.5-2.8 1.8-3.1l29.8-8c2.6-0.7 5.2 0.8 5.8 3.3z"/>
					</g>
					<g id="&lt;Group&gt;">
						<path id="&lt;Path&gt;" class="s26" d="m998.2 531.2l24.7 91.7c0.7 2.6-0.8 5.2-3.3 5.8l-18.6 5c-1.4 0.4-2.7-0.4-3.1-1.7l-25.8-96.1c-0.4-1.3 0.4-2.7 1.8-3.1l18.5-4.9c2.6-0.7 5.2 0.8 5.8 3.3z"/>
					</g>
					<path id="&lt;Path&gt;" class="s25" d="m1006.1 560.3l-11.6 3.1c-0.7 0.2-1.4-0.2-1.5-0.9l-0.2-0.4c-0.1-0.7 0.3-1.3 0.9-1.5l11.6-3.1z"/>
					<path id="&lt;Path&gt;" class="s25" d="m1009.2 572l-11.6 3.1c-0.6 0.2-1.3-0.2-1.5-0.9l-0.1-0.4c-0.2-0.7 0.2-1.4 0.9-1.5l11.5-3.1z"/>
					<path id="&lt;Path&gt;" class="s25" d="m1012.4 583.7l-11.6 3.1c-0.7 0.2-1.4-0.2-1.6-0.9l-0.1-0.4c-0.1-0.7 0.3-1.4 0.9-1.5l11.6-3.1z"/>
					<path id="&lt;Path&gt;" class="s25" d="m1015.5 595.4l-11.6 3.1c-0.6 0.2-1.3-0.2-1.5-0.9l-0.1-0.4c-0.2-0.7 0.2-1.4 0.9-1.5l11.5-3.1z"/>
					<path id="&lt;Path&gt;" class="s25" d="m1018.6 607.1l-11.5 3.1c-0.7 0.2-1.4-0.2-1.6-0.9l-0.1-0.4c-0.2-0.7 0.2-1.4 0.9-1.5l11.6-3.2z"/>
				</g>
				<g id="&lt;Group&gt;">
					<g id="&lt;Group&gt;">
						<g id="&lt;Group&gt;">
							<path id="&lt;Path&gt;" class="s27" d="m936.8 407.4c-0.4 2.1-0.9 5-1.5 8.2-1.7 8.9-3.8 20.4-3.8 23.9 0 1.2 0.2 2.2 0.4 3.1 0.7 2.6 1.9 4 1 5-0.6 0.7-2.1 1.3-4 1.8q-0.9 0.3-2.1 0.5c-6.7 1.4-17.5 10.3-23.2 8.9-17.4-4.4-21.3-8.5-21-11 0.7-5.1 1.5-13.4 1.5-29.2 0-23.5-1.6-53.9 0.2-55.9 3.5-3 9.1-5.8 14.7-7.6 3.9-0.7 10.7-0.4 17.8 1.4 8.2 2.2 17.8 4 19.2 7.1 1.3 3 2.8 33.3 0.8 43.8z"/>
						</g>
						<g id="&lt;Group&gt;">
							<g id="&lt;Group&gt;">
								<path id="&lt;Path&gt;" class="s28" d="m956.6 462.9c0 0 0.1 4.8-0.1 5.6-0.3 0.7-4.7 5-4.7 7.6 0 0 0.7 1.5 2.5 2.2 1.8 0.7 5.9 0.3 8.1-0.6 2.1-0.8 2.3-5.3 2.4-5.8 0-0.6-0.5-5.7-0.2-8.5"/>
							</g>
							<g id="&lt;Group&gt;">
								<path id="&lt;Path&gt;" class="s28" d="m953.6 472.1c0 0-1.9 2.5-2.2 4.5-0.3 1.6-0.5 2 0.3 2.1 0.8 0.1 2-0.9 2.7-2.1"/>
							</g>
							<g id="&lt;Group&gt;">
								<path id="&lt;Path&gt;" class="s27" d="m929.5 384.2c3.6 9.1 18.8 31.6 18.8 31.6l7.6 50.7c0 0 1.5 0.8 4.2 0.9 2.6 0.1 5.5-1 5.5-1 0 0 3.7-49.4 0.4-58.4-3.6-9.9-13.4-34.9-28.8-44.7-5.9-3.8-18.1-6.2-18.1-6.2"/>
							</g>
						</g>
					</g>
				</g>
				<g id="&lt;Group&gt;">
					<path id="&lt;Path&gt;" class="s27" d="m934.9 417.6c0 0-5.1 20.1 7.7 46.5 0 0-18.8 3.1-37.4 4.6-18.7 1.5-25.5-3.2-25.5-3.2 0 0 3.4-19.2 3.7-23.5 0.3-4.3 23.5-10.4 23.5-10.4"/>
				</g>
				<g id="&lt;Group&gt;">
					<g id="&lt;Group&gt;">
						<path id="&lt;Path&gt;" class="s28" d="m814 391.7l-6.7-1.6c0 0-1.4-0.8-3.7-3.4-2.3-2.6-5.6-2.3-6.3-2.3-0.7 0-0.8 0.9 0.4 1.7 0.9 0.6 2.3 0.3 2.8 2.3 0.2 0.8-2.2 0.9-3.5 0.4-1.2-0.4-5.5-2.4-6.6-2.9-1-0.4-2 0.3 0.9 2.4 2.6 1.9 3.5 2.3 4.5 2.9 0 0 0.6 1.2 1 1.7q0.2 0.2 0.5 0.4c0.2 0.3 0.6 1.2 0.9 1.6q0.1 0.1 0.3 0.2 0.4 0.8 0.7 1.5c0.9 1.8 4.3 1.3 5.8 1.1 1.5-0.2 7.9 1.2 7.9 1.2z"/>
						<path id="&lt;Path&gt;" class="s28" d="m797.6 391.1c0 0-1.7-0.1-4.3-0.9-2.5-0.8-5.7-2.6-6.3-2.7-0.7-0.1-0.8 0.8 0 1.4 0.7 0.7 2.8 1.9 3.9 2.5 1.4 0.7 7.5 2.2 7.5 2.2"/>
						<path id="&lt;Path&gt;" class="s28" d="m798.5 392.9c0 0-1.8 0.1-4.4-0.4-2.6-0.6-5.9-2-6.6-2-0.7 0-0.6 0.8 0.2 1.4 0.8 0.6 2.9 1.5 4.2 2 1.5 0.5 7.7 2.1 7.7 2.1"/>
						<path id="&lt;Path&gt;" class="s28" d="m800.6 395.5c0 0-1.7 0.1-4.3-0.4-2.6-0.6-6-2-6.7-2-0.6 0-0.6 0.8 0.2 1.4 0.8 0.6 3 1.5 4.2 2 1.5 0.5 7.7 1.4 7.7 1.4"/>
					</g>
					<g id="&lt;Group&gt;">
						<path id="&lt;Path&gt;" class="s27" d="m886.2 390.7c-0.9 0.6-1.9 1.3-2.9 1.9 0 0-9.8 9.1-18.9 14.6-4 2.5-7.8 4.2-10.6 4.2-11.3 0-43.5-12.4-43.5-12.4l1.4-8.3 39.8 3.5c8.5-10.1 32.8-31.5 32.8-31.5l1.5 22.3z"/>
					</g>
				</g>
				<g id="&lt;Group&gt;">
					<path id="&lt;Path&gt;" class="s29" d="m883.2 392.8c-1.1 1-10.3 9.2-18.8 14.4 6.5-5.7 15.1-15.5 18.7-19.7q0.1 2.6 0.1 5.3z"/>
				</g>
				<g id="&lt;Group&gt;">
					<g id="&lt;Group&gt;">
						<path id="&lt;Path&gt;" class="s28" d="m916.8 356.5c0 0-8 6-17.8-1.4 0 0 1.2-2.4 1.4-2.8 0.6-1 1.6-3 2.3-5.9 0.1-0.2 0.1-0.5 0.2-0.7q0.3-1.3 0.4-2.8c0.2-1.7 0.1-3.7-0.2-5.8l1-0.7 15.6-12.3 1.8-1.4c0 0-0.5 3-1.2 7.3-0.4 2.5-0.9 5.4-1.3 8.5-1 6.2-1.9 13.1-2.2 18z"/>
					</g>
					<g id="&lt;Group&gt;">
						<path id="&lt;Path&gt;" class="s30" d="m914.3 338.9q0 0 0 0c-2.2 3.2-7.3 9.7-13.9 13.4 0.6-1 1.6-3 2.3-5.9-1 0.3-2 0.4-2.9 0.5q0.1-1.1 0.1-2.2l1-0.6 2.4-1.2 12.3-6c0 0-0.4 0.7-1.3 2z"/>
					</g>
					<path id="&lt;Path&gt;" class="s31" d="m889.7 313.3c0 0-2.8 7.5 2.1 11.7l2.3-11.3z"/>
					<g id="&lt;Group&gt;">
						<path id="&lt;Path&gt;" class="s28" d="m916.9 335.7q-1.2 1.7-2.6 3.2 0 0 0 0c-1.5 1.6-3.2 3.1-5.1 4.4-2.4 1.6-4.5 2.6-6.5 3.1-1 0.3-2 0.4-2.9 0.5-4.1 0.4-6.6-1.2-6.6-1.2-3.8-5.8-3.7-15.2-2.8-22.3 0.3-2.9 0.8-5.4 1.2-7.2 0.3-1.6 0.6-2.5 0.6-2.5q0-0.1 0-0.2c1.7-9.2 14-9.5 22.5-4.3q0.7 0.4 1.4 1c2.3 1.6 4.3 3.8 5.4 6.4 2 4.3 0.8 9.2-1.2 13.4q-0.2 0.4-0.4 0.7c-0.9 1.9-2 3.6-3 5z"/>
					</g>
					<path id="&lt;Path&gt;" class="s31" d="m917.4 308.5c0 0-10 15.4-26.8 7.3-4.9-2.4-6-19.1-1.7-15.7 8.8 6.8 15.8-6.2 24.3-1.8 2.7 1.4 5.4 4.8 4.2 10.2z"/>
					<path id="&lt;Path&gt;" class="s31" d="m914.1 310.4c0 0-5.9 30.3 0.3 16.4 0 0 1.6-3.9 4.4-3.5 2.8 0.4 0.5 10.8 0.2 15.2 0 0 6.4-4.6 8.8-18.4 2.4-13.7-6.9-19.4-12-13.4z"/>
					<g id="&lt;Group&gt;">
						<path id="&lt;Path&gt;" class="s30" d="m918.2 325.5c0 0-1.6 0.2-1.9 3.1-0.3 2.9 1.5 3.5 1.9 1.9 0.4-1.5-1-2.4-1.3-1.8 0 0-0.4-1.7 1.3-3.2z"/>
					</g>
				</g>
				<path id="&lt;Compound Path&gt;" fill-rule="evenodd" class="s15" d="m918.4 266.8h-0.1q-0.9 1.4-2.2 2.6l-9.4 9.5c-0.3 0.2-0.7 0.2-0.9 0l-9.4-9.5q-1.3-1.2-2.3-2.6c-1.7-2.4-2.6-5.2-2.6-8.3 0-9.9 9.8-17.6 20.3-13.7 3.7 1.4 6.7 4.3 8.1 8 1.9 5.2 1 10.2-1.5 14zm-15.4-6.2c0.2 0.5 0.6 0.9 1.1 1.1 3.7 2 7.4-1.7 5.3-5.3-0.2-0.5-0.6-0.9-1.1-1.1-3.6-2-7.3 1.6-5.3 5.3z"/>
			</g>
			<g id="&lt;Group&gt;">
				<g id="&lt;Group&gt;">
					<g id="&lt;Group&gt;">
						<g id="&lt;Group&gt;">
							<path id="&lt;Path&gt;" class="s28" d="m241.8 599.1l-0.4 15.9c0 2.4 1 4.3 2.6 6.5 0.5 0.7 7.6 10.9 8.2 11.9-0.2 0.4-6.1 2.9-13.1-7.1-2.8-4-4.9-6-4.9-6l-3.7-20.4"/>
						</g>
						<path id="&lt;Path&gt;" class="s32" d="m234 619c0 0 1.6 0.6 3.6 2.9 2.1 2.3 6.1 8.9 8.1 10.2 2.1 1.3 6.1 0.4 6.1 0.4 0 0 9.4 5.5 8.8 6.6-0.4 1-1.4 1.1-1.9 1.1-3.2 0.4-13.5 0-13.5 0 0 0-3.6-0.5-4.7-3.5-1-3.1-5.8-7.8-7.6-9.3-1.8-1.5-1.4-5.2 1.1-8.4z"/>
						<path id="&lt;Path&gt;" class="s32" d="m232.1 626.3c0 0 0.5 3 0.6 5.9 0.2 2.9 0.4 8 0.4 8h1c0 0-0.1-9 0.7-11.8 0.9-2.8-2.7-2.1-2.7-2.1z"/>
					</g>
					<g id="&lt;Group&gt;">
						<g id="&lt;Group&gt;">
							<path id="&lt;Path&gt;" class="s28" d="m191.6 599.7l-4 11.3c-0.6 1.8-0.8 3.7-0.5 5.6 0.3 2.1 0.7 4.9 0.8 6.7 0.3 3.3 0 7.7-2.1 8.5-2.2 0.8-6.2-5.4-7.7-9-1.4-3.6-1.9-9.3-1.6-11.5 0.4-2.2 2-1.9 2.6-3.4 0.6-1.4 3.1-11.3 3.1-11.3"/>
						</g>
						<path id="&lt;Path&gt;" class="s32" d="m179.1 607.9c0 0-1.2 1.7-0.5 4.7 0.7 3 1.8 5.6 2.2 8.1 0.5 2.4 2.1 8.4 5 9.3 2.9 0.9 2.1-7.1 2.1-7.1 0 0 1 5.9 1.1 8.2 0.2 2.1 1 5 0.9 6.2-0.1 1.2-1.4 1.9-3.6 0.8-2.2-1.1-7.8-4.5-8.9-6.9-1.1-2.4 0.1-6.7-1-10.2-1.2-3.5-2.5-6.1-1.7-9 0.7-2.9 4.4-4.1 4.4-4.1z"/>
						<path id="&lt;Path&gt;" class="s32" d="m174.9 612.7c0 0-3.1 9.3-4.3 11.1 0 0 0.4 0.5 1 0.6 0 0 2.3-5.4 4.7-8.3"/>
					</g>
					<g id="&lt;Group&gt;">
						<path id="&lt;Path&gt;" class="s32" d="m244.2 535.3v-0.1c0.2-18.9-4.8-73.9-6.6-91.2l-32.8-7.6c-15.8 33.7 0.7 42.1 4.5 49.5 2 3.9 4.5 16.7 7.7 29.4 0.2 0.6 0.3 1.2 0.5 1.8 1.8 7 3.7 13.7 5.9 18.9q0 0 0 0c0.6 1.4 0.8 2.9 0.6 4.5-0.5 5.4-1.4 16.1-0.1 26.4 2.6 21.2 7.8 40.5 7.8 40.5 0 0 7 0.3 10.3-1.3 0 0 2.5-55.9 2.2-70.8z"/>
						<path id="&lt;Path&gt;" class="s33" d="m217.5 517.1c1.8 7 3.7 13.7 5.9 18.9 3.7-19.8 2.8-59.9 2.8-59.9z"/>
						<path id="&lt;Path&gt;" class="s32" d="m191.4 443c0 0-7.9 13.9-6.8 26.2 0.8 8.8 6.1 39.6 8.7 59.6 0.9 6.5 0.2 13-2.1 19.1-2 5.5-4.2 12.1-5.2 17.4-2.2 13.2-4.4 32.4-4.4 32.4 0 0 4.9 3.2 10.4 2.2 0 0 17.2-38.4 20.7-51.7q0 0 0-0.1c1.9-7.6 7.7-38.1 11-60.8 3.2-22.7 4.3-45.5 4.3-45.5z"/>
					</g>
				</g>
				<g id="&lt;Group&gt;">
					<path id="&lt;Path&gt;" class="s28" d="m223.4 339.8c0 0-0.2 0.7-0.6 1.8-0.4 1.2-0.9 3-1.4 4.9-0.7 2.9-1.3 6.2-1.1 8.6 0 0-9.7-1.6-14.2-4.4 0 0 3.4-8.4-0.6-19.1z"/>
				</g>
				<g id="&lt;Group&gt;">
					<path id="&lt;Path&gt;" class="s30" d="m222.8 341.6c-0.4 1.2-0.9 3-1.4 4.9-7.9-2.5-12.4-9.6-12.4-9.6z"/>
				</g>
				<g id="&lt;Group&gt;">
					<path id="&lt;Path&gt;" class="s28" d="m207 336.9c3.6 4.2 23.8 12.6 26.6 2.6 2.8-10 1.4-21.9 0-29.1-0.9-4.5-3.3-13-15.2-11.7-11.9 1.3-27.2 19.9-11.4 38.2z"/>
				</g>
				<path id="&lt;Path&gt;" class="s34" d="m201.1 309.3c0 0-9.7 1-11.6-5.2-1.8-6.2 5.1-14.1 11.2-10.9 6.1 3.3 5.5 11.3 5.5 11.3"/>
				<path id="&lt;Path&gt;" class="s35" d="m196.9 310.1c0 0 1-9.2 9.8-10.8l-3.3 5.4z"/>
				<path id="&lt;Path&gt;" class="s34" d="m232.1 307.8c0 0-3.3 14.4-23.2 15 0 0-2-0.6-2.7 1.1-0.5 1-0.6 2.6-0.1 4.2 1.2 3.8 2 7.8 1.3 11.8l0.1 0.4c0 0-9.9-1.2-12.6-15.4-3.1-16.5 11.9-29.8 22.1-28.2 4.3 0.7 14.2 4.3 15.1 11.1z"/>
				<path id="&lt;Path&gt;" class="s34" d="m225.7 307.5c0 0 6.2 8.5 11.1 8.8 0 0 1.5-11.7-5.1-16.4-9-6.4-19.2-3-19.2-3"/>
				<g id="&lt;Group&gt;">
					<path id="&lt;Path&gt;" class="s28" d="m206.1 350.7c0 0-1 2.6-2.6 3.6-2.5 1.6-4.5 2-6.6 2.9 0 0 19 13.6 33-0.9 0 0-5.1-1.5-6.5-2.6-3.4-2.4-2.7-3.6-2.7-3.6"/>
				</g>
				<g id="&lt;Group&gt;">
					<path id="&lt;Path&gt;" class="s28" d="m231.2 386.2c0 0 3.3 10.1 6 17.7 1.5 4 3.2 7.1 3.7 7.7 1.4 1.8 3.4 4.1 6.8 2.2 3.4-1.8 3.9-3.4 3.3-6.8-0.6-3.6-6.4-24.1-6.4-24.1"/>
				</g>
				<g id="&lt;Group&gt;">
					<path id="&lt;Path&gt;" class="s28" d="m237.2 403.9c0 0 4.8 16 11.5 14.5 3.5-0.9 9.6-14.3 12.4-19.6 8.7-16.8 9.3-20.5 9.3-20.5l-4.3-2c0 0-17.4 22.3-18.8 24.4"/>
				</g>
				<g id="&lt;Group&gt;">
					<path id="&lt;Path&gt;" class="s36" d="m238.9 450.3c-21.4 4.7-42.9 2-51.8 0.4 0.8-4.7 2.2-8 3.4-12.5 3.5-13.8 1.8-29.8 0.6-39.2-0.5-3.8-0.9-6.5-0.9-7.7 0-0.9-0.1-2.1-0.2-3.4-0.6-8.2-2.7-22.9-2.9-24.9-0.2-2.2 13-7.3 13-7.3 0 0 23.4 14.2 24.9-1.3 0 0 6.5 2 11.6 4.6 0.9 6.8 1.4 21.5 1.6 29.1 0.1 2.9-2.4 8.3-2.4 8.3 0 0 0.4 22.9 1.5 39.6 0.5 6 1.9 11.9 1.6 14.3z"/>
				</g>
				<g id="&lt;Group&gt;">
					<path id="&lt;Path&gt;" class="s37" d="m196.7 380.5c0 0-0.3 11.7-1.8 17.9 0 0-1.4 0.6-3.8 0.6-0.5-3.8-0.9-6.5-0.9-7.7 0-0.9-0.1-2.1-0.2-3.4z"/>
				</g>
				<path id="&lt;Path&gt;" class="s38" d="m227.4 429.4l-7.2-2.4c-0.1-0.1-0.2-0.3-0.2-0.5l5.3-15.3c0-0.1 0.2-0.2 0.4-0.2l7.2 2.5c0.2 0 0.3 0.2 0.2 0.4l-5.2 15.3c-0.1 0.2-0.3 0.3-0.5 0.2z"/>
				<path id="&lt;Path&gt;" class="s38" d="m222.4 419.6l-0.5 5.7c0 0-0.1 0.2-1.2 0.2q-0.2-0.4 0-0.7z"/>
				<g id="&lt;Group&gt;">
					<g id="&lt;Group&gt;">
						<path id="&lt;Path&gt;" class="s28" d="m180.4 385.2c0 0-1.3 10.5-2 18.5-0.3 4.4 0 7.8 0.2 8.6 0.5 2.3 1.3 5.1 5.2 4.9 3.9-0.2 5-1.5 5.9-4.9 0.9-3.5 4.2-24.5 4.2-24.5"/>
						<path id="&lt;Path&gt;" class="s28" d="m178.4 404.1c0 0-1.5 11.9 2.5 15.6 2.6 1.7 8.3 2.1 14.3 2.7 18.8 1.9 22.5 1.1 22.5 1.1l0.3-4.8c0 0-27.2-7.8-29.7-8.3"/>
						<path id="&lt;Path&gt;" class="s28" d="m223.5 416.6l-0.8 2.2-0.2 0.1-0.1 0.7-0.5 5.7c0 0-0.1 0.2-1.2 0.2h-0.6c-1.6-0.1-2.9-1.6-6.1-1.9l1.2-5.7c0 0 2.1 0.6 4.1 0 1-0.4 2.1-1.2 2.7-1.4 0.2 0 0.8 0 1.5 0.1z"/>
					</g>
				</g>
				<path id="&lt;Path&gt;" class="s28" d="m222 418.7c0 0 3.8 1.1 4.7 1.2 0.8 0 3.2-0.7 4.1-0.8 0.9-0.1 1.5 0.6 1.5 0.7 0.2 0.3-3.3 2.1-5.4 2.3-2.1 0.2-5.3-0.7-5.3-0.7"/>
				<path id="&lt;Path&gt;" class="s28" d="m221.2 420c0 0 3.9 1.1 4.7 1.2 0.9 0 3.3-0.7 4.2-0.8 0.9-0.1 1.4 0.5 1.5 0.7 0.1 0.3-3.4 2.1-5.5 2.3-2.1 0.2-5.3-0.7-5.3-0.7"/>
				<path id="&lt;Path&gt;" class="s28" d="m220.8 421.3c0 0 3.9 1.1 4.7 1.1 0.9 0.1 3.3-0.6 4.2-0.7 0.9-0.1 1.4 0.5 1.5 0.7 0.2 0.3-3.4 2-5.4 2.2-2.1 0.2-5.3-0.6-5.3-0.6"/>
				<path id="&lt;Path&gt;" class="s28" d="m220.1 422.6c0 0 3.8 1.2 4.7 1.2 0.8 0 3.2-0.7 4.1-0.7 0.9-0.1 1.5 0.5 1.5 0.6 0.2 0.4-3.3 2.1-5.4 2.3-2.1 0.2-5.3-0.7-5.3-0.7"/>
				<g id="&lt;Group&gt;">
					<path id="&lt;Path&gt;" class="s28" d="m210.9 323.3c0 0-0.6-4.4-4.6-2.9-3.1 1.1-1 6.9 0.1 8.9 1.2 2 3.6 1.5 3.9 0"/>
				</g>
				<g id="&lt;Group&gt;">
					<path id="&lt;Path&gt;" class="s36" d="m248.7 394.7c0 0-3.4 1.7-9.6 2.4q-1.5 0.2-3.3 0.3-0.3 0-0.6 0c0 0-2.5-8.5-3.1-18.5-0.4-6.9 5-16.1 4.5-19.9 5.9 2.5 12.1 35.7 12.1 35.7z"/>
				</g>
				<g id="&lt;Group&gt;">
					<path id="&lt;Path&gt;" class="s36" d="m190.8 359.9c0 0-9.3 3.8-11.9 17.6-2.5 12.9-2.9 18.2-2.9 18.2 0 0 10.9 3.4 17.5 1.6 1.2-4.2 3.4-17.9 3.4-17.9"/>
				</g>
				<g id="&lt;Group&gt;">
					<path id="&lt;Path&gt;" class="s37" d="m232.8 370.8c0 0 3.1 6.7 4.7 11.3 1.5 4.6-1.7 14.3-1.7 14.3 0 0 3.5-6.2 3.1-12.8-0.1-2-1.3-3.6-2.1-5.4-1.8-4.1-4-7.4-4-7.4z"/>
				</g>
				<g id="&lt;Group&gt;">
					<path id="&lt;Path&gt;" class="s28" d="m279.4 366.6c-0.3-0.3-0.7 0.1-0.9 0.3-0.2 0.2-1.1 1.9-1.1 1.9-0.3 0.3-0.7 0.8-1 1.1 0.3-0.4 0.8-1 1.2-1.5 0.3-0.6 0.6-1.4 0.8-2.3 0.3-1.1 0.3-2.3 0.1-2.5-0.2-0.3-1 0.3-1.2 1.9-0.4 0.8-0.8 1.7-1.3 2.2-0.8 1-1.5 1.9-1.5 1.9 0 0 0.5-0.7 1.2-1.8 0.4-0.6 0.9-1.5 1.1-2.2 0.4-1.5 0.6-2.5 0.4-2.7-0.3-0.3-0.9-0.1-1.3 1.2-0.4 1-0.7 1.5-1.1 2.3-1 1.2-1.5 2-1.5 2 0 0 0.6-1.1 1.1-2.5 0.2-0.7 0.4-1.5 0.4-1.7 0.1-0.8 0.2-1.9-0.5-1.9-0.3 0-0.9 1.4-1.3 2.7-1.1 2-2.7 4.2-3.1 4.5-0.7 0.6-1.3 1-1.7 0-0.4-0.9 0.5-2.9 0.1-3.9-0.4-1.1-1.3-0.8-1.3-0.8-1.3 2.3-1.3 8.8-1.4 11.1 0 0.5-1.1 2.4-1.1 2.4l5.1 2.5c0.2-0.7 2.3-4.1 3.2-4.5 0.9-0.4 2.8-2.5 3.4-3.5 0.4-0.7 1.5-2.2 2.1-3.4 0-0.1 1.5-2.5 1.1-2.8z"/>
				</g>
				<g id="&lt;Group&gt;">
					<path id="&lt;Path&gt;" class="s34" d="m231 309.1c0 0 0 1.7-1 4-0.2 0.6-0.6 1.2-0.9 1.8-0.4 0.6-0.8 1.3-1.4 1.9-0.5 0.6-1.1 1.2-1.7 1.7-0.6 0.6-1.4 1-2.1 1.5-0.7 0.4-1.5 0.8-2.3 1.1-0.8 0.3-1.5 0.6-2.3 0.8q-1.1 0.3-2.2 0.5-1.1 0-2 0.1c-1.3 0.2-2.4 0-3.1 0-0.7 0-1.1-0.1-1.1-0.1 0 0 0.4 0 1.1 0 0.7-0.1 1.8-0.1 3-0.3q0.9-0.2 2-0.3 1-0.3 2.1-0.6c0.8-0.1 1.5-0.5 2.3-0.8 0.7-0.2 1.4-0.7 2.1-1.1 0.7-0.4 1.4-0.8 2-1.3 0.6-0.6 1.2-1.1 1.7-1.7 1-1.1 1.8-2.3 2.4-3.4 1.1-2.2 1.4-3.8 1.4-3.8z"/>
				</g>
				<path id="&lt;Path&gt;" class="s7" d="m208.7 329.2c0 0.5-0.4 0.9-1 0.9-0.5 0-0.9-0.4-0.9-0.9 0-0.5 0.4-1 0.9-1 0.6 0 1 0.5 1 1z"/>
				<g id="&lt;Group&gt;">
					<path id="&lt;Path&gt;" class="s30" d="m206.7 323c0 0 1.1-0.5 1.9 0.7 1.1 1.6 0.8 3.2-0.4 2.9-0.7-0.1-0.7-1-0.4-1.5 0.3-0.6 0.9-0.4 0.9-0.4 0 0-0.4-1.9-2-1.7z"/>
				</g>
				<path id="&lt;Path&gt;" class="s37" d="m239.1 397.1q-1.5 0.2-3.3 0.3v-1c0 0 1-2.2 1.4-3.6 0.4-1.2 0.9-3.5 1-4.1 0 0.4 0 1.3 0.1 2.8 0 1.5 0.6 4.4 0.8 5.6z"/>
				<path id="&lt;Compound Path&gt;" fill-rule="evenodd" class="s15" d="m237.7 259.6q-1.5 2.1-3.4 3.8l-13.9 14c-0.4 0.4-1 0.4-1.4 0l-13.9-14q-1.9-1.7-3.4-3.8c-2.4-3.5-3.8-7.8-3.8-12.3 0-14.8 14.5-26.1 30-20.4 5.5 2.1 10 6.5 12 12 2.9 7.6 1.6 15.1-2.2 20.7zm-22.8-9.3c0.4 0.8 1 1.4 1.7 1.8 5.4 2.9 10.9-2.6 7.9-8-0.4-0.7-1-1.3-1.7-1.6-5.4-3-10.9 2.4-7.9 7.8z"/>
			</g>
			<g id="&lt;Group&gt;">
				<g id="&lt;Group&gt;">
					<g id="&lt;Group&gt;">
						<path id="&lt;Path&gt;" class="s39" d="m984.1 318.3h-35.1c-2.1 0-3.8-1.7-3.8-3.8v-24.7c0-2.1 1.7-3.8 3.8-3.8h35.1c2.1 0 3.8 1.7 3.8 3.8v24.7c0 2.1-1.7 3.8-3.8 3.8z"/>
					</g>
					<g id="&lt;Group&gt;">
						<path id="&lt;Path&gt;" class="s39" d="m954.3 315.8c0 0 1.3 12.2-6.2 13.4 0 0 14.8 3.4 14.5-13.4"/>
					</g>
				</g>
				<g id="&lt;Group&gt;">
					<path id="&lt;Path&gt;" class="s40" d="m956.5 302.2c0 1.3-1.1 2.4-2.5 2.4-1.3 0-2.4-1.1-2.4-2.4 0-1.4 1.1-2.5 2.4-2.5 1.4 0 2.5 1.1 2.5 2.5z"/>
					<path id="&lt;Path&gt;" class="s40" d="m969 302.2c0 1.3-1.1 2.4-2.5 2.4-1.3 0-2.4-1.1-2.4-2.4 0-1.4 1.1-2.5 2.4-2.5 1.4 0 2.5 1.1 2.5 2.5z"/>
					<path id="&lt;Path&gt;" class="s40" d="m981.5 302.2c0 1.3-1.1 2.4-2.4 2.4-1.4 0-2.5-1.1-2.5-2.4 0-1.4 1.1-2.5 2.5-2.5 1.3 0 2.4 1.1 2.4 2.5z"/>
				</g>
			</g>
			<g id="&lt;Group&gt;">
				<g id="&lt;Group&gt;">
					<g id="&lt;Group&gt;">
						<g id="&lt;Group&gt;">
							<path id="&lt;Path&gt;" class="s39" d="m309.5 307.1h35c2.1 0 3.8-1.7 3.8-3.8v-24.7c0-2.1-1.7-3.8-3.8-3.8h-35c-2.1 0-3.9 1.7-3.9 3.8v24.7c0 2.1 1.8 3.8 3.9 3.8z"/>
						</g>
						<g id="&lt;Group&gt;">
							<path id="&lt;Path&gt;" class="s39" d="m339.3 304.6c0 0-1.3 12.2 6.1 13.4 0 0-14.8 3.4-14.5-13.4"/>
						</g>
					</g>
					<g id="&lt;Group&gt;">
						<path id="&lt;Path&gt;" class="s40" d="m337.1 291c0 1.3 1.1 2.4 2.4 2.4 1.3 0 2.4-1.1 2.4-2.4 0-1.4-1.1-2.5-2.4-2.5-1.3 0-2.4 1.1-2.4 2.5z"/>
						<path id="&lt;Path&gt;" class="s40" d="m324.6 291c0 1.3 1.1 2.4 2.4 2.4 1.3 0 2.4-1.1 2.4-2.4 0-1.4-1.1-2.5-2.4-2.5-1.3 0-2.4 1.1-2.4 2.5z"/>
						<path id="&lt;Path&gt;" class="s40" d="m312.1 291c0 1.3 1 2.4 2.4 2.4 1.3 0 2.4-1.1 2.4-2.4 0-1.4-1.1-2.5-2.4-2.5-1.4 0-2.4 1.1-2.4 2.5z"/>
					</g>
				</g>
				<g id="&lt;Group&gt;">
					<g id="&lt;Group&gt;">
						<path id="&lt;Path&gt;" class="s22" d="m380.7 627.7c0 0 1.9 2 2.4 4.9 0.4 2.9-0.4 5.3-0.4 5.9 0 0.7-2.6 1.3-6.1 1.3-3.6 0.1-5.4-0.8-6.9-1-1.4-0.2-7.6 0.9-10.7 1-3.1 0.1-7.4-0.2-8.7-0.8-1.3-0.6-2-4.2 4.5-4.8 3.8-0.3 8.4-2.4 11.5-4 2.3-1.1 3.5-1.9 3.5-1.9 0 0 0.3-2 1-1.9 1.1 0.1 3.6 1.6 5.2 1.7 2 0 3.9 0 4.7-0.4z"/>
					</g>
					<g id="&lt;Group&gt;">
						<path id="&lt;Path&gt;" class="s22" d="m429.1 627.7c0 0 1.9 2 2.4 4.9 0.4 2.9-0.4 5.3-0.4 5.9 0 0.7-2.6 1.3-6.1 1.3-3.6 0.1-5.4-0.8-6.9-1-1.4-0.2-4.6 0.8-7.7 0.9-3.1 0.1-10.4-0.1-11.6-0.7-1.3-0.6 1.4-5 7.9-5.6 3.7-0.3 4.5-1.1 7.6-2.6 1.3-0.6 2.5-1.5 3.5-2.1 0.7-0.6 0.6-1.8 1.1-2.1 1.2-0.5 2.6 1.4 5.1 1.5 2.1 0 4.2 0 5.1-0.4z"/>
					</g>
					<path id="&lt;Path&gt;" class="s41" d="m363.9 542.7c0.6 12.4 4.6 58.4 6.9 83.7 4.9 4 7.7 1.8 9.9 1.3 0.7-10.4 3.9-31.4 5.3-42.2 1.9-14.4 3.7-28.3 1-38.5-1-3.8-1.1-7.7 0.1-11.3q0.2-0.5 0.3-1 0.1-0.1 0.1-0.2 0.4-1.2 0.8-2.4 0 0 0-0.1c3.7-11.1 8.4-25.4 11.1-35.4 1.2 17.4 2.9 42.4 3.7 48.3q0.2 1 0.4 1.9c2 12.9 11.8 54.5 15.8 80.3 3.7 2.1 4.6 3 9.8 0.6-0.3-8.9 2.5-29.4 2.8-38.9 0.2-11.4 0.4-22.9-2.1-32.7-2.3-9.1-3-18.4-1.6-27.7 2.1-12.7 4.4-27.3 5-36.3 1-3.8 8.2-34.5-16-54.8 0 0-20.8 6.3-34.1 7-10.4 0.6-13.1 3.3-13.1 3.3 0 0-2 19.3-3.6 37.7-0.7 16.5-1.8 44.2-2.3 50.7q-0.2 2.3 0 4.2c-0.2 0.8-0.2 1.6-0.2 2.5z"/>
					<path id="&lt;Path&gt;" class="s42" d="m388.3 532c3.7-11.1 8.4-25.4 11.1-35.4l-1.7-22.5c0 0-4.3 41-9.4 57.9z"/>
					<g id="&lt;Group&gt;">
						<path id="&lt;Path&gt;" class="s28" d="m358.8 371.3l-20.3 35.1c0 0-1.7 9.9 9.3 7.9 11-1.9 26-30.3 26-30.3"/>
					</g>
					<g id="&lt;Group&gt;">
						<path id="&lt;Path&gt;" class="s28" d="m363.7 400.1c0 0-7.6 10.1-10.9 12.6-2.7 2-7 4.2-10.8 1.7-3.8-2.4-22.2-17.9-36.4-34.2 0 0 2.2-2.1 4.3-4.8 0 0 7.7 6.6 17.8 12 10.1 5.3 18.4 12.3 18.4 12.3"/>
					</g>
					<path id="&lt;Path&gt;" class="s43" d="m349.1 385.1c0 0 5.6 7 14.6 10.5 1.6 0.6 3.3 1.1 5.1 1.4l-0.5-23.8-0.4-19.3c0 0-14.7 22.8-18.8 31.2z"/>
					<path id="&lt;Path&gt;" class="s44" d="m363.7 395.6c1.6 0.6 3.3 1.1 5.1 1.4l-0.5-23.8c-1.4 5.4-3.5 14.1-4.6 22.4z"/>
					<path id="&lt;Path&gt;" class="s43" d="m431.5 396.1c1-12.5 2.7-26.9 3-34.9-1.4-2.6-3.1-4.7-4.7-6.4-4.8-5.2-9.5-6.9-10.2-7.1q-0.1 0-0.1-0.1c-7.1-1.9-15.2-3.1-20.1-3.3-14.3-0.4-28.1 5.9-31.5 9.6-1.4 1.5-0.9 16.1 0.2 32.6-0.1 7.1 2 21.7 2.2 34.8 0.2 16.7-1.5 31.6-1.5 31.6 28.3 9.1 62.3-0.6 62.3-0.6-1.4-4-2.4-11.2-3-18.5l3-32.1q0.2-2.7 0.4-5.6z"/>
					<g id="&lt;Group&gt;">
						<path id="&lt;Path&gt;" class="s22" d="m373.1 302.1c0 0-1.7 14 2.9 15.4 4.5 1.5 4-4.6 4-4.6v-6.8"/>
						<g id="&lt;Group&gt;">
							<path id="&lt;Path&gt;" class="s28" d="m408 347.5c0 0-4.2 7.5-16.8 5.9-12.7-1.5-4.9-8-4.9-8 0 0 0.6-1.9 1.3-4.4 0.7-2.4 1.6-5.4 2.1-7.8l4.7-3.9 9.9-8.3c0 0-1.3 20.1 3.7 26.5z"/>
						</g>
						<g id="&lt;Group&gt;">
							<path id="&lt;Path&gt;" class="s30" d="m400.5 329.3c0 0-4 8.8-12.9 11.7 0.7-2.4 1.6-5.4 2.1-7.8l4.7-3.9z"/>
						</g>
						<g id="&lt;Group&gt;">
							<path id="&lt;Path&gt;" class="s28" d="m375.1 306.4c0 0-1.6 27.9 6.9 31 0 0 9.4 2 17.6-7 2.3-2.6 4.1-5.6 5.3-8.9 1.9-5.3 4.9-15.2 3-21.6-2.7-9-30.4-14.6-32.8 6.5z"/>
						</g>
						<path id="&lt;Path&gt;" class="s22" d="m377.1 300.1c0 0 6.7-0.6 11.8 1.8 5.1 2.3 1.7 10.9 5.6 15 4 4.1 17.2-0.3 17.2-0.3 0 0 5.5-16.6-3.2-19.4-8.6-12.1-25-10-31.4 2.9z"/>
						<path id="&lt;Path&gt;" class="s22" d="m397.3 314.2c0 0 4.1 0.6 5.3 6.9 1.2 6.4-0.2 15.4 1.9 15.4 2 0 0.7-5.3 3.4-9.5 1.3-2.1 6.4-12 3.4-21.4-3-9.6-14.3-18.6-21.8-15.8-7.3 2.7 7.8 24.4 7.8 24.4z"/>
						<g id="&lt;Group&gt;">
							<path id="&lt;Path&gt;" class="s28" d="m397.3 318.5c0 0 0.9-5.2 4.6-4.3 4.9 1.3 1.6 13.8-3.4 11.2"/>
						</g>
						<path id="&lt;Path&gt;" class="s22" d="m393.2 305.5c0 0-22.6 6.7-26.2-9.6 0 0-0.6-3.7 0.5-4.1 1.1-0.5 13.4 0 23.1-2.4"/>
					</g>
					<g id="&lt;Group&gt;">
						<path id="&lt;Path&gt;" class="s28" d="m437.4 375.4c0 0 4.2 23.4 5.5 35.8 0.6 5.2-0.4 4.8-0.6 5.7-0.9 3-9.2 5.5-13.5 1-3.6-9.3-10-34.9-10-34.9"/>
					</g>
					<path id="&lt;Path&gt;" class="s43" d="m415.1 371.8c0 8 2.2 23.8 2.2 23.8 3.9 1.6 9.4 1.3 14.2 0.5 5.8-1 11.4-2.9 11.4-2.9 0 0-0.8-9.1-2.9-17.4-1.7-6.8-4.5-12.9-5.5-14.6-1.4-2.6-3.1-4.7-4.7-6.4z"/>
					<g id="&lt;Group&gt;">
						<path id="&lt;Path&gt;" class="s28" d="m426.7 408.2c0 0 10.9-2.8 12.3-2.2 1.4 0.5 3.8 1.8 4.1 6.3 0.2 4.5-1.1 28.5-5.6 49.6 0 0-3-0.4-6.3-0.5 0 0 0.6-10.1-1.2-21.4-1.8-11.2-1.2-22.1-1.2-22.1"/>
					</g>
					<path id="&lt;Path&gt;" class="s43" d="m419.6 347.7c0 0 10.3 3.1 13.2 7.4 2.8 4.1 7.2 20.7 7.2 20.7l-11.4-5"/>
					<g id="&lt;Group&gt;">
						<path id="&lt;Path&gt;" class="s10" d="m426.5 471.5c4-1 11.3-1.6 16.9 0.9 6.5 3 7.5 14.7 7.5 14.7h-2.8c0 0-0.6-8.2-5.5-11.7-2.9-2.1-10.9-2.2-14.2-1.6-2.4 0.5-5.2 2-6.7 6.8-1.5 4.8-1.4 6.5-1.4 6.5h-2.6c0 0 0.4-13.5 8.8-15.6z"/>
					</g>
					<g id="&lt;Group&gt;">
						<path id="&lt;Path&gt;" class="s28" d="m431.2 459.9c0 0 0.1 2.7-1.4 4.5-0.8 1-1.6 1.2-2.2 2-0.6 0.7-2 2.8-3.2 3.6-1.1 0.8-1.4 1.2-0.3 1.8 1.1 0.6 3.3-1.1 3.9-1.5 0.6-0.5 1.6-0.5 2.1-0.3 0.5 0.3 0.3 3.3-1.3 3.8 0 0 1.3 2.1 1.9 2.2 0.6 0.1 1.2-0.5 1.5-0.4 0.2 0 0.6 0.5 1.1 0.6 0.5 0 0.9-0.6 1.7-0.6 0.8 0.1 0.6 0.4 1.4 0.6 0.8 0.1 1.4-0.7 1.8-0.6 0.4 0 0.8 0.3 1.2 0.1 0.5-0.3 1.2-4.2 1.3-5.7 0.2-1.5-2.8-7.3-2.4-11.8"/>
					</g>
					<g id="&lt;Group&gt;">
						<path id="&lt;Path&gt;" class="s28" d="m310.9 376.2c0 0-4.6-9.6-7.8-11.9 0 0-1.1 0.2-1 1.5 0.2 1.4 2.1 3 2.2 4.3 0.1 1.2-0.7 1.1-1.8 0.8-1-0.2-8.8-4.4-9.5-4-0.8 0.4 0 1.2 0.5 1.6 0.6 0.4 4.7 3 4.7 3 0 0-7.4-4-8-2.6-0.3 0.9 6.6 4.4 6.6 4.4 0 0-5.9-3.3-6.2-2-0.2 1 4.8 3.3 4.8 3.3 0 0-3.1-1.6-3.3-0.9-0.3 1 4 3.2 5.3 4 1.2 0.8 4.3 2.1 5.5 2.1 1.2-0.1 2.1-0.2 2.8 0.5"/>
					</g>
				</g>
				<g id="&lt;Group&gt;">
					<g id="&lt;Group&gt;">
						<path id="&lt;Path&gt;" class="s45" d="m466.2 570.4h-62.4c-2.4 0-4.4-2-4.4-4.4v-76c0-2.5 2-4.4 4.4-4.4h62.4c2.4 0 4.4 1.9 4.4 4.4v76c0 2.4-2 4.4-4.4 4.4z"/>
					</g>
					<g id="&lt;Group&gt;">
						<path id="&lt;Path&gt;" class="s27" d="m466.2 555.2h-62.4c-2.4 0-4.4-1.9-4.4-4.3v-61c0-2.4 2-4.3 4.4-4.3h62.4c2.4 0 4.4 1.9 4.4 4.3v61c0 2.4-2 4.3-4.4 4.3z"/>
					</g>
					<g id="&lt;Group&gt;">
						<path id="&lt;Path&gt;" class="s45" d="m435.2 515c0 0-26.4 0.2-34.4-17.4 0 0 5.3 20.5 34.4 20.5 29.1 0 34.4-20.5 34.4-20.5-8 17.6-34.4 17.4-34.4 17.4z"/>
					</g>
					<path id="&lt;Path&gt;" class="s46" d="m439.1 520.9h-8.9c-0.7 0-1.2-0.5-1.2-1.2v-6.1c0-0.7 0.5-1.2 1.2-1.2h8.9c0.6 0 1.1 0.5 1.1 1.2v6.1c0 0.7-0.5 1.2-1.1 1.2z"/>
				</g>
			</g>
			<g id="&lt;Group&gt;">
				<g id="&lt;Group&gt;" style="opacity: .4">
					<path id="&lt;Path&gt;" class="s0" d="m121 493.4c0 8-6.5 14.5-14.5 14.5-8 0-14.5-6.5-14.5-14.5 0-8 6.5-14.5 14.5-14.5 8 0 14.5 6.5 14.5 14.5z"/>
				</g>
				<g id="&lt;Group&gt;" style="opacity: .4">
					<path id="&lt;Path&gt;" class="s0" d="m812.9 209.8c0 8-6.5 14.5-14.5 14.5-8 0-14.5-6.5-14.5-14.5 0-8 6.5-14.5 14.5-14.5 8 0 14.5 6.5 14.5 14.5z"/>
				</g>
				<g id="&lt;Group&gt;" style="opacity: .4">
					<path id="&lt;Path&gt;" class="s0" d="m1166 409.1c0 11-8.9 19.9-19.9 19.9-11 0-20-8.9-20-19.9 0-11 9-19.9 20-19.9 11 0 19.9 8.9 19.9 19.9z"/>
				</g>
				<g id="&lt;Group&gt;" style="opacity: .6">
					<path id="&lt;Path&gt;" class="s0" d="m1033 458.1c0 5.5-4.4 10-9.9 10-5.5 0-10-4.5-10-10 0-5.5 4.5-10 10-10 5.5 0 9.9 4.5 9.9 10z"/>
				</g>
				<g id="&lt;Group&gt;" style="opacity: .6">
					<path id="&lt;Path&gt;" class="s0" d="m293.7 262.3c0 3.6-3 6.5-6.6 6.5-3.6 0-6.5-2.9-6.5-6.5 0-3.6 2.9-6.5 6.5-6.5 3.6 0 6.6 2.9 6.6 6.5z"/>
				</g>
				<g id="&lt;Group&gt;" style="opacity: .6">
					<path id="&lt;Path&gt;" class="s0" d="m238.6 41c0 3.7-2.9 6.6-6.5 6.6-3.6 0-6.5-2.9-6.5-6.6 0-3.6 2.9-6.5 6.5-6.5 3.6 0 6.5 2.9 6.5 6.5z"/>
				</g>
				<g id="&lt;Group&gt;" style="opacity: .6">
					<path id="&lt;Path&gt;" class="s0" d="m627.2 120.1c0 3.6-3 6.6-6.6 6.6-3.6 0-6.5-3-6.5-6.6 0-3.6 2.9-6.5 6.5-6.5 3.6 0 6.6 2.9 6.6 6.5z"/>
				</g>
				<g id="&lt;Group&gt;" style="opacity: .6">
					<path id="&lt;Path&gt;" class="s0" d="m144.5 444.1c0 3.6-2.9 6.5-6.5 6.5-3.6 0-6.5-2.9-6.5-6.5 0-3.6 2.9-6.5 6.5-6.5 3.6 0 6.5 2.9 6.5 6.5z"/>
				</g>
				<g id="&lt;Group&gt;" style="opacity: .6">
					<path id="&lt;Path&gt;" class="s0" d="m808.2 450.6c0 3.6-2.9 6.6-6.5 6.6-3.6 0-6.5-3-6.5-6.6 0-3.6 2.9-6.5 6.5-6.5 3.6 0 6.5 2.9 6.5 6.5z"/>
				</g>
				<g id="&lt;Group&gt;" style="opacity: .6">
					<path id="&lt;Path&gt;" class="s0" d="m994.2 262.3c0 3.6-2.9 6.5-6.5 6.5-3.6 0-6.6-2.9-6.6-6.5 0-3.6 3-6.5 6.6-6.5 3.6 0 6.5 2.9 6.5 6.5z"/>
				</g>
				<g id="&lt;Group&gt;" style="opacity: .6">
					<path id="&lt;Path&gt;" class="s0" d="m947.8 163.2c0 5.5-4.5 9.9-10 9.9-5.5 0-10-4.4-10-9.9 0-5.5 4.5-10 10-10 5.5 0 10 4.5 10 10z"/>
				</g>
				<g id="&lt;Group&gt;" style="opacity: .4">
					<path id="&lt;Path&gt;" class="s0" d="m442.1 120.1c0 14.5-11.7 26.2-26.2 26.2-14.4 0-26.1-11.7-26.1-26.2 0-14.4 11.7-26.1 26.1-26.1 14.5 0 26.2 11.7 26.2 26.1z"/>
				</g>
				<g id="&lt;Group&gt;">
					<g id="&lt;Group&gt;">
						<path id="&lt;Path&gt;" class="s47" d="m191.6 186.7v12.6"/>
					</g>
					<g id="&lt;Group&gt;">
						<path id="&lt;Path&gt;" class="s47" d="m197.9 193h-12.6"/>
					</g>
				</g>
				<g id="&lt;Group&gt;">
					<g id="&lt;Group&gt;">
						<path id="&lt;Path&gt;" class="s47" d="m272 325.3v12.6"/>
					</g>
					<g id="&lt;Group&gt;">
						<path id="&lt;Path&gt;" class="s47" d="m278.3 331.6h-12.6"/>
					</g>
				</g>
				<g id="&lt;Group&gt;">
					<g id="&lt;Group&gt;">
						<path id="&lt;Path&gt;" class="s48" d="m486.7 70.2v12.6"/>
					</g>
					<g id="&lt;Group&gt;">
						<path id="&lt;Path&gt;" class="s48" d="m493 76.5h-12.6"/>
					</g>
				</g>
				<g id="&lt;Group&gt;">
					<g id="&lt;Group&gt;">
						<path id="&lt;Path&gt;" class="s48" d="m848.3 231.2v12.6"/>
					</g>
					<g id="&lt;Group&gt;">
						<path id="&lt;Path&gt;" class="s48" d="m854.5 237.5h-12.5"/>
					</g>
				</g>
				<g id="&lt;Group&gt;">
					<g id="&lt;Group&gt;">
						<path id="&lt;Path&gt;" class="s48" d="m1092 295.9v12.6"/>
					</g>
					<g id="&lt;Group&gt;">
						<path id="&lt;Path&gt;" class="s48" d="m1098.3 302.2h-12.6"/>
					</g>
				</g>
				<g id="&lt;Group&gt;">
					<g id="&lt;Group&gt;">
						<path id="&lt;Path&gt;" class="s48" d="m1166 511.8v12.6"/>
					</g>
					<g id="&lt;Group&gt;">
						<path id="&lt;Path&gt;" class="s48" d="m1172.3 518.1h-12.6"/>
					</g>
				</g>
			</g>
			<g id="&lt;Group&gt;">
				<g id="&lt;Group&gt;">
					<g id="&lt;Group&gt;">
						<path id="&lt;Path&gt;" class="s23" d="m476 719.6h-28.5c-5 0-9.1-4.1-9.1-9.2v-90.2c0-5 4.1-9.1 9.1-9.1h28.5c5.1 0 9.1 4.1 9.1 9.1v90.2c0 5.1-4 9.2-9.1 9.2z"/>
					</g>
					<g id="&lt;Group&gt;">
						<path id="&lt;Path&gt;" class="s49" d="m476.1 694.7h-28.7c-5 0-9-4.1-9-9.1v-65.5c0-4.9 4-9 9-9h28.7c5 0 9 4.1 9 9v65.5c0 5-4 9.1-9 9.1z"/>
					</g>
				</g>
				<g id="&lt;Group&gt;">
					<g id="&lt;Group&gt;">
						<path id="&lt;Path&gt;" class="s23" d="m782.5 719.6h-28.5c-5.1 0-9.1-4.1-9.1-9.2v-90.2c0-5 4-9.1 9.1-9.1h28.5c5 0 9.1 4.1 9.1 9.1v90.2c0 5.1-4.1 9.2-9.1 9.2z"/>
					</g>
					<g id="&lt;Group&gt;">
						<path id="&lt;Path&gt;" class="s49" d="m782.6 694.7h-28.7c-5 0-9-4.1-9-9.1v-65.5c0-4.9 4-9 9-9h28.7c5 0 9 4.1 9 9v65.5c0 5-4 9.1-9 9.1z"/>
					</g>
				</g>
				<g id="&lt;Group&gt;">
					<path id="&lt;Path&gt;" class="s50" d="m650.6 447c-0.4-1.4-1.6-2.5-3.1-2.9q-0.1 0-0.2 0c-21.3-4.6-43.3-4.6-64.6 0q-0.1 0-0.2 0c-1.5 0.4-2.7 1.5-3.1 2.9l-5.2 16.3 40.8-1.4 40.8 1.4z"/>
				</g>
				<path id="&lt;Path&gt;" class="s26" d="m777.8 656.5l-0.2-0.1v33.3h-19.4c-19.3 0-143.2 0-143.2 0 0 0-0.5 0-1.4 0h-161.2v-33.3l-0.2 0.1c0 0-9.2-26.8-4.4-51.7 1.9-9.6 4.2-16.8 6.2-21.8 2.9-7.3 5.3-10.3 5.3-10.3q0.8-1.2 1.6-2.3c8.7-11.6 20.5-24.3 20.5-24.3 13.2-37 36-72.1 36-72.1 7.3-4.6 23.6-7.9 40.9-10.3 37.6-5.1 75.8-5.1 113.4 0 17.3 2.4 33.6 5.7 40.9 10.3 0 0 22.8 35.1 36 72.1 0 0 11.8 12.7 20.5 24.3 0.6 0.8 1.1 1.6 1.6 2.4v-0.1c0 0 2.1 2.6 4.8 8.9 2.1 5.1 4.6 12.6 6.7 23.2 4.8 24.9-4.4 51.7-4.4 51.7z"/>
				<path id="&lt;Path&gt;" class="s51" d="m727.8 543.6c0 0 29.4 26 28.7 30.3-0.7 4.3-16.9 7.8-32.7 17.5-15.9 9.7-54.6 18.1-109.4 18.1-54.8 0-93.5-8.4-109.4-18.1-15.8-9.7-32.1-13.2-32.8-17.5-0.6-4.3 28.7-30.3 28.7-30.3"/>
				<path id="&lt;Path&gt;" class="s52" d="m777.8 656.5l-0.2-0.1v32.9q-0.5 0.2-1.1 0.4h-18.3c-19.3 0-143.2 0-143.2 0 0 0-0.5 0-1.4 0h-161.2v-33.3l-0.2 0.1c0 0-9.2-26.8-4.4-51.7 1.9-9.6 4.2-16.8 6.2-21.8q0.8 0.4 1.8 0.7c6.8 1.9 17.7 2.1 33.3 9.9 18.6 9.4 38.7 15.7 59.5 17.8 21.9 2.2 47.9 4.4 63.5 4.1h3c15.6 0.3 41.6-1.9 63.5-4.1 20.8-2.1 40.9-8.4 59.5-17.8 15.6-7.8 26.4-8 33.3-9.9 1.7-0.5 3.1-1.2 4.1-2.1 2.1 5.1 4.6 12.6 6.7 23.2 4.8 24.9-4.4 51.7-4.4 51.7z"/>
				<g id="&lt;Group&gt;">
					<path id="&lt;Path&gt;" class="s53" d="m728.4 547.5c-17.8-2.1-71.5-8.1-113.4-8.1-41.9 0-95.6 6-113.4 8.1-2.9 0.3-5.2-2.4-4.4-5.2 3.1-10.1 7.4-21.6 11.7-32 5-12.2 9.9-23 12.5-28.7 1.3-2.7 3.5-4.9 6.3-6 25.5-9.8 65.5-10.7 87.3-10.7 21.8 0 61.8 0.9 87.3 10.7 2.8 1.1 5 3.3 6.3 6 4.8 10.5 17.6 38.8 24.2 60.7 0.9 2.8-1.5 5.5-4.4 5.2z"/>
				</g>
				<path id="&lt;Path&gt;" class="s54" d="m732.8 542.3c-3.1-10.1-7.4-21.6-11.7-32-12.9 7.4-42.9 18.6-106.1 18.6-63.2 0-93.2-11.2-106.1-18.6-4.3 10.4-8.6 21.9-11.7 32-0.8 2.8 1.5 5.5 4.4 5.2 17.8-2.1 71.5-8.1 113.4-8.1 41.9 0 95.6 6 113.4 8.1 2.9 0.3 5.3-2.4 4.4-5.2z"/>
				<text id="TAXI
" style="transform: matrix(2,0,0,2,613.734,456.938)" >
					<tspan x="-11.7" y="0" class="t55" dx="0 1 1 1 1" >TAXI
</tspan>
				</text>
				<g id="&lt;Group&gt;">
					<path id="&lt;Path&gt;" class="s56" d="m487.1 609.2c3.8 7.6 3.5 19.6-4.1 23.4-7.5 3.7-19.5-2.3-23.3-9.8-3.7-7.6-0.6-16.8 6.9-20.5 7.6-3.8 16.8-0.7 20.5 6.9z"/>
					<path id="&lt;Path&gt;" class="s54" d="m487.8 614.3c0 8.5-6.8 15.3-15.3 15.3-8.4 0-15.3-6.8-15.3-15.3 0-8.4 6.9-15.3 15.3-15.3 8.5 0 15.3 6.9 15.3 15.3z"/>
					<g id="&lt;Group&gt;">
						<path id="&lt;Path&gt;" class="s53" d="m478.8 612.4c0 5-4.1 9-9 9-5 0-9-4-9-9 0-4.9 4-9 9-9 4.9 0 9 4.1 9 9z"/>
					</g>
				</g>
				<g id="&lt;Group&gt;">
					<path id="&lt;Path&gt;" class="s56" d="m511.5 629.1c2.4 4.9 2.2 12.6-2.7 15.1-4.9 2.4-12.6-1.5-15-6.4-2.4-4.9-0.4-10.8 4.4-13.2 4.9-2.4 10.9-0.4 13.3 4.5z"/>
					<path id="&lt;Path&gt;" class="s54" d="m511.9 632.4c0 5.4-4.4 9.9-9.9 9.9-5.4 0-9.8-4.5-9.8-9.9 0-5.5 4.4-9.9 9.8-9.9 5.5 0 9.9 4.4 9.9 9.9z"/>
					<g id="&lt;Group&gt;">
						<path id="&lt;Path&gt;" class="s53" d="m506.1 631.2c0 3.2-2.6 5.8-5.8 5.8-3.2 0-5.8-2.6-5.8-5.8 0-3.2 2.6-5.8 5.8-5.8 3.2 0 5.8 2.6 5.8 5.8z"/>
					</g>
				</g>
				<g id="&lt;Group&gt;">
					<path id="&lt;Path&gt;" class="s56" d="m742.2 609.2c-3.8 7.6-3.5 19.6 4.1 23.4 7.6 3.7 19.6-2.3 23.3-9.8 3.7-7.6 0.6-16.8-6.9-20.5-7.6-3.8-16.8-0.7-20.5 6.9z"/>
					<path id="&lt;Path&gt;" class="s54" d="m741.5 614.3c0 8.5 6.9 15.3 15.3 15.3 8.4 0 15.3-6.8 15.3-15.3 0-8.4-6.9-15.3-15.3-15.3-8.4 0-15.3 6.9-15.3 15.3z"/>
					<g id="&lt;Group&gt;">
						<path id="&lt;Path&gt;" class="s53" d="m750.6 612.4c0 5 4 9 8.9 9 5 0 9-4 9-9 0-4.9-4-9-9-9-4.9 0-8.9 4.1-8.9 9z"/>
					</g>
				</g>
				<g id="&lt;Group&gt;">
					<path id="&lt;Path&gt;" class="s56" d="m717.9 629.1c-2.5 4.9-2.3 12.6 2.6 15.1 4.9 2.4 12.6-1.5 15.1-6.4 2.4-4.9 0.4-10.8-4.5-13.2-4.9-2.4-10.8-0.4-13.2 4.5z"/>
					<path id="&lt;Path&gt;" class="s54" d="m717.4 632.4c0 5.4 4.4 9.9 9.9 9.9 5.4 0 9.9-4.5 9.9-9.9 0-5.5-4.5-9.9-9.9-9.9-5.5 0-9.9 4.4-9.9 9.9z"/>
					<g id="&lt;Group&gt;">
						<path id="&lt;Path&gt;" class="s53" d="m723.3 631.2c0 3.2 2.6 5.8 5.8 5.8 3.2 0 5.8-2.6 5.8-5.8 0-3.2-2.6-5.8-5.8-5.8-3.2 0-5.8 2.6-5.8 5.8z"/>
					</g>
				</g>
				<path id="&lt;Path&gt;" class="s57" d="m608.6 628.8v24.3c0 2.5-2 4.6-4.6 4.5-11.5-0.1-42-0.8-61.1-4.4-4.1-0.7-7.5-3.4-9.2-7.1-1.2-2.4-3-5.4-5.8-8.5-4.1-4.5-6.2-10.9-7.3-15.4-0.6-2.5 1.6-4.8 4.1-4.4 12.5 1.8 46.3 6.3 79.4 6.5 2.5 0 4.5 2 4.5 4.5z"/>
				<path id="&lt;Path&gt;" class="s57" d="m618.6 628.8v24.3c0 2.5 2 4.6 4.5 4.5 11.6-0.1 42.1-0.8 61.2-4.4 4-0.7 7.5-3.4 9.2-7.1 1.1-2.4 2.9-5.4 5.8-8.5 4.1-4.5 6.2-10.9 7.2-15.4 0.6-2.5-1.5-4.8-4.1-4.4-12.4 1.8-46.3 6.3-79.3 6.5-2.5 0-4.5 2-4.5 4.5z"/>
				<path id="&lt;Path&gt;" class="s58" d="m780.9 658.2c-0.4-1.3-1.8-2-3.1-1.7-9.5 2.3-51.5 10.6-162.8 10.6-111.3 0-153.3-8.3-162.8-10.6-1.3-0.3-2.6 0.4-3.1 1.7-4.5 12.9-0.6 25.4 1.8 31.2 0.9 2.1 2.6 3.7 4.8 4.3 44.5 11.8 159.3 10.9 159.3 10.9 0 0 114.9 0.9 159.4-10.9 2.1-0.6 3.9-2.2 4.8-4.3 2.3-5.8 6.2-18.3 1.7-31.2z"/>
				<g id="&lt;Group&gt;">
					<path id="&lt;Path&gt;" class="s7" d="m652.8 694.7h-78.4c-1.3 0-2.3-1.1-2.3-2.4v-14.5c0-1.3 1-2.3 2.3-2.3h78.4c1.3 0 2.3 1 2.3 2.3v14.5c0 1.3-1 2.4-2.3 2.4z"/>
				</g>
				<g id="&lt;Group&gt;">
					<path id="&lt;Path&gt;" class="s26" d="m473.5 554.9c0.2-0.5 1.9-3.8-0.4-5.7-0.7-0.5-1.8-0.8-2.9-1-2.1-0.2-4.2 0.6-5.6 2.2-0.8 1-2.4 2.1-5 2.5-5.8 0.9-18.8-1.6-23-6-2.5-2.6-3.2-7.9-1-12.6q0.1-0.1 0.1-0.1c1.6-3.3 4.6-6.3 9.5-7.8 11.7-3.5 27.5 0.1 32.8 3.7 5.2 3.7 7.6 16.7 7.6 16.7l-12.2 8.2q0.1 0 0.1-0.1z"/>
					<path id="&lt;Path&gt;" class="s52" d="m473.5 554.9c0.2-0.5 1.9-3.8-0.4-5.7-0.7-0.5-1.8-0.8-2.9-1-2.1-0.2-4.2 0.6-5.6 2.2-0.8 1-2.4 2.1-5 2.5-5.8 0.9-18.8-1.6-23-6-2.5-2.6-3.2-7.9-1-12.6-0.1 1-1.1 8 11.3 10.3 12.5 2.4 15.3-3.3 20.4-3.5 5.1-0.1 12.3 5.2 6.2 13.8z"/>
				</g>
				<g id="&lt;Group&gt;">
					<path id="&lt;Path&gt;" class="s26" d="m756.5 554.9c-0.2-0.5-1.9-3.8 0.4-5.7 0.7-0.5 1.8-0.8 2.9-1 2.1-0.2 4.2 0.6 5.6 2.2 0.8 1 2.4 2.1 5 2.5 5.8 0.9 18.8-1.6 23-6 2.5-2.6 3.2-7.9 1-12.6q-0.1-0.1-0.1-0.1c-1.6-3.3-4.6-6.3-9.5-7.8-11.7-3.5-27.5 0.1-32.8 3.7-5.2 3.7-7.6 16.7-7.6 16.7l12.2 8.2q-0.1 0-0.1-0.1z"/>
					<path id="&lt;Path&gt;" class="s52" d="m756.5 554.9c-0.2-0.5-1.9-3.8 0.4-5.7 0.7-0.5 1.8-0.8 2.9-1 2.1-0.2 4.2 0.6 5.6 2.2 0.8 1 2.4 2.1 5 2.5 5.8 0.9 18.8-1.6 23-6 2.5-2.6 3.2-7.9 1-12.6 0.1 1 1.1 8-11.3 10.3-12.5 2.4-15.3-3.3-20.4-3.5-5.1-0.1-12.3 5.2-6.2 13.8z"/>
				</g>
				<g id="&lt;Group&gt;">
					<g id="&lt;Group&gt;">
						<path id="&lt;Path&gt;" class="s26" d="m532.2 662.9c0 0 1.5 41.8 4.5 42.6 3 0.7 8.9 1 9.9 0.5 2.8-1.4 3.7-42.4 3.7-42.4"/>
						<path id="&lt;Path&gt;" class="s52" d="m532.2 662.9c0 0 1.5 41.8 4.5 42.6 3 0.7 8.9 1 9.9 0.5 2.8-1.4 3.7-42.4 3.7-42.4"/>
					</g>
					<g id="&lt;Group&gt;">
						<path id="&lt;Path&gt;" class="s26" d="m695.2 662.9c0 0-1.5 41.8-4.5 42.6-3 0.7-8.9 1-9.8 0.5-2.8-1.4-3.8-42.4-3.8-42.4"/>
						<path id="&lt;Path&gt;" class="s52" d="m695.2 662.9c0 0-1.5 41.8-4.5 42.6-3 0.7-8.9 1-9.8 0.5-2.8-1.4-3.8-42.4-3.8-42.4"/>
					</g>
				</g>
			</g>
		</g>
	</g>
</svg>