<svg version="1.2" xmlns="http://www.w3.org/2000/svg" viewBox="0 0 1200 800" width="1080" height="720">
	<title>89z_2202_w014_n001_13a_p18_13</title>
	<defs>
		<clipPath clipPathUnits="userSpaceOnUse" id="cp1">
			<path d="m318.04 457.46h24.49c4.92-19.13 12.42-37.21 22-53.94l-17.89-17.9c-7.07-7.07-7.07-18.53 0-25.6l53.9-53.91c7.08-7.07 18.54-7.07 25.61 0l17.36 17.37c16.61-9.81 34.61-17.48 53.66-22.66v-25.28c0-10 8.1-18.1 18.1-18.1h76.24c10 0 18.1 8.1 18.1 18.1v24.49c19.13 4.93 37.21 12.42 53.94 22.01l17.9-17.9c7.07-7.07 18.53-7.07 25.6 0l53.91 53.91c7.07 7.07 7.07 18.53 0 25.6l-17.37 17.37c9.81 16.6 17.48 34.61 22.66 53.65h25.28c10 0 18.1 8.11 18.1 18.11v76.23c0 10-8.1 18.1-18.1 18.1h-24.49c-4.93 19.13-12.42 37.21-22.01 53.94l17.9 17.9c7.07 7.07 7.07 18.53 0 25.6l-53.91 53.91c-7.07 7.07-18.53 7.07-25.6 0l-17.37-17.37c-32.62 19.27-70.64 30.37-111.27 30.37-39.59 0-76.7-10.56-108.76-28.93l-17.9 17.9c-7.07 7.07-18.53 7.07-25.6 0l-53.91-53.91c-7.07-7.07-7.07-18.53 0-25.6l17.36-17.36c-9.8-16.61-17.47-34.62-22.65-53.66h-25.28c-10 0-18.11-8.1-18.11-18.1v-76.24c0-10 8.11-18.1 18.11-18.1z"/>
		</clipPath>
	</defs>
	<style>
		.s0 { opacity: 0;fill: #ffffff } 
		.s1 { fill: #d7e7f3 } 
		.s2 { fill: #f3fbff } 
		.s3 { fill: #59739b } 
		.s4 { fill: #afc547 } 
		.s5 { fill: #f3ae91 } 
		.s6 { fill: #47332a } 
		.s7 { fill: #7f9922 } 
		.s8 { fill: #ebdbc4 } 
		.s9 { fill: #de704b } 
		.s10 { fill: #5e453b } 
		.s11 { fill: #ffffff } 
		.s12 { fill: #97a52f } 
		.s13 { fill: #efbc51 } 
		.s14 { fill: #f5cc72 } 
		.s15 { fill: #f4e6d4 } 
		.s16 { fill: #adadad } 
		.s17 { fill: #999999 } 
		.s18 { fill: #f7f7f7 } 
		.s19 { fill: #697c16 } 
	</style>
	<g id="_Artboards_">
	</g>
	<g id="Layer 1">
		<path id="&lt;Path&gt;" class="s0" d="m1200 800h-1200v-800h1200z"/>
		<path id="&lt;Path&gt;" class="s1" d="m162.8 732.6c0 0-143.6-108.6 39.4-397.8 109.3-172.7 317.7-242.3 555.1-153.4 242.6 90.9 418.1 218.6 371.1 393.7-47 175.2-192.7 156.8-192.7 156.8z"/>
		<g id="&lt;Group&gt;">
			<path id="&lt;Path&gt;" class="s2" d="m946.8 277.7h-133c0 0 0-2.2 0-5.9 0-1.9 0-4.2 0-6.8 2.2-15.4-25.2-21.3-29.4-34-7.4-25.3 48.4-23 69.5-37.9 2.1-1.5 3.2-3 1-5.5-1-1.8-3.1-3.5-5.2-4.9-13.7-9-33.7-16.4-35.8-30.5-0.1-2.6-0.1-4.9-0.1-6.8 0-3.8 0-5.9 0-5.9h133c0 0 0 4.8 0 12.7 0 2.7 0.2 5.6 1.3 8.8 5.6 8.9 23.8 16.9 30.2 25.8q0 0 0 0c2 2.8 1.6 6.6-0.9 8.9-15.8 14.8-50.1 12.5-69.8 25.7-3.1 2.9-4.2 6.7 0 9.6 16.9 9 41.1 17.1 39.2 34 0 2.6 0 4.9 0 6.8 0 3.7 0 5.9 0 5.9z"/>
			<g id="&lt;Group&gt;">
				<path id="&lt;Path&gt;" class="s1" d="m959 166.8l-4.3-10.8-4.3 10.8-10.5 4 10.3 3.3 4.5 11.6 4.5-11.6 10.4-3.3z"/>
			</g>
			<g id="&lt;Group&gt;">
				<path id="&lt;Path&gt;" class="s1" d="m913.6 147.8l-2-5.1-2.1 5.1-5 2 4.9 1.6 2.2 5.5 2.1-5.5 5-1.6z"/>
			</g>
			<g id="&lt;Group&gt;">
				<path id="&lt;Path&gt;" class="s1" d="m821 243.4l-1.8-4.3-1.7 4.3-4.3 1.6 4.2 1.4 1.8 4.6 1.8-4.6 4.2-1.4z"/>
			</g>
			<g id="&lt;Group&gt;">
				<path id="&lt;Compound Path&gt;" class="s3" d="m887.2 209.2q5.5 0 9.3 3.9 1.3 1.3 2.2 2.8c1.6 2.9-0.5 6.4-3.8 6.4h-0.3c-1.5 0-2.8-0.8-3.6-2.1q-0.3-0.5-0.7-1-1.3-1.2-3.1-1.2-1.7 0-3 1.2-1.3 1.3-1.3 3.1v8.7h-8.7v-8.7q0-5.4 3.8-9.2 3.8-3.9 9.2-3.9zm0 26.2q1.8 0 3.1-1.3 0.4-0.4 0.7-0.9c0.8-1.3 2.1-2.2 3.6-2.2h0.3c3.3 0 5.4 3.6 3.8 6.4q-0.9 1.5-2.2 2.9-3.8 3.8-9.3 3.8-5.4 0-9.2-3.8-3.8-3.8-3.8-9.3h8.7q0 1.8 1.3 3.1 1.2 1.3 3 1.3z"/>
				<path id="&lt;Compound Path&gt;" fill-rule="evenodd" class="s3" d="m917.6 209.3q5.4 0 9.2 3.8 3.8 3.9 3.8 9.2v8.8q0 5.4-3.8 9.2-3.8 3.8-9.3 3.8-5.4 0-9.2-3.8-3.8-3.8-3.8-9.3v-8.7q0-5.4 3.8-9.2 3.8-3.9 9.3-3.8zm-0.1 26.1q1.8 0 3.1-1.3 1.3-1.3 1.3-3v-8.8q0-1.8-1.3-3-1.3-1.3-3-1.3-1.8 0-3.1 1.3-1.3 1.2-1.3 3v8.7q0 1.8 1.3 3.1 1.3 1.3 3 1.3z"/>
				<path id="&lt;Compound Path&gt;" class="s3" d="m939.9 229q2.3 0 4 1.7 1.6 1.6 1.6 4c0 2.1-1.7 3.8-3.7 3.8h-1.8c-0.6 0-1.2 0.2-1.6 0.6q-0.3 0.4-0.4 0.9c0 0.2 0.1 0.3 0.3 0.3h5.3c1.1 0 1.9 0.9 1.9 1.9 0 1.1-0.8 1.9-1.9 1.9h-7.5c-1 0-1.9-0.8-1.9-1.9v-1.9q0-2.3 1.7-4 1.6-1.6 4-1.6h0.8c0.6 0 1-0.9 0.5-1.3q0-0.1 0-0.1-0.5-0.5-1.3-0.5h-3.8c-1 0-1.9-0.9-1.9-1.9 0-1.1 0.9-1.9 1.9-1.9z"/>
			</g>
			<g id="&lt;Group&gt;">
				<path id="&lt;Compound Path&gt;" class="s3" d="m832.2 158.7q2.9 0 4.9 2 0.7 0.7 1.2 1.6c0.9 1.5-0.3 3.3-2 3.3h-0.2c-0.8 0-1.5-0.4-1.9-1.1q-0.1-0.3-0.4-0.5-0.6-0.7-1.6-0.7-0.9 0-1.6 0.7-0.7 0.7-0.7 1.6v4.7h-4.6v-4.7q0-2.8 2-4.9 2-2 4.9-2zm0 13.9q1 0 1.6-0.7 0.3-0.2 0.4-0.5c0.4-0.7 1.1-1.1 1.9-1.1h0.2c1.7 0 2.9 1.9 2 3.4q-0.5 0.8-1.2 1.5-2 2-4.9 2-2.9 0-4.9-2-2-2-2-4.9h4.6q0 0.9 0.7 1.6 0.7 0.7 1.6 0.7z"/>
				<path id="&lt;Compound Path&gt;" fill-rule="evenodd" class="s3" d="m848.3 158.7q2.9 0 5 2 2 2.1 2 4.9v4.7q0 2.9-2.1 4.9-2 2-4.9 2-2.9 0-4.9-2-2-2-2-4.9v-4.7q0-2.8 2-4.9 2.1-2 4.9-2zm0 13.9q1 0 1.7-0.7 0.6-0.7 0.6-1.6v-4.7q0-0.9-0.6-1.6-0.7-0.7-1.7-0.7-0.9 0-1.6 0.7-0.7 0.7-0.7 1.6v4.7q0 0.9 0.7 1.6 0.7 0.7 1.6 0.7z"/>
				<path id="&lt;Compound Path&gt;" class="s3" d="m860.2 169.2q1.3 0 2.1 0.9 0.9 0.9 0.9 2.1c0 1.1-0.9 2-2 2h-0.9c-0.3 0-0.6 0.1-0.9 0.4q-0.1 0.2-0.2 0.5c0 0.1 0.1 0.1 0.2 0.1h2.8c0.6 0 1 0.5 1 1 0 0.6-0.4 1-1 1h-4c-0.5 0-1-0.4-1-1v-1q0-1.2 0.9-2.1 0.9-0.9 2.1-0.9h0.4c0.4 0 0.6-0.4 0.3-0.7q0 0 0 0-0.3-0.3-0.7-0.3h-2c-0.5 0-1-0.4-1-1 0-0.6 0.5-1 1-1z"/>
			</g>
		</g>
		<g id="&lt;Group&gt;">
			<g id="&lt;Group&gt;">
				<g id="&lt;Group&gt;">
					<path id="&lt;Path&gt;" class="s4" d="m464 106.6l-94.9-31 9.5 33.5-29.6 20 97.1 31.8z"/>
				</g>
				<g id="&lt;Group&gt;">
					<path id="&lt;Path&gt;" class="s5" d="m470.3 215.6l-37-30.3c0 0-21.1 37.6 11.7 52.8z"/>
				</g>
				<g id="&lt;Group&gt;">
					<path id="&lt;Path&gt;" class="s5" d="m406.6 200.3q-0.2-0.1-0.5-0.2c-2.6-1.4-3.7-4.7-2.3-7.4 4.4-8.4 10.3-10.7 14.5-11.3 12.5-1.5 24.2 11 25.5 12.4 2 2.3 1.8 5.7-0.4 7.7-2.3 2-5.7 1.9-7.7-0.4-2.3-2.5-10.2-9.6-16-8.8-0.9 0.1-3.5 0.4-6.2 5.5-1.3 2.5-4.3 3.5-6.9 2.5z"/>
				</g>
				<g id="&lt;Group&gt;">
					<path id="&lt;Path&gt;" class="s5" d="m401.8 206.7q-0.2-0.1-0.4-0.2c-2.7-1.4-3.7-4.7-2.3-7.4 4.4-8.3 10.3-10.7 14.5-11.2 12.4-1.6 24.1 10.9 25.4 12.4 2 2.2 1.8 5.6-0.4 7.7-2.2 2-5.7 1.8-7.7-0.4-2.3-2.6-10.2-9.6-16-8.9-0.9 0.1-3.5 0.4-6.2 5.5-1.3 2.5-4.3 3.6-6.9 2.5z"/>
				</g>
				<g id="&lt;Group&gt;">
					<path id="&lt;Path&gt;" class="s5" d="m404.7 216.4q-0.2-0.1-0.4-0.2c-2.7-1.5-3.7-4.7-2.3-7.4 4.4-8.4 10.3-10.8 14.5-11.3 12.4-1.6 24.1 11 25.4 12.4 2 2.2 1.8 5.7-0.4 7.7-2.2 2-5.7 1.8-7.7-0.4-2.3-2.5-10.2-9.6-16-8.9-0.8 0.1-3.5 0.5-6.2 5.6-1.3 2.5-4.3 3.5-6.9 2.5z"/>
				</g>
				<path id="&lt;Path&gt;" class="s6" d="m408.7 201.2q-1.2 0-2.3-0.4-0.3-0.1-0.5-0.3c-1.4-0.7-2.5-2-3-3.5-0.4-1.5-0.3-3.1 0.5-4.5 0.1-0.3 0.4-0.4 0.7-0.3 0.2 0.2 0.3 0.5 0.2 0.8-0.6 1.1-0.7 2.5-0.4 3.7 0.4 1.3 1.3 2.3 2.5 2.9q0.2 0.1 0.4 0.2c2.4 1 5 0 6.2-2.3 2.8-5.3 5.7-5.6 6.6-5.8 0.3 0 0.6 0.2 0.6 0.5 0 0.3-0.2 0.5-0.4 0.6-0.9 0.1-3.3 0.4-5.8 5.2-1.1 2.1-3.2 3.2-5.3 3.2z"/>
				<path id="&lt;Path&gt;" class="s6" d="m430.9 208.1q-0.2 0-0.4-0.2c-2.2-2.5-10-9.4-15.5-8.7-0.8 0.1-3.3 0.4-5.8 5.3-1.5 2.7-4.7 3.9-7.6 2.7-0.2-0.1-0.4-0.4-0.2-0.7 0.1-0.2 0.4-0.4 0.6-0.2 2.4 0.9 5.1-0.1 6.3-2.3 2.8-5.3 5.6-5.7 6.6-5.8 6-0.8 14 6.4 16.4 9 0.2 0.2 0.2 0.6 0 0.8q-0.2 0.1-0.4 0.1z"/>
				<g id="&lt;Group&gt;">
					<path id="&lt;Path&gt;" class="s5" d="m411.9 226.5q-0.6-0.2-1.2-0.6c-2.4-1.8-2.9-5.2-1.2-7.6 3-4 6.9-6.5 11.3-7.1 8.3-1.1 15.4 4.3 16.2 4.9 2.4 1.9 2.8 5.3 0.9 7.7-1.8 2.3-5.2 2.8-7.6 0.9-1.2-0.9-4.9-3.1-8-2.7-1 0.2-2.4 0.6-3.9 2.7-1.6 2.1-4.2 2.8-6.5 1.8z"/>
				</g>
				<path id="&lt;Path&gt;" class="s6" d="m406.8 217.3q-1.1 0-2.2-0.4c-0.3-0.1-0.4-0.5-0.3-0.7 0.1-0.3 0.4-0.4 0.6-0.3 2.4 0.9 5.1 0 6.3-2.3 2.8-5.3 5.6-5.7 6.6-5.8 3.7-0.5 8 2.1 11 4.3 0.2 0.1 0.3 0.5 0.1 0.7-0.2 0.2-0.5 0.3-0.7 0.1-2.9-2.1-7-4.5-10.3-4-0.8 0.1-3.3 0.4-5.8 5.2-1.1 2-3.1 3.2-5.3 3.2z"/>
				<path id="&lt;Path&gt;" class="s6" d="m421.8 234.9q-0.3 0-0.5-0.1c-0.9-0.3-1.3-1.2-1-2l42.5-127.3c0.3-0.9 1.2-1.3 2-1 0.8 0.2 1.3 1.1 1 2l-42.5 127.3c-0.3 0.7-0.9 1.1-1.5 1.1z"/>
				<g id="&lt;Group&gt;">
					<path id="&lt;Path&gt;" class="s5" d="m434.5 216.1c-2.4-1.9-6.3-7.7-7.8-13.9l-9.6-10.4c-2-2.2-1.8-5.7 0.4-7.7 2.2-2.1 5.6-1.9 7.7 0.3l10.5 11.5c0.7 0.7 17.5 7 18.4 9.8 0.8 2.9-0.3 10.3-2.6 12.3-2.3 2-6.9 5.9-17-1.9z"/>
				</g>
				<path id="&lt;Path&gt;" class="s6" d="m443.1 222.6q-0.1 0-0.1 0c-13-3.6-15-12.3-16.4-18.6q-0.2-0.8-0.4-1.6l-9.4-10.3c-1.1-1.1-1.7-2.7-1.6-4.3 0.1-1.6 0.7-3 1.9-4.1 2.4-2.2 6.2-2.1 8.5 0.3l10.5 11.5c0.2 0.2 0.2 0.6 0 0.8-0.2 0.2-0.6 0.1-0.8-0.1l-10.5-11.4c-1.8-2-5-2.2-7-0.3-0.9 0.9-1.5 2.1-1.6 3.4 0 1.3 0.4 2.6 1.3 3.5l9.7 10.5v0.1q0.2 0.9 0.4 1.8c1.4 6 3.3 14.4 15.6 17.7 0.3 0.1 0.5 0.4 0.4 0.7-0.1 0.2-0.3 0.4-0.5 0.4z"/>
				<path id="&lt;Path&gt;" class="s6" d="m433.7 230.5q-0.3 0-0.4-0.2c-6.7-7-5.7-12.9-5.7-13.1 0.1-0.3 0.3-0.5 0.6-0.4 0.3 0 0.5 0.3 0.5 0.6 0 0-0.9 5.6 5.3 12.2 0.2 0.2 0.2 0.5 0 0.7q-0.1 0.2-0.3 0.2z"/>
				<g id="&lt;Group&gt;">
					<g id="&lt;Group&gt;">
						<path id="&lt;Path&gt;" class="s7" d="m420.6 135.3c0 0-38.5-7.2-23.4-38.6 0 0 33 3 23.4 38.6z"/>
						<path id="&lt;Path&gt;" class="s6" d="m423.2 143.4c-0.2 0-0.4-0.1-0.5-0.4-1.7-6.4-6.6-18.8-10.7-24.4-0.2-0.3-0.2-0.6 0.1-0.8 0.2-0.2 0.5-0.1 0.7 0.1 4.5 6.2 9.4 19.3 11 24.9 0 0.2-0.1 0.5-0.4 0.6q-0.1 0-0.2 0z"/>
					</g>
					<path id="&lt;Path&gt;" class="s7" d="m440.4 129.1c0 0-3.5 12.5-15.4 6.6 0 0 1.9-11.5 15.4-6.6z"/>
					<path id="&lt;Path&gt;" class="s6" d="m421.9 139q-0.2 0-0.3-0.2c-0.2-0.1-0.3-0.5-0.1-0.7 3.7-4.1 10.9-7.2 11.5-7.2 0.3 0 0.5 0.3 0.5 0.6 0 0.2-0.2 0.4-0.5 0.4-0.8 0.3-7.4 3.1-10.7 6.9q-0.1 0.2-0.4 0.2z"/>
				</g>
			</g>
			<g id="&lt;Group&gt;">
				<path id="&lt;Path&gt;" class="s8" d="m581.8 218.6c-2.2-8.7-11-16.8-19.8-15.2-11.7 2.1-36.2 10.2-49.7 14.9l-56.4-14.5-11.8 35c0 0 43.7 15.6 63 20.5 4.4 1.1 9 1.1 13.5 0.1 20-4.4 50.3-13.1 50.3-13.1 21.3-5.5 10.9-27.7 10.9-27.7z"/>
				<path id="&lt;Path&gt;" class="s6" d="m494 214.1q0 0-0.1 0l-37.7-9.6-1.1 3.3c-0.1 0.3-0.4 0.4-0.7 0.4-0.3-0.1-0.4-0.4-0.3-0.7l1.4-4.3 38.7 9.9c0.2 0.1 0.4 0.4 0.3 0.6 0 0.3-0.2 0.4-0.5 0.4z"/>
			</g>
			<g id="&lt;Group&gt;">
				<path id="&lt;Path&gt;" class="s8" d="m547.1 223c2.3-14.7 16.3-24.6 30.9-22 22.6 4 55.9 12.2 71.7 27.5 20.1 19.3 18.7 71.9 16.5 99.1-0.2 2.7-106.5-14.3-107.9-18.6-13.6-39.2-13.9-67.7-11.2-86z"/>
				<path id="&lt;Path&gt;" class="s6" d="m558.3 309.6c-0.2 0-0.5-0.2-0.5-0.4-25.9-75-5.4-102.5-5.2-102.8 0.2-0.3 0.5-0.4 0.8-0.2 0.2 0.2 0.3 0.5 0.1 0.7-0.2 0.4-20.4 27.5 5.3 102 0.1 0.2-0.1 0.5-0.4 0.6q0 0.1-0.1 0.1z"/>
				<path id="&lt;Path&gt;" class="s3" d="m591.7 209.3c0 0 7.5 2.5-7.5 38.5-5.4 12.9-10.5 32.9-15.6 32.9-8.9-0.1-10.1-47.4-5.9-59.9 4.2-12.5 29-11.5 29-11.5z"/>
			</g>
			<g id="&lt;Group&gt;">
				<g id="&lt;Group&gt;">
					<g id="&lt;Group&gt;">
						<path id="&lt;Path&gt;" class="s5" d="m580.9 195.6l9.3 11.6c3.6 4.6 4.1 10.9 1 15.9-5.5 9.2-18.7 9.7-25 1l-2.4-3.3z"/>
					</g>
					<path id="&lt;Path&gt;" class="s6" d="m578.4 230.9c-5 0-9.7-2.4-12.6-6.5l-1.8-2.5c-0.2-0.2-0.1-0.6 0.1-0.7 0.3-0.2 0.6-0.1 0.8 0.1l1.8 2.5c2.8 4 7.4 6.2 12.3 6 4.9-0.2 9.3-2.8 11.8-7 4.9-9-0.9-15.2-1-15.2l-3.5-4.4c-0.1-0.2-0.1-0.5 0.1-0.7 0.3-0.2 0.6-0.1 0.8 0.1l3.4 4.3c0 0 6.4 6.7 1.1 16.5-2.7 4.4-7.5 7.2-12.7 7.5q-0.3 0-0.6 0z"/>
				</g>
				<g id="&lt;Group&gt;">
					<g id="&lt;Group&gt;">
						<path id="&lt;Path&gt;" class="s5" d="m553.1 198.6c0.2 4.5-3.3 8.4-7.8 8.6-4.5 0.2-8.4-3.3-8.6-7.8-0.2-4.6 3.3-8.4 7.8-8.6 4.6-0.2 8.4 3.3 8.6 7.8z"/>
					</g>
					<path id="&lt;Path&gt;" class="s6" d="m534.1 178.2c-1.3 8.2 5.5 16 15.2 17.6 9.7 1.5 18.6-3.9 19.9-12 1.3-8.2-5.5-16.1-15.2-17.6-9.7-1.6-18.6 3.8-19.9 12z"/>
					<g id="&lt;Group&gt;">
						<path id="&lt;Path&gt;" class="s5" d="m562.3 221.8q-1.6 0-3-0.2c-9.3-1.1-15.4-8.4-17.3-18q-0.1-0.5-0.2-1-0.4-2.4-0.4-5 0-0.5 0-0.9 0-0.7 0-1.3 0-0.9 0.1-1.7c1.8-20.8 9-26.8 23.3-27.1 14.3-0.3 26.1 11.8 26.4 27.1 0.3 15.2-14.7 27.8-28.9 28.1z"/>
					</g>
					<g id="&lt;Group&gt;">
						<path id="&lt;Path&gt;" class="s9" d="m543.6 202.7q-1 0-1.8-0.1-0.4-2.4-0.4-5 0-0.5 0-0.9 0-0.7 0-1.3 0.8-0.3 1.6-0.3c3.2-0.2 5.9 1.3 6.1 3.4 0.1 2.1-2.4 4-5.5 4.2z"/>
					</g>
					<path id="&lt;Path&gt;" class="s10" d="m586.3 198.4l-0.7 7.5c-0.1 1.8 2.4 2.4 3.1 0.8l6.5-14.8-11-1.1z"/>
					<path id="&lt;Path&gt;" class="s6" d="m555.5 187.8c0.1 1.5-9.5 1.8-9.6 0.3 0-1.5 3.7-3.2 6.3-3.3 2.7-0.1 3.3 1.5 3.3 3z"/>
					<path id="&lt;Path&gt;" class="s6" d="m557 221.8q1.1 0.2 2.2 0.4 1.5 0.2 3.1 0.1c5.5-0.1 11.3-2 16.3-5.4 0.2-0.2 0.3-0.5 0.1-0.8-0.1-0.2-0.5-0.3-0.7-0.1-4.9 3.2-10.4 5.1-15.7 5.2q-1.6 0-2.9-0.1c-10.2-1.3-17.3-10.7-17.5-23.5 0-0.3-0.2-0.6-0.5-0.6-0.4 0-0.6 0.3-0.6 0.6 0.2 12.5 6.6 21.9 16.2 24.2z"/>
					<path id="&lt;Path&gt;" class="s6" d="m562.3 187.6c0.1 1.4 9.7 1.1 9.6-0.3 0-1.5-3.8-3-6.5-2.9-2.6 0.1-3.1 1.7-3.1 3.2z"/>
					<path id="&lt;Path&gt;" class="s10" d="m549.4 167.1c0 0 2.7 19.8 33.3 29.8 0 0 8.4 0.3 10.4-1.4 8.7-7.6 6.8-46.8-43.7-28.4z"/>
					<path id="&lt;Path&gt;" class="s6" d="m582.6 197.4c0.3 0.1 0.5-0.1 0.6-0.3 0.1-0.3 0-0.7-0.3-0.8-29.9-9.7-33-29.1-33-29.3 0-0.3-0.3-0.5-0.6-0.5-0.3 0.1-0.5 0.4-0.5 0.7 0 0.2 3.2 20.2 33.7 30.2q0 0 0.1 0z"/>
					<path id="&lt;Path&gt;" class="s11" d="m571.2 192.6c0 0.7-0.5 1.2-1.3 1.7q-0.1 0.1-0.3 0.1-0.2 0.1-0.3 0.2-0.2 0-0.3 0.1-0.8 0.2-1.7 0.3-0.3 0-0.6 0-0.9 0.1-1.6-0.1-0.5-0.1-0.9-0.2-0.2-0.1-0.4-0.2c-0.9-0.4-1.6-1-1.6-1.7 0-0.7 0.6-1.3 1.6-1.7q0.6-0.4 1.4-0.5 0.1 0 0.1 0 0.3-0.1 0.7-0.1 0.1 0 0.1 0 0.3-0.1 0.5-0.1 0.3 0 0.6 0 0.6 0.1 1.1 0.2 0.3 0 0.6 0.1 0.3 0.1 0.6 0.2c1 0.4 1.7 1 1.7 1.7z"/>
					<path id="&lt;Path&gt;" class="s11" d="m555.7 193c0 0.5-0.4 1.1-1 1.5q0 0 0 0-0.1 0.1-0.2 0.1-0.4 0.2-0.8 0.4-0.2 0-0.3 0.1-0.7 0.1-1.4 0.2c-0.2 0-0.4 0-0.6 0q-0.9 0.1-1.8-0.1-0.3-0.1-0.7-0.2-0.3-0.1-0.5-0.3c-0.8-0.4-1.3-0.9-1.4-1.6 0-0.7 0.6-1.3 1.6-1.8q0.7-0.3 1.6-0.5 0.3 0 0.6 0 0-0.1 0 0 0.3-0.1 0.5-0.1 0.3 0 0.6 0 0.5 0.1 1 0.2 0.3 0 0.6 0.1 0.3 0.1 0.6 0.2c1 0.4 1.6 1 1.6 1.8z"/>
					<g id="&lt;Group&gt;">
						<path id="&lt;Path&gt;" class="s5" d="m576.4 197.9c0 4.5 3.8 8.1 8.3 8 4.6-0.1 8.2-3.8 8.1-8.4-0.1-4.5-3.9-8.1-8.4-8-4.5 0.1-8.1 3.8-8 8.4z"/>
					</g>
					<path id="&lt;Path&gt;" class="s6" d="m553.4 202.3c0.2 0 0.5-0.1 0.6-0.3 0.2-0.3 0.1-0.7-0.2-0.9-0.4-0.3-0.4-0.4-0.4-0.4 0.1-0.6 2.4-1.6 4.8-2.2 0.3 0 0.5-0.3 0.5-0.6l-0.1-6.6c0-0.3-0.3-0.6-0.7-0.6-0.4 0-0.7 0.3-0.6 0.6l0.1 6.1c-1.9 0.4-5.1 1.5-5.3 3-0.1 0.5 0 1.2 1 1.8q0.1 0.1 0.3 0.1z"/>
					<g id="&lt;Group&gt;">
						<path id="&lt;Path&gt;" class="s9" d="m566.2 199.7c-0.2 2.1 2.2 4 5.4 4.3 3.2 0.4 5.9-1.1 6.1-3.2 0.2-2-2.2-4-5.3-4.3-3.2-0.3-5.9 1.1-6.2 3.2z"/>
					</g>
					<path id="&lt;Path&gt;" class="s6" d="m570 179.7q3.2 0.8 6.6 1c7 0.4 12.9-1.2 16-4.1 0.2-0.3 0.2-0.6 0-0.8-0.2-0.3-0.6-0.3-0.8-0.1-2.8 2.8-8.6 4.2-15.1 3.8-6.9-0.4-16-3.1-21.1-9.4-0.2-0.3-0.6-0.3-0.8-0.1-0.2 0.2-0.3 0.5-0.1 0.8 3.4 4.2 8.9 7.4 15.3 8.9z"/>
					<path id="&lt;Path&gt;" class="s6" d="m589.8 195.8q0.3 0 0.5-0.1c0.3-0.3 0.3-0.7 0.1-1q-2.2-2.5-4.8-2.7c-2.6-0.1-4.5 1.5-4.6 1.6-0.3 0.2-0.3 0.6 0 0.9 0.2 0.3 0.6 0.3 0.9 0.1 0 0 1.6-1.4 3.6-1.2 1.4 0.1 2.7 0.8 3.8 2.2q0.2 0.2 0.5 0.2z"/>
					<path id="&lt;Path&gt;" class="s11" d="m566.1 205.4c0.4 2.4-1.9 4.9-5.2 5.5-3.3 0.5-6.3-1-6.7-3.4-0.5-2.5 2.6-0.9 5.8-1.5 3.3-0.6 5.6-3.1 6.1-0.6z"/>
					<path id="&lt;Path&gt;" class="s6" d="m554.8 193.1q0 0.8-0.3 1.5-0.4 0.2-0.8 0.4-0.2 0-0.3 0.1-0.7 0.1-1.4 0.2c-0.2 0-0.4 0-0.6 0q-0.9 0.1-1.8-0.1-0.3-0.1-0.7-0.2-0.3-0.1-0.5-0.3-0.4-0.6-0.4-1.4c0-0.7 0.2-1.4 0.6-2q0.7-0.3 1.6-0.5 0.3 0 0.6 0 0-0.1 0 0 0.3-0.1 0.5-0.1 0.3 0 0.6 0 0.5 0.1 1 0.2 0.3 0 0.6 0.1 0.3 0.1 0.6 0.2c0.4 0.5 0.6 1.2 0.7 1.9z"/>
					<path id="&lt;Path&gt;" class="s6" d="m570.1 192.6c0 0.7-0.2 1.3-0.5 1.8q-0.2 0.1-0.3 0.2-0.2 0-0.3 0.1-0.8 0.2-1.7 0.3-0.3 0-0.6 0-0.9 0.1-1.6-0.1-0.5-0.1-0.9-0.2-0.2-0.1-0.4-0.2-0.5-0.7-0.5-1.7c0-0.6 0.1-1.2 0.5-1.7q0.6-0.4 1.4-0.5 0.1 0 0.1 0 0.3-0.1 0.7-0.1 0.1 0 0.1 0 0.3-0.1 0.5-0.1 0.3 0 0.6 0 0.6 0.1 1.1 0.2 0.3 0 0.6 0.1 0.3 0.1 0.6 0.2 0.5 0.8 0.6 1.7z"/>
				</g>
			</g>
		</g>
		<g id="&lt;Group&gt;">
			<path id="&lt;Path&gt;" class="s12" d="m1058.8 674.5v56.7h-355v-56.7c18 0 34.9-13.5 45.2-36.6 10.7-23.9 22.9-62.7 32.1-124.6q1.6-10.6 3.1-22.2c2.7-21.5 5-45.4 6.8-72.1q0.6-8.5 1.1-17.3c1-17 1.8-35.1 2.4-54.3 0.5-20.8 0.9-43 0.9-66.6h171.9c0 23.6 0.3 45.8 0.9 66.6 4.7 166.6 27.2 249.9 45.4 290.5 10.3 23.1 27.3 36.6 45.2 36.6z"/>
			<path id="&lt;Path&gt;" class="s13" d="m973.2 347.4h-63.5v-69.7h63.5z"/>
			<path id="&lt;Path&gt;" class="s4" d="m909.7 280.8v450.4h-205.9v-56.7c18 0 34.9-13.5 45.2-36.6 10.7-23.9 22.9-62.7 32.1-124.6q1.6-10.6 3.1-22.2c2.7-21.5 5-45.4 6.8-72.1q0.6-8.5 1.1-17.3c1-17 1.8-35.1 2.4-54.3 0.5-20.8 0.9-43 0.9-66.6z"/>
			<path id="&lt;Path&gt;" class="s14" d="m909.7 277.7h-119.7v69.7h119.7z"/>
			<path id="&lt;Path&gt;" class="s6" d="m929.4 348h-139.4c-0.3 0-0.5-0.3-0.5-0.6 0-0.3 0.2-0.5 0.5-0.5h139.4c0.3 0 0.5 0.2 0.5 0.5 0 0.3-0.2 0.6-0.5 0.6z"/>
			<path id="&lt;Path&gt;" class="s6" d="m975.6 466.7c-0.2 0-0.5-0.2-0.5-0.4-4.4-22.1-7.4-117.9-7.5-118.9v-0.5h5.1v-20.5c0-0.3 0.2-0.5 0.5-0.5 0.3 0 0.6 0.2 0.6 0.5v21.6h-5.1c0.3 7.8 3.2 96.9 7.4 118.1 0.1 0.3-0.1 0.5-0.4 0.6q0 0-0.1 0z"/>
			<g id="&lt;Group&gt;">
				<path id="&lt;Path&gt;" class="s12" d="m873 473.7c5.1-22.9-3.2-46.7-21.7-61.5l-9.6 12.1c13.6 10.9 19.8 28.3 16.4 45.2l-8.2-2.3 5 12.4 5 12.5 10.8-8 10.8-8z"/>
				<path id="&lt;Path&gt;" class="s12" d="m840.9 514.4c-9.1 4.8-19.1 7.2-29 7.2-10.7 0-21.3-2.8-30.8-8.3q1.6-10.6 3.1-22.2l6.8 0.2-5.4 6.6c14.2 9.9 32.7 11 48.1 2.9z"/>
				<path id="&lt;Path&gt;" class="s12" d="m830.1 405.9l-21.2 16.5v-8.6c-6.4 0.5-12.5 2.3-17.9 5.2q0.6-8.5 1.1-17.3c5.3-1.8 11-3 16.8-3.3v-8.9l10.6 8.2z"/>
			</g>
			<path id="&lt;Path&gt;" class="s6" d="m973.2 278.2h-130.4c-0.3 0-0.5-0.2-0.5-0.5 0-0.3 0.2-0.5 0.5-0.5h130.4c0.3 0 0.6 0.2 0.6 0.5 0 0.3-0.3 0.5-0.6 0.5z"/>
		</g>
		<g id="&lt;Group&gt;">
			<g id="&lt;Group&gt;">
				<path id="&lt;Path&gt;" class="s15" d="m997.7 537.2l-19.5-11.7-5.9-3.6-11-6.7c7.5-13.3-14.3-23.6-14.3-23.6 17.6-1.3 29.3 5.7 36.9 14.6 1.7 2 3.2 4 4.5 6.1 7.6 12.1 9.3 24.9 9.3 24.9z"/>
				<path id="&lt;Path&gt;" class="s1" d="m961.1 424.8l-0.4 21.7-0.1 6.9-0.3 14c-15.3 0-13.3 24.2-13.3 24.2-10.2-15.1-9.7-29-5.5-40.1 0.9-2.5 2-4.8 3.2-7 6.6-12.2 16.4-19.7 16.4-19.7z"/>
				<path id="&lt;Path&gt;" class="s15" d="m961.1 424.8l-0.4 21.7-0.1 6.9-0.3 14c-15.3 0-13.3 24.2-13.3 24.2-10.2-15.1-9.7-29-5.5-40.1 0.9-2.5 2-4.8 3.2-7 6.6-12.2 16.4-19.7 16.4-19.7z"/>
				<path id="&lt;Path&gt;" class="s15" d="m947 491.6c-7.8 15.8-19.6 22.4-31 24.6-2.5 0.5-5.1 0.8-7.6 0.9-14.3 0.6-26.4-4.4-26.4-4.4l19.7-10.9 6.1-3.3 11.5-6.4c7.8 13.2 27.7-0.5 27.7-0.5z"/>
				<path id="&lt;Path&gt;" class="s6" d="m972.3 522.4q-0.2 0-0.3-0.1l-11.5-6.9 0.3-0.4c1.6-2.8 1.9-5.7 1-8.6-2.6-8.4-14.9-14.3-15.1-14.4-0.2-0.1-0.3-0.4-0.2-0.7 0.1-0.2 0.4-0.3 0.7-0.2 0.5 0.2 12.9 6.2 15.6 15 1 3 0.7 6-0.8 8.9l10.5 6.4c0.3 0.2 0.4 0.5 0.2 0.7-0.1 0.2-0.3 0.3-0.4 0.3z"/>
				<path id="&lt;Path&gt;" class="s6" d="m947 492.1c-0.3 0-0.5-0.2-0.6-0.5 0-0.6-1-14.2 5.2-21 2.2-2.4 4.9-3.6 8.2-3.8l0.3-13.4c0-0.2 0.2-0.5 0.5-0.5q0 0 0 0c0.3 0 0.5 0.3 0.5 0.6l-0.3 14.4h-0.5c-3.2 0-5.9 1.1-7.9 3.4-5.9 6.5-4.9 20.1-4.9 20.2 0 0.3-0.2 0.6-0.5 0.6q0 0 0 0z"/>
				<path id="&lt;Path&gt;" class="s6" d="m907.8 499c-0.2 0-0.4-0.1-0.5-0.3-0.1-0.2 0-0.5 0.2-0.7l12-6.6 0.3 0.4c1.6 2.8 3.9 4.6 6.9 5.2 8.6 1.9 19.9-5.8 20-5.9 0.2-0.1 0.5-0.1 0.7 0.2 0.2 0.2 0.1 0.5-0.1 0.7-0.5 0.3-11.8 8-20.9 6-3-0.6-5.5-2.4-7.3-5.2l-11.1 6.2q-0.1 0-0.2 0z"/>
			</g>
			<path id="&lt;Path&gt;" class="s15" d="m964.8 731.5l-15.8-235.4c2-0.8 3.4-2.7 3.4-4.9 0-3-2.4-5.3-5.4-5.3-2.9 0-5.3 2.3-5.3 5.3 0 2.2 1.4 4 3.2 4.8l-1.3 19.8-3.6 54.4-10.8 161.3z"/>
			<path id="&lt;Path&gt;" class="s6" d="m929.2 731.2q-0.1 0-0.1 0c-0.3-0.1-0.5-0.3-0.5-0.6l10.9-160.5 3.6-54.3c0-0.3 0.3-0.5 0.6-0.5 0.2 0 0.5 0.3 0.4 0.6l-3.6 54.3-10.8 160.5c0 0.2-0.3 0.5-0.5 0.5z"/>
			<path id="&lt;Path&gt;" class="s6" d="m964.8 732c-0.3 0-0.5-0.2-0.5-0.5l-15.8-235.8 0.3-0.1c1.8-0.7 3-2.5 3-4.4 0-0.3 0.3-0.6 0.6-0.6 0.2 0 0.5 0.3 0.5 0.6 0 2.2-1.3 4.3-3.3 5.2l15.7 235c0 0.3-0.2 0.6-0.5 0.6q0 0 0 0z"/>
			<path id="&lt;Compound Path&gt;" class="s7" d="m947 444.4q-1.2 0-2.3 0.1c-1.2 2.2-2.3 4.5-3.2 7q2.7-0.4 5.5-0.4c4.8 0 9.3 0.8 13.6 2.3l0.1-6.9c-4.3-1.3-8.9-2.1-13.7-2.1zm36.9 61.8c-2.5 6.2-6.6 11.5-11.6 15.7l5.9 3.6c4.1-3.8 7.6-8.2 10.2-13.2-1.3-2.1-2.8-4.1-4.5-6.1zm-82.2-4.4c1.3 5.6 3.6 10.7 6.7 15.3 2.5-0.1 5.1-0.4 7.6-0.9-4.1-5-7-11.1-8.2-17.7z"/>
			<path id="&lt;Path&gt;" class="s3" d="m950.3 491.2c0 1.8-1.5 3.3-3.3 3.3-1.9 0-3.3-1.5-3.3-3.3 0-1.9 1.4-3.4 3.3-3.4 1.8 0 3.3 1.5 3.3 3.4z"/>
		</g>
		<g id="&lt;Group&gt;">
			<path id="&lt;Path&gt;" class="s7" d="m632 732.1c-5.7-23.9 8.4-48.3 32.2-55 15.9-4.6 32.3-0.2 43.7 10.2 3.7-10.5 12.2-19.1 23.6-22.4 16.1-4.6 32.8 2.8 40.6 16.9 2.9-7.3 9-13.1 17.1-15.4 11.3-3.2 22.9 1.4 29.1 10.6 4.3-14.3 15.5-26.2 31-30.6 24.1-6.9 49.2 7.1 56.1 31.2q1.2 4.3 1.6 8.6c2.2-1.6 4.7-2.8 7.4-3.6 13.7-3.8 27.9 4.1 31.7 17.7 0.6 2.1 0.9 4.1 1 6.2q2.6-1.3 5.5-2.2c16.9-4.8 34.5 5 39.3 22 0.6 1.9 0.9 3.9 1.1 5.8z"/>
			<path id="&lt;Path&gt;" class="s6" d="m946.6 707.3v-0.8q-0.2-3.2-1-6.1c-1.8-6.4-6-11.8-11.9-15-5.9-3.3-12.7-4.1-19.1-2.3-2.6 0.8-5.1 2-7.3 3.5l-0.8 0.5-0.1-0.9c-0.2-2.9-0.7-5.7-1.5-8.5-0.1-0.2 0.1-0.5 0.3-0.6 0.3-0.1 0.6 0.1 0.7 0.4q1.1 3.8 1.5 7.8 3.2-2.1 6.9-3.2c6.7-1.9 13.8-1.1 19.9 2.3 6.1 3.4 10.5 9 12.4 15.8q0.8 2.6 1 5.5c1.6-0.8 3.2-1.4 4.8-1.9 0.3-0.1 0.6 0.1 0.7 0.4 0.1 0.3-0.1 0.6-0.4 0.6-1.8 0.6-3.6 1.2-5.4 2.1z"/>
		</g>
		<g id="&lt;Group&gt;">
			<g id="&lt;Group&gt;">
				<path id="&lt;Path&gt;" class="s16" d="m772.9 472.8v76.2c0 10-8.1 18.1-18.1 18.1h-24.5c-4.9 19.1-12.4 37.2-22 54l17.9 17.9c6.9 6.9-27.3 82.2-28.4 84.7q0 0 0 0h-39c-4.4-0.1-8.8-1.9-12.1-5.2l-6.2-6.2-11.2-11.2c-27.1 16-57.9 26.4-90.9 29.4v-60.9h-108v43.6q-1.5-0.7-3.1-1.4c-4.1-1.9-12.2 13.9-12.2 13.9h-36.6c-4.6 0-9.2-1.8-12.7-5.3l-53.9-53.9c-7.1-7.1-7.1-18.5 0-25.6l17.3-17.3c-9.8-16.7-17.4-34.7-22.6-53.7h-25.3c-4.3 0-8.2-1.5-11.2-3.9-4.2-3.3-6.9-8.5-6.9-14.2v-76.2c0-10 8.1-18.1 18.1-18.1h24.5c4.9-19.2 12.4-37.2 22-54l-17.9-17.9c-3.5-3.5-5.3-8.2-5.3-12.8 0-3.2 0.8-6.4 2.5-9.2q0 0 0.1 0 1.1-1.9 2.7-3.6l0.6-0.5q0-0.1 0.1-0.2l7.8-7.8q0.1-0.1 0.1-0.1l45.3-45.3c3.5-3.4 8-5.2 12.5-5.3q0 0 0 0h36.8c0 0-0.7 2.5-1.7 6.3-1 3.7 5.2 7.6 11.1 7.2q1.8-0.2 3.5-0.9 2.5-1.2 5.1-2.3 14.2-6.1 29.3-10.3v-25.3c0-10 8.1-18.1 18.1-18.1h76.3c2.2 0 4.2 0.4 6.2 1.1 6.9 2.6 11.9 9.2 11.9 17v24.5q0.2 0.1 0.5 0.2 0.4 0.1 0.8 0.2 0.4 0.1 0.7 0.2 0.1 0 0.1 0 0.7 0.2 1.4 0.4 3.3 0.9 6.5 1.9 3.1 0.9 6.1 2 11.4 3.9 22.1 9 1 0.4 1.9 0.9 7 3.4 13.8 7.2l12.1-12.1 5.8-5.8c6.2-6.1 15.7-6.9 22.7-2.3q1.6 1 2.9 2.3l15.1 15.1 38.8 38.9c7.1 7 7.1 18.5 0 25.5l-17.3 17.4c9.8 16.6 17.4 34.6 22.6 53.7h25.3c10 0 18.1 8.1 18.1 18.1z"/>
				<path id="&lt;Path&gt;" class="s17" d="m538.4 669.6v60.9q-10.1 1-20.3 1c-31.2 0-60.8-6.6-87.7-18.3v-43.6z"/>
				<path id="&lt;Path&gt;" class="s17" d="m658.8 723.7c-4.4-0.1-8.8-1.9-12.1-5.2l-6.2-6.2c12.9-9.9 31.9-24.4 31.9-23.9 0 0.4 13.7 21.3 23 35.3z"/>
				<path id="&lt;Path&gt;" class="s17" d="m373.3 402.8l-45.5 0.7-17.9-17.9c-3.5-3.5-5.3-8.2-5.3-12.8l38.3 0.3z"/>
				<path id="&lt;Path&gt;" class="s6" d="m342.9 373.6q0 0 0 0l-38.8-0.3v-0.5c0-0.2-0.2-5.2 2.6-9.5 2.7-4.2 11.1-11.9 11.4-12.2 0.2-0.2 0.6-0.2 0.8 0 0.2 0.2 0.1 0.5-0.1 0.7-0.1 0.1-8.6 8-11.3 12.1-2.1 3.3-2.3 7-2.4 8.4l37.8 0.3c0.3 0 0.5 0.2 0.5 0.5 0 0.3-0.2 0.5-0.5 0.5z"/>
				<path id="&lt;Path&gt;" class="s17" d="m502.4 300.8l-68.1 36.9-12.8-18.4 1-5q1.8-0.2 3.5-0.9c11-5.1 22.5-9.3 34.4-12.6z"/>
				<path id="&lt;Path&gt;" class="s6" d="m426 313.9c-0.2 0-0.4-0.1-0.5-0.3-0.1-0.3 0-0.6 0.3-0.7 11-5.1 22.4-9.3 34.1-12.5v-24.9c0-0.2 0.2-0.5 0.5-0.5 0.3 0 0.6 0.3 0.6 0.5v25.7l-0.4 0.1c-11.8 3.2-23.3 7.4-34.4 12.6q-0.1 0-0.2 0z"/>
				<path id="&lt;Path&gt;" class="s17" d="m346.7 559l-30.2 7.7-5.6-0.7h-40.8c3 2.4 6.9 3.9 11.2 3.9h22.5 2.8c5.2 19 12.8 37 22.6 53.7h45.4z"/>
			</g>
			<g id="&lt;Group&gt;">
				<path id="&lt;Path&gt;" class="s18" d="m318 457.5h24.5c5-19.2 12.4-37.2 22-54l-17.9-17.9c-7-7-7-18.5 0-25.6l53.9-53.9c7.1-7.1 18.6-7.1 25.6 0l17.4 17.4c16.6-9.8 34.6-17.5 53.7-22.7v-25.3c0-10 8.1-18.1 18.1-18.1h76.2c10 0 18.1 8.1 18.1 18.1v24.5c19.1 5 37.2 12.5 53.9 22l17.9-17.9c7.1-7 18.6-7 25.6 0l54 53.9c7 7.1 7 18.6 0 25.7l-17.4 17.3c9.8 16.6 17.5 34.6 22.6 53.7h25.3c10 0 18.1 8.1 18.1 18.1v76.2c0 10-8.1 18.1-18.1 18.1h-24.5c-4.9 19.1-12.4 37.2-22 54l17.9 17.8c7.1 7.1 7.1 18.6 0 25.7l-53.9 53.9c-7 7-18.5 7-25.6 0l-17.3-17.4c-32.7 19.3-70.7 30.4-111.3 30.4-39.6 0-76.7-10.6-108.8-29l-17.9 17.9c-7 7.1-18.5 7.1-25.6 0l-53.9-53.9c-7.1-7-7.1-18.5 0-25.6l17.4-17.3c-9.8-16.6-17.5-34.7-22.7-53.7h-25.3c-10 0-18.1-8.1-18.1-18.1v-76.2c0-10 8.1-18.1 18.1-18.1z"/>
				<g id="&lt;Clip Group&gt;" clip-path="url(#cp1)">
				</g>
				<path id="&lt;Path&gt;" class="s6" d="m696.2 724.3c-5 0-9.6-1.9-13.2-5.5l-17.3-17.3c-0.2-0.2-0.2-0.6 0-0.8 0.2-0.2 0.5-0.2 0.7 0l17.4 17.4c3.3 3.3 7.7 5.1 12.4 5.1 4.7 0 9.1-1.8 12.4-5.1 0.3-0.2 0.6-0.2 0.8 0 0.2 0.2 0.2 0.5 0 0.7-3.5 3.6-8.2 5.5-13.2 5.5z"/>
				<path id="&lt;Path&gt;" class="s6" d="m535.1 731.1q-0.1 0-0.1 0c-31.5-2.8-61.4-12.2-88.9-27.9l-17.6 17.6c-7.3 7.3-19.1 7.3-26.4 0l-53.9-53.9c-3.5-3.5-5.4-8.2-5.4-13.2 0-5 1.9-9.6 5.4-13.2l17.1-17c-9.8-16.7-17.3-34.5-22.4-53.1h-24.9c-10.2 0-18.6-8.3-18.6-18.6v-76.2c0-10.3 8.4-18.7 18.6-18.7 0.3 0 0.6 0.3 0.6 0.6 0 0.2-0.3 0.5-0.6 0.5-9.7 0-17.5 7.9-17.5 17.6v76.2c0 9.7 7.8 17.6 17.5 17.6h25.7l0.1 0.4c5.1 18.7 12.7 36.7 22.6 53.5l0.2 0.3-17.6 17.7c-3.3 3.3-5.2 7.7-5.2 12.4 0 4.7 1.9 9.1 5.2 12.5l53.9 53.9c6.8 6.8 18 6.8 24.8 0l18.2-18.2 0.4 0.2c27.5 15.7 57.3 25.1 88.8 28 0.3 0 0.5 0.2 0.5 0.5 0 0.3-0.3 0.5-0.5 0.5z"/>
				<path id="&lt;Path&gt;" class="s6" d="m745 621.6q-0.1 0-0.2-0.1c-0.3-0.1-0.4-0.5-0.2-0.7 9.7-17 17.1-35.1 21.9-53.8l0.1-0.4h24.9c9.7 0 17.6-7.9 17.6-17.6v-76.2c0-9.7-7.9-17.6-17.6-17.6-0.3 0-0.5-0.2-0.5-0.5 0-0.3 0.2-0.6 0.5-0.6 10.3 0 18.7 8.4 18.7 18.7v76.2c0 10.3-8.4 18.6-18.7 18.6h-24.1c-4.8 18.7-12.2 36.7-21.9 53.7-0.1 0.2-0.3 0.3-0.5 0.3z"/>
				<path id="&lt;Path&gt;" class="s6" d="m761 384.2q-0.3 0-0.4-0.2c-0.2-0.2-0.2-0.5 0-0.7 6.8-6.9 6.8-18 0-24.9l-53.9-53.9c-6.9-6.8-18-6.8-24.9 0l-18.2 18.2-0.3-0.2c-17-9.8-35.1-17.2-53.8-22l-0.4-0.1v-24.9c0-9.7-7.9-17.5-17.6-17.5h-76.2c-9.7 0-17.6 7.8-17.6 17.5v25.7l-0.4 0.1c-18.8 5.1-36.8 12.7-53.5 22.6l-0.4 0.2-17.6-17.6c-0.2-0.2-0.2-0.6 0-0.8 0.2-0.2 0.5-0.2 0.7 0l17.1 17.1c16.6-9.8 34.5-17.3 53-22.4v-24.9c0-10.2 8.4-18.6 18.7-18.6h76.2c10.3 0 18.6 8.4 18.6 18.6v24.1c18.5 4.8 36.5 12.1 53.4 21.8l17.6-17.6c3.5-3.5 8.2-5.5 13.1-5.5 5 0 9.7 2 13.2 5.5l53.9 53.9c7.3 7.2 7.3 19.1 0 26.3q-0.1 0.2-0.3 0.2z"/>
				<path id="&lt;Path&gt;" class="s6" d="m364.5 404q-0.2 0-0.3-0.1l-17.9-17.9c-3.6-3.5-5.5-8.2-5.5-13.2 0-5 1.9-9.6 5.5-13.2l35.3-35.3c0.2-0.2 0.6-0.2 0.8 0 0.2 0.2 0.2 0.5 0 0.7l-35.4 35.4c-6.8 6.8-6.8 18 0 24.9l17.9 17.8c0.2 0.3 0.2 0.6 0 0.8q-0.2 0.1-0.4 0.1z"/>
				<path id="&lt;Path&gt;" class="s6" d="m480.9 301.3h-20.5c-0.3 0-0.5-0.2-0.5-0.5 0-0.3 0.2-0.5 0.5-0.5h20.5c0.3 0 0.5 0.2 0.5 0.5 0 0.3-0.2 0.5-0.5 0.5z"/>
				<path id="&lt;Path&gt;" class="s6" d="m306.2 458h-24.9c-0.3 0-0.5-0.3-0.5-0.5 0-0.3 0.2-0.6 0.5-0.6h24.1c4.8-18.6 12.2-36.6 21.9-53.6 0.2-0.3 0.5-0.4 0.8-0.2 0.2 0.1 0.3 0.4 0.2 0.7-9.8 17-17.2 35.1-22 53.8z"/>
			</g>
			<g id="&lt;Group&gt;">
				<path id="&lt;Path&gt;" class="s3" d="m440.2 560c0 0-0.1 0 0 0 8.4 18.8 21.6 35.8 39 49.3 7.9 6.1 16.3 11.1 24.9 15.1 16.9 7.9 35 11.8 53.1 11.9q3.8 0.1 7.7-0.1c13.9-0.7 27.8-3.6 40.8-8.7 21.3-8.2 40.7-22.3 55.7-41.7 22.3-28.9 30.5-64.4 25.6-97.9-2.5-17.7-8.7-34.9-18.3-50.3-8.9-14.1-20.5-26.7-34.9-37-6.7-4.7-13.6-8.7-20.8-12-30-13.8-64-15.3-94.6-5.5-20.9 6.8-40.3 18.8-55.8 35.9q-2 2.1-3.8 4.2-6.5 7.9-11.6 16.4c-2.1 3.5-4 7.1-5.8 10.7q0 0 0 0c-16.8 35-16.8 75.3-1.2 109.7z"/>
				<g id="&lt;Group&gt;">
					<path id="&lt;Path&gt;" class="s4" d="m440.2 560c3.6-9.2 11-14 18.5-15.7 13.7-3.1 26.9-9.4 31.3-43.2 4.4-33.9-11.9-47.7-28.8-42.7-12.5 3.7-17.9-3.9-19.8-8.1-16.8 35-16.8 75.3-1.2 109.7z"/>
					<path id="&lt;Path&gt;" class="s4" d="m523.2 585.7c-0.7 8.5 16 32.5 34 50.6q3.8 0.1 7.7-0.1c13.9-0.7 27.8-3.6 40.8-8.7 1.4-4.8 3.8-9.4 8.4-13 13.3-10.5 27.2-40.3 19.2-61 6.2-2.9 13-7.3 19.1-13.3 11.3-11.2 29.6-28.8 34.6-52.3-2.5-17.7-8.7-34.9-18.3-50.3-8.9-14.1-20.5-26.7-34.9-37-6.7-4.7-13.6-8.7-20.8-12-0.7 2.7-2.3 5-5.8 5.9-10.6 2.5-33.8-15.7-47 12.5-13.1 28.2 23.2 7.5 32 4.4 8.8-3.1 16.5 15.7-12.8 32-29.2 16.3 17 52.6 56.3 45.1 39.2-7.5 39.9 30.1-2.8 51.7-2.2 1.2-50.1-0.9-74.6 17.3-24.4 18.1-33.8 13.8-35.1 28.2z"/>
					<path id="&lt;Path&gt;" class="s4" d="m447.2 439.6c2.2 1.4 4.9 1.9 7.7 1.3 13.8-3.2 14.4 12.5 35.8 17.5 21.4 5 16.9-28.8 28.8-51.4 7.3-14 3.6-20.8-1.1-23.9-20.9 6.8-40.3 18.8-55.8 35.9q-2 2.1-3.8 4.2-6.5 7.9-11.6 16.4z"/>
				</g>
				<path id="&lt;Path&gt;" class="s6" d="m479.2 609.9q-0.1 0-0.3-0.1c-16.9-13.1-30.5-30.2-39.2-49.5l-0.2-0.2 0.1-0.1c-15.8-35.2-15.3-75.2 1.3-109.8v-0.1c1.9-3.9 3.8-7.5 5.9-10.8 3.4-5.7 7.3-11.2 11.6-16.4 1.3-1.6 2.6-3 3.8-4.3 15.1-16.6 34.5-29 56-36 0.3 0 0.6 0.1 0.7 0.4 0.1 0.3-0.1 0.6-0.4 0.6-21.3 6.9-40.6 19.3-55.6 35.7-1.2 1.3-2.4 2.7-3.7 4.3-4.3 5.1-8.2 10.6-11.5 16.2-2 3.3-4 6.9-5.8 10.6v0.2c-16.6 34.4-17 74.2-1.3 109.1l0.4 0.8c8.6 18.9 21.9 35.6 38.6 48.4 0.2 0.2 0.2 0.5 0 0.8q-0.1 0.2-0.4 0.2z"/>
				<path id="&lt;Path&gt;" class="s6" d="m559.2 636.9q-1 0-2 0c-0.3 0-0.5-0.3-0.5-0.6 0-0.3 0.2-0.5 0.5-0.5 2.4 0.1 5 0 7.6-0.1 14.1-0.7 27.8-3.6 40.7-8.7 21.9-8.4 41.1-22.8 55.5-41.5 21.5-28 30.6-62.6 25.5-97.5-2.6-18-8.7-34.9-18.3-50.2-9-14.4-20.7-26.8-34.7-36.8-6.6-4.6-13.5-8.6-20.8-11.9-0.2-0.1-0.3-0.5-0.2-0.7 0.1-0.3 0.4-0.4 0.7-0.3 7.3 3.3 14.3 7.4 20.9 12.1 14.1 10 25.9 22.5 35 37.1 9.7 15.4 15.9 32.4 18.5 50.5 5.1 35.2-4.1 70.2-25.8 98.3-14.5 18.9-33.9 33.4-55.9 41.9-13.1 5.1-26.9 8-41 8.7q-3 0.2-5.7 0.2z"/>
			</g>
		</g>
		<g id="&lt;Group&gt;">
			<g id="&lt;Group&gt;">
				<g id="&lt;Group&gt;">
					<g id="&lt;Group&gt;">
						<path id="&lt;Compound Path&gt;" fill-rule="evenodd" class="s5" d="m548.1 321.7c-1 0.1-2-0.2-2.9-0.7-2.7-1.6-3.6-5.1-2-7.8l36.1-21.1q0.3-0.1 0.5-0.1c2.6-0.9 5.6 0.2 6.9 2.7 1.4 2.8 0.3 6.2-2.5 7.7-0.7 0.4-1.3 0.5-2.3 0.7-2.2 0.6-8.2 2-16.4 5.8-8.9 4.2-12.5 10-12.6 10.1-1 1.7-2.9 2.7-4.8 2.7zm30.9-29.4q0 0 0 0 0 0 0 0zm0 0q0 0 0 0 0 0 0 0z"/>
					</g>
				</g>
				<g id="&lt;Group&gt;">
					<path id="&lt;Path&gt;" class="s5" d="m540.7 300c0.8-0.7 7.5-7.4 20.5-10 4.6-0.9 8.6-1.4 11.8-1.7q0 0 0 0c11.2-1.1 44.3-1.6 44.3-1.6l-5.3 34.8c-24 6.4-33.6-10-37.3-21.9-3 0.2-6.7 0.6-11.2 1.5-9.7 2-14.6 6.8-14.6 6.9-1.5 1.4-3.5 2-5.4 1.5-1-0.2-1.9-0.7-2.7-1.4-2.2-2.2-2.3-5.8-0.1-8.1z"/>
				</g>
				<g id="&lt;Group&gt;">
					<g id="&lt;Group&gt;">
						<path id="&lt;Compound Path&gt;" fill-rule="evenodd" class="s5" d="m563 335.2c-1.6 0.3-3.2 0-4.5-1-2.5-1.9-3.1-5.4-1.2-7.9 0.6-0.8 5.7-7.7 8.5-10.7 4.9-5.2 25.5-7.1 25.7-7.1 3.1 0 5.7 2.6 5.7 5.7-0.1 3.1-2.5 5.6-5.6 5.7-2.9 0.2-15 2.2-17.7 3.7-2.2 2.4-6.1 7.5-7.5 9.4-0.8 1.2-2.1 1.9-3.4 2.2zm28.5-15.3q-0.1 0-0.1 0 0 0 0.1 0zm0.1 0q-0.1 0-0.1 0 0 0 0.1 0z"/>
					</g>
				</g>
				<path id="&lt;Path&gt;" class="s6" d="m543.2 313.7q0.3 0 0.4-0.3c0.5-0.8 5.5-8.8 17.3-14.3 4.5-2.1 9-3.8 13.4-5.1 0.2-0.1 0.4-0.4 0.3-0.7-0.1-0.3-0.4-0.4-0.6-0.3-4.4 1.3-9 3-13.5 5.1-12.2 5.7-17.2 13.9-17.8 14.8-0.1 0.3 0 0.6 0.2 0.7q0.1 0.1 0.3 0.1z"/>
				<g id="&lt;Group&gt;">
					<g id="&lt;Group&gt;">
						<path id="&lt;Compound Path&gt;" fill-rule="evenodd" class="s5" d="m554 331.1c-1 0.1-2.1 0-3.1-0.4-2.8-1.2-4.2-4.6-3-7.5l33-25.7q0.3-0.1 0.5-0.2c2.4-1.2 5.5-0.5 7.2 1.8 1.8 2.6 1.1 6.1-1.4 7.9-0.7 0.5-1.3 0.7-2.2 1.1-2.2 0.8-7.9 3-15.5 7.9-8.3 5.3-11.1 11.6-11.1 11.7-0.8 1.9-2.5 3.1-4.4 3.4zm26.7-33.4q0 0 0 0 0 0 0 0zm0 0q0 0 0 0 0 0 0 0z"/>
					</g>
				</g>
				<path id="&lt;Path&gt;" class="s6" d="m547.9 323.8c0.2-0.1 0.4-0.2 0.5-0.4 0.4-0.9 4.2-9.4 15.2-16.5 4.2-2.7 8.4-5 12.6-6.9 0.2-0.1 0.3-0.4 0.2-0.7-0.1-0.2-0.4-0.3-0.7-0.2-4.2 1.9-8.4 4.2-12.6 6.9-11.3 7.3-15.2 16.1-15.7 17-0.1 0.3 0.1 0.6 0.3 0.7q0.1 0.1 0.2 0.1z"/>
				<path id="&lt;Path&gt;" class="s6" d="m558.5 334.7q0.3 0 0.4-0.2c0.2-0.2 0.1-0.5-0.1-0.7-1.1-0.8-1.8-2-2-3.4-0.2-1.4 0.1-2.7 0.9-3.8 0.6-0.8 5.7-7.6 8.5-10.6 2.5-2.6 9.4-5.6 15.9-6.7 0.3-0.1 0.4-0.3 0.4-0.6-0.1-0.3-0.3-0.5-0.6-0.4-5.7 1-13.5 3.8-16.4 6.9-2.9 3.1-8 10-8.6 10.8-2 2.7-1.5 6.6 1.3 8.6q0.1 0.1 0.3 0.1z"/>
			</g>
			<path id="&lt;Path&gt;" class="s8" d="m612.7 329c0 0 74.7-3.4 86.3-16.7 5.7-6.5 7.2-24.3-0.8-34.4-16.6-21.1-39-42.3-54.2-54-11.3-8.6-26.9-8.7-34-1-15.1 16.3-4.3 32.9 7.8 44.2 9.3 8.6 19.3 14.1 19.3 14.1l-28.9 4.8z"/>
			<path id="&lt;Path&gt;" class="s6" d="m635.6 280.9q-0.1 0-0.3-0.1c-1-0.6-25.9-15.8-28.3-34.1-0.1-0.3 0.1-0.5 0.4-0.6 0.3 0 0.6 0.2 0.6 0.5 2.4 17.8 27.6 33.1 27.9 33.3 0.2 0.1 0.3 0.5 0.1 0.7-0.1 0.2-0.2 0.3-0.4 0.3z"/>
			<path id="&lt;Path&gt;" class="s6" d="m612.7 329.5c-0.2 0-0.5-0.2-0.5-0.4l-4.6-43.6 0.5-0.1c0.3 0 36.8-7.6 54.8-9.8 0.3 0 0.6 0.2 0.6 0.5 0.1 0.3-0.1 0.5-0.4 0.5-16.9 2.1-50 8.9-54.3 9.8l4.5 42.6c0 0.3-0.2 0.5-0.5 0.5q0 0-0.1 0z"/>
			<path id="&lt;Path&gt;" class="s6" d="m666.5 244.4q-0.2 0-0.4-0.2c-24.7-29.7-62.2-36.6-62.6-36.6-0.2-0.1-0.4-0.4-0.4-0.7 0.1-0.2 0.3-0.4 0.6-0.4 0.4 0.1 38.3 7.1 63.2 37 0.2 0.2 0.2 0.6 0 0.8q-0.2 0.1-0.4 0.1z"/>
		</g>
		<g id="&lt;Group&gt;">
			<g id="&lt;Group&gt;">
				<path id="&lt;Path&gt;" class="s15" d="m1136 470.9l-26.1-15.8-8-4.8-14.8-8.9c10.2-17.8-19.2-31.8-19.2-31.8 23.7-1.6 39.3 7.8 49.6 19.7 2.2 2.6 4.2 5.4 6 8.1 10.2 16.3 12.5 33.5 12.5 33.5z"/>
				<path id="&lt;Path&gt;" class="s1" d="m1086.9 320.1l-0.5 29.1-0.2 9.3-0.4 18.7c-20.5 0.1-17.9 32.4-17.9 32.4-13.6-20.1-12.9-38.8-7.3-53.8 1.2-3.2 2.6-6.4 4.2-9.3 8.9-16.3 22.1-26.4 22.1-26.4z"/>
				<path id="&lt;Path&gt;" class="s15" d="m1086.9 320.1l-0.5 29.1-0.2 9.3-0.4 18.7c-20.5 0.1-17.9 32.4-17.9 32.4-13.6-20.1-12.9-38.8-7.3-53.8 1.2-3.2 2.6-6.4 4.2-9.3 8.9-16.3 22.1-26.4 22.1-26.4z"/>
				<path id="&lt;Path&gt;" class="s15" d="m1067.9 409.6c-10.3 21.3-26.2 30.1-41.5 33.1-3.4 0.6-6.8 1-10.2 1.1-19.2 0.9-35.4-5.8-35.4-5.8l26.4-14.6 8.1-4.5 15.5-8.5c10.4 17.7 37.1-0.8 37.1-0.8z"/>
				<path id="&lt;Path&gt;" class="s6" d="m1101.9 450.8q-0.2 0-0.3-0.1l-15.2-9.1 0.2-0.5c2.2-3.8 2.7-7.7 1.4-11.6-3.5-11.3-20.1-19.3-20.3-19.4-0.3-0.1-0.4-0.4-0.2-0.7 0.1-0.2 0.4-0.4 0.7-0.2 0.7 0.3 17.1 8.2 20.8 20 1.3 4 0.9 8.1-1.2 12l14.3 8.6c0.3 0.2 0.4 0.5 0.2 0.8-0.1 0.1-0.3 0.2-0.4 0.2z"/>
				<path id="&lt;Path&gt;" class="s6" d="m1067.9 410.2c-0.2 0-0.5-0.2-0.5-0.5-0.1-0.8-1.4-19 6.9-28.1 2.9-3.1 6.6-4.8 11-4.9l0.4-18.2c0-0.3 0.2-0.5 0.5-0.5q0 0 0 0c0.3 0 0.5 0.2 0.5 0.5l-0.3 19.2h-0.6c-4.3 0-7.9 1.6-10.7 4.6-8 8.8-6.7 27.1-6.6 27.3 0 0.3-0.2 0.5-0.5 0.6q-0.1 0-0.1 0z"/>
				<path id="&lt;Path&gt;" class="s6" d="m1015.3 419.5c-0.1 0-0.3-0.1-0.4-0.3-0.2-0.3-0.1-0.6 0.2-0.7l15.9-8.8 0.3 0.4c2.2 3.8 5.4 6.1 9.4 7 11.6 2.6 26.8-7.8 26.9-7.9 0.3-0.2 0.6-0.1 0.8 0.1 0.1 0.3 0.1 0.6-0.2 0.8-0.6 0.4-15.7 10.7-27.8 8.1-4.1-1-7.4-3.3-9.7-7.1l-15.1 8.3q-0.1 0.1-0.3 0.1z"/>
			</g>
			<path id="&lt;Path&gt;" class="s15" d="m1091.8 731.5l-21.1-315.8c2.6-1 4.5-3.6 4.5-6.6 0-3.9-3.2-7.1-7.2-7.1-3.9 0-7.1 3.2-7.1 7.1 0 2.9 1.8 5.5 4.3 6.6l-1.8 26.5-4.8 72.9-14.6 216.4z"/>
			<path id="&lt;Path&gt;" class="s6" d="m1044 730.9q0 0 0 0c-0.3 0-0.5-0.3-0.5-0.6l14.5-215.2 4.9-72.9c0-0.3 0.3-0.6 0.6-0.5 0.3 0 0.5 0.2 0.5 0.5l-4.9 72.9-14.5 215.3c0 0.3-0.3 0.5-0.6 0.5z"/>
			<path id="&lt;Path&gt;" class="s6" d="m1091.8 732c-0.2 0-0.5-0.2-0.5-0.5l-21.2-316.1 0.4-0.2c2.5-1 4.1-3.4 4.1-6.1 0-0.3 0.3-0.5 0.6-0.5 0.3 0 0.5 0.2 0.5 0.5 0 3-1.8 5.7-4.5 7l21.2 315.3c0 0.3-0.2 0.6-0.5 0.6q0 0-0.1 0z"/>
			<path id="&lt;Compound Path&gt;" class="s7" d="m1067.9 346.4q-1.5 0-3.1 0.1c-1.6 2.9-3 6.1-4.2 9.3q3.6-0.5 7.3-0.5c6.4 0 12.6 1.1 18.3 3.2l0.2-9.3c-5.9-1.8-12.1-2.8-18.5-2.8zm49.6 82.9c-3.4 8.2-8.8 15.4-15.6 21l8 4.8c5.5-5 10.1-11 13.6-17.7-1.8-2.7-3.8-5.5-6-8.1zm-110.3-5.9c1.8 7.4 4.9 14.3 9 20.4 3.4-0.1 6.8-0.5 10.2-1.1-5.5-6.8-9.4-14.9-11.1-23.8z"/>
			<path id="&lt;Path&gt;" class="s3" d="m1072.4 409.1c0 2.5-2 4.5-4.5 4.5-2.5 0-4.5-2-4.5-4.5 0-2.5 2-4.5 4.5-4.5 2.5 0 4.5 2 4.5 4.5z"/>
		</g>
		<g id="&lt;Group&gt;">
			<g id="&lt;Group&gt;">
				<path id="&lt;Path&gt;" class="s15" d="m252 435.4l-29.7-17.9-9.1-5.5-16.8-10.1c11.6-20.3-21.8-36.1-21.8-36.1 27-1.8 44.7 8.8 56.3 22.3 2.6 3 4.9 6.1 6.8 9.3 11.7 18.5 14.3 38 14.3 38z"/>
				<path id="&lt;Path&gt;" class="s1" d="m196.2 264.1l-0.6 33.1-0.2 10.5-0.4 21.2c-23.3 0.2-20.4 36.9-20.4 36.9-15.4-22.9-14.7-44.1-8.3-61.1 1.4-3.7 3-7.3 4.8-10.6 10.1-18.5 25.1-30 25.1-30z"/>
				<path id="&lt;Path&gt;" class="s15" d="m196.2 264.1l-0.6 33.1-0.2 10.5-0.4 21.2c-23.3 0.2-20.4 36.9-20.4 36.9-15.4-22.9-14.7-44.1-8.3-61.1 1.4-3.7 3-7.3 4.8-10.6 10.1-18.5 25.1-30 25.1-30z"/>
				<path id="&lt;Path&gt;" class="s15" d="m174.6 365.8c-11.8 24.2-29.7 34.2-47.1 37.6-3.9 0.7-7.8 1.1-11.6 1.3-21.9 0.9-40.2-6.7-40.2-6.7l29.9-16.5 9.3-5.1 17.6-9.7c11.8 20.1 42.1-0.9 42.1-0.9z"/>
				<path id="&lt;Path&gt;" class="s6" d="m213.2 412.5q-0.2 0.1-0.3 0l-17.2-10.4 0.3-0.5c2.4-4.3 3-8.7 1.6-13.2-4.1-12.9-23-22-23.2-22.1-0.3-0.1-0.4-0.4-0.2-0.7 0.1-0.3 0.4-0.4 0.7-0.2 0.8 0.3 19.5 9.3 23.7 22.7 1.4 4.6 0.9 9.2-1.5 13.6l16.4 9.9c0.2 0.1 0.3 0.4 0.1 0.7-0.1 0.2-0.2 0.2-0.4 0.2z"/>
				<path id="&lt;Path&gt;" class="s6" d="m174.6 366.4c-0.2 0-0.5-0.2-0.5-0.5-0.1-0.9-1.6-21.6 7.8-31.9 3.3-3.6 7.5-5.4 12.6-5.6l0.4-20.7c0-0.3 0.2-0.5 0.5-0.5 0.3 0 0.5 0.3 0.5 0.6l-0.4 21.7h-0.5c-5 0-9.1 1.8-12.3 5.2-9.1 10-7.6 30.9-7.5 31.1 0 0.3-0.2 0.5-0.5 0.6q0 0-0.1 0z"/>
				<path id="&lt;Path&gt;" class="s6" d="m114.9 376.9c-0.2 0-0.4-0.1-0.5-0.2-0.1-0.3 0-0.6 0.2-0.8l18.1-9.9 0.3 0.4c2.5 4.3 6.1 7 10.6 8 13.2 2.9 30.6-8.9 30.7-9 0.3-0.2 0.6-0.1 0.8 0.1 0.1 0.3 0.1 0.6-0.2 0.8-0.7 0.5-17.8 12.2-31.5 9.1-4.7-1-8.4-3.7-11.1-8l-17.2 9.5q-0.1 0-0.2 0z"/>
			</g>
			<path id="&lt;Path&gt;" class="s15" d="m201.8 731.5l-24-358.8c2.9-1.1 5.1-4.1 5.1-7.5 0-4.4-3.7-8.1-8.1-8.1-4.5 0-8.1 3.7-8.1 8.1 0 3.4 2 6.2 4.9 7.5l-2.1 30.1-5.5 82.8-16.5 245.9z"/>
			<path id="&lt;Path&gt;" class="s6" d="m147.5 732q0 0 0 0c-0.3 0-0.5-0.3-0.5-0.6l22-328.6c0-0.3 0.3-0.5 0.6-0.5 0.3 0 0.5 0.3 0.5 0.6l-22.1 328.6c0 0.3-0.2 0.5-0.5 0.5z"/>
			<path id="&lt;Path&gt;" class="s6" d="m201.8 732c-0.3 0-0.5-0.2-0.5-0.5l-24.1-359.1 0.4-0.1c2.9-1.2 4.7-4 4.7-7.1 0-0.3 0.3-0.5 0.6-0.5 0.2 0 0.5 0.2 0.5 0.5 0 3.4-2 6.5-5.1 7.9l24 358.3c0 0.3-0.2 0.6-0.5 0.6q0 0 0 0z"/>
			<path id="&lt;Compound Path&gt;" class="s7" d="m174.7 294q-1.8 0-3.6 0.1c-1.8 3.3-3.4 6.9-4.8 10.6q4.1-0.6 8.4-0.6c7.2 0 14.2 1.3 20.7 3.6l0.2-10.5c-6.6-2.1-13.7-3.2-20.9-3.2zm56.2 94.1c-3.8 9.4-10 17.6-17.7 23.9l9.1 5.5c6.3-5.7 11.5-12.5 15.4-20.1-1.9-3.2-4.2-6.3-6.8-9.3zm-125.3-6.6c2.1 8.4 5.6 16.2 10.3 23.2 3.8-0.2 7.7-0.6 11.6-1.3-6.3-7.7-10.7-16.9-12.6-27z"/>
			<path id="&lt;Path&gt;" class="s3" d="m179.1 365.2c0 2.6-2.1 4.8-4.8 4.8-2.6 0-4.8-2.2-4.8-4.8 0-2.7 2.2-4.8 4.8-4.8 2.7 0 4.8 2.1 4.8 4.8z"/>
		</g>
		<g id="&lt;Group&gt;">
			<path id="&lt;Path&gt;" class="s19" d="m777.7 616.4c0 60.7 18 69.8 40.1 69.8 22.2 0 40.2-9.1 40.2-69.8 0-27.5-3.7-60.9-9.8-89.2-3-14.2-6.7-27.1-10.8-37.4-5.8-14.4-12.5-23.6-19.6-23.6-22.1 0-40.1 89.4-40.1 150.2z"/>
			<path id="&lt;Path&gt;" class="s6" d="m848.2 527.7c-0.2 0-0.4-0.1-0.5-0.4-3.2-14.8-6.8-27.4-10.8-37.3-6.1-15.2-12.7-23.2-19.1-23.2-0.2 0-0.5-0.3-0.5-0.6 0-0.2 0.3-0.5 0.5-0.5 7 0 13.7 8.1 20.1 23.9 4 10 7.6 22.6 10.9 37.5 0 0.3-0.2 0.5-0.4 0.6q-0.1 0-0.2 0z"/>
			<path id="&lt;Path&gt;" class="s6" d="m817 596.9c-6 0-10.6-2-13.7-6-9-11.6-2.3-35.8-2-36.8 0.2-0.5 0.8-0.9 1.3-0.7 0.6 0.1 0.9 0.7 0.7 1.3 0 0.2-6.7 24.1 1.7 34.9 2.8 3.6 7.1 5.4 12.8 5.2 0.6 0 1.1 0.5 1.1 1.1 0 0.5-0.4 1-1 1q-0.4 0-0.9 0z"/>
			<path id="&lt;Path&gt;" class="s7" d="m834.3 509.8c0 0 7.4-1.1 4.7-7.2 0 0-6.2 0.4-4.7 7.2z"/>
			<path id="&lt;Path&gt;" class="s7" d="m838.9 513.1c0 0 10.3 5.9 13-4.2 0 0-8.1-5.9-13 4.2z"/>
			<path id="&lt;Path&gt;" class="s7" d="m794.8 521.2c0 0-1.4 12.4 9.7 10.7 0 0 2.1-10.4-9.7-10.7z"/>
			<path id="&lt;Path&gt;" class="s7" d="m831.5 589.9c0 0 9.5-1.8 5.7-9.6 0 0-8.1 0.8-5.7 9.6z"/>
			<path id="&lt;Path&gt;" class="s7" d="m831.9 648.6c0 0 1.1 16.6 15.1 11.8 0 0 0.3-14.1-15.1-11.8z"/>
			<path id="&lt;Path&gt;" class="s7" d="m808.7 492.9c0 0-1.1 6.6 4.9 6 0 0 1.4-5.5-4.9-6z"/>
			<path id="&lt;Path&gt;" class="s6" d="m817.8 733.1c-0.5 0-1-0.5-1-1.1v-198.6c0-0.6 0.5-1 1-1 0.6 0 1.1 0.4 1.1 1v198.6c0 0.6-0.5 1.1-1.1 1.1z"/>
			<path id="&lt;Path&gt;" class="s6" d="m819.6 634.3q-0.9 0-1.8-0.1c-0.6 0-1-0.5-1-1.1 0-0.6 0.5-1 1.1-1 6.7 0.4 11.6-1.3 14.6-4.9 5.9-7.1 3-19.2 3-19.4-0.1-0.5 0.2-1.1 0.8-1.2 0.5-0.2 1.1 0.2 1.3 0.7 0.1 0.6 3.1 13.4-3.4 21.2-3.2 3.8-8.1 5.8-14.6 5.8z"/>
			<path id="&lt;Path&gt;" class="s6" d="m818.3 560.9q-0.2 0-0.5 0c-0.6 0-1-0.5-1-1.1 0-0.6 0.5-1 1-1q0.1 0 0.1 0c5.6 0.1 9.6-1.4 11.8-4.4 3.8-5.1 1.4-13.2 1.4-13.2-0.2-0.6 0.1-1.2 0.6-1.4 0.6-0.1 1.2 0.2 1.4 0.7 0.1 0.4 2.8 9.2-1.7 15.2-2.6 3.4-7 5.2-13.1 5.2z"/>
		</g>
		<g id="&lt;Group&gt;">
			<path id="&lt;Path&gt;" class="s19" d="m695.1 622.7c0 39.3 24.5 71.1 54.8 71.1 30.2 0 54.8-31.8 54.8-71.1 0-39.3-24.6-71.1-54.8-71.1-30.3 0-54.8 31.8-54.8 71.1z"/>
			<path id="&lt;Path&gt;" class="s6" d="m769.8 689.5c-0.2 0-0.4-0.1-0.5-0.3-0.1-0.3 0-0.6 0.3-0.7 21-10.7 34.5-36.5 34.5-65.8 0-18.6-5.4-36.1-15.4-49.4-0.2-0.2-0.2-0.5 0.1-0.7 0.2-0.2 0.5-0.1 0.7 0.1 10.1 13.5 15.7 31.2 15.7 50 0 29.7-13.8 55.9-35.2 66.7q-0.1 0.1-0.2 0.1z"/>
			<path id="&lt;Path&gt;" class="s6" d="m749.9 733c-0.6 0-1.1-0.5-1.1-1.1v-116.3c0-0.6 0.5-1 1.1-1 0.6 0 1 0.4 1 1v116.3c0 0.6-0.4 1.1-1 1.1z"/>
			<path id="&lt;Path&gt;" class="s6" d="m748.9 659.9c-4.7 0-8.5-1.5-11.3-4.5-6.7-7.1-5.4-19.8-5.3-20.3 0-0.6 0.5-1 1.1-1 0.6 0.1 1 0.6 1 1.2-0.1 0.1-1.3 12.3 4.7 18.6 2.6 2.8 6.2 4.1 10.7 3.9 0.6-0.1 1.1 0.4 1.1 1 0.1 0.5-0.4 1-1 1.1q-0.5 0-1 0z"/>
			<path id="&lt;Path&gt;" class="s6" d="m753.5 644.5q-1.8 0-3.8-0.3c-0.6-0.1-1-0.7-0.9-1.2 0.1-0.6 0.7-1 1.2-0.9 5.1 0.8 8.9-0.1 11.4-2.7 6-6.1 3.6-19.6 3.5-19.7-0.1-0.6 0.3-1.1 0.9-1.2 0.6-0.1 1.1 0.2 1.2 0.8 0.1 0.6 2.7 14.7-4.1 21.6q-3.5 3.6-9.4 3.6z"/>
			<path id="&lt;Path&gt;" class="s7" d="m775.2 604.4c0 0 6.3 1.9 6.5-4 0 0-5.2-2.1-6.5 4z"/>
			<path id="&lt;Path&gt;" class="s7" d="m713 610.9c0 0 1.4 10.3 10 6.7 0 0-0.4-8.8-10-6.7z"/>
			<path id="&lt;Path&gt;" class="s7" d="m776.1 609.6c0 0 5.9 8.6 11.9 1.5 0 0-4.3-7.7-11.9-1.5z"/>
			<path id="&lt;Path&gt;" class="s7" d="m713.1 562.2c0 0-1.8 13.9 10.5 12.2 0 0 2.7-11.5-10.5-12.2z"/>
		</g>
		<g id="&lt;Group&gt;">
			<path id="&lt;Path&gt;" class="s7" d="m246.7 700.1q1.3 0 2.5 0.1 0-0.5 0-1c0-6.7 1.1-13.2 3.3-19.2-3.5-2.5-5.8-6.6-5.8-11.1 0-7.6 6.2-13.8 13.8-13.8 2.5 0 4.9 0.7 6.9 1.9 10.4-9.8 24.4-15.8 39.8-15.8 19.6 0 37 9.8 47.5 24.8 7.2-9.1 18.2-14.9 30.7-14.9 16.1 0 29.8 9.6 35.9 23.4 3.5-1.8 7.4-2.8 11.5-2.8 14.1 0 25.5 11.4 25.5 25.5q0 0.3-0.1 0.6c2.8-1.3 5.9-1.9 9.1-1.9 5.8 0 11.1 2.2 15.1 5.8 7.9-6.8 18.2-10.8 29.4-10.8 23.5 0 42.9 17.9 45.2 40.9h-71.5-18.2-0.8-17.4-56-11.2-26.7-41.8-28.4-25.8-50.7c3.4-18 19.2-31.7 38.2-31.7z"/>
			<path id="&lt;Path&gt;" class="s6" d="m557 732.3c-0.2 0-0.4-0.2-0.5-0.5-2.3-23-21.5-40.4-44.7-40.4-10.7 0-21 3.8-29.1 10.7l-0.3 0.3-0.4-0.4c-4-3.6-9.3-5.6-14.7-5.6-0.3 0-0.5-0.2-0.5-0.5 0-0.3 0.2-0.6 0.5-0.6 5.5 0 10.9 2 15.1 5.7 8.2-6.9 18.6-10.7 29.4-10.7 23.7 0 43.4 17.8 45.8 41.4 0 0.3-0.2 0.6-0.5 0.6q0 0-0.1 0z"/>
		</g>
		<g id="&lt;Group&gt;">
			<path id="&lt;Path&gt;" class="s19" d="m331.9 571.1c0 57.7-36.1 104.6-80.6 104.6-44.5 0-80.6-46.9-80.6-104.6 0-57.8 36.1-104.7 80.6-104.7 44.5 0 80.6 46.9 80.6 104.7z"/>
			<path id="&lt;Path&gt;" class="s6" d="m214 664.4q-0.1 0-0.3-0.1c-26.8-18.2-43.6-53.9-43.6-93.2 0-58 36.4-105.2 81.2-105.2 0.3 0 0.5 0.3 0.5 0.5 0 0.3-0.2 0.6-0.5 0.6-44.2 0-80.1 46.7-80.1 104.1 0 38.9 16.5 74.3 43.1 92.3 0.3 0.2 0.3 0.5 0.2 0.8q-0.2 0.2-0.5 0.2z"/>
			<path id="&lt;Path&gt;" class="s6" d="m251.3 732.8c-0.6 0-1.1-0.5-1.1-1.1v-171c0-0.6 0.5-1.1 1.1-1.1 0.6 0 1 0.5 1 1.1v171c0 0.6-0.4 1.1-1 1.1z"/>
			<path id="&lt;Path&gt;" class="s6" d="m252.7 625.3q-0.7 0-1.5 0c-0.5-0.1-1-0.6-1-1.1 0.1-0.6 0.6-1.1 1.1-1 6.9 0.3 12.3-1.7 16.2-5.8 9-9.5 7.1-27.7 7.1-27.8 0-0.6 0.4-1.1 0.9-1.2 0.6-0.1 1.1 0.4 1.2 0.9 0.1 0.8 1.9 19.3-7.7 29.5-4 4.3-9.5 6.5-16.3 6.5z"/>
			<path id="&lt;Path&gt;" class="s6" d="m246 602.7c-5.7 0-10.2-1.8-13.6-5.2-9.7-9.9-6-30.4-5.8-31.3 0.1-0.6 0.6-1 1.2-0.8 0.6 0.1 0.9 0.6 0.8 1.2 0 0.2-3.7 20.3 5.3 29.4 3.9 4 9.7 5.4 17.2 4.1 0.6-0.1 1.1 0.3 1.2 0.9 0.1 0.5-0.3 1.1-0.8 1.2q-2.9 0.5-5.5 0.5z"/>
			<path id="&lt;Path&gt;" class="s7" d="m214 542.6c0 0-10.2 3.1-10.5-6.4 0 0 8.4-3.4 10.5 6.4z"/>
			<path id="&lt;Path&gt;" class="s7" d="m305.5 553.7c0 0-2 15.2-14.6 9.9 0 0 0.5-12.9 14.6-9.9z"/>
			<path id="&lt;Path&gt;" class="s7" d="m222.9 635.4c0 0-2.5 18.4-17.7 12 0 0 0.6-15.7 17.7-12z"/>
			<path id="&lt;Path&gt;" class="s7" d="m212.5 551.2c0 0-9.6 13.9-19.4 2.4 0 0 7-12.5 19.4-2.4z"/>
			<path id="&lt;Path&gt;" class="s7" d="m305.4 482.1c0 0 2.7 20.4-15.5 18 0 0-3.9-17 15.5-18z"/>
		</g>
		<g id="&lt;Group&gt;">
			<path id="&lt;Path&gt;" class="s3" d="m339.8 731.5h-14.7v-78.5h14.7z"/>
			<path id="&lt;Path&gt;" class="s1" d="m373.7 698.8h-134.7l49.2-96.1h134.6z"/>
			<path id="&lt;Path&gt;" class="s2" d="m282.7 699.1h-15.9l48.8-96.4h15.9z"/>
			<path id="&lt;Path&gt;" class="s2" d="m333.1 699.1h-6.2l48.8-96.4h6.2z"/>
			<path id="&lt;Path&gt;" class="s2" d="m320.2 699.1h-25.5l48.8-96.4h25.5z"/>
			<path id="&lt;Compound Path&gt;" fill-rule="evenodd" class="s3" d="m374.6 699.9h-135.6c-0.3 0-0.7-0.2-0.9-0.5-0.1-0.4-0.2-0.7 0-1.1l48.8-96.1c0.2-0.4 0.6-0.6 1-0.6h134.9c0.4 0 0.7 0.2 0.9 0.5 0.2 0.3 0.2 0.7 0.1 1l-48.3 96.2c-0.1 0.3-0.5 0.6-0.9 0.6zm-133.8-2.1h133.1l47.2-94.1h-132.6z"/>
			<path id="&lt;Path&gt;" class="s3" d="m266.9 699.3l-1.9-1 48.9-96.1 1.8 0.9z"/>
			<path id="&lt;Path&gt;" class="s3" d="m293.8 699.3l-1.8-1 48.8-96.1 1.9 0.9z"/>
			<path id="&lt;Path&gt;" class="s3" d="m320.3 699l-1-0.4 46.5-91.5 1 0.4z"/>
			<path id="&lt;Path&gt;" class="s3" d="m320.8 699.3l-1.9-1 48.8-96.1 1.9 0.9z"/>
			<path id="&lt;Path&gt;" class="s3" d="m347.7 699.3l-1.9-1 48.8-96.1 1.9 0.9z"/>
			<path id="&lt;Path&gt;" class="s3" d="m413.2 622.9h-135.1v-2.1h135.1z"/>
			<path id="&lt;Path&gt;" class="s3" d="m403.5 642.2h-135.6v-2.1h135.6z"/>
			<path id="&lt;Path&gt;" class="s3" d="m393.9 661.4h-135.2v-2.1h135.2z"/>
			<path id="&lt;Path&gt;" class="s3" d="m384.2 680.6h-135.3v-2.1h135.3z"/>
			<g id="&lt;Group&gt;">
				<path id="&lt;Path&gt;" class="s14" d="m395 602.2l-5.5-13.8-5.5 13.8-13.4 5.1 13.2 4.2 5.7 14.7 5.7-14.7 13.2-4.2z"/>
				<path id="&lt;Path&gt;" class="s6" d="m389.5 626.7q-0.1 0-0.2 0c-0.3-0.1-0.4-0.4-0.3-0.7l5.8-14.9 13.4-4.3c0.3-0.1 0.6 0.1 0.7 0.3 0.1 0.3-0.1 0.6-0.3 0.7l-13 4.1-5.6 14.5c-0.1 0.2-0.3 0.3-0.5 0.3z"/>
			</g>
			<g id="&lt;Group&gt;">
				<path id="&lt;Path&gt;" class="s14" d="m272.6 639.3l-2.6-6.5-2.6 6.5-6.3 2.4 6.2 2 2.7 6.9 2.7-6.9 6.2-2z"/>
				<path id="&lt;Path&gt;" class="s6" d="m270 651.1q-0.1 0-0.2 0c-0.2-0.1-0.4-0.4-0.3-0.7l2.8-7.1 6.5-2.1c0.2-0.1 0.5 0.1 0.6 0.3 0.1 0.3 0 0.6-0.3 0.7l-6 1.9-2.6 6.7c-0.1 0.2-0.3 0.3-0.5 0.3z"/>
			</g>
			<g id="&lt;Group&gt;">
				<path id="&lt;Path&gt;" class="s14" d="m305.7 673.6l-3.9-9.8-3.9 9.8-9.6 3.7 9.4 3 4.1 10.4 4.1-10.4 9.4-3z"/>
				<path id="&lt;Path&gt;" class="s6" d="m301.8 691.3q-0.1 0-0.2-0.1c-0.3-0.1-0.4-0.4-0.3-0.6l4.2-10.7 9.6-3.1c0.3-0.1 0.6 0 0.7 0.3 0.1 0.3-0.1 0.6-0.4 0.7l-9.1 2.9-4 10.2c-0.1 0.2-0.3 0.4-0.5 0.4z"/>
			</g>
			<path id="&lt;Path&gt;" class="s6" d="m365.4 700.2h-51.9c-0.2 0-0.5-0.3-0.5-0.6 0-0.3 0.3-0.5 0.5-0.5h51.9c0.3 0 0.6 0.2 0.6 0.5 0 0.3-0.3 0.6-0.6 0.6z"/>
			<path id="&lt;Path&gt;" class="s6" d="m328.6 602.3h-40.3c-0.3 0-0.5-0.3-0.5-0.6 0-0.2 0.2-0.5 0.5-0.5h40.3c0.3 0 0.5 0.3 0.5 0.5 0 0.3-0.2 0.6-0.5 0.6z"/>
		</g>
		<g id="&lt;Group&gt;">
			<path id="&lt;Path&gt;" class="s6" d="m1086.4 733.3h-92c-0.6 0-1-0.5-1-1.1 0-0.6 0.4-1 1-1h92c0.5 0 1 0.4 1 1 0 0.6-0.5 1.1-1 1.1z"/>
			<path id="&lt;Path&gt;" class="s6" d="m96 733.3h-11.3c-0.5 0-1-0.5-1-1.1 0-0.6 0.5-1 1-1h11.3c0.6 0 1 0.4 1 1 0 0.6-0.4 1.1-1 1.1z"/>
			<path id="&lt;Path&gt;" class="s6" d="m932.1 733.3h-817.6c-0.6 0-1.1-0.5-1.1-1.1 0-0.6 0.5-1 1.1-1h817.6c0.6 0 1.1 0.4 1.1 1 0 0.6-0.5 1.1-1.1 1.1z"/>
		</g>
	</g>
</svg>